<svg width="749" height="446" viewBox="0 0 749 446" fill="none" xmlns="http://www.w3.org/2000/svg">
<path d="M477.518 313.047C478.346 312.034 479.173 311.021 480.335 309.609C486.013 308.948 490.122 308.471 494.23 307.994L491.835 309.093L491.698 308.571M370.771 39.1017C362.878 40.7928 364.985 42.0343 359.989 43.9132C359.435 43.7345 358.842 43.5578 358.25 43.3811M129.306 127.078C127.089 128.643 124.884 130.211 122.958 131.574C123.213 132.556 126.718 131.547 121.8 135.167M720.195 161.183C721.212 160.681 722.225 160.149 722.887 159.772C726.098 155.546 728.564 151.91 731.051 147.802C731.831 144.762 730.076 146.658 728.477 148.309C726.844 149.949 725.287 151.318 726.538 147.698C723.651 150.285 720.383 156.56 716.713 161.581M7.37035 264.642C6.86676 265.731 6.47637 266.857 6.01488 268.017C6.10025 269.69 6.26713 271.249 6.29774 272.721C6.44109 274.188 6.44092 275.595 6.54535 276.936C6.6534 278.265 6.7085 279.563 6.74456 280.84C6.74306 282.12 6.93623 283.321 6.99811 284.551M439.21 21.3994C441.09 21.0768 442.974 20.7413 446.051 20.1996C441.484 19.2347 452.366 16.8327 452.101 15.1859C451.323 15.1884 449.732 15.1824 448.141 15.1764L446.653 15.5972L447.716 16.5161M358.552 429.85L355.936 429.275L356.013 429.004C358.708 429.296 361.421 429.481 364.096 429.71C367.486 430.605 370.578 431.418 373.247 432.109C376.582 432.409 379.558 432.623 382.252 432.787C383.209 432.631 384.125 432.49 385.056 432.34M710.494 38.9537C709.5 38.1413 708.492 37.3382 707.442 36.5923L706.424 36.2641C707.112 37.0204 707.823 37.7416 708.485 38.5035L710.465 40.815L710.781 40.5231C713.856 42.5826 716.895 44.771 719.863 47.4291C720.198 48.5216 720.358 49.0512 720.518 49.5809M379.915 440.966C383.983 441.995 388.253 442.611 392.811 442.645C392.909 442.648 393.373 442.798 393.558 442.885C393.667 442.935 393.566 442.987 393.563 443.042M482.403 9.91117C481.87 10.4007 481.349 10.8939 480.597 11.594C479.161 11.9612 476.634 12.6945 473.452 13.6104C471.766 13.8127 469.047 14.1324 466.572 14.4183C465.216 13.8408 473.234 11.1773 462.127 12.9302C461.837 13.5681 459.86 14.3659 458.375 15.1254C456.898 15.9015 455.928 16.6298 457.613 17.0461M704.632 178.66C706.757 176.897 708.877 175.105 711.47 172.775C711.949 171.509 712.311 170.571 712.677 169.62M10.2537 251.745C10.2928 250.463 10.3016 249.158 10.4254 247.355C11.7057 244.336 12.9148 242.053 13.3495 241.208C14.2188 241.629 14.8689 241.951 15.519 242.273C15.2233 242.754 14.8696 243.442 14.4783 244.132M746.842 81.4933C746.559 81.0928 746.292 80.6831 745.707 79.8198C745.834 78.3135 745.83 77.5384 745.89 76.4466C745.018 74.3654 743.95 72.5445 743.002 70.7342M733.84 146.745C734.596 146.735 735.352 146.726 736.292 146.719C737.79 142.307 738.625 138.807 739.649 134.987C739.951 133.65 740.796 131.475 741.319 129.66M293.305 418.875C295.702 419.085 298.107 419.311 300.828 419.555C302.271 420.835 303.208 421.672 304.275 422.62C305.911 422.725 307.454 422.814 308.982 422.913M493.245 311.193C494.059 311.062 494.913 311.055 495.696 310.773C498.819 309.627 501.912 308.373 505.016 307.165M626.451 3.99055C623.597 4.30888 620.759 4.78731 617.782 5.2349C618.898 5.43939 619.73 5.59507 620.559 5.76365M77.6666 357.542C77.7327 357.395 77.7875 357.244 77.8609 357.07C81.2672 358.829 83.8036 361.53 86.895 361.949C87.7983 360.975 88.4526 360.271 89.0956 359.564L90.4144 360.186L89.6459 358.264M574.754 271.259C576.067 270.979 577.377 270.711 579.954 270.149C580.341 269.078 580.516 268.586 580.692 268.094M295.026 427.292C296.784 427.845 298.524 428.419 301.175 429.175C303.322 428.825 305.278 428.499 307.233 428.172M691.221 193.455C690.521 194.495 689.814 195.519 688.992 196.731C687.049 197.849 685.636 198.66 684.22 199.484L684.18 199.977C682.705 201.317 681.276 202.713 679.767 203.999L675.213 207.821M143.856 383.041C138.731 381.601 133.696 380.106 132.98 381.422C132.755 381.828 129.054 380.987 126.9 380.701C130.358 382.716 131.714 382.196 133.808 382.561M594.678 2.77141L593.361 2.00978L595.606 2.05786L593.994 3.14176L592.595 3.11308L597 6.14954M278.426 69.8493C278.235 70.3083 278.052 70.7838 277.821 71.3423C276.051 71.799 275.001 72.0656 272.77 72.6268C274.639 71.5973 276.123 70.7955 277.6 69.9771M701.492 28.2475C700.739 27.4565 699.997 26.6267 699.317 25.9717C696.502 24.657 693.968 23.5734 691.287 22.527C690.156 21.8531 689.058 21.1902 687.961 20.5273C686.853 19.903 685.733 19.2751 684.576 18.6492C683.404 18.0325 682.179 17.427 680.857 16.8605C679.509 16.342 678.061 15.8753 676.454 15.4423C674.815 14.3797 673.186 13.2362 671.499 12.2566M34.548 325.143L33.6624 324.956C33.1849 324.239 32.7146 323.497 32.2777 322.723C29.6431 319.624 24.901 315.284 23.3571 311.509C22.866 310.226 22.2305 308.797 21.6711 307.45M71.2897 355.727C70.0211 355.586 68.7417 355.483 66.7233 355.199C68.8548 356.223 69.7951 356.61 70.7019 357.029C70.7811 357.054 70.8404 356.975 70.7418 356.887C70.5973 356.742 70.3207 356.54 70.0858 356.366M14.0088 291.802C13.5903 289.558 13.1527 287.293 12.3661 285.084C11.8117 282.796 10.9269 280.542 10.4391 278.148M40.4965 192.82C43.9812 189.906 47.5093 187.54 51.0915 183.532M536.357 12.9729C533.381 13.1112 530.393 13.2459 526.905 13.4024C526.836 13.6051 526.759 13.8336 526.672 14.0585M402.755 26.5206C404.651 26.2734 406.488 26.1055 408.455 25.7827C414.085 24.8959 419.826 24.4948 425.319 22.2977M290.152 422.501C289.445 423.258 289.989 424.179 293.669 425.533C295.236 426.108 296.438 426.706 298.749 427.704C300.384 427.246 301.925 426.814 303.48 426.373L301.986 425.891C300.291 425.95 298.596 426.009 296.916 426.016M509.16 303.436C502.946 305.303 505.48 303.137 504.082 302.799C502.796 302.498 503.195 301.473 507.156 299.457C507.717 299.174 507.101 298.947 507.038 298.688M257.339 413.338C258.44 413.327 260.678 413.401 260.485 413.297C257.987 412.042 255.135 410.772 252.384 409.492M630.858 238.992C630.704 238.661 630.546 238.343 630.385 237.995C629.015 238.918 627.827 239.717 626.715 240.47C625.591 241.177 624.545 241.825 623.514 242.463L623.123 242.14C624.554 241.265 626.023 240.473 627.431 239.548M722.177 43.5894C722.683 44.5119 723.215 45.3865 723.719 46.4066C724.222 47.4267 724.764 48.5296 725.394 49.8015C726.633 50.7493 727.783 51.7103 728.928 52.6419C730.018 53.6399 731.066 54.6104 732.114 55.581C733.34 57.3683 734.709 59.2159 735.855 61.2447M26.2148 312.148C27.0129 313.657 27.8371 315.16 28.7511 316.608C29.6351 318.074 30.5382 319.561 31.5268 320.962M647.452 234.491C650.694 231.781 653.99 229.185 657.596 226.015C658.428 225.34 659.949 224.1 661.455 222.869C661.712 222.657 662.047 222.301 662.024 222.251C662 222.201 661.567 222.47 661.32 222.601M11.9383 290.995L13.2715 292.268L12.7311 290.589C11.665 289.683 11.0109 288.628 10.1595 286.343C9.76758 285.19 9.47708 283.676 9.073 281.731C8.83723 280.769 8.81021 279.635 8.65415 278.389C8.52436 277.138 8.36697 275.765 8.3581 274.215M740.411 107.805C741.4 104.945 742.275 102.006 743.001 98.8927C743.023 98.8153 742.952 97.7515 742.848 96.8037C742.357 96.9691 741.84 97.1401 741.218 97.3335C741.323 98.366 741.304 99.4007 741.344 100.398C741.359 101.402 741.433 102.41 741.384 103.421M574.55 270.673C571.763 271.322 568.988 271.975 565.54 272.651C567.198 271.624 568.585 270.819 569.933 269.931M278.637 418.145C281.816 420.14 285.435 419.913 288.935 420.281M340.742 47.798C342.414 47.6896 344.085 47.5388 345.833 47.4689C344.722 47.9971 343.686 48.5213 342.65 49.0456M128.331 137.355C126.635 138.384 124.915 139.364 121.923 141.227C129.276 138.518 130.169 138.06 131.4 136.051M397.102 27.4847C393.605 28.1585 390.108 28.8324 386.739 29.4911C386.01 29.8892 385.168 30.3355 384.335 30.7984M309.266 421.33L318.86 422.634L328.482 423.793M251.932 411.54L241.96 407.976M488.902 310.92L496.367 310.047M565.121 281.827C567.222 281.027 569.315 280.21 572.607 278.95C574.673 277.351 577.265 275.331 579.868 273.314M266.388 72.6246C265.867 73.1601 265.335 73.692 264.751 74.2774C262.797 75.1249 260.503 76.13 258.223 77.1258M388.962 33.7936C390.854 33.517 392.735 33.2367 395.066 32.8906C393.282 33.8351 391.544 34.7519 389.424 35.8834C390.986 35.6833 392.165 35.5286 396.108 35.0264C393.784 35.7407 392.42 36.1593 391.056 36.5778M507.321 296.585C510.453 295.54 513.605 294.516 516.679 293.326C522.918 290.933 529.075 288.303 536.794 285.079C537.3 284.947 539.363 284.458 541.462 283.883C546.214 279.843 556.001 277.342 562.462 273.628M628.132 3.67407L628.269 2.39605L625.124 1.90343C621.992 2.63869 618.873 3.50464 615.784 4.30973M303.303 53.6567C304.052 54.4607 304.861 55.2276 305.528 56.0613C305.802 56.4029 305.743 56.8761 305.838 57.2864M233.294 413.216C236.952 414.211 240.61 415.249 244.282 416.15M603.575 4.31516C602.514 4.22648 601.453 4.1378 599.932 4.01376C599.921 4.40407 599.906 4.72261 599.885 5.19395C601.248 5.00001 601.995 4.88902 602.742 4.77804M55.668 182.615C56.3787 182.985 52.1603 187.983 60.067 181.543M545.08 290.294C544.547 289.729 543.084 290.411 541.435 291.23C539.789 292.036 537.968 292.983 536.739 293.008C537.844 291.972 539.181 290.729 540.506 289.482M117.712 374.043C115.1 372.442 112.85 370.789 108.025 369.642M539.515 10.474C538.795 10.7064 538.065 10.9352 537.21 11.2085C537.782 11.238 538.625 11.2703 539.93 11.3251C540.916 10.7144 541.828 10.15 542.728 9.58201M590.43 10.3346C588.965 9.04693 585.67 9.61703 582.382 10.1613M211.954 401.349C213.983 401.904 216.008 402.472 219.594 403.458C217.477 402.34 216.308 401.711 215.136 401.094L216.05 401.051C219.255 402.294 222.453 403.606 226.896 405.234C227.37 405.26 228.792 405.338 230.094 405.406C230.865 405.429 231.447 405.378 232.094 405.361C233.842 406.037 235.107 406.542 236.375 407.036M112.485 139.199C116.994 136.811 117.943 136.245 119.773 134.781M742.769 78.761C742.937 78.604 743.093 78.4433 743.313 78.2328C742.902 77.1442 742.544 76.3114 742.241 75.7215C741.9 75.1334 741.614 74.7883 741.402 74.6637C740.964 74.424 740.824 75.054 740.911 76.5449M726.811 148.616C727.61 147.045 728.409 145.474 729.401 143.304C729.413 142.604 729.416 141.804 729.422 140.99M285.735 61.838C282.124 62.7847 278.59 63.8544 275.635 65.6734M728.711 157.71C728.598 156.618 728.478 155.511 728.386 154.651C726.835 156.613 725.774 157.973 725.595 158.169C722.634 163.305 719.884 167.427 717.028 171.443C716.877 171.718 716.581 172.242 716.611 172.223C717.461 171.527 718.359 170.789 719.355 169.971C718.763 170.933 718.102 172.014 717.429 173.092M4.50667 285.38C5.19012 287.077 5.52235 287.915 5.72021 287.782C5.8882 287.667 5.93677 286.572 6.03481 284.466C6.58021 285.907 7.14461 287.369 7.86614 288.755C8.57272 290.15 9.17831 291.597 10.0158 292.921M279.498 60.7573L272.868 64.8524M480.709 312.233C481.993 311.704 483.303 311.169 484.558 310.659C486.118 309.98 487.623 309.326 489.157 308.653M587.125 271.249C588.47 270.726 589.817 270.19 591.3 269.612C589.774 270.696 588.494 271.606 587.042 272.643C593.216 270.131 593.759 268.899 594.738 267.569C594.76 267.534 595.261 267.288 595.456 267.21C595.759 267.096 596.007 267.05 596.277 266.968M226.543 89.5094C227.097 89.561 227.65 89.6127 229.054 89.7555C231.079 87.8621 232.516 86.5247 233.957 85.1744L232.764 85.4231C237.832 82.8499 242.899 80.2768 248.487 77.4351C246.934 77.8635 245.495 78.2436 244.063 78.6402M6.50201 240.536C7.25342 237.993 7.86797 236.728 8.18859 236.114C8.53547 235.494 8.6903 235.558 8.79803 235.79C9.02842 236.244 9.03555 237.273 10.112 234.891C11.1894 232.242 11.7963 230.961 12.6698 229.653C13.0914 228.987 13.6261 228.357 14.3321 227.558C15.038 226.759 15.9228 225.806 17.1508 224.598C16.3056 223.96 15.7257 223.52 15.1457 223.08L14.0689 224.717L13.3596 226.978M695.592 29.568C697.391 30.7663 699.066 32.0515 700.885 33.3546C702.761 34.7606 704.765 36.1939 706.616 37.7326M503.402 297.883C502.052 298.165 500.677 298.27 499.369 298.75C494.31 300.636 489.586 302.645 485.619 304.771M3.49667 253.83C2.76932 255.804 2.03473 257.803 1.45134 259.88C1.43135 260.478 1.38871 261.069 1.4063 261.666C1.68755 260.884 2.04804 260.128 2.59104 258.855C3.11697 260.234 2.68678 264.708 2.70017 270.24M386.309 32.7843C385.686 33.9903 389.12 34.4635 382.801 36.7037M369.098 430.14L378.729 431.09M304.649 424.232L313.479 425.402M90.4537 152.244C87.4354 154.113 85.0356 155.801 83.534 157.807C83.078 158.42 80.5555 160.237 79.0129 161.555M22.4865 312.41C19.4169 308.004 16.6865 303.312 14.1848 297.499C13.8859 297.684 13.6881 297.818 13.4753 297.96M644.629 14.1923C645.346 14.7607 646.485 15.0995 647.827 15.4193C649.169 15.739 650.746 15.966 652.358 16.1615M611.097 1.18213C607.539 1.10505 603.994 1.15864 600.441 1.19568M256.321 418.06C257.388 418.305 258.458 418.537 259.853 418.846C258.912 418.064 258.161 417.443 257.421 416.825M729.317 49.6727C728.488 49.0678 727.714 48.4388 726.87 47.8855L724.356 46.2459M278.393 69.6985L286.944 66.5878C289.799 65.5662 292.669 64.6201 295.538 63.6316L295.5 63.9005C300.641 61.942 305.759 59.8492 310.857 58.0455C311.061 57.7595 311.365 57.337 311.669 56.9145M701.841 25.5187C697.598 22.9143 693.245 20.5276 688.14 18.1376C688.036 17.8508 687.826 17.2348 687.602 16.628C692.783 18.3954 697.48 20.654 699.205 23.0381C700.326 23.4837 701.357 23.9002 702.374 24.3682M75.8227 357.694C73.4533 355.496 75.1022 355.338 79.5081 357.404C82.191 358.662 84.9381 359.955 87.655 361.224M740.393 82.257C740.733 83.1543 741.073 84.0516 741.421 84.9654C741.725 85.907 742.021 86.8744 742.343 87.8786C742.468 86.1182 742.588 84.6801 742.581 82.9901C742.011 80.978 741.19 78.7586 740.224 76.2672C739.973 78.1273 739.732 79.9064 739.405 81.6435M156.127 119.473L160.933 120.599L159.502 121.432C160.516 121.027 161.539 120.639 162.883 120.116C163.8 119.314 164.682 118.501 165.927 117.453C167.076 117.36 167.82 117.304 168.568 117.235M677.84 207.162C676.197 208.264 674.562 209.383 672.538 210.743C671.471 211.904 670.319 213.15 668.884 214.7C667.389 215.146 665.813 215.525 664.276 215.944M24.8268 322.447C28.108 325.529 31.5667 328.331 35.5112 331.205C37.5025 330.708 38.3441 331.358 43.9382 335.566C45.2524 336.819 46.3235 337.839 47.2692 338.734C48.2371 339.595 49.0723 340.356 49.8999 341.101M746.706 104.643C747.359 101.042 747.749 97.3699 748 93.7093C747.91 93.4132 747.682 92.777 747.446 92.1665M381.206 37.1043L374.239 40.0222M148.632 123.219C153.552 120.514 158.586 118.057 164.439 115.061C163.699 114.443 163.092 113.924 162.133 113.123C158.726 115.584 156.42 117.246 154.125 118.912M696.189 198.656L689.11 203.774M155.632 386.159C151.529 384.725 147.41 383.398 143.072 381.79C143.869 382.469 144.943 383.391 146.017 384.314M376.769 439.953L374.143 440.471L375.214 440.788C378.632 440.834 382.061 440.799 385.475 440.816L386.412 441.259L392.975 441.052M540.381 12.0047C543.359 11.9511 546.323 12.076 549.274 11.3248M179.77 103.938C179.033 104.586 178.306 105.238 177.319 106.116C176.043 106.309 175.277 106.443 174.504 106.559M7.96503 294.511C8.84241 294.991 9.71209 295.454 10.6646 295.929C10.5126 294.713 10.3566 293.467 10.1996 292.136C10.0205 290.841 10.0279 289.409 9.94071 287.918C10.3512 289.049 10.688 289.959 10.9785 290.77C11.3252 291.557 11.6294 292.231 11.9336 292.906M711.693 35.3452C710.344 34.3903 708.937 33.5572 707.604 32.7201C707.301 32.1725 707.006 31.6414 706.674 31.1122C703.901 29.5157 701.216 28.046 698.548 26.821C695.684 25.5046 692.791 24.2914 689.87 23.2238L687.677 22.4189L685.458 21.7043L681.04 20.2529M40.3343 337.542C39.6828 337.796 39.6311 337.892 44.8143 341.629M215.571 407.014C215.921 407.746 216.271 408.478 216.67 409.296C221.649 410.379 223.109 409.443 227.893 411.307M170.208 394.286C167.866 392.913 162.026 390.68 167.687 391.266C168.943 392.022 170.113 392.737 171.282 393.451M553.239 7.97485C554.32 8.1684 555.405 8.34906 556.735 8.58048C558.255 8.31057 559.805 8.02214 561.351 7.74662M637.243 9.46441L639.696 9.56524L638.751 9.10617L634.862 8.97858M219.657 400.468C219.639 400.181 219.617 399.907 219.583 399.502C221.229 400.144 222.444 400.606 223.656 401.081M741.149 116.117C740.585 117.159 740.006 118.21 739.512 119.134C738.821 123.525 737.986 127.728 736.804 131.848M74.0203 349.433C76.1794 350.227 78.3639 350.931 80.5261 351.67M179.31 105.182L180.629 106.465M407.663 31.9836C412.972 30.5713 418.269 29.0284 424.16 27.5646C427.598 27.7157 431.33 27.8769 435.061 28.0381M496.376 10.7837C495.841 11.0192 495.487 11.313 494.763 11.4736C490.126 12.3849 485.394 13.3222 479.725 14.4355C481.667 14.9908 482.972 15.3549 484.273 15.7318L485.402 15.4908C484.958 16.1917 484.511 16.9056 484.012 17.7153C485.328 17.6891 487.015 17.6561 488.703 17.6231M191.659 102.788C191.558 102.489 191.457 102.189 191.372 101.922C195.382 99.9507 198.658 98.3479 201.692 96.8637C205.76 95.3891 209.689 93.9683 213.622 92.5346M57.4817 177.39C55.8399 178.577 54.2098 179.811 52.5911 181.047L52.9274 181.563M94.5868 368.45L98.9627 368.383M302.105 420.149C306.02 420.665 306.171 418.941 312.611 420.973M568.392 275.764C568.756 275.037 569.125 274.298 569.596 273.367C571.066 272.616 572.838 271.711 574.611 270.805M229.444 84.7617L220.213 88.5814L219.995 89.0037L225.826 87.0982M231.452 79.8529C229.463 81.2656 227.485 82.6821 225.403 84.1633C225.788 84.3296 226.325 84.5727 226.865 84.803M109.796 374.629C112.655 375.522 115.529 376.364 118.403 377.205M20.7425 315.365C21.6641 316.478 22.5858 317.59 23.5455 318.743C24.5238 319.874 25.5808 320.988 26.684 322.202C26.2595 320.461 25.9844 319.332 25.6229 317.851C27.2657 319.604 28.3548 320.911 29.5703 322.077M526.006 292.941L526.73 289.447M725.395 164.462C725.801 161.92 722.541 165.483 720.254 167.166M727.909 52.3136C730.274 55.8462 732.478 59.51 734.167 63.4718M738.422 71.875L737.087 68.6742L735.554 65.6066M275.1 66.8793C274.616 67.3282 274.12 67.7734 273.189 68.6268C274.85 68.5148 278.115 68.3148 281.373 68.0983M217.871 92.2577L209.462 95.9625L209.748 95.6892L203.178 98.0314M150.552 383.285C156.582 385.677 158.316 385.04 160.727 385.114C161.926 385.148 160.953 384.089 160.554 383.398C160.286 382.946 159.272 382.296 158.593 381.726M609.394 261.221L612.284 257.172M22.8894 218.233C24.7437 216.157 30.1441 208.445 28.1256 213.477M329.011 430.575C337.092 431.729 345.022 432.849 352.109 434.907M377.726 438.925C380.22 438.659 380.641 438.302 376.261 437.595M668.906 216.999L661.748 219.982M388.281 439.357L392.197 438.551L393.249 438.805C393.249 438.805 393.349 438.669 393.255 438.653C392.483 438.502 391.673 438.354 390.874 438.209M230.233 408.432C230.308 408.119 230.387 407.793 230.524 407.176C229.599 406.821 227.394 405.97 225.186 405.132M364.121 436.779C365.107 436.52 366.105 436.264 367.301 435.96C366.689 435.679 365.774 435.244 364.565 434.671C368.905 434.775 372.843 434.862 376.912 434.963C382.963 436.533 383.599 436.597 386.252 436.031M721.199 162.041C717.27 168.821 715.888 170.316 714.25 171.181M398.939 28.6812L398.04 28.2366C397.163 28.5027 396.297 28.7724 395.03 29.1519C398.327 29.1028 400.905 29.0192 403.5 29.0533L406.248 27.8848L401.366 28.436M23.8547 211.764C23.2768 213.294 22.7483 214.868 22.208 216.395L23.4957 215.151C21.1601 218.28 18.9349 221.544 16.8953 224.938C16.9786 224.993 17.1719 225.139 17.3652 225.286C15.7757 227.868 14.3302 230.553 12.9341 233.282M385.839 29.792C384.777 29.928 383.703 30.0602 382.013 30.2755C381.68 30.7589 381.406 31.1629 381.135 31.554M133.191 131.79C133.465 131.386 133.724 130.991 134.269 130.196C132.681 131.19 131.344 132.039 130.034 132.925M37.0634 334.772L34.1336 331.493C33.1743 330.382 32.2522 329.227 31.3192 328.111M17.9124 303.074C18.4977 304.022 19.1912 304.893 19.8249 305.8L18.7893 303.16C17.702 301.67 16.506 300.216 15.4744 298.66M1.40447 268.346C2.89773 267.688 4.37648 267.081 5.81448 266.532C5.51101 263.79 5.44705 260.942 5.49176 258.059M152.613 124.248L153.82 124.609L152.528 125.43L148.194 126.622M34.6467 206.435C34.5789 205.71 34.5147 204.972 34.4428 204.218C32.3236 206.84 30.5594 209.254 28.8178 211.675M491.732 305.375C494.084 304.473 496.435 303.571 499.229 302.502C497.977 302.478 497.289 302.467 495.683 302.428C498.709 301.715 500.187 301.376 501.68 301.027M612.171 9.61557C612.072 9.8368 611.965 10.0415 611.825 10.3199C613.968 10.7292 616.596 11.3504 619.709 12.0861C619.849 11.8077 619.96 11.5901 620.066 11.3854M668.683 19.6479C668.305 19.8075 667.923 19.9799 667.519 20.145C668.96 20.6375 670.235 21.02 671.473 21.4892M730.87 61.7627C730.752 61.9637 730.634 62.1647 730.412 62.5576C732.383 65.7803 733.939 68.5883 735.189 71.5648M741.011 96.3529C740.627 94.5979 740.157 91.352 739.398 87.8161C738.724 84.2377 737.639 80.4138 736.71 77.2172C736.528 76.6803 736.301 76.2134 735.849 75.0973C735.937 73.7753 735.867 72.5292 735.835 71.2388M684.782 16.7325C683.732 15.9019 682.494 15.1657 681.138 14.546C679.771 13.9649 678.292 13.4743 676.768 13.0116C673.738 12.0216 670.475 11.3784 667.554 10.3531C670.478 11.6324 663.333 10.7936 670.494 12.8051M614.713 247.828C611.707 249.476 608.597 250.879 605.549 252.415C602.478 253.901 599.453 255.487 596.339 256.861L595.383 257.847L598.382 256.928L601.356 255.917L607.309 253.882M411.129 439.038C410.745 437.592 409.083 437.268 400.783 437.027M530.155 289.425C531.449 289.082 532.739 288.752 534.576 288.275C535.213 287.721 535.738 287.257 536.271 286.81M91.3355 162.725L85.9355 166.921L80.608 171.211M175.121 394.814C180.551 395.958 180.334 394.932 179.629 393.706M697.073 192.611C698.925 190.634 700.765 188.653 702.559 186.615L702.308 186.632C705.464 183.612 708.559 180.502 711.544 177.258M165.459 393.136C165.184 393.807 165.733 394.49 169.948 395.215M310.423 51.506L315.265 54.2612M24.325 323.045C23.7478 322.156 23.144 321.23 22.5591 320.324C22.0078 319.387 21.4868 318.474 21.0531 317.645C20.2474 316.12 19.8514 314.937 19.995 314.294C19.2852 312.954 18.5755 311.615 17.8657 310.275C17.227 308.902 16.5997 307.532 15.9723 306.163C15.4468 305.529 14.6324 304.254 13.7583 303.016M571.434 274.381C576.271 273.154 582.471 270.242 587.242 266.659M327.852 432.676C326.932 432.127 326.013 431.578 325.086 431.012C325.657 430.999 326.491 430.972 327.315 430.942M418.406 439.412C416.439 440.129 414.472 440.761 412.614 441.4C410.656 441.164 408.77 440.936 406.511 440.672C407.25 440.46 407.921 440.268 408.715 440.032C407.091 439.664 405.463 439.308 403.824 438.949M36.7981 199.519C39.6172 197.657 42.4253 195.833 46.1735 193.65C43.6264 196.346 41.8129 198.364 39.8776 200.596C40.477 201.45 43.7164 197.739 46.5464 195.135M163.271 114.784C160.78 116.049 158.286 117.327 157.235 117.86C155.538 118.495 153.898 119.106 152.306 119.719C150.719 120.361 149.165 120.971 147.619 121.599C144.515 122.849 141.388 124.05 138.05 125.521C138.813 124.782 139.97 123.65 141.139 122.521M709.762 176.614C715.819 169.858 718.105 165.194 717.112 163.017C718.416 161.187 719.761 159.299 721.015 157.34M660.169 227.49L657.683 227.773C656.925 228.274 656.136 228.709 655.352 229.174C656.448 228.303 657.513 227.366 658.575 226.4M133.492 126.106L131.399 129.778M179.211 107.47C179.312 107.77 179.413 108.07 179.505 108.311C181.82 107.411 183.374 106.8 184.924 106.202M652.68 233.447C650.82 234.972 648.972 236.5 646.679 238.378C644.868 239.595 642.896 240.774 640.934 241.914C638.98 243.071 637.025 244.185 635.211 245.148C633.398 246.111 631.7 246.929 630.25 247.474C628.786 247.987 627.566 248.199 626.715 248.066M342.331 434.556L345.775 433.457M590.621 268.606C593.751 266.604 596.802 264.619 600.052 262.628C600.974 262.067 602.509 261.394 603.769 260.773M495.461 9.29343C494.606 10.1853 496.375 10.3472 498.606 10.4469C500.836 10.5466 503.54 10.5454 504.559 10.9582M631.663 242.669C633.892 241.151 636.124 239.619 638.487 238.017C639.663 237.215 640.869 236.394 642.134 235.535C643.365 234.624 644.641 233.685 645.97 232.692C644.687 234.093 643.521 235.433 642.357 236.676C641.178 237.886 640.051 239.042 638.92 240.21M455.961 16.8654L443.337 21.6459M369.894 34.0937C371.568 33.803 373.231 33.5087 376.008 33.0249C373.529 34.3362 371.51 35.4158 369.48 36.4919M5.47064 244.297C4.48793 246.301 3.9838 248.051 3.664 249.453C3.40078 250.873 3.40517 252 3.57214 252.856M416.924 27.4L405.886 31.0598M147.883 380.878L131.926 376.3L132.216 376.675C128.906 375.496 125.599 374.262 122.311 373.006M187.222 393.522C186.906 393.195 186.591 392.869 185.979 392.235C189.074 392.993 192.542 393.829 195.463 394.545C196.292 394.32 197.146 394.089 198.001 393.858M322.372 52.1622C314.545 54.803 306.672 57.3022 298.9 60.1435M644.343 232.196C648.122 227.928 647.761 227.938 640.514 232.074M307.162 52.0449C302.728 53.6403 298.328 55.3737 293.916 57.0187M651.114 9.82519C653.938 10.1863 656.776 10.4957 659.579 11.0189L658.755 10.3035C655.998 9.79498 653.187 9.56457 650.415 9.19229M84.4804 157.338C87.9922 155.206 86.7691 156.88 87.3957 157.11C87.8823 157.266 89.1003 156.885 89.9936 156.737M396.59 35.1114C393.408 37.1668 387.797 38.1584 382.391 39.258M427.826 442.784L428.588 443.325L424.537 443.159M536.886 5.19665C532.826 5.5906 528.754 5.9809 524.705 6.3785C523.053 6.54943 521.462 6.89505 519.848 7.14869M424.836 24.9836C425.912 24.6267 426.991 24.2569 428.995 23.5805C427.028 23.861 425.883 24.0267 424.738 24.1923M384.446 36.643C385.874 36.8778 386.453 37.2331 382.238 38.3087M326.123 433.203C330.504 433.249 333.2 432.528 339.999 433.72M684.269 18.2551C683.551 17.602 682.819 16.9581 681.786 16.0207C683.133 16.4546 684.948 17.0674 686.778 17.6709L688.375 18.6213L684.988 18.7259M429.71 440.03C425.71 439.374 421.669 438.733 417.777 438.043C417.156 437.927 417.227 437.584 416.984 437.351M718.875 168.297C717.353 168.44 715.207 172.081 712.391 175.646C712.412 176.581 712.44 177.406 712.468 178.231M558.139 9.55319C560.372 9.11901 562.616 8.68848 565.437 8.13461C569.792 8.18707 574.887 8.28136 579.969 8.46959M134.655 133.077C139.818 129.593 140.327 129.405 142.623 130.285C144.273 129.242 145.936 128.286 147.573 127.294M745.551 119.996C745.378 119.645 745.217 119.298 744.913 118.665C745.649 117.187 746.082 116.173 746.607 114.921C746.684 114.032 746.795 113.111 746.884 111.958C746.951 110.798 747.019 109.413 747.12 107.604C746.709 109.328 746.353 110.817 746.033 112.176C745.656 113.518 745.304 114.726 744.952 115.935M535.499 11.7681C536.291 12.0234 537.084 12.2786 538.215 12.6432C537.227 13.0844 536 13.6738 534.788 14.2538M720.996 165.407L723.27 161.485C723.989 160.155 724.72 158.829 725.446 157.474C726.132 156.175 726.85 154.803 727.547 153.467M686.684 203.358C685.884 204.183 685.073 205.005 684.392 205.714C684.247 205.133 684.121 204.572 683.98 204.02M281.331 61.2631L276.892 63.8839M240.103 85.8323C239.955 85.6579 239.818 85.4871 239.593 85.232C237.787 86.1692 236.59 86.7823 235.394 87.3955M413.101 443.442C413.385 443.309 414.116 443.122 413.879 443.046C412.721 442.729 411.297 442.439 409.97 442.153M581.673 265.921C579.998 266.436 575.672 268.742 577.596 266.815M382.315 38.7838C377.796 40.9428 371.743 41.7499 366.533 43.2926M281.686 59.2961C282.503 59.0248 283.308 58.7498 284.98 58.2051C280.996 60.2133 278.326 61.1533 276.171 61.1343M500.871 16.8445L512.207 16.5158M631.659 8.56556L630.684 9.92541M100.988 144.751L103.29 143.847L101.606 145.316C100.927 145.449 100.24 145.565 99.085 145.812C95.392 148.94 91.6935 151.912 88.1101 155.09M69.1617 168.452C70.3818 168.283 71.602 168.113 73.1337 167.889C70.8661 169.634 68.815 171.224 66.7638 172.814L66.6406 173.252L71.2454 170.305M38.8606 193.587C37.8395 195.157 36.8374 196.747 35.8465 198.341M114.981 374.541C116.373 374.638 117.75 374.744 119.613 374.88C121.5 375.544 124.306 377.461 127.596 377.831M61.5783 174.139C63.1975 172.945 64.813 171.763 67.8164 169.552C66.7952 171.122 65.9072 172.481 64.7824 174.201C61.8036 175.885 59.3522 177.318 56.9203 178.813L57.3795 177.794C55.2599 179.671 53.1558 181.581 51.0896 183.532M686.479 204.572C690.603 200.218 695.263 195.798 698.022 191.384C695.888 193.312 694.797 194.339 693.653 195.293M679.339 17.5669C679.039 17.9766 678.739 18.3862 678.257 19.0468C673.991 16.0412 674.006 15.9896 678.573 17.3061M605.276 2.73929C606.598 2.56021 607.908 2.41981 609.227 2.29597L610.076 2.56941L606.813 4.38758M608.419 261.047C606.181 262.028 603.973 263.076 600.346 264.608C602.756 262.754 604.112 261.615 605.48 260.523M330.869 434.324C334.602 434.964 338.335 435.603 342.082 436.149M556.958 278.114L555.771 277.113M552.464 280.394L550.38 279.245M240.597 81.5746C240.098 82.7784 247.479 80.3599 244.376 82.75M109.849 149.152C111.402 148.499 112.925 147.822 114.487 147.186M203.548 394.983L215.957 398.615M607.327 260.583L611.562 257.151L613.472 256.374C613.795 255.662 614.126 254.967 614.699 253.717C612.082 255.476 610.746 256.368 608.132 258.114C610.537 256.933 611.607 256.42 612.681 255.894M691.424 201.031L696.017 195.534M48.2319 332.448C49.1214 333.719 50.0294 334.968 51.1616 336.43C53.4709 337.568 58.124 340.6 54.7464 337.29M348.643 436.167L352.84 435.507M478.097 17.287C479.467 17.4188 480.833 17.5636 482.516 17.7258C484.222 17.3191 486.022 16.8863 487.823 16.4535M18.2941 300.708C19.3895 302.608 20.705 304.34 21.9422 306.131C22.5682 307.022 23.2763 307.84 23.9395 308.687C24.614 309.537 25.2735 310.397 26.0037 311.18M258.711 414.652C254.541 412.535 252.27 410.692 250.728 408.93C249.86 407.933 249.344 407.837 253.505 408.095M337.977 42.3504C338.204 42.0717 338.422 41.7764 338.808 41.2818C336.938 41.8327 335.24 42.3406 333.853 42.7519L331.83 45.1663M51.983 193.974C53.3242 192.451 54.6582 190.602 56.0338 189.484C60.6931 185.64 65.4487 182.376 70.3556 178.837C73.2584 176.72 76.2071 174.308 79.1579 172.108M641.171 237.124C635.978 239.614 642.365 234.498 639.428 235.507M715.986 174.188C716.296 173.655 716.606 173.122 717.362 171.705C714.132 175.56 711.285 178.75 707.755 182.395C707.574 181.633 707.421 180.993 707.268 180.353M227.203 403.658C225.45 402.869 223.701 402.108 221.959 401.28M196.214 98.0388C191.77 100.503 187.344 102.988 182.954 105.568M138.439 375.698C136.064 375.144 133.785 374.691 131.296 374.016C128.781 373.346 126.071 372.403 122.574 371.277C122.074 370.905 121.051 370.153 120.081 369.433C120.039 369.405 120.547 369.485 120.86 369.557C121.056 369.606 121.355 369.731 121.611 369.827M6.84633 267.3C7.11011 268.777 7.51651 270.231 7.89258 271.66M107.993 145.432C106.906 147.191 105.819 148.951 104.577 150.956C102.546 152.693 100.227 154.534 97.8588 155.276M338.121 435.225C336.012 434.25 338.047 434.301 340.699 434.48M543.544 285.172C541.754 285.791 539.971 286.426 538.157 286.995L537.352 287.664L539.743 286.93M249.15 72.3885C257.399 68.8149 257.683 70.4395 261.354 69.8498L258.633 72.4192M407.252 437.198C407.891 436.462 405.485 436.151 402.516 435.912M591.356 5.18975C589.513 5.51039 587.675 5.90284 585.116 6.40065C583.776 6.25026 581.483 5.97587 579.173 5.76597M695.447 25.7373C696.352 27.0415 697.256 28.3457 698.406 30.01C696.321 28.7758 694.788 27.8178 693.2 26.9687M721.81 48.0143C720.41 47.1553 719.07 46.2594 717.674 45.4722M265.477 66.0722C262.039 66.6243 260.507 67.9455 258.56 69.0764M417.486 25.4852C420.225 25.3127 421.645 25.4886 421.818 25.9244C421.992 26.3601 420.905 27.0226 418.641 28.0092M561.712 276.692L562.037 275.011M324.989 425.158C320.158 424.516 315.364 423.745 310.554 422.983C315.14 424.32 319.436 425.9 325.671 425.982C325.752 425.516 325.844 424.926 325.897 424.606C328.973 424.64 330.906 424.658 332.827 424.672L330.146 423.584L326.787 424.161M345.082 44.3858L348.676 45.698M421.834 20.8659C426.766 20.795 426.231 22.1277 427.069 23.1007M180.152 394.874C182.971 395.782 185.818 396.629 189.036 397.567C189.313 397.811 189.863 398.311 190.767 399.137C191.947 399.152 192.613 399.155 193.29 399.162M504.41 8.54711C505.092 8.66829 505.762 8.78582 506.821 8.97208C504.71 9.19232 503.365 9.32177 502.017 9.46411M193.206 402.665L195.913 401.948M422.188 23.5538C421.415 23.9797 420.972 24.4561 419.81 24.8132C416.988 25.6763 413.835 26.489 411.091 27.2506C412.246 27.7495 413.002 28.0914 413.761 28.4203M195.657 399.699C191.209 397.296 189.499 395.522 191.154 394.507M250.571 77.3894C255.685 75.3095 260.583 73.4273 264.809 72.7069C265.729 72.5531 267.833 71.6554 269.399 71.1331M562.003 280.316C561.591 280.113 561.179 279.91 560.581 279.619C559.076 280.231 557.291 280.964 555.366 281.751C553.427 282.505 551.352 283.299 549.274 284.106M698.232 185.714L696.685 185.158M136.737 127.292L132.412 129.331L132.2 129.909L136.063 127.848M663.945 18.9376C663.441 18.536 662.933 18.1474 662.418 17.7845L661.269 17.5691L660.872 18.1447M459.455 19.0174C458.939 19.2731 458.415 19.5123 457.839 19.805C456.25 19.9683 454.65 20.128 453.035 20.297M536.071 294.987C539.64 293.704 543.217 292.395 546.767 291.007L546.894 290.555L542.095 291.907M377.845 36.8094C378.87 36.3238 379.892 35.8512 381.695 35.0115C381.86 36.0069 383.062 36.6474 381.856 37.7356C380.425 39.0048 383.868 38.1728 385.519 38.1842M179.822 109.243C176.483 110.319 173.184 111.521 171.532 112.086C166.909 114.831 163.603 116.804 160.354 118.879M708.168 184.047C709.653 182.936 711.171 181.835 713.013 180.375C714.494 178.18 715.559 176.498 716.609 174.824M182.093 390.773L186.226 391.612C185.5 391.167 184.959 390.852 183.589 390.017C188.08 391.562 191.403 392.605 194.697 393.708M267.752 414.892L267.559 415.843C267.053 414.569 267.584 414.613 274.892 416.32M490.875 305.352C489.735 305.323 488.573 305.286 487.459 305.251C487.35 305.244 487.425 305.155 487.37 304.955C491.506 303.193 495.069 300.965 500.501 299.775M717.489 41.5586C716.175 40.3478 714.754 39.2993 713.241 38.0523C711.661 36.9104 709.985 35.5829 707.895 34.2346C709.869 35.9533 711.393 37.5555 712.802 38.9097C714.142 40.3819 715.38 41.5966 716.5 42.9701M15.3279 309.64C14.782 308.156 14.1262 306.581 13.8185 305.216C13.5202 304.037 13.4701 303.205 13.3244 302.229M662.09 9.15541C660.573 9.01847 659.064 8.89806 657.223 8.72717C659.338 9.9005 659.239 10.9097 664.868 11.6539M6.8886 246.849C7.70149 245.142 8.47678 243.436 9.38474 241.83M247.747 415.494C246.087 415.297 244.415 415.096 242.157 414.833C241.135 414.251 239.962 413.549 238.46 412.658C240.954 413.138 242.875 413.461 244.796 413.784M108.58 373.113L106.704 371.003M238.807 78.4102C242.502 77.2516 246.159 76.0103 249.62 74.0589M237.976 407.269L240.731 407.13C241.675 407.546 242.608 407.959 243.556 408.363C241.937 408.151 240.336 407.875 238.725 407.637M87.1587 162.167C85.9352 163.447 84.685 164.69 83.4769 166.003M734.702 147.276C734.15 147.661 733.556 148.018 732.996 148.386M495.175 16.9089L491.242 18.7366M443.617 16.7428C443.827 15.9947 442.414 16.1022 439.517 16.9693M718.38 41.7329C718.733 42.8032 719.131 43.8034 719.565 45.4202C721.137 46.1093 721.817 46.4127 722.225 46.5863C723.252 48.0705 724.2 49.5715 725.122 51.0358C725.969 52.5887 726.902 54.0144 727.644 55.5897L728.678 56.6965L727.326 57.9066L726.137 56.3842C725.634 55.0125 725.011 53.7147 724.436 52.334M501.05 305.114C501.187 305.285 501.336 305.459 501.508 305.683C503.057 305.001 504.056 304.563 505.059 304.112M511.661 6.9026C511.656 6.74614 511.954 6.47643 511.544 6.44275C511.134 6.40907 510.008 6.59491 509.189 6.69692L510.846 6.99171M252.343 413.459L243.161 410.951L242.648 411.194C243.226 411.422 243.792 411.647 244.419 411.877C244.521 411.909 244.942 411.904 245.212 411.907M355.869 39.6039C356.9 38.6139 357.942 37.6275 359.181 36.4233C356.582 37.063 354.407 37.6001 352.247 38.1279M87.4929 359.385C84.9975 358.075 82.5166 356.713 80.0506 355.342L79.0434 354.315C80.2821 354.826 81.5465 355.29 82.8038 355.779M97.3856 150.764C95.3766 152.423 93.3521 154.05 91.3621 155.729M143.472 121.599C143.34 122.597 151.037 118.438 148.631 120.94M53.9549 187.83C57.9611 185.168 61.9809 182.722 66.063 178.34C66.1672 178.233 66.1101 178.173 65.9865 178.217C65.7955 178.282 65.4966 178.467 65.2499 178.599M180.825 392.39C173.448 390.619 167.542 388.182 161.735 385.481M656.087 225.458C660.559 220.921 653.938 225.905 653.258 225.602M260.83 420.286L251.798 415.97M333.44 428.555L334.439 427.414M65.1157 175.039C67.7341 174.111 65.2473 176.46 63.0988 178.44C63.1164 179.037 63.1217 179.545 63.1421 180.044M335.654 47.4954C339.112 46.6542 342.557 45.7246 346.019 44.9552M71.6547 174.389L72.2968 177.156M687.075 22.6328C687.215 23.4939 685.083 22.779 682.3 21.6152M55.1071 341.85C56.8772 343.194 58.7025 344.429 60.4984 345.725M8.63355 272.447C8.69756 271.033 8.72038 269.634 8.84098 268.238C8.89569 268.79 9.00291 269.331 9.09883 269.868C8.69688 265.28 8.77124 260.578 9.42743 255.431C9.14569 256.521 8.88523 257.492 8.61074 258.557C8.39283 259.641 8.11201 260.816 7.84968 262.321C8.69551 261.595 9.47929 261.045 10.1843 260.513M13.8503 232.79C14.9592 232.05 16.0079 231.305 17.1212 230.637M23.7665 314.707C24.7095 315.348 25.6113 316.004 26.5538 316.603M66.6468 349.984C67.0868 350.702 67.5267 351.42 68.0776 352.315C70.6836 353.056 72.2931 353.434 73.8881 353.864M439.686 18.3882C438.182 18.4242 436.675 18.4732 434.675 18.5182C433.303 19.2295 432.305 19.7518 431.232 20.3204C436.267 19.6638 436.258 19.5625 442.965 17.7427C444.116 17.7758 445.493 17.7972 447.087 17.8327C444.639 18.5069 443.034 18.9464 441.445 19.3767M148.588 116.214C149.93 115.789 151.271 115.363 152.613 114.979M33.0401 328.623C33.7074 329.147 34.3412 329.703 35.2733 330.383C34.3906 329.044 33.1878 327.658 31.7528 326.352C30.3584 324.988 28.8097 323.603 27.2909 322.2M531.222 6.38232C526.369 6.83033 521.508 7.21945 515.795 7.78433C515.803 7.88555 515.808 7.95733 515.814 8.19847M245.017 73.0403C246.179 73.0771 247.341 73.114 248.639 73.1522C247.554 73.6748 246.487 74.1752 245.073 74.859C245.911 74.7348 246.534 74.6261 247.164 74.5339M595.051 263.731L599.426 261.16L598.557 261.443C600.63 259.776 602.637 257.947 604.668 256.21M449.479 17.6609C453.806 17.5919 458.128 17.4088 463.573 17.4468C463.124 17.9913 462.537 18.7166 461.955 19.4291M412.901 22.0812C411.333 22.7434 409.768 23.3927 407.904 24.1847C411.114 23.6996 414.128 23.25 417.131 22.7968M90.4754 363.004C92.1047 364.19 93.7376 365.363 95.9953 366.948C98.8231 368.042 103.168 369.624 107.515 371.151M48.0865 337.577C47.5174 337.45 46.9705 337.288 46.6124 337.201C45.5961 336.381 44.591 335.565 43.5937 334.766C42.6222 333.918 41.6584 333.088 40.6946 332.257M496.462 307.166C496.301 306.552 496.141 305.938 495.945 305.185C501.903 302.955 507.087 301.024 512.274 299.08M313.259 426.668L316.247 428.376M694.325 30.5241L697.134 31.9916L699.895 33.5421M568.68 11.8373C566.794 11.9188 564.899 11.9837 562.05 12.1069C562.555 11.4536 562.996 10.8926 563.56 10.1599C560.988 10.4424 558.366 10.7232 555.989 10.97C555.625 10.7263 555.269 10.4992 554.917 10.2591M457.467 23.722C459.336 23.4381 461.229 23.2039 463.106 22.9788M122.099 368.31L128.133 370.69M590.411 10.9753C591.123 10.7687 591.502 10.6515 591.704 10.5901C597.834 10.694 602.946 10.9061 608.059 11.2028M138.764 125.61C139.007 126.195 139.242 126.763 139.559 127.526C141.803 126.04 143.155 125.224 145.217 123.947C146.266 123.905 147.352 123.861 149.062 123.793C145.581 125.949 142.547 127.785 139.575 129.753M189.646 107.274L183.603 110.067M470.092 19.1532C467.971 19.8061 465.545 20.4452 463.879 21.104C463.1 21.4158 463.799 21.7394 463.833 22.0596M707.593 173.003L705.843 175.323L706.176 175.191C708.15 172.733 710.086 170.234 711.951 167.684M645.605 8.3038C643.448 8.07316 641.298 7.77438 639.141 7.58608M400.043 30.5557C394.681 31.3183 392.439 30.7786 389.286 30.6211M325.33 54.1981L331.002 53.3388M727.119 144.664C728.478 142.416 729.797 140.14 731.355 137.098C731.506 136.429 731.687 135.432 731.955 133.775C731.216 135.703 730.61 137.026 730.015 138.354M258.568 411.469C260.509 411.631 262.458 411.766 264.938 411.904C265.898 412.438 266.965 413.035 268.02 413.628M357.644 44.7047C357.497 45.0936 351.367 46.3961 355.414 46.1384M133.316 134.193C134.972 133.658 136.632 133.11 138.453 132.515C139.32 131.978 140.515 131.238 141.696 130.507M111.53 364.287L114.236 366.383M364.618 37.2324C361.461 38.1003 358.329 39.1025 354.937 40.1055C354.381 40.5031 353.638 41.0375 352.895 41.5719M24.2292 224.009C23.7216 225.069 23.1836 226.105 22.6986 227.173C23.0663 226.743 23.4756 226.34 23.8546 225.913M390.446 27.4082C391.317 27.295 392.192 27.1689 392.819 27.0896C391.963 27.5028 391.271 27.8566 390.571 28.1939M552.413 7.39916C550.243 7.34713 547.747 7.40108 545.981 7.22627C542.444 6.90244 539.036 7.16913 535.367 7.92818M718.03 36.2896C718.083 35.2235 718.001 34.5924 716.921 33.5133C716.385 32.9609 715.563 32.3726 714.385 31.5571C713.226 30.7195 711.637 29.7856 709.568 28.5846C710.826 29.5526 711.947 30.3498 712.945 31.1493C713.938 31.9617 714.849 32.7191 715.763 33.4636M386.564 433.473C387.862 433.948 389.164 434.409 390.44 434.876C393.435 434.716 395.63 434.593 397.824 434.47M188.71 104.454C186.282 105.979 183.851 107.516 181.255 109.156C178.651 110.778 175.899 112.536 172.834 114.573C173.203 113.257 173.417 112.454 173.638 111.667M145.463 126.502C147.245 125.782 149.023 125.075 150.794 124.351C152.754 123.042 154.655 121.812 156.568 120.627M581.348 275.028C582.6 273.997 583.841 272.962 585.448 271.637C586.199 271.246 587.679 270.373 589.155 269.512M18.9459 229.762L18.6159 232.693M10.1999 272.277C9.94443 273.362 9.70025 274.451 9.4126 275.694C8.94778 274.405 8.26294 272.933 7.5257 270.417C7.97596 268.55 8.38584 267.487 8.70923 266.423M534.467 6.07711C534.218 6.74247 534.019 7.40953 533.718 8.08611C533.545 8.48062 533.222 8.88296 532.963 9.27774M94.1289 150.052L96.8169 149.666M639.85 240.158C642.69 238.527 643.886 237.478 644.65 236.515C645.434 235.571 645.813 234.793 647.027 233.679M46.8627 338.069C48.7696 339.189 50.6615 340.319 52.5901 341.363M5.92095 253.415C5.95418 251.935 5.93443 250.423 6.1049 248.411C6.99759 245.717 8.43185 242.325 10.0178 239.052M467.712 19.8493L464.709 19.9085L463.54 20.2915L465.321 20.5417M316.942 54.2246C316.765 54.9413 316.589 55.658 316.361 56.5552C317.853 56.1216 319.99 55.5018 322.123 54.8949M163.756 111.255L161.926 113.549M274.689 417.267C275.26 416.902 275.835 416.525 276.683 415.968C280.94 417.115 285.101 418.075 289.104 419.07C289.287 419.649 289.428 420.116 289.548 420.478C291.883 421.174 293.912 421.772 295.952 422.373M626.315 243.126C627.648 242.599 628.935 241.973 630.566 241.218C631.327 240.268 632.11 239.282 632.815 238.398C630.106 239.298 628.803 240.552 627.565 241.841M736.909 128.971C736.458 130.401 736.003 132.195 735.551 133.189C734.918 134.476 734.295 135.682 733.668 136.858C733 138.007 732.354 139.121 731.67 140.28M278.684 422.113C277.628 422.532 276.572 422.952 275.393 423.416C279.301 424.661 282.533 425.547 283.957 424.697M31.8915 205.956C29.8594 206.863 26.7155 210.716 23.9338 214.335M139.862 385.046L142.214 385.944L141.723 386.067L133.805 382.575M101.697 151.674L98.4916 154.65M58.2649 350.293C56.6143 349.227 54.9564 348.187 53.328 347.086M542.053 288.855C547.902 286.576 547.459 285.913 547.061 285.222C547.038 285.172 547.456 284.913 547.755 284.771C548.227 284.543 548.766 284.337 549.283 284.123M1 267.372C1.06367 268.771 1.23237 270.147 1.40471 271.511C1.53947 272.877 1.79423 274.21 2.02996 275.524C2.31984 274.492 2.55446 273.569 2.82712 272.687C3.12242 271.811 3.40322 270.987 3.68764 270.151M20.614 217.415C19.7275 217.847 18.8772 218.15 17.8507 218.86C17.709 218.969 16.5515 220.804 15.8858 221.856M141.063 126.786C141.371 126.787 141.679 126.788 142.206 126.803C141.534 127.304 140.751 127.896 139.956 128.484M7.447 293.233C6.81378 291.665 6.30781 290.039 5.69181 288.321C5.12834 286.593 4.69074 284.68 4.11961 282.583C4.55423 282.793 4.93588 282.972 5.32522 283.168M299.119 53.9128C297.906 54.0143 296.7 54.1322 294.627 54.3082C293.658 55.8668 292.908 57.0879 292.098 58.3883C293.039 58.1571 294.461 57.7991 296.756 57.2303C295.017 58.1048 293.891 58.6845 292.582 59.3459C294.304 58.9723 295.958 58.6191 297.613 58.2659M349.085 43.4528C348.633 43.7432 348.193 44.0373 346.744 44.9771C350.387 43.8721 353.003 43.1255 355.54 42.3112C358.463 41.3538 361.307 40.4133 364.188 39.4708M474.184 19.177L468.69 21.641M118.848 370.527C116.732 369.184 114.522 367.867 110.763 366.572M211.718 398.938C209.662 398.261 207.621 397.575 204.029 396.39C203.888 396.936 203.769 397.404 203.649 397.871M630.083 249.305C631.698 248.081 633.286 246.778 634.886 245.521M613.872 258.767C614.912 257.611 615.961 256.472 616.97 255.25M586.118 266.002L591.928 262.543M520.93 293.219L522.146 293.723L520.861 294.209L511.8 294.216M515.833 8.5276C516.223 8.85037 516.61 9.18601 517.422 9.85538C514.084 9.61008 512.109 9.48012 509.558 9.29124C508.655 9.64756 507.806 9.99266 506.956 10.3378M504.842 15.5783L504.106 16.7901M207.389 97.5876L207.713 98.6341M97.4014 363.041L95.5453 361.037M489.873 11.1784L488.321 12.3523M658.055 12.3142C655.78 11.6237 653.452 11.169 650.037 10.3219C651.177 11.1817 651.757 11.6217 652.337 12.0617M633.8 4.45875L637.661 4.77416L638.475 5.34596C636.617 5.2819 634.748 5.21419 632.89 5.15013C631.253 5.08721 629.611 5.13477 627.975 5.11419M336.167 49.9809L333.961 51.4644M201.993 99.7454C200.039 101.338 202.284 100.289 204.474 99.3491M63.0292 181.498L65.3934 182.133M236.595 406.079C236.24 405.543 235.885 405.006 235.697 404.707C233.381 404.031 231.613 403.518 229.844 403.004M349.342 40.4272C346.542 40.946 343.723 41.4023 340.932 41.98L341.967 41.3287C343.915 41.3796 343.484 41.5503 344.807 42.1592C345.683 42.554 348.051 42.4729 349.752 42.6129M640.701 8.14457C638.628 7.70196 636.545 7.34038 634.461 6.93647L633.309 7.08554L634.984 8.0191M671.352 15.9083L669.447 16.0966L668.451 15.7758C668.531 15.492 668.604 15.2341 668.679 14.9209C661.814 13.1735 665.651 14.8035 667.679 15.9771C666.055 15.6508 664.656 15.3129 663.229 15.0781M501.797 301.486L510.543 295.879M511.794 9.15343C514 8.72486 516.206 8.25395 518.443 7.84922C521.514 8.12114 524.912 8.41411 528.393 8.71971C527.856 9.48908 527.212 10.4208 526.56 11.336M744.538 87.7982C744.385 88.9161 744.13 90.0435 743.882 91.1452C743.619 92.2561 743.439 93.3373 743.123 94.4171M78.4198 360.049L83.2419 361.293M604.329 257.634L609.478 252.443L610.926 251.728L611.238 252.461M190.092 392.182C188.671 393.328 194.473 395.478 199.158 397.649C198.241 397.663 197.215 397.669 196.188 397.676M326.6 425.269C330.379 425.656 334.147 426.04 338.66 426.495C339.607 426.814 340.981 427.285 342.241 427.719C346.298 428.041 345.92 427.497 344.328 426.704M332.368 47.815L339.136 48.1102M110.525 140.987C112.529 139.213 111.624 139.667 110.517 140.267C109.418 140.884 108.122 141.676 109.29 140.463C110.128 139.72 112.331 137.982 115.407 135.471C115.661 136.017 115.849 136.401 116.026 136.781M552.313 3.54113C553.672 3.7117 554.84 3.94731 556.45 4.01584C558.116 4.1026 560.202 4.01499 562.093 4.0053M495.526 10.2564C494.197 10.5036 492.88 10.7545 491.161 11.0729C491.944 10.3967 492.611 9.82385 493.296 9.2289C496.535 9.03453 499.26 8.9136 501.974 8.83136M219.854 90.252C218.916 90.3857 217.988 90.5231 217.065 90.6475C215.623 91.5192 214.644 92.104 213.665 92.6888L214.065 92.8882C217.242 91.3796 220.445 89.9501 223.641 88.5041M215.906 405.603L219.195 405.847M3.22548 273.068C3.42228 274.256 3.52725 274.937 3.57566 275.248C4.17402 276.721 4.64569 277.59 5.09472 278.452M127.029 379.674C129.805 379.851 132.926 380.871 136.339 382.603M114.27 140.97L115.732 142.046M550.035 9.67102L550.015 8.8629L552.374 8.72287L549.294 12.1328M292.716 59.0933C291.071 59.3232 289.427 59.553 287.696 59.7831C284.976 61.4246 286.368 61.5214 288.978 61.1947M175.218 108.632C174.704 108.705 174.193 108.766 173.652 108.845C174.254 108.462 174.974 108.005 176.177 107.239C176.799 107.397 177.364 107.537 178.077 107.724C180.42 106.721 184.229 104.895 183.249 106.45M205.536 94.4728C200.278 96.1831 195.061 98.0609 189.816 99.8595M439.111 20.6081C437.788 20.9694 436.461 21.3437 435.433 21.6175C434.598 22.6143 433.796 23.5796 432.994 24.545M539.28 291.169C544.63 288.293 539.274 289.606 539.431 288.742M142.38 121.134C140.62 121.862 138.88 122.651 136.972 123.514C136.883 123.302 136.767 123.012 136.64 122.717M247.178 77.5625C246.952 77.4896 246.744 77.3945 246.522 77.3087C242.749 78.9205 239.17 80.4543 234.136 82.602C234.904 81.6681 235.416 81.0313 235.929 80.3946M216.048 89.1248L220.847 87.8154M174.967 107.904C174.236 108.132 173.498 108.345 172.295 108.717C171.583 109.317 171.031 109.787 170.483 110.243M225.652 410.234C227.054 410.207 228.456 410.181 230.242 410.151C231.053 410.778 231.766 411.317 232.467 411.852L233.545 412.101C233.606 411.84 234.08 411.472 233.661 411.337C229.74 410.003 229.975 409.39 230.159 408.732M281.961 63.7168L286.43 64.5936M89.0926 362.038C91.7321 362.748 94.3752 363.445 97.0178 364.099M642.903 240.579C642.859 239.988 643.518 239.357 644.578 238.615C645.641 237.861 647.137 237.063 648.831 236.216L650.055 235.021L647.594 234.777M739.995 75.9404C739.303 73.7905 738.559 72.7067 737.679 71.3122C737.262 70.6011 736.862 69.7832 736.456 68.6817C735.993 67.6044 735.554 66.2251 735.068 64.3526L734.277 63.5211C734.254 64.1747 734.26 64.8099 734.2 65.4654M465.525 13.8842C464.325 14.2433 463.134 14.619 462.013 14.9613C463.553 15.4994 464.855 15.9611 466.564 16.5539C468.761 15.5455 470.422 14.7726 472.091 14.0162M544.385 10.5799L549.25 10.5295M730.148 143.46L730.558 140.639M700.532 187.199C698.76 188.232 697.004 189.256 695.224 190.23M737.09 63.6117C737.425 64.7465 737.764 65.8684 738.123 67.0528C737.672 66.4154 737.151 65.4598 736.587 64.4344C736.05 63.4033 735.34 62.3728 734.77 61.4578C733.611 59.6077 732.46 58.5197 732.359 59.584M659.635 221.397C662.98 217.664 662.884 217.521 658.946 220.204M240.637 75.8068L238.406 76.3257L237.008 77.1273L241.721 76.5637M169.932 106.184C171.587 105.873 176.098 103.261 176.314 104.16M16.4564 306.417C17.5497 307.754 18.5347 309.168 19.6909 310.413M6.89389 253.644C7.22904 252.627 7.54155 251.602 7.91066 250.596L9.0447 247.614M55.3728 343.145C53.696 341.733 52.0011 340.385 49.6968 338.307C50.9128 338.811 52.1443 339.348 53.4164 339.828M169.029 111.111L164.774 114.044M652.205 8.40454C651.143 8.18884 650.069 7.96949 648.294 7.60877C650.773 8.49192 641.925 7.65292 649.549 9.33528M94.6036 154.565C99.8723 150.397 101.748 150.396 105 148.884M545.756 286.785L540.93 287.973M526.712 14.7046L531.565 14.5659M22.6045 228.169C21.5394 229.851 20.5689 231.592 19.5985 233.333M27.9811 326.811C31.8092 329.704 27.0354 325.213 27.236 324.982M739.792 114.006C739.487 116.06 738.959 118.07 738.533 120.113M450.936 23.7281C450.982 24.1367 451.024 24.5581 451.095 25.228C446.663 25.3194 439.767 27.416 438.917 26.003M360.836 436.832C358.992 436.364 357.145 435.91 355.312 435.404M37.5481 328.036C39.5583 328.613 40.4583 328.749 40.0754 328.091C39.7074 327.424 37.9893 326.026 34.9553 323.206M57.1027 180.053L52.8365 183.025M106.814 143.083C103.108 144.547 100.248 147.564 96.8885 149.858C94.1219 151.709 91.3363 153.892 88.6255 156.029M721.345 158.713L721.408 155.413M502.953 11.4536L499.054 12.195L500.633 12.549C502.48 11.9061 504.319 11.2468 507.069 10.29C509.088 10.6591 510.9 10.9755 512.72 11.3085M737.463 60.1311C738.585 62.4195 739.465 64.8689 740.344 67.3182C739.433 66.8277 738.655 66.5209 737.93 66.2029M560.522 281.148C557.9 282.047 555.273 282.917 552.609 283.746C552.5 283.782 552.086 284.07 551.926 284.201C551.829 284.283 551.934 284.303 551.954 284.365M487.295 9.58832C485.961 9.98836 484.619 10.3718 484.51 10.4072C483.964 11.033 483.67 11.3745 483.362 11.7252M298.681 425.403C297.316 424.767 295.941 424.127 293.073 422.781C292.068 423.02 291.449 423.158 290.841 423.3M244.877 406.032C244.32 406.303 243.762 406.573 243.093 406.892C240.848 405.832 239.321 405.115 237.806 404.402M259.424 75.3182C249.964 78.544 247.182 79.6593 243.935 81.2436M619.513 8.43654C616.764 8.11389 614.464 7.78064 618.564 7.28714C620.698 8.56535 622.813 9.78102 624.903 11.1293M633.88 10.3217C631.792 10.2822 629.699 10.3533 626.636 10.4496C631.384 11.1212 634.583 11.7719 638 12.3944C637.461 12.6427 637.106 12.8096 636.762 12.98M337.875 50.1376C335.985 50.9352 334.091 51.7457 331.68 52.7695C331.395 52.7759 330.725 52.7854 330.056 52.7949M644.056 229.797C645.018 228.743 645.981 227.688 646.271 227.36C649.271 225.162 651.289 223.688 653.311 222.201M318.618 424.062L318.022 422.801M190.962 97.9783C189.639 99.0852 188.304 100.146 186.851 101.408C181.763 103.088 178.147 104.23 179.674 102.176C177.969 102.71 175.806 103.378 173.64 104.059M81.2867 357.358C82.988 358.243 84.6966 359.103 86.4088 359.95M57.8239 345.581C60.701 346.367 60.8107 345.01 66.0139 347.445L64.7975 346.195M108.155 364.17L108.516 363.105M79.5382 169.347C78.565 170.834 78.4083 170.952 74.7616 173.125C75.8637 172.102 76.9437 171.113 78.0159 170.109M708.929 28.2664C707.205 27.2888 705.528 26.2282 703.777 25.3409M661.999 215.393C663.716 214.554 662.155 216.991 666.67 213.353M645.313 4.98921L647.616 6.19508M91.5958 152.57L91.3736 155.733M251.009 78.9091C248.207 80.6227 249.539 80.3625 252.813 79.2089C254.596 78.5737 256.412 77.8224 258.213 77.1226M187.217 396.699L185.171 394.929M677.396 21.1467L673.301 20.0809L672.652 19.5344L676.684 20.7347M195.121 398.528L193.765 397.29M522.596 296.119C523.319 295.564 524.043 295.009 525.002 294.277C517.754 296.57 515.122 296.186 511.521 296.349M7.63383 277.892C8.14169 278.984 8.62558 279.941 9.14973 281.151C9.40683 281.642 9.72271 282.714 10.0169 283.512M167.646 109.709C168.67 109.842 166.28 111.759 169.742 110.595M271.948 67.8614C271.381 68.9586 270.783 70.0742 270.272 71.1473C269.812 72.1244 271.537 72.0048 275.288 70.8221M72.4572 170.695C74.9964 169.389 78.2111 167.612 75.4241 170.722M694.198 193.134L696.211 190.097M552.47 9.96339C555.447 9.82509 558.408 9.73838 561.374 9.68111M569.079 277.842L567.722 277.489L569.304 276.69L570.556 277.023M122.454 372.546L119.375 372.258L117.53 371.312L121.172 371.219M216.802 405.358L215.093 405.553L213.136 405.007L213.795 404.023M240.155 80.068C239.838 79.9659 239.455 79.702 239.219 79.7948C235.708 81.2234 231.173 82.6461 230.183 84.2822M353.316 437.855C354.935 437.982 356.553 438.152 358.179 438.254M360.614 432.569C361.844 431.572 356.145 430.637 353.694 429.608M645.338 234.106C646.041 233.755 646.729 233.415 647.488 233.04C648.338 231.889 647.764 231.896 645.766 233.062M357.629 436.389C356.58 436.079 354.56 435.583 354.645 435.456C355.333 434.412 356.409 433.436 357.369 432.437M62.2528 183.47L62.0705 184.776M419.465 445C420.619 444.626 420.612 444.652 415.505 443.851M135.932 131.829C134.095 132.742 132.251 133.639 130.434 134.615L129.953 135.318C130.834 135.081 131.7 134.854 132.581 134.617C130.548 136.185 128.512 137.765 126.476 139.346M29.4755 208.539C29.1653 209.072 28.8492 209.758 28.5409 210.109C24.9224 214.246 22.9182 217.426 21.7077 219.934C20.5162 222.461 20.0618 224.298 19.7687 226.089C19.6872 226.555 19.1016 227.716 18.776 228.568M133.769 377.12C134.751 377.577 135.745 378.038 136.909 378.595C137.215 378.342 137.494 378.095 137.785 377.851M716.665 176.165C718.46 174.521 720.081 172.75 720.484 171.052M380.583 435.696L385.662 434.181M506.055 298.231C506.061 297.29 503.87 298.54 502.093 299.374M177.912 393.843L176.651 392.269M282.369 424.369C282.01 423.803 281.643 423.221 281.268 422.622C278.059 422.404 277.85 420.508 273.995 420.743M609.17 5.93447C609.244 6.15514 609.317 6.3758 609.275 6.26364C611.385 6.35267 613.311 6.43861 615.139 6.52117C616.968 6.64608 618.71 6.77127 620.452 6.89644M358.418 430.807L361.045 429.543M78.0925 356.512L80.963 355.96M114.656 139.814C111.672 140.724 108.507 142.854 105.231 145.597M694.244 22.1576C692.773 21.3743 691.266 20.6777 689.777 19.9589M540.346 286.013C538.527 285.37 532.122 288.399 528.394 289.28M197.09 100.726C198.523 100.02 199.967 99.3178 202.57 98.0467C201.73 98.9717 201.333 99.4203 200.667 100.162C203.647 98.8717 206.212 97.8695 208.754 96.8176L208.862 96.4307C209.943 96.2726 211.002 96.1073 211.711 95.9982C215.726 94.4925 219.322 93.1611 222.944 91.8665M81.2086 165.427C81.7461 164.7 82.2836 163.973 82.6581 163.474C84.2972 162.385 85.7421 161.416 87.1946 160.463M326.96 428.114L325.518 426.876M279.814 420.55C280.053 420.444 280.289 420.351 280.993 420.043C278.973 419.941 278.228 419.912 277.476 419.867M610.875 251.599C611.241 251.042 611.196 250.633 612.079 249.905C613.589 248.662 615.606 247.103 617.408 245.7M234.155 409.443C235.479 409.869 236.804 410.296 239.049 411.047C237.144 410.841 235.932 410.718 235.511 410.681C233.461 409.936 231.812 409.349 230.151 408.758M143.468 119.319C146.251 118.64 149.03 117.974 152.09 117.23C155.055 115.288 158.209 113.42 161.521 111.646C164.838 109.901 168.348 108.346 171.98 106.928M5.95503 242.399L6.10499 245.556M587.277 6.53382C589.445 6.41648 591.625 6.30279 593.753 6.32734C595.107 6.34145 596.76 6.2552 598.163 6.271C599.558 6.3126 600.703 6.49858 601.021 6.99462M167.839 390.682C162.798 388.679 160.794 386.936 158.423 385.23M330.629 47.508C327.823 48.8405 324.998 50.1105 322.268 51.4814C324.053 51.7611 325.307 51.9541 326.576 52.1802M661.009 225.511L668.171 219.083M715.452 34.0103C714.872 34.7098 714.936 35.4055 715.884 36.5125C716.36 37.0596 717.055 37.7055 718.029 38.4976C718.971 39.3212 720.162 40.3097 721.648 41.52M43.7549 336.787C42.6294 335.96 41.5556 335.038 40.4673 334.167C39.3676 333.292 38.2902 332.382 37.2426 331.454M201.121 397.957L202.909 397.478M699.266 187.003L702.088 183.636L700.91 183.566M708.22 34.8318C705.092 32.6566 701.797 30.7654 698.487 28.9257M224.103 90.0175C224.858 89.6562 225.595 89.2746 226.373 88.9205C226.572 88.8297 226.898 88.8084 227.176 88.7431L224.917 89.8438M12.6292 250.667C12.4934 250.623 12.3576 250.58 12.1086 250.499C10.8873 255.549 10.2113 260.592 10.1663 265.585M640.387 10.2238L642.623 11.5771M499.059 14.1514L507.163 13.555M662.894 220.253C661.266 221.74 659.643 223.214 658.444 224.319C657.391 225.034 656.542 225.506 655.798 225.872C655.035 226.216 654.353 226.447 653.641 226.738C652.23 227.324 650.716 228.102 648.133 230.309M127.376 135.219C126.434 136.112 125.508 136.994 123.94 138.487C122.84 138.582 122.209 138.632 121.585 138.699M45.0503 190.138C43.383 191.767 41.2665 194.995 40.4005 194.168M28.8474 216.621C29.1794 215.308 29.4996 213.948 29.9055 212.503C31.9517 210.8 33.5591 209.559 35.1552 208.315M725.534 42.1387C725.41 42.4502 725.285 42.7617 725.029 43.4105C723.701 41.2388 722.946 39.8844 722.091 38.6666C721.572 38.2743 720.643 37.5813 719.707 36.8719M56.3347 344.862C54.633 343.934 52.9683 342.962 50.9786 341.829C52.0003 342.805 52.9384 343.684 54.5414 345.227C54.6238 344.845 54.6591 344.632 54.7094 344.409M365.337 36.564C367.818 36.477 370.426 36.3325 372.738 36.3178C374.11 36.3098 375.034 36.4946 376.155 36.5886C375.424 36.8174 374.697 37.0332 373.247 37.4943C373.96 37.0208 374.229 36.8543 374.502 36.6748M389.885 432.897L394.689 433.46M737.817 118.095L736.708 117.824M229.739 79.8915L236.867 77.6727M719.008 37.9126C720.044 39.1464 721.098 40.3157 722.092 41.5644C723.065 42.8481 724.07 44.0581 724.979 45.3917L726.07 45.8135C725.114 44.6476 724.084 43.5702 723.038 42.5021M698.871 192.094C702.773 187.696 704.889 186.184 706.634 185.55C709.81 181.932 712.918 178.207 715.955 174.206C717.132 173.882 718.028 173.594 718.931 173.322M120.804 377.753L123.142 378.436L123.335 378.231L120.187 377.006M484.673 17.9989L481.608 20.3447M520.771 298.836C520.674 298.481 519.908 298.305 520.609 297.743C522.459 296.257 522.344 295.7 518.47 296.702M736.323 138.656C735.706 139.709 735.078 140.758 734.203 142.249C734.546 140.896 734.878 139.583 735.195 138.321C736.003 136.851 736.681 135.536 737.705 133.517C737.383 133.258 737.14 133.068 736.901 132.864M664.197 14.4895C663.056 14.0237 661.916 13.5579 659.714 12.6518C659.126 13.6017 658.561 14.5166 657.966 15.4924C660.822 16.089 663.44 16.5243 666.015 17.1991M567.282 275.054C566.013 275.616 564.722 276.171 563.483 276.756C562.458 277.242 561.475 277.755 560.484 278.252M524.181 298.697C519.546 299.862 522.468 298.117 523.712 297.027M202.891 400.835L202.594 398.728M180.423 396.986C180.972 397.36 181.513 397.717 182.384 398.307C183.885 398.017 185.022 397.793 186.159 397.568M142.581 384.459L138.06 382.539M18.0362 235.376C17.1074 237.144 16.1749 238.926 15.3783 240.751M60.5258 340.178C61.7635 341.308 63.0161 342.429 64.2909 343.515M210.16 401.853C212.245 402.426 214.327 403.013 217.193 403.795L217.42 402.856M123.52 134.849C120.742 135.684 118.445 137.139 116.266 138.701C114.102 140.297 112.044 141.955 109.918 143.591M40.6711 337.003L40.4992 335.681M108.484 368.271C108.686 368.519 108.899 368.77 109.135 369.071C111.979 369.889 114.83 370.681 117.684 371.46M53.3671 186.937L52.652 188.958M133.716 374.542C132.194 373.236 130.265 371.757 136.53 373.662M549.901 4.69138C553.618 6.26831 544.676 5.4977 543.431 6.15149M259.903 67.7224C259.085 67.8667 258.263 68.024 257.197 68.2151C255.277 69.7345 255.983 70.7779 249.357 73.1443M248.21 75.124L248.461 76.0344L246.796 76.2013M663.546 10.1728C663.636 9.80798 663.714 9.43955 663.884 8.74867C660.614 8.17362 658.599 7.79156 656.576 7.47765M485.267 306.725C483.412 307.308 481.545 307.889 478.892 308.722C478.213 309.206 477.235 309.876 476.265 310.562L478.078 310.26L482.147 307.857M82.0424 168.607C83.3509 167.551 84.6591 166.454 86.5087 165.01C87.0403 165.139 87.5039 165.246 87.9675 165.353M580.012 1.07106C583.414 0.999516 586.824 1.0292 590.227 1C593.638 1.07202 597.037 1.05571 600.444 1.18297M162.804 384.658C163.733 384.338 170.625 386.432 165.643 383.561C165.512 384.025 165.425 384.335 165.335 384.657M410.948 31.9308C411.778 31.8748 422.29 29.9581 423.799 29.7269M372.643 35.5136C375.312 35.0651 377.996 34.6074 382.62 33.8325C381.934 33.021 381.409 32.3875 380.658 31.4989C383.734 31.097 386.426 30.7405 389.103 30.3933L388.36 30.9277L383.669 31.7655L385.191 30.9193M13.4347 310.057C13.0554 309.386 12.6724 308.729 12.3117 308.036L11.2856 305.933M740.835 99.8828C740.266 102.569 739.831 104.159 739.68 105.488C739.551 106.825 739.57 107.9 739.757 109.522M99.899 155.525L97.3986 158.011M554.931 11.2202C555.279 11.4731 555.643 11.7168 556.113 12.0651C555.651 12.1697 554.605 12.4234 553.468 12.6902C553.068 12.4908 552.799 12.3481 552.516 12.2146M87.4915 363.956L87.2083 362.416M572.666 1.51791L575.113 1.72921L572.673 2.15299M487.97 18.5261L478.292 19.6705M739.941 91.1979C740.001 88.3056 740.024 84.7544 739.498 82.6721C739.265 81.6125 738.908 80.949 738.485 80.3907C738.077 79.8232 737.647 79.3753 737.261 78.7727M151.64 379.585L164.818 383.464M377.777 31.4286L378.712 32.011M257.493 77.5795C261.003 77.4303 266.803 74.7978 271.687 73.3187M452.59 15.9907C455.573 15.6996 458.558 15.3533 461.545 15.1339M516.212 15.5701C518.09 15.3874 519.98 15.293 521.87 15.1563M48.1406 340.858C49.3177 341.589 50.4875 342.346 53.2301 343.918C52.0208 344.049 51.0519 344.159 50.0866 344.256M134.904 373.435L138.767 374.623M157.724 111.858C160.006 110.764 162.273 109.638 164.574 108.607M83.1736 168.887L79.1619 172.095M153.8 380.815C150.336 379.221 146.874 377.614 143.435 375.929M537.641 3.69611L531.187 5.58329M45.2055 197.628C46.8596 196.53 48.5099 195.444 50.471 194.219C48.94 195.934 47.4842 197.645 46.0361 199.373L46.5658 199.332C50.3454 195.501 54.2771 191.83 58.3002 188.274M204.512 91.1754L217.122 87.1498L218.046 86.4068C218.911 86.4464 219.777 86.486 220.642 86.5256C221.494 86.0829 222.485 85.5441 223.483 85.0218M322.36 431.091C320.277 430.42 318.206 429.753 316.13 429.013M703.75 191.161C700.209 194.494 696.037 198.494 695.293 197.453M217.798 408.14C216.54 407.566 215.249 406.798 214.043 406.48C212.399 406.049 210.8 405.984 209.185 405.759M629.793 3.51986C632.132 4.63909 634.443 5.90385 636.742 7.12262M320.497 432.403C318.983 431.774 317.475 431.12 315.745 430.338C313.37 430.135 310.984 429.929 308.61 429.727M402.845 440.321L403.808 438.958M680.524 209.644C678.773 211.176 676.985 212.71 675.294 214.247C672.68 216.611 670.141 219.014 667.434 221.18M731.039 51.6336C732.099 53.4381 733.182 55.2074 734.067 57.0677C735.041 58.8724 735.809 60.7514 736.568 62.5291C737.464 62.6349 738.35 62.7794 739.529 63.0186C738.878 61.8664 738.18 60.9666 737.546 60.0168C736.893 59.0892 736.263 58.1266 735.421 57.1241C735.647 57.5487 735.851 57.9659 736.07 58.3739C736.258 58.8004 736.439 59.2103 736.62 59.6203C736.975 60.4237 737.322 61.2105 737.656 61.9513C738.308 63.4551 738.786 64.9595 739.339 66.4176M517.085 297.901C516.717 298.332 516.364 298.752 515.447 299.821C512.766 300.139 511.001 300.358 509.24 300.564M363.004 438.909L366.307 438.707M388.929 440.733L385.735 440.196M204.996 89.9386L202.246 92.3019M54.5917 182.536L54.1551 183.914L52.1456 185.531L52.5009 182.509M58.256 348.434C58.9505 348.334 59.6414 348.248 60.5687 348.11C62.7141 349.744 64.2003 350.912 65.7232 351.993M743.194 111.825C743.137 107.896 742.55 107.088 741.575 108.842M616.107 248.967C616.006 249.679 615.904 250.392 615.774 251.25C617.815 250.403 619.885 249.536 621.928 248.676C622.013 248.858 622.133 249.135 622.298 249.512C626.147 246.884 628.977 245.025 630.398 243.921C630.125 243.355 629.887 242.842 629.648 242.329M349.711 38.0142L345.023 39.8093M204.195 95.7288C205.292 94.9006 206.396 94.0889 207.463 93.2792C210.339 92.1803 212.923 91.1982 215.507 90.2161M379.618 32.4299C379.027 32.7318 378.452 33.0245 377.483 33.5283C378.707 33.3882 379.639 33.2803 380.57 33.1724M326.052 45.7385C324.272 46.6278 322.519 47.5962 320.747 48.5443M742.752 66.6589C742.849 67.3232 743.008 68.1621 743.005 68.6113C743.029 70.1097 742.878 71.4817 742.731 72.8831M384.447 437.447L381.342 436.109M256.175 72.8653C258.23 72.0083 260.285 71.1513 261.502 70.643C263.395 70.4087 264.964 70.2252 266.549 70.0324M688.844 203.407C687.628 205.406 686.821 206.609 685.869 207.582C685.389 208.061 684.874 208.486 684.259 208.92C683.624 209.335 682.868 209.738 681.945 210.214M665.831 223.547C665.472 224.079 665.117 224.597 664.917 224.913L660.438 227.718C658.952 228.659 657.466 229.601 655.933 230.444M424.709 441.4L424.788 440.596M516.31 298.2L514.576 297.783L517.098 296.711L517.042 297.747M344.417 431.613C344.931 431.849 345.59 432.272 345.925 432.31C348.563 432.583 351.133 432.792 354.027 433.035C354.049 432.915 354.09 432.591 354.14 432.283M92.7529 361.572C95.6784 363.021 98.6189 364.46 101.589 365.839M264.899 420.696L262.252 419.703L263.12 419.602L266.542 420.733M2.86851 281.899C3.22503 283.969 3.78758 285.964 4.23783 288.008C4.84519 289.976 5.44531 291.969 6.12738 293.891M364.755 38.0221C362.435 39.0328 360.134 40.1483 357.837 41.2086M140.341 380.614C141.118 380.837 141.899 381.046 142.883 381.321L140.091 378.649M282.938 64.2001L275.84 66.4428M321.96 46.333L308.775 51.7062M702.75 184.439C706.257 181.884 707.097 180.917 709.151 177.12C709.608 176.24 710.795 174.738 711.613 173.496M164.588 387.272L162.856 387.375C165.118 388.371 167.384 389.312 169.654 390.24M144.313 381.5C145.937 381.742 147.563 381.971 149.619 382.211C148.438 381.141 147.189 380.007 145.947 378.848M526.506 10.2077L522.455 10.436M692.511 24.3276C692.303 24.5418 692.617 25.0931 692.317 25.2358C692.018 25.3785 691.087 25.1348 688.359 23.8622M721.803 44.0875C720.566 42.9574 719.243 41.9546 717.942 40.9167M602.825 2.85003L604.392 4.17053M291.794 62.2424C288.435 62.2015 283.731 64.2304 279.167 66.0656M733.485 52.9842C731.865 50.9716 730.19 49.0256 727.443 46.3263C728.602 48.1341 728.987 49.0036 730.232 51.2051C730.694 50.7489 730.88 50.5698 731.066 50.3906M31.9363 208.615L33.0143 208.512M676.107 213.946L681.189 210.66M530.12 292.311L534.855 290.264L534.776 289.887L529.17 292.005M331.616 48.2058L327.132 50.8544M444.997 21.8433L443.556 23.5452M57.5654 342.459L61.0658 344.585M582.146 272.233C580 272.695 580.482 271.786 583.591 269.506C583.604 270.34 583.609 270.848 583.614 271.356M37.4954 334.109L36.1523 331.553M117.676 140.267C115.644 141.877 113.593 143.424 111.58 145.054M738.258 58.4461C738.71 59.2529 739.256 59.9912 740.387 62.0715C739.764 61.7863 739.314 61.5852 738.823 61.399M747.272 89.2693C747.101 91.2396 747.001 93.1766 746.694 95.1032M616.718 250.401L622.096 245.973M342.233 429.812C343.427 429.648 344.624 429.471 345.51 429.349C349.2 429.834 347.054 431.365 352.665 431.077M175.4 390.699L175.389 389.683C177.204 390.253 178.747 390.736 180.301 391.223M722.465 159.65C724.449 156.323 726.285 152.905 728.012 149.439M300.111 422.066L298.67 420.955M181.388 393.415L181.28 390.68M26.6116 215.662C25.974 216.174 25.3329 216.699 24.4196 217.446C24.213 218.532 24.0834 219.433 23.9493 220.262C25.6845 217.951 27.5334 215.72 29.4089 213.525M145.736 124.959L146.026 125.685M705.573 186.432C702.975 189.266 700.339 192.06 697.649 194.78M326.441 51.5602L335.054 48.6666M634.286 244.273C632.652 244.464 632.491 243.808 635.555 241.25C635.831 241.016 634.975 241.162 634.651 241.128M627.047 248.777L622.464 250.944M731.833 49.6393C730.556 47.9902 729.327 46.2581 727.942 44.729M742.061 101.67C742.158 98.3816 742.13 95.0957 741.855 91.8565M741.597 106.134C741.611 112.102 740.803 108.213 740.504 110.508M372.637 434.191C373.193 434.103 373.748 434.014 374.705 433.859C370.779 433.072 367.038 432.331 363.262 431.579C360.182 431.473 357.24 431.355 354.306 431.169M260.437 418.218L267.668 419.323M296.897 58.8371C295.465 59.937 294.281 60.99 292.511 62.1499C291.544 62.7807 289.582 63.6117 288.067 64.3474M668.524 17.0934L670.634 18.5466M144.87 379.654L139.163 376.114M19.1358 228.824C18.2573 230.37 17.3711 231.899 16.3105 234.004C16.3604 233.036 16.3918 232.441 16.4544 231.252C17.6638 230.066 18.3448 229.399 19.0222 228.745M576.858 269.742C579.388 268.602 581.914 267.475 584.496 266.324C585.155 265.692 585.799 265.069 586.428 264.456M91.2478 358.626C93.9706 359.742 96.8271 362.139 99.488 362.025M718.175 164.063C720.243 160.833 722.235 157.565 724.06 154.186M704.734 188.187C702.902 190.93 701.364 192.362 700.229 192.404M580.588 267.807C580.681 266.684 583.213 265.052 587.55 262.665M274.186 415.671L268.01 413.624M588.138 3.46375C587.596 3.37342 587.057 3.27019 586.221 3.12741C585.749 3.27066 585.318 3.39907 584.883 3.54036M703.318 24.3489C705.2 26.39 700.848 25.1428 704.342 28.0404M120.678 140.741L121.853 141.261M492.878 18.8413C491.351 18.5185 489.822 18.2086 487.466 17.7171C491.904 17.079 495.159 16.6084 498.414 16.1379L497.785 15.7385L492.735 16.756M706.047 35.4534C705.156 34.7585 704.202 34.1559 703.251 33.498C702.304 32.8272 701.324 32.1879 700.283 31.5432C702.921 32.1681 704.113 33.1989 704.842 34.2919M571.736 272.691C573.585 271.599 575.439 270.494 577.718 269.147C575.001 269.678 573.001 270.075 570.964 270.474C570.859 270.496 570.418 270.706 570.238 270.817C569.954 270.992 569.761 271.155 569.529 271.32M354.045 43.236C352.305 44.3774 355.876 44.6699 348.855 46.6417M19.5948 228.072C22.5164 224.174 26.4669 218.372 29.4657 216.089C29.9692 215.703 30.1327 215.868 30.4401 215.784M534.809 293.639C534.398 293.52 533.998 293.406 533.572 293.297C535.103 292.679 536.395 292.167 537.687 291.654M732.281 62.7655C733.749 65.0951 735.042 67.5652 736.216 70.1093M710.448 32.5253C707.262 30.2471 703.95 28.1958 700.591 26.2698M596.462 260.417L585.475 264.248M327.507 44.6457C327.62 45.3431 327.302 46.2111 331.825 45.1788M319.61 54.873C322.464 53.8514 325.314 52.8005 328.192 51.8709M227.443 409.699L222.126 407.494M12.2956 245.046C12.4139 246.026 12.0797 247.128 11.6222 248.275C11.2099 249.436 10.6856 250.646 10.378 251.784C10.1377 252.902 9.76238 254.019 9.46608 255.162M95.2117 157.49C94.2055 159.05 88.3436 164.012 95.1199 160.54C93.3848 161.796 92.4706 162.458 91.5528 163.133M653.241 7.30373C655.072 7.99195 652.546 8.37369 657.029 9.24127M396.448 34.166C399.124 33.6494 401.791 33.1162 404.471 32.6714M738.381 60.5957C737.69 59.2338 737.069 57.7962 736.274 56.499M746.912 90.2923C746.616 89.3673 746.317 88.4551 745.954 87.5506M181.367 390.37L180.581 389.259L178.866 388.861L180.55 390.29M66.8852 345.573C68.8976 346.362 70.8842 347.199 72.9075 347.949M371.705 39.6842C370.938 40.0419 370.171 40.3996 368.637 41.1151C372.116 40.4634 375.189 39.8922 378.278 39.3117M23.6358 310.122C24.3488 311.055 25.1474 311.903 25.9274 312.773C26.7259 313.621 27.4575 314.532 28.2931 315.335L29.3245 315.794L28.0932 314.202L26.9402 312.551M194.813 393.253L188.045 390.412M16.3647 312.281C15.539 311.705 14.739 311.082 13.9241 310.468L14.5438 311.821C15.5547 312.836 16.6769 313.718 17.7394 314.637M75.1097 163.364C72.4183 165.563 69.7572 167.786 67.1115 170.042M112.279 369.747L110.207 368.249M506.369 305.815C509.224 304.835 512.082 303.843 515.45 302.621C515.118 302.922 514.735 303.277 514.146 303.833C515.397 303.378 516.457 302.988 517.506 302.595M104.427 365.093L112.026 367.921M152.833 389.97L154.554 389.863M167.852 387.648L168.363 385.788M6.52453 255.438C6.50043 256.359 6.48357 257.253 6.46761 258.233C6.47554 260.05 6.44996 261.898 6.58557 263.7M632.599 7.54645C631.773 7.58957 630.958 7.67868 630.131 7.76414M680.862 200.976C679.743 201.84 678.56 202.626 677.391 203.403M475.319 13.5088C481.544 13.756 473.6 14.5728 472.189 15.1167M610.363 254.697L612.753 253.92M312.023 424.3L311.342 423.518M283.866 67.875C286.686 67.855 289.289 66.9778 291.65 65.122M735.452 140.26C736.508 139.095 737.529 137.877 738.523 136.622M727.652 158.057C727.061 158.753 726.452 159.429 725.834 160.088M429.885 19.141C428.81 19.231 427.747 19.3246 426.801 19.3994C426.195 19.7529 425.638 20.0658 425.093 20.3823M117.958 142.819L117.515 143.829M600.453 263.784L598.722 263.972M602.629 264.738L602.398 264.157M208.842 407.154L208.332 405.85M177.718 397.648C179.726 398.056 181.738 398.45 184.38 398.978C184.425 398.992 184.997 399.373 185.587 399.732M39.8942 205.988C38.3058 207.6 36.7327 209.246 35.2203 210.938M680.455 24.6639C679.506 24.1754 678.553 23.6574 677.571 23.2427M282.58 414.872C281.529 414.66 280.47 414.432 279.426 414.194L279.337 414.334C280.671 414.637 282.002 414.911 283.332 415.185M670.912 213.763L675.292 209.506M730.377 156.657L728.327 159.738L726.2 162.738M725.905 146.96C725.318 147.952 724.689 148.917 724.083 149.889M433.338 20.4224L431.799 21.3754M635.381 11.1711L635.301 11.8062M558.095 7.47149C557.252 7.12991 556.395 6.79757 555.519 6.44505C552.169 7.0816 554.98 8.09993 549.185 8.30056M333.231 429.824L330.063 429.282L330.099 428.801L334.906 429.618M133.186 125.389C134.192 124.883 135.202 124.364 136.526 123.694C135.933 124.22 135.423 124.675 134.901 125.126M74.6051 356.36C76.589 357.294 78.5692 358.241 80.5676 359.124M315.746 426.47C317.648 426.774 319.55 427.077 321.455 427.325C321.193 426.678 320.992 426.205 320.8 425.749M238.668 83.8651C238.18 84.2845 237.681 84.7003 236.95 85.323C237.907 85.0825 238.825 84.844 239.744 84.6054M579.189 3.52047L577.555 4.0632M642.56 6.66209L644.07 7.5704M723.523 41.8706L722.529 41.7614M716.258 37.463C715.639 37.2072 715.023 36.9385 714.305 36.6371C713.577 36.3743 712.728 36.0585 711.675 35.6771C713.638 37.1675 715.152 38.4992 716.693 39.8253M352.718 430.756L344.853 428.743M43.9921 339.676C44.994 340.196 45.9773 340.738 46.2304 340.847C46.5736 340.24 46.8616 339.742 47.1533 339.232M207.818 90.6087L202.186 94.8847M29.4032 204.535C30.4559 204.171 27.6632 208.884 33.3763 202.299M557.334 279.319L555.62 279.399M475.967 11.467C475.705 11.6077 475.451 11.765 475.16 11.9242C474.622 11.948 474.085 11.9718 473.559 11.9993M58.4668 183.812C60.8557 181.811 63.7133 179.327 63.5398 180.692M528.828 296.874C529.244 296.319 529.663 295.75 530.096 295.173C527.168 295.974 524.214 296.738 521.255 297.472M359.324 435.979L360.217 435.437M312.89 428.729C315.321 428.949 317.738 429.221 320.165 429.412M736.906 128.014L737.41 124.42L736.346 125.92M145.559 385.854L147.698 387.246L151.558 388.532M138.141 128.447L136.113 130.129M92.2045 155.494L91.8141 156.536M4.00697 250.956C4.62598 250.115 5.30565 249.321 5.97039 248.536M75.4082 165.598C74.1412 167.384 72.8552 169.149 71.6185 170.959M586.453 6.87311C584.287 7.20215 582.128 7.46303 579.974 7.83805M316.532 48.5649L313.373 49.5727M540.118 4.46536L536.864 4.71134L536.479 4.93899L540.145 4.93839C541.725 3.97057 544.538 3.97637 547.453 4.05733M632.83 5.62319C630.581 5.58799 626.796 5.00169 626.262 5.75816M618.587 248.401L613.455 251.249L608.235 253.927M575.923 8.4604C574.816 8.66641 573.72 8.83374 571.893 9.18748C573.957 9.17725 575.337 9.22809 576.732 9.22735M14.6777 306.73C15.1553 307.095 15.6406 307.476 16.0272 307.77C15.3328 306.463 14.7471 305.121 14.1877 303.773M159.994 113.137L158.122 115.319M588.881 7.45828L587.245 8.14094M503.254 306.977L500.674 306.934L498.42 308.106M276.107 422.534L272.981 421.668M114.783 375.153L118.654 376.442M30.3976 204.293C31.9766 202.495 33.5858 200.721 35.2295 199M145.999 118.84C144.491 119.902 142.991 120.98 141.942 121.725C141.287 123.005 148.683 118.116 145.892 120.845M180.79 101.762L184.696 100.292M220.754 84.6346L217.626 85.7509M705.625 181.104L704.788 181.58C705.196 181.05 705.548 180.587 705.904 180.111M685.292 201.376C683.267 202.96 681.287 204.601 678.212 206.719C678.852 206.813 679.3 206.887 679.752 206.948M130.179 375.006C129.431 374.681 128.683 374.356 127.361 373.789C128.816 374.061 129.999 374.287 131.17 374.51M202.62 401.928L201.221 400.845M740.373 133.336L741.393 130.19L742.288 127.004M387.974 435.264L390.434 435.072M266.64 420.258L274.626 421.705M486.135 15.8679C486.918 15.9795 487.713 16.0948 489.099 16.3022C489.872 15.7916 490.421 15.4198 490.966 15.061M285.275 417.892L284.726 416.463M543.181 283.958L546.344 282.98M345.718 43.3949C345.222 43.7555 344.729 44.1031 344.11 44.5506C343.329 44.6507 342.574 44.7451 341.819 44.8395M541.848 7.39957C540.923 7.83328 539.988 8.26335 538.922 8.76378C537.025 8.92628 534.592 9.2396 532.166 9.52711M28.2569 212.352L26.1857 215.244M675.371 211.205L678.181 209.241M496.726 15.7348C496.944 15.0033 497.237 14.2678 497.248 13.5682C497.248 13.5682 497.128 13.5575 496.913 13.573C496.711 13.592 496.421 13.6113 496.106 13.6363C495.46 13.6954 494.686 13.7696 494.153 13.8229M729.375 56.6256C728.659 55.7902 727.959 54.9456 727.224 54.1324M674.373 212.825L671.559 214.802M211.678 91.8521L212.001 92.8985M731.377 145.235C733.259 141.214 734.915 137.077 736.375 132.892L736.748 132.576C736.509 133.864 736.15 135.098 735.855 136.367M623.697 251.65C622.746 251.653 621.795 251.656 620.953 251.666C619.962 252.248 619.615 252.431 619.503 252.522C619.391 252.612 619.62 252.587 619.52 252.682C619.121 253.046 618.64 253.439 618.201 253.818M93.961 158.733C93.1904 159.103 92.4347 159.465 91.1217 160.096C91.7017 159.482 92.2854 158.854 92.7056 158.413C94.9849 157.065 96.4578 156.26 97.9303 155.412M680.549 21.7828L683.343 23.5688M338.994 429.655L339.714 430.253C340.263 430.233 341.343 430.257 341.259 430.159C341.038 429.891 340.358 429.588 339.862 429.288M228.809 85.5273L223.827 89.1127M368.498 434.602C366.047 433.264 368.731 432.891 372.022 432.643M599.301 9.38036C598.234 9.40215 597.151 9.47553 596.077 9.52312M724.956 51.7983C723.86 50.9954 722.672 50.3033 721.548 49.5613M402.222 438.629L399.967 436.946L398.093 436.849L399.856 437.909M392.625 437.113L390.295 436.18M313.148 422.539L312.573 421.116C314.187 421.256 315.802 421.397 318.346 421.611C317.89 421.915 317.584 422.125 317.282 422.323M353.786 41.8306L349.908 43.1131L349.649 42.8046L354.545 41.4563M107.904 364.933C108.053 364.756 108.209 364.595 108.465 364.298C109.714 365.038 110.368 365.432 111.023 365.826M273.266 66.3731L270.056 67.2098M646.367 13.5001L643.166 13.2986M673.555 208.398L672.893 207.369M11.1073 236.491C10.2219 239.512 9.37766 242.517 8.81139 245.583M147.847 378.152C147.745 378.513 147.644 378.874 147.542 379.193C144.768 378.173 142.733 377.419 140.698 376.665M233.239 406.208L226.922 404.398L226.863 404.083L230.258 404.783M564.62 10.1218L570.286 10.4701M653.385 15.0576C652.464 14.9998 651.553 14.9456 648.603 14.769C650.958 15.5274 652.44 16.005 653.923 16.4826M303.62 425.349L302.151 424.426M719.856 160.891C717.322 164.112 714.628 167.154 711.955 170.077C711.955 169.641 711.951 169.259 711.947 168.878M211.653 405.935C207.903 403.335 207.895 403.318 209.844 403.102M289.57 421.231L300.152 423.852L301.123 424.7L303.818 424.246M577.554 2.61401L573.476 4.21202C573.205 4.16685 572.78 4.14241 572.696 4.08745C572.564 3.98846 572.657 3.87772 572.663 3.76724M744.822 114.951C744.603 114.81 744.398 114.66 744.167 114.515C744.243 113.892 744.357 112.959 744.46 112.021M740.267 99.8825L740.177 98.1376L740.012 96.3966M36.8343 326.189C37.7135 326.837 38.6298 327.442 39.5162 328.065M108.885 147.224L106.135 149.236M143.383 123.582L143.615 124.163L145.781 122.821M265.724 66.9955C266.597 67.0517 267.462 67.0913 268.339 67.1769M407.756 32.6185L401.419 34.3046M203.908 403.455L207.197 403.698L207.009 403.356C203.926 402.644 200.861 401.868 197.754 401.064C197.061 401.291 196.529 401.471 195.753 401.728C198.128 402.676 200.545 403.651 203.573 404.866C203.295 404.185 203.172 403.878 203.04 403.555M186.719 398.564L185.537 396.707M546.729 7.50941L545.133 8.75343M400.744 29.7268L400.951 31.1437M12.9189 234.346C12.2692 234.77 11.6824 235.101 11.6752 234.424C11.6681 233.746 12.2328 232.044 14.1063 228.582M117.449 377.53C122.359 378.943 119.424 377.266 118.655 376.442M46.6071 186.265L45.4719 187.714M69.8152 172.938L69.6793 174.386M676.552 12.5492L674.198 11.7479M99.2806 362.634L101.418 363.857M732.48 153.607C732.711 153.006 732.949 152.422 733.156 151.814M623.012 250.093C621.154 250.775 619.293 251.469 617.038 252.29C618.274 251.451 619.263 250.785 620.256 250.106M41.4098 191.103L42.3321 190.851M549.032 2.82211L549.864 3.24473M624.206 252.785L622.61 253.368M551.618 288.898L552.253 288.132M170.938 388.614C171.227 388.595 171.539 388.583 171.787 388.536C171.892 388.513 171.827 388.436 171.841 388.385M218.723 92.2511C219.358 92.146 219.981 92.0372 220.653 91.9302C221.883 91.328 223.398 90.5923 224.913 89.8566M8.77378 276.782L9.33657 276.668M535.914 291.505C535.879 291.41 535.765 291.331 535.854 291.191C535.917 291.098 536.306 290.9 536.549 290.739M344.052 39.0886L344.231 40.0324M322.727 428.86L322.01 428.249L321.137 428.587M242.685 412.12L242.005 411.465M733.56 50.477L732.702 50.06M58.3281 177.1L60.5246 175.74M689.287 198.092L687.841 199.019M267.353 416.791L269.692 417.472M570.231 2.7587L570.223 1.95425L568.41 1.94711L566.15 2.9631M102.432 363.41L98.9599 361.096M531.327 296.54L530.427 296.405M100.208 148.803C100.281 148.939 100.604 148.931 100.37 149.236C99.7252 150.083 98.8332 151.061 98.0421 151.988M281.35 416.924L280.897 415.02M721.792 168.547C722.371 167.847 722.95 167.148 723.499 166.425M346.647 39.517C346.667 39.6219 346.781 39.7007 346.669 39.8336C346.595 39.9222 346.194 40.0744 345.936 40.2022M70.7796 350.781C71.3903 350.935 72.001 351.09 72.5403 351.235C72.0341 350.664 71.6308 350.211 71.2238 349.77M441.996 24.3085L444.409 23.8904M15.8425 224.163C15.3507 224.947 14.878 225.751 14.4278 226.562M275.68 65.8285L274.717 66.8827L273.127 67.313L274.822 65.8054M343.973 429.107L343.347 427.865M486.903 15.1162L495.808 14.2577M696.276 188.768L697.912 186.679M77.239 167.074L75.2603 168.757M529.774 291.088L531.227 290.178M573.44 277.742C572.63 277.945 571.824 278.178 571.007 278.364M303.219 427.568L305.611 428.016M228.071 410.535L230.432 411.141M581.866 268.922L584.23 268.151M649.175 6.79573C649.425 6.96062 649.762 7.12522 649.869 7.27216C649.903 7.32544 649.361 7.27746 649.09 7.27464M633.117 245.753L638.679 241.638M491.829 15.5921C492.907 15.4469 493.984 15.3018 495.062 15.1566C494.786 15.0396 494.503 14.9061 494.216 14.7856M310.815 426.541L318.412 425.332M67.7329 171.086L69.7804 169.509M183.223 101.14L180.995 102.349M506.303 12.8418L511.149 11.801L509.519 11.6276L514.359 11.2735M209.186 399.078C209.685 399.323 210.169 399.578 211.405 400.187C212.142 399.805 212.729 399.516 213.32 399.214M518.654 300.489L518.446 299.733M269.907 420.495L268.585 418.873M297.26 424.13L298.932 423.979M680.186 210.717C681.612 208.982 682.011 207.605 686.847 204.536C685.852 205.664 684.9 206.722 683.979 207.761C683.05 208.784 682.101 209.702 681.175 210.67M400.237 441.83L398.657 441.35M282.651 418.665L281.14 418.024M101.181 147.007L105.242 145.6M81.8092 166.492C82.1841 166.388 82.559 166.283 83.7475 165.963C81.082 167.411 79.6951 168.174 78.3118 168.924M499.084 307.364L498.18 307.199M147.291 385.751L148.922 385.967M706.954 177.383L704.54 179.869M138.18 379.342C138.642 379.673 139.104 380.005 140.04 380.672C138.006 379.961 136.466 379.423 134.93 378.872M105.93 146.976C105.737 147.223 105.466 147.529 105.408 147.693C105.39 147.758 105.883 147.495 106.138 147.38M319.273 429.913L320.947 429.707M538.618 8.1318C534.3 7.95036 536.924 8.58452 536.204 8.81691M210.981 89.5882L208.722 90.7312M321.24 427.959L319.725 427.203M12.8621 232.176L14.3831 229.881M277.347 420.5C277.61 420.838 277.88 421.193 278.155 421.534C279.532 421.683 280.375 421.757 281.218 421.832M239.068 79.3242C238.032 79.4968 237.008 79.6731 235.364 79.9452C234.465 80.2886 232.39 81.0832 230.319 81.8648M409.604 28.1504L407.217 28.83M72.6909 171.094C72.517 171.361 72.2684 171.675 72.2064 171.852C72.1883 171.917 72.6664 171.62 72.9245 171.493M47.3389 194.771L48.872 193.971M41.3761 331.196C42.1027 331.641 42.8293 332.086 43.7452 332.648C42.6343 331.419 41.6492 330.356 40.69 329.245M363.711 36.8136C362.896 36.9027 362.074 37.0176 361.263 37.1362M524.628 294.157C525.177 293.785 525.726 293.413 526.685 292.766L529.389 292.765L526.3 294.006M5.38991 276.522L5.94974 278.263M120.342 373.821L118.923 372.941M14.1472 238.146L13.2343 240.651M738.676 122.943L737.817 124.551M475.832 19.4127L473.411 19.772M219.035 87.5413L216.772 88.6548M735.403 125.588C735.306 126.724 735.254 127.875 735.065 129.207C735.575 128.007 736.035 126.678 737.152 123.493C736.205 125.369 735.854 125.959 735.549 126.564M690.227 193.557L685.441 197.149L683.733 199.145M628.085 240.954C627.375 241.414 626.662 241.846 625.937 242.273M614.094 5.18579L614.837 6.1849M297.948 56.1516L299.624 56.0726M672.6 17.4779C672.065 17.4041 671.523 17.3562 670.97 17.3045M560.326 275.078L565.071 273.653M124.65 370.961L127.893 371.457M567.053 10.4695L563.027 11.6624M692.562 190.961L693.61 189.513M676.332 19.088C677.644 19.3839 678.988 19.606 680.689 20.0553C681.013 20.4409 681.306 20.8026 681.603 21.1515M119.383 368.842L117.26 367.525M63.8912 350.081L65.5269 350.453M59.5929 347.585L58.3874 346.297M7.80839 254.783L7.7638 256.611M648.363 227.161L648.544 225.729M737.314 138.117C737.345 137.789 737.416 137.362 737.38 137.182C737.372 137.123 737.084 137.663 736.936 137.925M68.9434 176.483L67.1557 178.453M741.753 70.3036L740.717 68.7605M385.567 38.4951L386.888 37.5281L388.565 36.8306L390.317 37.2264M473.768 315.06L471.348 315.589M705.278 176.801L703.47 178.624M174.354 113.727C175.921 113.204 177.494 112.656 179.075 112.167M150.643 385.86L149.194 385.042M471.958 21.7795C472.557 21.5364 473.168 21.297 473.782 21.0447C472.703 21.0628 471.895 21.0838 471.075 21.1011M154.037 382.917C154.326 382.898 154.691 382.917 154.848 382.841C154.904 382.817 154.413 382.588 154.167 382.453M500.09 17.4233C499.828 17.5641 499.533 17.6939 499.32 17.8363C499.23 17.8918 499.313 17.9468 499.31 18.002M668.294 214.383C668.457 214.112 668.698 213.782 668.748 213.601C668.767 213.537 668.296 213.849 668.057 213.997M677.871 202.615L675.918 204.25M76.5122 174.28L74.4796 175.847M20.0256 310.098C20.1894 310.657 20.3496 311.23 20.6501 312.269C21.7036 313.044 22.4461 313.565 23.2333 314.057C22.4986 313.202 21.8309 312.283 21.1632 311.365M742.637 111.744C742.295 112.126 741.95 112.521 741.303 113.241C741.471 113.829 741.534 114.089 741.608 114.352M650.576 229.52C645.716 231.794 640.902 234.126 635.956 236.091M214.757 400.113C214.801 399.959 214.878 399.815 214.809 399.624C214.809 399.624 214.56 399.543 214.262 399.461C213.953 399.376 213.587 399.272 213.323 399.201M454.924 22.7063C452.785 23.1144 450.658 23.5262 448.647 23.9192C447.799 23.7727 446.906 23.6117 446.002 23.4471M653.456 6.19143L655.786 7.1671L654.699 7.47784L653.458 7.14856L654.177 6.83149M76.7852 162.848L77.0916 163.383M216.423 400.073C219.116 400.547 221.794 401.03 224.748 401.545C225.947 401.932 227.479 402.453 229.015 402.962M11.3038 285.741L12.7361 287.848M527.887 296.571C527.564 296.973 527.256 297.366 526.663 298.118C526.169 298.029 525.932 297.995 525.683 297.957M130.486 379.536L125.45 376.549M676.979 204.339L674.686 205.471M430.967 28.0274C430.451 28.2831 429.942 28.5553 429.452 28.8054C427.358 29.495 426.391 28.0585 423.807 29.7438M401.98 440.718L406.056 440.793M623.248 11.6091L625.608 12.1723M558.869 5.32976L558.875 5.96468M643.373 232.137C643.192 232.078 643.011 232.02 642.724 231.899C642.854 231.744 643.255 231.283 643.645 230.818M177.844 103.458C176.831 104.031 175.83 104.609 174.058 105.599C175.874 104.89 176.956 104.465 178.049 104.044" stroke="#FEFEFE" stroke-width="2" stroke-linecap="round" stroke-linejoin="round"/>
</svg>
