<svg width="714" height="225" viewBox="0 0 714 225" fill="none" xmlns="http://www.w3.org/2000/svg">
<path d="M711.103 5.25757C711.144 6.54214 711.154 7.79003 711.174 9.58841C708.553 11.5336 706.748 12.9833 704.831 14.2128L705.596 12.5796L705.881 13.1301M393.174 134.338C389.533 136.007 390.778 137.861 388.554 139.843C388.259 139.568 387.932 139.274 387.606 138.962M277.502 169.277C276.34 169.791 275.187 170.323 274.177 170.746C274.177 172.14 275.86 173.205 273.229 174.471M603.049 134.448C602.458 134.026 601.856 133.585 601.458 133.31C599.235 134.338 597.43 135.218 595.462 136.081C594.503 137.879 595.696 138.191 596.808 138.485C597.909 138.76 598.95 139.072 597.644 141.164C599.582 141.861 602.427 139.274 604.967 137.274M212.069 113.711C211.936 112.702 211.753 111.784 211.559 110.757C209.071 108.646 207.429 106.554 205.644 104.352M423.362 111.582C424.208 111.087 425.044 110.573 426.421 109.747C424.045 108.646 428.838 105.068 428.43 102.939C428.053 102.958 427.278 102.994 426.503 103.049L425.86 103.655L426.543 104.829M32.3296 197.703C32.7171 197.428 33.1149 197.189 33.5126 196.932L33.6044 197.299C32.503 198.456 31.4321 199.722 30.3613 200.915C28.7703 201.74 27.3119 202.493 26.0575 203.135C24.7317 204.64 23.5385 205.979 22.4676 207.172C22.1821 207.851 21.8965 208.512 21.6211 209.173M543.755 159.111L541.899 158.689L541.369 159.038L544.173 161.277L544.245 160.689C546.08 160.359 547.916 160.047 549.874 159.699C550.343 160.469 550.578 160.855 550.802 161.203M20.0303 196.529C18.0824 197.446 16.2773 199.153 14.5843 201.575C14.5537 201.63 14.309 201.704 14.207 201.704C14.1458 201.704 14.156 201.594 14.1356 201.52M442.311 95.2501C442.117 95.9107 441.933 96.5713 441.658 97.5256C441.026 98.0761 439.904 99.0671 438.496 100.297C437.711 100.59 436.457 101.067 435.304 101.508C434.549 100.792 438.007 96.9934 432.908 99.6727C432.826 101.379 429.644 104.242 431.439 105.27M612.932 128.63C611.667 128.997 610.413 129.383 608.832 129.842C608.485 130.814 608.22 131.567 607.955 132.301M215.352 121.272C215.883 121.694 216.413 122.098 217.137 122.667C217.698 124.942 218.147 126.722 218.29 127.401C217.596 128.227 217.086 128.832 216.576 129.438C216.515 128.998 216.403 128.465 216.291 127.896M568.099 143.752C567.956 144.119 567.814 144.486 567.508 145.256C566.906 144.834 566.6 144.559 566.172 144.229C565.376 145.11 564.632 145.935 563.887 146.761M593.953 133.842C593.606 132.979 593.26 132.099 592.821 131.016C591.312 132.998 590.169 134.686 588.823 136.191C588.354 136.723 587.467 137.163 586.763 137.659M60.304 173.847C59.3555 174.985 58.4071 176.104 57.326 177.389C56.3164 176.691 55.6535 176.233 54.8988 175.719C54.2563 176.508 53.675 177.297 53.0732 178.068M704.036 10.5059C703.679 10.7995 703.251 10.9279 702.965 11.3867C701.853 13.1667 700.793 15.0385 699.712 16.8736M508.815 116.923C507.418 116.097 506.092 115.198 504.654 114.537C505.052 115.198 505.317 115.766 505.592 116.317M159.118 110.206C159.138 110.426 159.169 110.647 159.2 110.904C157.456 111.472 155.712 110.225 154.478 111.968C154.457 113.766 154.437 115.051 154.427 116.335L153.764 116.556L154.631 118.262M674.715 62.1269C674.072 62.3654 673.43 62.5856 672.155 63.0444C672.226 64.3106 672.257 64.8979 672.287 65.4851M56.5414 165.02C55.695 165.387 54.8485 165.773 53.5737 166.341C52.9107 167.938 52.3192 169.443 51.7277 170.948M620.551 120.593C620.908 119.785 621.265 118.978 621.683 118.042C622.754 117.858 623.529 117.73 624.314 117.583V117.033L628.964 112.463M127.064 125.144C129.4 123.529 131.725 122.061 131.582 120.024C131.531 119.4 133.163 118.005 134.05 116.941C132.133 116.794 131.796 118.281 130.909 119.198M495.547 102.664L495.18 101.251L496.169 102.077L495.139 102.902L494.517 102.389C494.895 104.187 495.251 105.894 495.568 107.692M350.381 159.313C350.31 159.882 350.248 160.451 350.167 161.13C349.31 161.24 348.8 161.295 347.719 161.423C348.596 160.579 349.29 159.919 349.983 159.258M537.85 152.652C537.412 152.101 536.983 151.569 536.606 151.092C535.198 151 533.934 150.853 532.618 150.596C530.364 148.945 528.661 146.688 525.867 145.293C525.255 144.1 524.704 142.852 524.204 141.604M183.9 107.325L184.216 106.554L185.399 107.16C187.256 107.343 190.06 105.637 191.814 106.976C192.396 107.435 193.079 107.802 193.691 108.261M161.912 107.417C162.392 106.591 162.881 105.765 163.646 104.444C162.596 104.994 162.147 105.233 161.698 105.472C161.657 105.49 161.668 105.637 161.729 105.673C161.82 105.729 161.984 105.747 162.116 105.765M201.034 109.619C202.676 111.582 204.521 111.582 206.408 112.206M234.679 157.239C235.117 158.652 235.607 159.882 236.147 161.185C236.718 162.396 237.453 163.424 238.381 164.139L239.778 165.534L241.226 166.727L240.726 167.039C241.542 168.489 242.43 169.847 243.623 171.388C244.53 170.948 245.224 170.471 245.989 169.993C245.306 169.535 244.785 169.168 244.337 168.874C243.908 168.525 243.562 168.25 243.205 167.956M467.929 102.462C466.583 102.187 465.237 102.058 463.646 101.856C463.616 102.132 463.585 102.425 463.544 102.737M406.677 118.923C407.554 118.593 408.411 118.354 409.298 117.914C411.858 116.684 414.602 116.225 416.815 113.087M60.1005 167.791C60.0699 166.488 59.5396 165.736 57.6834 166.286C56.8981 166.525 56.2352 166.507 55.0216 166.69C54.5933 168.14 54.1853 169.516 53.7774 170.893L54.5117 170.617L56.327 167.589M699.039 21.6632C701.517 18.7087 701.048 21.4981 701.894 21.6632C702.659 21.7733 702.894 23.0579 701.598 25.9023C701.415 26.306 701.823 26.4711 701.955 26.7648M75.4085 159.35C75.0108 160.029 74.1847 161.295 74.2867 161.295C75.6431 161.258 77.1219 161.001 78.5802 160.891M650.483 91.9654C650.626 92.4058 650.768 92.8462 650.921 93.3233C652.176 91.8736 653.114 90.7726 654.042 89.6899L654.328 90.1854L652.36 92.2957M549.558 153.514C550.435 154.377 551.312 155.056 552.547 156.083C553.964 154.982 555.219 154.028 556.442 153.019C557.381 152.688 558.36 152.34 559.349 151.991M190.855 109.821C189.356 109.142 187.806 108.555 186.246 108.004M641.764 92.1489C640.295 94.2225 638.837 96.2778 637.174 98.6267C636.777 99.0855 636.053 99.9297 635.328 100.755C635.206 100.902 635.053 101.196 635.073 101.251C635.094 101.306 635.308 101.178 635.441 101.141M201.901 107.417L201.095 108.353L201.789 108.72C202.401 107.839 202.962 107.472 203.961 107.71C204.93 108.022 206.419 108.793 208.459 111.215M579.746 150.358C578.369 149.918 576.992 149.477 575.585 149.018C575.554 149.018 575.136 149.349 574.759 149.642C574.912 150.358 575.075 151.129 575.269 152.01C576.125 151.422 576.941 150.872 577.757 150.321M674.99 62.8609C676.347 62.2553 677.693 61.6497 679.365 60.8973C678.743 62.0901 678.233 63.0627 677.734 64.0353M65.9036 166.195C64.0271 165.754 62.7829 168.085 61.3755 169.681M379.488 142.797C380.314 142.871 381.13 142.944 381.987 143.036C381.507 143.623 381.058 144.174 380.6 144.724M275.902 181.554C275.004 181.701 274.107 181.848 272.516 182.105C276.187 183.701 276.657 183.61 277.452 181.921M404.097 120.116C402.517 120.905 400.936 121.749 399.406 122.465C399.12 122.96 398.794 123.529 398.468 124.116M53.5837 180.086L45.6594 188.051M78.0089 158.231L82.9143 156.579M706.3 9.9736C705.198 10.8177 704.056 11.5701 702.914 12.3041M676.959 49.8134C676.072 50.6942 675.174 51.575 673.777 52.9514C673.104 54.7498 672.247 56.9886 671.37 59.1907M344.537 159.533C344.303 160.066 344.068 160.616 343.803 161.222C342.865 161.717 341.763 162.304 340.662 162.892C339.785 163.24 338.908 163.662 338.051 163.919C336.471 164.415 335.818 164.268 337.154 162.947M401.261 128.208C402.138 127.878 403.016 127.566 404.097 127.162C403.393 128.374 402.699 129.53 401.863 130.961C402.597 130.741 403.148 130.557 405.004 129.988C403.984 130.869 403.383 131.401 402.791 131.915M702.598 29.2237C701.364 30.8937 700.079 32.4535 698.906 34.2335C697.703 35.9952 696.509 37.7752 695.235 39.647C693.97 41.5555 692.624 43.5558 691.094 45.6661C690.859 45.8496 689.942 46.5837 688.993 47.336C688.371 49.8501 686.933 51.9238 685.332 53.869C683.731 55.8141 682.017 57.741 680.763 59.8147M509.661 117.363L510.304 116.023C509.947 115.308 509.559 114.666 509.172 114.005C507.479 113.418 505.857 112.849 504.185 112.629M361.538 143.972C361.976 145.201 362.456 146.413 362.853 147.66C363.017 148.174 363.037 148.78 363.119 149.349M84.2097 145.128L79.1512 148.284M498.973 107.765C498.535 107.288 498.107 106.793 497.474 106.095C497.342 106.573 497.24 106.976 497.087 107.545C497.739 107.784 498.096 107.912 498.453 108.041M238.779 168.617C238.697 169.167 237.973 169.131 237.708 169.479C237.443 169.846 237.627 170.746 239.615 172.746M685.006 39.8305C685.934 41.1334 687.219 36.4723 688.493 36.2888C688.259 37.5733 687.973 39.1148 687.688 40.6379M139.527 118.868C140.985 119.033 142.331 119.528 144.442 117.638M469.459 99.4708C469.123 99.691 468.776 99.9112 468.378 100.168C468.644 100.278 469.021 100.443 469.612 100.682C470.092 99.9846 470.541 99.324 470.979 98.6634M491.611 110.922C491.376 108.756 489.805 108.555 488.316 108.316M96.1213 146.174C95.1933 146.761 94.255 147.33 92.6232 148.358C93.7859 148.394 94.4182 148.413 95.0607 148.413L94.7445 149.037C93.1434 149.514 91.5422 149.991 89.3495 150.651C89.1659 150.89 88.6152 151.642 88.1257 152.376C87.8401 152.817 87.6464 153.239 87.4118 153.643C86.5449 153.9 85.9126 154.083 85.2803 154.285M268.599 173.003C270.883 173.205 271.383 173.15 272.372 172.618M567.151 149.422C567.079 149.147 567.018 148.853 566.926 148.486C565.152 149.862 564.927 151.092 566.212 151.679M597.696 140.008C597.002 140.614 596.289 141.127 595.33 141.861C595.167 142.449 594.973 143.146 594.789 143.825M353.512 150.67C351.789 150.982 350.106 151.386 348.76 152.982M598.226 129.438C598.124 130.612 598.022 131.768 597.951 132.686C599.011 132.411 599.756 132.209 599.868 132.191C602.081 130.227 603.896 128.337 605.722 126.612C605.824 126.447 606.018 126.153 606.007 126.153C605.498 126.153 604.967 126.153 604.376 126.153C604.763 125.658 605.192 125.107 605.62 124.538M206.245 100.554C204.552 100.59 204.624 100.609 206.011 103.123C204.634 103.068 203.216 103.27 201.839 103.618M350.35 147.55L347.332 151.11M709.859 6.83563C709.44 7.67977 709.002 8.50555 708.594 9.34969C708.104 10.414 707.615 11.46 707.136 12.506M667.994 61.0625C667.392 61.5397 666.79 62.0168 666.117 62.5306C666.678 61.4112 667.147 60.457 667.688 59.3926C664.954 61.6681 664.944 63.0444 664.74 64.5308C664.74 64.5675 664.526 64.8061 664.434 64.8612C664.292 64.9529 664.179 64.9896 664.047 65.0447M325.293 168.195C325.569 168.488 325.844 168.764 326.527 169.479C327.496 167.736 328.19 166.488 328.883 165.24L328.302 165.149C330.739 163.534 333.177 161.937 335.859 160.157C335.104 160.157 334.411 160.175 333.707 160.194M222.441 120.281C225.357 126.337 221.951 122.153 223.154 125.492C223.909 127.199 224.215 128.08 224.429 129.218C224.643 130.374 224.705 131.805 224.796 134.668C225.571 133.897 226.112 133.365 226.642 132.833L226.296 131.512L225.48 130.411M535.189 157.625C536.209 158.249 537.198 158.836 538.269 159.35C539.391 159.827 540.584 160.212 541.757 160.634M704.158 27.1499C704.749 26.5994 705.422 26.2324 705.912 25.4617C707.799 22.4338 709.451 19.3141 710.562 16.0293M218.259 112.922C217.841 111.399 217.484 109.747 216.933 108.279L216.24 107.545C216.383 108.224 216.515 108.885 216.75 110.023C215.883 110.188 214.404 107.967 212.365 105.563M399.783 126.795C399.691 128.374 401.466 129.108 398.743 131.86M28.3624 203.135L24.4666 207.264M54.1647 174.049L50.5137 177.756M257.452 171.902C255.953 171.516 254.77 171.37 253.781 172.324C253.475 172.654 252.2 172.416 251.364 172.434M191.712 105.233C194.079 105.233 196.445 105.435 199.096 106.151C199.117 105.637 199.127 105.27 199.137 104.903M511.232 135.989C511.263 137.806 512.374 139.696 513.68 141.568M503.359 106.94C501.778 105.49 500.238 103.967 498.607 102.792M74.0626 153.202C73.5935 153.569 73.1142 153.936 72.5022 154.413C73.1244 154.762 73.6241 155.037 74.1136 155.294M553.669 151.459L551.078 153.9M350.35 159.093C353.084 157.955 355.786 156.652 358.499 155.423V155.771C360.916 154.377 363.323 152.835 365.679 151.367C365.75 151.018 365.862 150.523 365.975 150.009M537.677 149.092C535.535 148.358 533.424 147.477 531.14 146.119C531.099 145.77 531.027 145.054 530.956 144.32C533.2 144.944 535.321 145.477 536.28 147.477C536.81 147.422 537.299 147.385 537.779 147.33M159.71 108.628C161.23 109.362 160.699 110.757 158.507 111.784C157.171 112.39 155.784 112.867 154.427 113.381M568.722 153.624C569.477 152.78 570.231 151.954 571.047 151.055C570.282 150.817 569.67 150.615 568.936 150.395C568.12 151.129 567.172 151.844 566.07 152.652C566.866 153.459 567.661 154.303 568.467 155.074M290.465 175.48L292.647 179.536L291.913 179.83C292.423 179.866 292.933 179.903 293.606 179.958C294.096 179.407 294.575 178.857 295.228 178.105C295.778 178.563 296.135 178.857 296.492 179.151M627.485 111.913C628.342 111.399 629.189 110.903 630.239 110.279C630.759 109.417 631.31 108.499 631.993 107.38C632.819 107.563 633.666 107.729 634.512 107.912M187.49 99.2324C185.522 100.187 183.625 101.269 181.494 102.462C181.086 104.921 180.627 105.325 177.496 106.316C175.823 106.114 174.803 106.004 173.773 105.875M576.993 142.045C575.555 142.118 574.117 142.192 572.699 142.265C572.597 142.449 572.393 142.816 572.189 143.183M398.018 132.301L395.051 135.751M286.681 176.086C289.2 175.499 291.73 175.021 294.687 174.269C294.381 173.076 294.126 172.104 293.728 170.544C291.974 171.92 290.781 172.764 289.588 173.663M617.511 111.509L621.244 109.747M121.74 128.942C123.688 127.933 125.666 127.071 127.757 126.116C127.247 125.823 126.554 125.419 125.87 125.015M21.6116 196.033L22.3765 193.996L21.8564 194.217C20.5816 196.033 19.2864 197.777 18.0319 199.667H17.5016L15.1764 203.465M469.776 101.691C471.122 101.948 472.427 102.737 473.804 102.169M302.488 167.388C302.111 167.901 301.744 168.397 301.234 169.094C300.622 168.746 300.255 168.525 299.878 168.305M201.921 99.8379C201.493 100.682 201.075 101.581 200.626 102.554C201.095 103.104 201.575 103.673 202.044 104.334C202.523 104.976 203.023 105.655 203.523 106.463C202.533 106.206 201.891 106.224 201.269 106.114M543.491 154.01C542.736 154.01 541.971 154.01 541.247 154.01C541.023 153.588 540.798 153.184 540.564 152.762C539.095 152.799 537.688 152.689 536.331 152.597C533.404 152.432 530.488 151.991 527.571 150.835M177.935 100.847C178.003 100.236 177.095 100.211 175.212 100.774M92.8479 141.696C92.4705 141.054 92.083 140.412 91.6546 139.678C89.4619 141.495 89.2478 143.385 86.8409 144.064M113.745 128.575C115.061 128.74 117.947 127.768 115.673 130.594C114.959 130.465 114.296 130.355 113.633 130.245M475.905 98.3699C476.374 98.847 476.843 99.3242 477.424 99.9114C478.149 99.8013 478.873 99.8197 479.607 99.7646M510.62 127.731L511.528 129.016L511.385 128.098C510.896 127.438 510.406 126.777 509.917 126.135M93.6334 151.936C93.7354 152.248 93.8476 152.578 93.9904 153.037C93.1745 153.294 92.5728 153.478 91.9711 153.661M582.602 145.697C583.153 145.954 583.693 146.211 584.183 146.449C585.916 145.055 587.528 143.476 589.149 142.045M162.932 116.702C161.933 117.491 160.923 118.262 159.934 119.125M302.224 168.8L302.795 171.094M410.114 126.061C412.419 124.116 414.734 122.189 417.284 120.042C418.977 120.152 420.802 120.262 422.638 120.391M449.174 96.5164C448.939 96.81 448.807 97.2321 448.47 97.4156C446.339 98.5717 444.187 99.7645 441.637 101.361C442.637 102.04 443.31 102.572 443.983 103.068L444.493 102.737C444.381 103.692 444.258 104.646 444.126 105.747C444.738 105.71 445.523 105.673 446.318 105.618M308.2 171.37C308.16 170.929 308.119 170.489 308.088 170.104C310.067 169.333 311.678 168.599 313.167 167.957C315.146 167.7 317.073 167.443 318.99 167.186M241.41 166.488C240.798 165.663 240.156 164.965 239.605 164.048L239.33 164.782M149.704 109.802L148.134 112.885M56.6429 177.407C55.0112 178.967 55.6129 181.096 52.5125 182.417M676.938 57.0253C676.938 57.9061 676.958 58.7686 676.958 59.888C676.357 60.6955 675.643 61.6864 674.919 62.6774M326.679 163.02L322.202 164.543L322.1 165.002L324.925 164.727M327.588 157.295C326.65 158.432 325.701 159.552 324.702 160.708C324.895 161.075 325.15 161.589 325.416 162.103M142.25 112.922L138.283 115.565M191.1 100.682C189.815 100.921 188.54 101.178 187.092 101.545C187.837 102.591 188.316 103.288 188.938 104.224C187.867 104.444 187.123 104.664 186.368 104.848M694.143 35.6465L694.98 39.7939M600.715 126.19C600.235 128.355 602.285 127.933 603.642 128.227M554.169 155.386C556.096 155.661 558.013 155.625 559.951 155.643M564.071 153.826C563.072 154.248 562.072 154.689 561.063 154.982M348.556 154.432C348.341 154.891 348.117 155.349 347.709 156.23C348.525 156.56 350.136 157.184 351.748 157.827M321.061 168.507C319.694 169.021 318.317 169.535 316.941 169.993L317.083 169.755L313.871 170.14M124.525 129.089C121.547 130.117 121.118 132.007 120.221 133.457C119.772 134.191 120.466 134.815 120.843 135.365C121.088 135.732 121.669 135.861 122.097 136.081M658.153 69.8526L657.439 74.2568M225.603 141.292C225.745 142.357 226.419 144.357 226.776 145.807C227.143 147.238 227.214 148.137 226.123 147.036M42.8347 180.453C39.459 183.738 36.1037 186.803 32.6871 188.326M21.6723 197.721C20.8463 199.336 20.8463 199.997 22.7432 198.455M631.748 104.627L635.501 104.114M17.583 202.878L16.4816 205.924L15.992 206.2C15.992 206.2 16.0124 206.401 16.0532 206.383C16.4 206.126 16.7569 205.869 17.1037 205.612M87.0043 148.89C87.0859 149.312 87.1776 149.734 87.3408 150.541C87.7998 150.395 88.891 150.028 90.0026 149.752M27.5366 192.748C27.2715 193.593 27.0165 194.418 26.7004 195.428C27.0369 195.428 27.5468 195.428 28.2199 195.409C26.5882 197.666 25.1094 199.703 23.5796 201.832C20.7036 203.227 20.4283 203.465 19.694 205.576M602.622 132.631C605.436 129.346 606.232 128.777 607.211 129.291M405.219 121.731L404.699 121.125C404.322 121.455 403.944 121.786 403.404 122.263C405.005 122.263 406.269 122.263 407.534 122.244L408.646 120.684L406.382 121.437M228.937 142.595L226.958 140.724L227.101 142.118L224.725 134.337C224.654 134.411 224.48 134.594 224.297 134.76C223.695 132.759 223.042 130.759 222.4 128.777M399.018 122.85C398.519 122.997 398.029 123.125 397.234 123.345C397.152 123.969 397.091 124.483 397.03 124.997M278.746 177.682C278.909 177.334 279.073 177.003 279.409 176.324C278.583 176.618 277.89 176.857 277.186 177.095M179.831 100.498L183.747 101.122M196.2 106.995L194.752 107.288C195.15 107.527 195.548 107.802 195.945 108.059C196.751 107.655 197.547 107.362 198.362 107.05M213.67 104.756C213.201 106.921 212.701 109.068 212.181 111.087C212.763 111.381 213.283 111.858 213.833 112.317C214.374 112.794 214.955 113.234 215.486 113.785M288.456 179.701L288.996 180.857L288.313 181.169L286.181 180.196M227.989 153.863C228.468 153.716 228.937 153.551 229.427 153.404C228.499 151.422 227.693 149.642 226.928 147.789M707.187 16.6534C706.341 18.0848 705.494 19.4978 704.484 21.2044C705.147 21.0209 705.504 20.9108 706.341 20.6722C705.056 21.9935 704.433 22.6358 703.801 23.2964M500.646 117.4C500.523 117.62 500.401 117.822 500.238 118.115C500.88 119.51 501.717 121.088 502.594 123.162C502.767 122.905 502.9 122.703 503.022 122.501M520.972 150.725C520.717 150.872 520.462 151.037 520.197 151.184C520.9 152.028 521.533 152.688 522.165 153.331M558.574 158.983C558.635 159.276 558.686 159.552 558.808 160.139C560.624 159.478 562.153 159.093 563.642 158.396M574.871 152.487C574.198 153.423 572.842 154.469 571.271 155.533C569.711 156.597 567.926 157.625 566.386 158.102C566.121 158.194 565.897 158.396 565.346 158.726C564.744 158.249 564.153 157.772 563.571 157.313M529.661 145.293C528.794 143.733 527.652 142.944 526.438 142.137C525.235 141.348 523.96 140.522 523.001 139.146C523.44 139.99 522.95 140.081 522.644 140.283C522.359 140.467 522.226 140.907 523.603 142.265M658.02 85.2306C660.804 82.6431 663.619 80.1107 666.393 77.4315L666.689 76.3305C664.762 77.3214 662.834 78.294 660.896 79.2115M9.27137 215.375C10.0057 216.788 10.7604 216.293 13.9423 212.255M693.174 40.1059C692.613 40.6197 692.042 41.0968 691.216 41.7758C691.063 42.4732 690.93 43.042 690.808 43.6109M255.454 184.839C253.312 184.931 251.15 184.913 248.937 184.509M111.756 130.998C109.39 133.09 109.819 134.191 110.482 135.182M617.236 117.969L614.207 121.125L614.349 121.272C612.585 122.538 610.8 123.712 609.016 124.868M115.866 126.979C115.754 126.006 115.325 125.547 113.53 127.291M364.852 142.596L367.524 147.22M187.409 98.1314C188.347 98.425 189.377 98.6635 190.203 99.0856C190.958 99.471 191.488 100.003 191.682 100.664C193.018 101.104 194.344 101.6 195.629 102.187C195.986 102.058 196.649 101.838 197.322 101.673M675.674 58.5483C673.369 59.7227 670.789 62.7506 669.075 66.6227M42.4574 177.37C43.0081 177.499 43.5589 177.627 44.1198 177.774C43.9158 178.104 43.62 178.6 43.3243 179.077M6.44586 218.843C6.88439 217.027 7.33313 215.21 7.75127 213.485C8.56715 212.677 9.35243 211.943 10.3111 211.081C10.1275 211.705 9.95415 212.274 9.75018 212.953C10.5049 212.512 11.2596 212.072 12.0244 211.65M231.589 155.166C231.742 156.524 231.936 157.845 232.191 159.258C232.425 160.708 232.691 162.268 233.099 163.956C232.782 163.479 232.487 163.057 232.201 162.635C231.936 162.176 231.691 161.754 231.457 161.332C230.987 160.488 230.508 159.717 230.07 158.854C229.713 159.295 229.917 160.249 230.386 161.368C230.845 162.488 231.487 163.864 232.13 164.965M294.146 173.297C292.892 173.627 291.637 173.884 291.107 174.012C287.741 173.553 284.937 173.297 281.602 172.746C282.02 172.269 282.652 171.553 283.295 170.838M609.975 126.979C606.344 129.695 604.61 132.136 604.916 135.402C603.998 136.099 603.07 136.87 602.112 137.549M635.502 95.764L636.899 96.4796L638.041 95.6906L636.552 97.7458M279.481 170.672L278.155 174.03M302.081 171.737C302.121 172.177 302.152 172.618 302.183 172.966C303.325 172.875 304.09 172.801 304.855 172.728M638.949 91.5065C639.775 90.3504 640.601 89.176 641.621 87.7446C645.058 84.6984 649.209 80.496 651.197 82.0375M36.4296 183.334L35.5933 186.509M666.739 63.8333C665.505 65.8336 664.312 67.8522 663.007 69.8341C662.64 70.4029 661.926 70.9167 661.365 71.4673M448.583 94.4977C447.94 96.7916 452.081 95.7823 453.111 96.9568M649.392 87.2675C647.372 89.6164 645.353 91.9837 642.875 94.8648C643.915 92.3507 644.813 90.2037 645.7 88.0566M430.602 105.049C428.838 107.233 427.115 109.49 425.401 111.729M391.94 127.639C392.715 127.382 393.48 127.089 394.765 126.63C393.766 128.208 392.95 129.529 392.124 130.777M221.299 118.134C220.932 116.5 220.452 115.363 220.014 114.574C219.575 113.784 219.116 113.399 218.637 113.326M413.734 119.969L409.074 124.869M126.279 130.301L133.581 125.419L133.356 125.162C134.947 124.447 136.538 123.713 138.15 123.089M107.779 140.191C108.003 140.393 108.228 140.577 108.666 140.944C107.279 141.953 105.739 143.091 104.434 144.064C104.209 144.834 103.975 145.642 103.74 146.449M370.85 145.752C367.219 147.789 363.558 149.679 359.907 151.587M643.885 96.0577C642.334 99.8746 642.528 100.003 646.118 97.5624M363.293 142.669C361.263 143.898 359.224 145.128 357.174 146.265M516.086 134.356C517.117 135.842 518.157 137.274 519.228 138.54L519.156 137.512C518.116 136.264 517.096 134.851 516.086 133.402M254.209 172.618C255.913 173.26 255.117 174.104 255.28 174.911C255.413 175.517 255.953 176.123 256.32 176.728M405.27 130.117C404.077 132.759 401.476 133.952 398.978 135.2M1.52012 219.908L1 219.669L2.59097 217.761M468.439 91.9104C467.46 91.8187 466.481 91.8554 465.502 91.8737C464.523 91.8737 463.544 91.8737 462.565 92.0389C461.77 92.1306 461.005 92.461 460.23 92.6812M417.11 116.647C417.558 116.133 418.007 115.638 418.843 114.684C417.946 115.106 417.426 115.363 416.906 115.601M399.538 131.823C400.283 132.172 400.63 132.668 398.733 133.952M42.8957 175.811C41.2538 178.141 40.5705 180.618 37.6231 183.022M529.324 147.422C529.018 146.78 528.722 146.137 528.325 145.183C528.916 145.422 529.722 145.715 530.538 145.917C530.772 146.156 530.997 146.431 531.241 146.651C530.721 147.055 530.191 147.44 529.64 147.826M1.97902 224C3.74336 222.66 5.51791 221.302 7.24146 220.055C7.51682 219.853 7.6392 220.293 7.82278 220.422M604.478 128.3C605.304 129.511 606.773 127.603 608.486 125.97C608.506 124.924 608.527 124.006 608.547 123.07M477.945 101.489C478.995 101.398 480.056 101.324 481.381 101.214C482.33 101.801 483.37 102.444 484.451 103.104C485.522 103.783 486.593 104.646 487.684 105.416M279.277 180.233C282.021 179.022 282.266 179.095 283.245 181.628C284.122 181.334 284.978 181.041 285.835 180.71M582.448 137.531C582.397 137.934 582.346 138.357 582.244 139.091C581.551 138.834 581.092 138.65 580.531 138.43C579.909 138.944 579.236 139.568 577.951 140.595C579.358 140.559 580.358 140.43 581.367 140.357M467.583 100.664C467.93 101.122 468.287 101.6 468.786 102.26C468.327 102.756 467.766 103.361 467.195 103.967M603.09 129.383C602.02 130.631 600.949 131.86 599.837 133.016C599.307 133.585 598.725 134.136 598.175 134.686M622.651 111.638C623.059 111.124 623.467 110.628 623.814 110.206C623.936 110.959 624.048 111.693 624.16 112.408M351.289 148.725L349.26 150.963M331.922 168.287C331.851 168.011 331.769 167.736 331.657 167.314C330.78 167.901 330.199 168.305 329.628 168.69M6.71149 211.43C6.66049 211.742 6.47692 212.347 6.58911 212.292C7.15002 212.017 7.78233 211.577 8.39425 211.191M672.328 68.0726C673.113 67.5771 674.888 65.0997 674.337 67.3018M398.855 134.576C396.968 137.164 394.082 137.916 391.726 139.568M351.34 146.211C351.718 146.064 352.105 145.935 352.891 145.642C351.075 147.257 349.811 147.716 348.75 147.092M451.877 104.884C453.61 104.775 455.344 104.884 457.068 104.902M508.815 124.3L507.795 125.309M262.909 171.37L264 171.994L263.072 172.526C262.776 172.159 262.48 171.81 261.96 171.186C259.951 171.993 257.983 172.672 255.994 173.205M246.652 170.213C246.978 171.241 247.304 172.361 247.773 173.627C246.601 173.168 245.56 172.709 244.54 172.104L244.336 172.416C245.02 173.058 245.723 173.7 246.458 174.232M234.628 155.735C233.945 155.184 233.251 154.579 232.588 153.863M140.373 116.464C139.832 117.253 139.282 118.042 138.558 119.106C137.66 119.583 136.008 119.033 134.692 120.795M622.693 110.353C620.571 112.977 618.215 115.565 616.716 118.758C617.889 117.932 618.481 117.436 619.082 116.996M526.979 147.679C526.775 148.248 526.581 148.835 526.255 149.752C524.48 146.302 524.592 146.302 526.632 147.44M500.238 106.518L502.125 107.545L502.39 108.206L500.33 109.142M658.733 70.2563C659.753 69.4673 660.763 68.6781 662.384 67.3569C661.497 69.247 660.987 70.3481 660.477 71.4491M40.7028 177.132L35.8891 181.352M682.445 54.493L683.383 55.7225M684.169 51.7587L685.648 53.1166M332.085 162.836C331.86 164.249 335.45 163.681 333.972 165.736M266.019 183.353L268.365 184.325M101.343 148.523L95.6113 151.863M659.438 71.0271L657.847 74.422L656.959 75.0093C656.929 75.8167 656.898 76.6242 656.847 78.0372C657.918 76.3856 658.469 75.5414 659.539 73.8898C658.458 74.8624 657.979 75.3029 657.5 75.7433M620.082 111.582L617.746 115.271M177.189 113.564C176.475 113.069 175.762 112.592 174.895 112.004C173.763 112.885 171.213 113.546 173.426 114.243M33.462 184.949L32.1872 188.032M441.261 105.215C441.924 105.38 442.587 105.508 443.402 105.747C444.157 105.196 444.942 104.609 445.738 104.04M196.914 109.178C195.047 109.399 193.16 109.821 191.253 110.39M74.4294 158.634C76.6935 158.579 78.1723 159.405 79.3757 160.598C80.0488 161.258 80.2732 161.075 78.6618 163.204M377.427 135.182C377.499 134.833 377.57 134.484 377.703 133.879C376.856 134.338 376.081 134.778 375.449 135.108L374.745 137.989M232.302 171.094C233.241 171.975 234.271 172.764 235.015 173.682C237.432 177.022 240.013 179.829 242.848 181.738C244.53 182.931 246.376 183.481 248.141 184.068M644.945 91.1579C647.465 89.6898 644.701 94.0206 646.19 93.672M606.446 124.593C606.252 124.924 606.059 125.236 605.549 126.043C607.548 124.74 609.23 123.511 611.26 122.134C611.341 123.107 611.413 123.933 611.484 124.758M89.778 152.688L92.5214 152.395M310.515 167.131L303.937 171.003M131.378 130.356C132.418 129.475 133.397 128.539 134.529 127.731C135.661 126.906 136.946 126.227 138.588 125.327C138.884 125.437 139.496 125.676 140.077 125.896C140.098 125.896 139.883 126.135 139.751 126.245C139.669 126.318 139.516 126.355 139.394 126.41M211.406 112.096C210.743 111.95 210.121 111.729 209.478 111.693M265.764 177.407C265.03 178.765 264.286 180.086 263.409 181.609C262.236 182.215 260.9 182.527 259.768 181.518M37.7143 180.233C38.8667 180.196 38.1018 181.279 37.0514 182.527M687.463 45.8678L689.737 43.4822L689.941 42.6381L688.921 43.6474M336.042 153.698C339.937 151.642 340.141 153.881 341.916 154.285L340.682 156.799M11.4635 215.449C11.5246 216.623 12.5547 215.724 13.7479 214.439M493.405 104.646C492.518 104.444 491.62 104.315 490.376 104.242C489.825 103.673 488.897 102.554 487.908 101.673M534.781 152.854C535.322 154.028 535.883 155.221 536.617 156.671C535.475 156.23 534.618 155.863 533.772 155.478M550.762 158.34C549.997 158.909 549.222 159.368 548.437 159.9M343.773 150.578C342.111 150.248 341.417 151.459 340.509 152.358M413.643 117.455C416.254 117.014 416.529 118.17 414.704 120.758M680.283 56.1261L680.599 58.1447M46.4142 184.527L52.5027 178.893C50.3406 179.976 48.1888 180.637 45.8533 183.958C46.0063 184.545 46.2 185.298 46.302 185.683C45.1598 187.353 44.4459 188.362 43.7422 189.445L45.1394 189.207L46.149 186.674M381.211 138.87L383.169 140.999M414.846 111.307C417.222 111.069 417.222 112.83 417.814 114.078M109.9 134.117C108.574 134.87 107.248 135.641 105.759 136.503C105.576 136.375 105.198 136.118 104.597 135.714C104.158 136.43 103.913 136.833 103.669 137.237M452.846 93.672C453.182 93.8739 453.519 94.0574 454.049 94.3694C453.04 94.5529 452.407 94.6997 451.775 94.8648M102.516 133.053L101.761 135.567M415.539 114.831C415.254 115.399 415.132 116.06 414.632 116.537C413.428 117.693 412.052 118.776 410.858 119.785C411.521 120.428 411.95 120.868 412.388 121.29M102.618 138.081C105.055 138.191 106.279 139.237 106.014 141.439M336.888 160.8C339.336 159.68 341.681 158.763 343.752 159.166C344.201 159.258 345.21 158.726 345.955 158.487M679.07 51.7585C679.355 52.0154 679.631 52.2723 680.039 52.621C681.293 51.1896 683.006 49.2261 684.73 47.2626M616.675 125.107L617.563 126.777M280.827 174.177L278.655 174.086L278.502 174.691L280.46 174.471M518.504 148.982L518.045 147.183L517.524 146.559L517.106 147.11M432.663 107.839C432.459 108.188 432.255 108.518 432.021 108.903C431.286 109.142 430.542 109.399 429.797 109.656M688.176 33.9397L683.893 39.0229L683.964 39.5735L686.065 37.8668M396.306 131.732C396.734 131.163 397.162 130.594 397.907 129.585C398.151 130.888 398.865 131.805 398.447 133.181C397.958 134.796 399.528 133.861 400.344 133.916M302.295 174.361C300.653 174.214 299.021 174.067 298.206 173.994C295.86 175.242 294.177 176.141 292.505 177.04M611.066 120.006C610.219 120.097 609.373 120.189 608.323 120.299C607.445 121.547 606.803 122.465 606.15 123.4M110.563 140.21L108.788 141.825C109.196 141.88 109.502 141.935 110.277 142.045C108.135 143.072 106.565 143.807 104.994 144.559M71.0536 163.662L70.7782 162.433C71.4207 163.644 71.2168 163.882 67.9328 166.14M707.646 16.5248C708.237 16.323 708.829 16.1027 709.42 15.9008C709.481 15.8825 709.481 15.9926 709.594 16.2128C708.258 19.1123 707.258 22.1585 704.923 24.4891M547.284 155.918C546.458 155.918 545.632 155.918 544.724 155.9C543.817 155.845 542.817 155.698 541.654 155.57C542.838 156.212 543.837 156.781 544.734 157.221C545.642 157.625 546.458 157.974 547.274 158.322M194.548 98.7001C195.221 99.1589 195.955 99.636 196.516 100.15C197.016 100.645 197.322 101.196 197.699 101.71M521.084 137.053C520.493 136.595 519.891 136.099 519.167 135.402C519.575 137.2 519.096 138.503 521.36 140.467M219.34 118.96C219.677 120.299 219.932 121.694 220.217 123.033M78.1114 151.092C78.7947 150.34 79.478 149.587 80.3959 148.578C80.9772 148.67 81.6503 148.78 82.5172 148.927C81.4464 149.899 80.6203 150.633 79.8044 151.367M143.168 113.895L144.504 115.124M331.146 158.01C332.921 157.772 334.696 157.496 336.327 156.065M84.6077 154.964L83.6592 156.799L82.2008 157.056L84.2099 155.001M253.975 180.545C253.189 180.912 252.394 181.261 251.578 181.536M593.657 132.392L594.656 133.383M449.246 104.793L447.614 107.16M424.606 105.251C424.575 104.242 423.902 104.444 422.668 105.728M547.661 155.258C548.089 156.028 548.508 156.818 549.15 157.974C549.925 157.093 550.262 156.726 550.466 156.506C552.108 157.185 553.699 157.827 555.29 158.469L556.003 158.12L556.105 160.745L555.167 160.965L553.128 159.46M702.516 18.5618C702.373 18.3966 702.241 18.2131 702.057 17.9929C701.537 19.0206 701.211 19.6628 700.874 20.3235M456.252 91.7818C456.242 91.5616 456.375 91.2312 456.171 91.1578C455.967 91.0844 455.436 91.3047 455.039 91.3964L455.865 91.8736M77.1623 156.193L81.4151 153.771L81.5171 153.184C81.2213 153.257 80.9357 153.312 80.6298 153.422C80.5788 153.422 80.4258 153.698 80.3238 153.845M385.882 133.714C386.249 132.502 386.606 131.31 387.045 129.842C385.862 130.429 384.872 130.906 383.883 131.383M155.059 115.381L158.965 114.537L159.638 114.941L157.853 116.097M260.43 175.774C259.318 176.141 258.197 176.453 257.075 176.746L257.819 173.223M284.438 171.039C284.285 172.25 288.181 171.351 286.865 173.168M235.923 170.177C237.401 173.241 239.268 176.177 242.072 176.6C242.144 176.6 242.154 176.489 242.113 176.398C242.042 176.251 241.909 176.086 241.797 175.939M110.481 137.494C113.734 134.815 116.753 134.319 119.731 133.677M638.122 99.9481C636.082 103.49 639.336 100.37 639.713 100.866M71.6248 153.294L76.4589 152.909M42.0082 185.298L42.0898 187.188M243.327 172.526C244.184 174.471 242.756 174.03 241.491 173.498C241.216 174.03 240.981 174.489 240.757 174.93M376.928 141.678L381.752 139.714M245.02 178.802L244.082 182.215M530.549 152.321C530.62 153.404 529.529 153.147 528.131 152.303M171.815 109.619L168.776 109.986M208.877 112.353C209.325 112.904 209.713 113.619 210.111 114.28L209.478 113.968C210.264 114.684 211.131 115.234 211.895 116.207C212.303 116.647 212.711 117.106 213.119 117.565C213.507 118.115 213.915 118.666 214.323 119.253C214.068 118.574 213.833 117.969 213.588 117.308C213.333 116.629 213.007 116.023 212.62 115.161C212.416 116.482 212.232 117.528 212.038 118.556M222.185 129.823L221.563 133.622M190.56 104.774C190.091 105.306 189.622 105.839 189.153 106.389M165.329 110.28C164.951 109.821 164.574 109.362 164.105 108.793C162.983 110.041 162.289 110.793 161.596 111.564M423.015 107.6C422.291 107.692 421.567 107.765 420.598 107.876C420.068 108.848 419.69 109.564 419.272 110.335C420.809 109.637 422.539 108.389 424.463 106.591C425.024 106.591 425.697 106.591 426.472 106.591C425.422 107.564 424.728 108.206 424.045 108.848M287.222 167.094L289.17 167.773M183.095 102.425C182.728 102.609 182.361 102.792 181.851 103.049C183.289 103.93 185.114 102.976 186.94 102.26M465.696 92.7544C464.534 92.7544 463.361 92.7544 462.147 92.8645C460.934 92.9379 459.669 93.0296 458.302 93.2866C458.302 93.4334 458.313 93.5251 458.333 93.8554M334.043 153.129C334.614 153.588 335.185 154.028 335.817 154.542C335.297 154.854 334.797 155.166 334.124 155.57C334.532 155.68 334.838 155.771 335.144 155.863M665.485 69.1736L663.68 71.7244L664.098 71.4858L661.875 76.8626M427.604 106.279C429.685 106.04 431.755 105.802 434.356 105.637C434.233 106.371 434.08 107.362 433.917 108.334M410.736 113.014C410.104 113.895 409.472 114.776 408.717 115.822C410.186 115.161 411.562 114.555 412.939 113.931M152.866 113.307C151.918 113.087 150.959 112.867 149.654 112.555C148.287 113.216 146.227 114.353 144.157 115.51M175.517 108.041C175.742 107.674 175.966 107.307 176.109 107.087C177.292 106.921 178.455 106.756 179.607 106.609M704.046 15.5156C704.372 16.1763 704.709 16.8369 705.117 17.6444C704.036 19.3877 703.016 21.0209 702.037 22.5991C701.027 24.1222 700.058 25.5719 699.089 27.04M50.1163 176.159L48.3724 175.884M534.638 159.497C535.699 159.754 536.759 159.992 537.82 160.176M482.197 106.958C481.789 106.775 481.381 106.591 480.923 106.371C480.453 106.206 479.943 106.022 479.321 105.784C479.637 105.013 479.903 104.352 480.249 103.508C479.077 103.325 477.904 103.031 476.813 102.994L476.415 101.801M432.53 114.115C433.377 113.711 434.223 113.363 435.07 112.996M139.68 128.539L136.722 129.621M491.427 111.748C491.773 111.693 491.957 111.674 492.059 111.656C492.681 112.17 493.273 112.665 493.844 113.124C494.394 113.656 494.935 114.188 495.455 114.684C495.975 115.198 496.495 115.656 496.985 116.189C497.464 116.739 497.944 117.271 498.423 117.822M281.918 173.315C281.969 174.196 282.031 175.077 282.102 176.233C283.275 175.774 283.978 175.517 285.039 175.058C285.529 175.609 286.039 176.178 286.834 177.077C285.029 177.848 283.458 178.471 281.888 179.077M307.098 176.361L304.08 177.205M437.742 107.766C436.834 108.665 435.794 109.546 435.111 110.481C434.795 110.903 435.182 111.326 435.253 111.748M611.014 132.668L612.126 131.456L611.932 131.365L608.21 134.998M514.547 130.447L512.293 126.74M406.116 124.19C403.618 125.089 402.425 124.336 400.854 124.043M372.553 149L375.297 148.725M596.726 143.275C595.574 143.752 594.411 144.21 592.922 144.816C592.688 145.201 592.341 145.789 591.76 146.743C592.627 146.174 593.239 145.77 593.85 145.367M75.6324 162.268C74.8777 163.259 74.123 164.268 73.1745 165.534C72.634 165.461 72.0323 165.387 71.4306 165.314M387.503 140.65C387.493 141.164 384.607 142.265 386.596 142.339M278.542 180.82C279.368 181.169 280.184 181.499 281.082 181.885C281.541 181.738 282.163 181.536 282.795 181.334M144.81 126.318L143.168 125.676M389.85 131.401C388.432 132.337 387.025 133.273 385.495 134.283C385.281 134.76 384.985 135.384 384.7 136.008M221.655 142.063L220.605 139.99L220.748 141.384M400.833 119.859C401.241 119.73 401.639 119.602 401.924 119.492C401.588 120.024 401.312 120.464 401.027 120.887M475.588 97.4155C474.599 96.865 473.436 96.5714 472.631 96.0208C471.009 94.9014 469.377 94.9565 467.633 95.3969M546.193 149.734C545.744 147.293 545.53 147.367 541.39 147.679C542.736 148.064 543.735 148.339 544.735 148.633M20.6113 208.677C19.9484 208.842 19.2753 209.007 18.6328 209.173C17.6028 210.989 16.8481 212.311 16.1036 213.632M306.742 172.232C304.305 173.957 301.857 175.756 298.695 177.866C298.94 176.343 299.083 175.407 299.226 174.489M284.916 178.472C285.804 178.582 286.701 178.692 287.588 178.783C288.619 178.251 289.608 177.737 290.587 177.224M670.115 57.007C669.718 58.1447 669.31 59.3008 668.79 60.7689C668.494 61.2093 667.902 62.0718 667.301 62.9343M221.084 135.659C220.615 135.347 220.146 135.072 219.677 134.796M208.245 114.5C208.041 113.729 207.847 112.885 207.551 112.041C207.867 111.949 208.194 111.876 208.591 111.839C208.979 111.803 209.479 111.692 210.06 111.729C210.427 113.161 210.611 113.986 210.794 114.794M467.256 92.7361C467.124 93.6169 467.012 94.4978 466.849 95.3786C466.757 95.8924 466.594 96.4062 466.471 96.9201M259.268 172.305L260.4 174.012M645.19 87.8366C642.559 90.1121 643.181 91.4701 642.131 93.3051M175.741 106.407L172.814 107.949M217.096 115.84C217.739 116.28 218.279 116.868 219.105 117.62C219.778 119.437 220.482 121.951 221.186 124.41M436.722 108.72C436.253 108.756 435.774 108.811 435.304 108.866L434.815 109.399L435.702 109.674M368.361 147.495C368.341 148.413 368.331 149.33 368.31 150.487C369.014 150.211 370.024 149.789 371.023 149.349M294.585 168.966L293.596 170.984M67.668 164.929C67.5966 165.699 67.5252 166.452 67.4232 167.608C65.4549 168.746 63.5886 170.048 61.7732 171.186C61.4979 170.617 61.2633 170.159 61.0899 169.792C59.9885 170.342 59.0196 170.801 58.061 171.278M652.349 88.2218C651.707 88.5705 651.075 88.9191 650.269 89.3596C649.993 90.2955 649.718 91.2681 649.463 92.1306C650.86 91.8369 651.401 90.7175 651.88 89.488M588.293 143.917C588.884 143.495 589.588 142.834 590.047 142.687C591.281 142.357 592.393 142.082 593.555 141.825M64.4248 161.57C64.6593 160.469 64.8837 159.368 65.1489 158.12C63.2621 158.946 61.7528 159.809 61.5488 161.625M229.233 150.817C229.304 149.789 229.07 148.505 228.703 147.073C228.336 145.66 227.836 144.137 227.397 142.596M127.9 120.189L126.738 120.63L126.88 120.171L130.909 119.18M262.052 180.27C261.42 180.618 260.787 180.967 260.155 181.297M168.052 103.068L170.703 102.37M687.065 41.4454C684.699 44.3265 685.148 45.0972 685.576 45.9047C685.607 45.9597 685.464 46.2901 685.342 46.4552C685.158 46.7305 684.934 46.9874 684.73 47.2443M214.241 104.646C213.66 104.187 213.079 103.728 212.507 103.27C211.916 102.884 211.314 102.554 210.743 102.224C211.233 104.004 211.641 105.325 211.916 106.885M227.132 138.999C227.306 138.044 227.52 137.182 227.622 136.062C227.632 135.897 227.183 134.558 226.928 133.75M282.867 176.233C283.009 176.434 283.152 176.618 283.397 176.948C283.04 177.168 282.622 177.425 282.194 177.682M202.523 100.003C204.001 100.241 205.49 100.682 207.357 101.581C207.122 102.04 206.918 102.444 206.714 102.847M359.499 143.385C358.908 143.238 358.326 143.091 357.317 142.834C356.96 144.669 356.684 146.119 356.399 147.642C356.848 147.55 357.521 147.422 358.612 147.202C357.827 147.954 357.306 148.449 356.715 149.018C357.541 148.945 358.326 148.853 359.122 148.78M383.068 138.063C382.884 138.393 382.701 138.742 382.119 139.824C383.782 138.76 384.975 138.099 386.117 137.274C387.433 136.338 388.697 135.31 389.992 134.338M439.68 107.729L437.477 111.087M140.19 123.786C141.383 123.969 142.607 124.116 144.382 123.107M97.0395 148.872C98.0185 148.413 98.9976 147.972 100.701 147.165C100.568 146.431 100.446 145.807 100.334 145.183M649.107 79.6519L647.067 82.8083M656.225 71.9814L655.246 75.6332M669.86 67.5403C669.075 68.7332 668.289 69.8893 667.494 71.0454M696.703 34.8206L695.887 34.3619L696.397 33.6828C697.998 33.3892 699.549 32.9672 701.14 32.5635M458.353 94.2958C458.557 94.7729 458.75 95.2501 459.169 96.241C457.578 95.6721 456.619 95.2684 455.385 94.9381C454.977 95.3969 454.6 95.8189 454.212 96.241M453.611 103.269L453.376 104.884M315.92 171.278L316.063 172.801M150.348 118.116L151.643 119.18M446.085 96.9384L445.473 98.4983M518.004 139.549C517.219 138.136 516.464 136.668 515.393 134.429C515.475 135.787 515.526 136.484 515.567 137.182M511.661 120.923C512.16 121.62 512.64 122.391 513.109 123.125L513.16 124.116C512.436 123.143 511.722 122.134 510.947 121.235L508.938 118.868M377.479 145.055L376.561 146.688M313.268 171.865C312.289 173.113 313.401 172.728 314.482 172.379M240.043 176.031C240.063 177.095 240.104 178.196 240.155 179.279M85.5253 155.533C85.8414 155.955 86.1576 156.377 86.331 156.597C87.4018 155.991 88.2177 155.514 89.0438 155.056M382.772 134.081L378.836 135.108L379.264 134.393C380.233 134.741 380.039 134.888 380.773 135.842C381.263 136.485 382.415 136.631 383.272 137.017M512.64 128.043C512.028 126.63 511.406 125.217 510.743 123.822C510.57 123.694 510.376 123.584 510.192 123.455C510.284 124.024 510.356 124.611 510.427 125.199M523.256 146.192C522.93 146.247 522.583 146.321 522.257 146.321L521.839 145.807C521.941 145.476 522.053 145.164 522.175 144.779C520.727 143.384 520.38 143.164 520.441 143.641C520.503 144.1 521.023 145.164 521.38 146.009C520.645 145.403 520.013 144.816 519.391 144.192M703.576 22.7825C702.832 25.425 701.995 27.9024 701.19 30.4899M456.446 94.8465C457.486 94.4061 458.526 93.984 459.587 93.5436C461.076 94.1309 462.698 94.8098 464.34 95.6172C464.085 96.6082 463.789 97.801 463.483 98.9938M570.802 147.715L573.729 149.587M158.067 107.912L155.987 110.059M661.752 75.1927L659.998 80.6062L659.346 81.2118L659.019 80.2575M107.187 143.55C107.32 141.311 104.485 142.338 102.047 142.669C102.384 142.1 102.751 141.458 103.118 140.815M45.7712 185.298C44.2312 186.913 42.7218 188.601 40.9167 190.656C40.4475 190.803 39.7642 191.023 39.1319 191.207C37.5205 193.06 37.8673 193.482 38.7648 193.519M375.327 141.604C376.459 142.082 377.601 142.559 378.733 142.999M267.498 173.847C269.732 172.269 265.683 173.572 267.039 172.306C267.508 172.049 268.702 171.37 270.364 170.434C270.405 171.296 270.435 171.884 270.466 172.489M475.915 92.1489C476.547 92.6627 477.067 93.2316 477.822 93.6537C478.597 94.0574 479.576 94.4794 480.463 94.8832M448.715 95.7824C448.103 96.0943 447.491 96.4063 446.696 96.8101C447.002 95.9109 447.257 95.1401 447.522 94.351C449.072 94.1308 450.387 94.0941 451.693 94.0024M322.03 166.617C321.581 166.433 321.122 166.25 320.673 166.066C319.97 166.635 319.49 167.021 319.011 167.406L319.205 167.846L323.865 165.773M93.2153 143.568L91.9302 145.293M211.089 104.994C210.59 104.682 210.304 104.499 210.171 104.407C209.376 104.572 208.897 104.756 208.428 104.903M134.326 118.226C133.245 119.822 131.766 120.63 129.961 120.776M269.14 176.453L269.639 178.802M474.293 100.021L474.354 98.9386C474.721 99.012 475.078 99.1222 475.435 99.214C474.854 100.535 474.303 101.875 473.753 103.251M356.755 148.725C355.96 148.633 355.164 148.541 354.328 148.449C353.104 149.954 353.798 150.45 355.062 150.633M300.133 171.37C299.889 171.204 299.644 171.039 299.379 170.856C299.685 170.654 300.052 170.415 300.653 170.03C300.939 170.544 301.204 170.984 301.531 171.571C302.683 171.351 304.58 170.746 304.05 172.324M315.064 166.397C312.504 166.488 309.965 166.672 307.405 166.69M423.168 110.536C422.597 111.032 422.016 111.546 421.577 111.931C421.373 113.271 421.169 114.555 420.965 115.84M687.769 38.6009C685.903 42.2344 688.289 40.4726 688.493 41.4819M283.979 169.81C283.112 169.718 282.245 169.645 281.307 169.553C281.286 169.223 281.256 168.782 281.235 168.342M335.226 159.882C335.114 159.699 335.001 159.497 334.899 159.331C333.084 160.121 331.361 160.873 328.943 161.919C329.3 160.946 329.545 160.304 329.78 159.643M320.183 163.644L322.508 163.753M300.042 170.269C299.685 170.195 299.328 170.104 298.736 169.975C298.369 170.397 298.083 170.727 297.808 171.058M88.0443 143.99C87.5344 144.834 87.0347 145.752 86.3922 146.871C85.8822 146.633 85.4335 146.431 84.9848 146.211L84.5054 146.578C84.5768 146.926 84.5258 147.642 84.7298 147.55C86.6267 146.724 86.7593 147.605 86.9123 148.486M351.758 152.156L354.042 154.524M153.662 113.454L150.153 116.611M643.415 86.3868C643.65 87.8548 642.395 88.7908 640.723 89.5799L640.203 90.5708L641.641 91.7636M565.927 152.872C564.959 153.166 564.469 154.028 563.776 154.67C563.082 155.313 562.195 155.753 560.471 154.982L559.992 155.533L560.798 156.817M434.703 100.81C434.183 101.343 433.673 101.875 433.194 102.352C434.02 103.031 434.723 103.581 435.641 104.334C436.539 102.939 437.222 101.893 437.895 100.847M471.672 100.315L473.865 101.067M595.003 140.889L594.167 142.834M615.349 121.859L618.347 121.895M560.481 151.771C560.98 151.918 561.49 152.046 562.011 152.193C560.736 153.294 557.227 153.679 558.013 155.533M636.562 103.306C635.073 106.371 635.134 106.591 637.102 105.031M331.983 155.221L330.902 155.111L330.239 155.661L332.524 156.597M297.757 165.516C298.553 165.956 300.786 164.818 300.858 166.085M195.405 102.609C194.65 102.847 193.895 103.178 193.151 103.453M216.464 116.886C216.964 118.244 217.351 119.73 217.79 121.107M171.315 108.445C172.315 108.463 173.325 108.555 174.752 108.683C174.191 109.215 173.61 109.766 173.039 110.335M297.073 171.461L294.901 173.113M517.229 133.31C516.892 132.668 516.546 132.025 515.974 130.943C516.546 132.943 513.364 128.19 515.658 133.218M258.585 178.049C261.512 177.315 262.287 178.838 263.939 179.407M685.77 44.0144L687.953 42.4546M463.564 103.618C464.288 103.71 465.022 103.875 465.747 104.004M220.105 139.733C219.687 138.375 219.269 136.962 218.84 135.677M185.104 98.7369C183.064 100.205 185.92 99.1957 185.961 99.6177M582.275 148.614L584.856 147.275M429.42 114.243C429.512 114.794 429.614 115.344 429.767 116.225C427.676 116.445 424.79 119.51 424.097 117.638M28.7193 190.895C29.5862 190.436 30.4428 189.922 31.3199 189.5M182.013 107.655C180.433 110.555 180.718 110.775 184.481 109.601M240.135 168.232L239.329 167.02C239.064 166.598 238.83 166.14 238.585 165.718M265.611 173.682C263.816 172.728 262.163 174.269 260.399 174.269C258.961 174.269 257.452 174.654 255.983 174.728M602.143 135.879L601.633 139.09M452.386 97.599L450.602 98.5348L451.387 99.0487C452.203 98.2046 453.019 97.3421 454.263 96.1676C455.252 96.7732 456.14 97.2503 457.017 97.8559M559.186 149.128C560.237 149.128 561.287 149.22 562.348 149.165C562.072 150.303 561.858 151.165 561.634 152.009M679.62 50.8045C680.763 49.7952 681.915 48.7675 683.068 47.7582C683.119 47.7215 683.251 47.3729 683.292 47.2077C683.323 47.0976 683.251 47.0793 683.231 47.0242M444.646 94.773C444.045 95.3052 443.453 95.8558 443.402 95.8925C443.219 96.7366 443.117 97.1954 443.015 97.6725M55.9187 169.333C56.653 169.278 57.3873 169.241 58.9374 169.131C59.2128 168.268 59.3862 167.754 59.5596 167.241M82.5474 160.579C82.6494 159.937 82.7616 159.295 82.8941 158.506C84.0772 158.396 84.8829 158.322 85.6885 158.23M341.192 160.891C336.623 162.157 335.287 162.671 333.727 163.589M504.052 118.904C503.083 117.436 502.237 116.207 504.144 117.198C504.481 119.547 504.756 121.896 505.001 124.153M508.876 127.071C508.05 126.208 507.214 125.346 506 124.061C507.479 126.924 508.469 128.796 509.458 131.071C509.131 131.071 508.907 131.071 508.693 131.09M378.356 145.513C377.51 146.302 376.653 147.073 375.572 148.082C375.429 148.046 375.103 147.954 374.766 147.862M644.405 99.0671C643.997 100.003 643.599 100.939 643.477 101.232C642.049 102.829 641.101 103.893 640.142 104.976M49.1572 182.27L49.8609 183.39M307.996 164.745C307.333 165.589 306.67 166.433 305.936 167.369C303.457 167.186 301.703 166.984 302.499 165.02C301.673 164.892 300.622 164.745 299.582 164.598M157.894 113.161L155.273 113.95M169.714 107.875C168.501 109.454 168.908 111.069 166.349 112.61L167.165 112.995M146.074 124.19L146.268 125.676M249.191 181.462C248.386 182.141 248.263 182.105 246.366 180.747C247.08 180.802 247.763 180.802 248.437 180.82M541.073 147.788C540.217 147.751 539.35 147.788 538.503 147.697M635.889 109.527C634.992 109.821 635.624 107.545 633.421 110.004M516.086 126.96L516.403 129.199M106.718 136.411L108.064 137.255M525.551 152.597C524.847 152.303 524.153 151.918 523.45 151.496L523.185 150.798C523.847 151.294 524.531 151.716 525.204 152.12M103.209 139.127L104.117 139.751M694.806 31.6277C694.622 32.3433 694.449 33.0591 694.214 34.0133C697.192 30.6734 698.681 30.7468 700.507 30.0862M207.592 108.573C207.051 108.683 206.531 108.995 205.96 109.123C205.725 109.16 205.277 109.032 204.92 109.013M296.492 168.929C296.962 169.608 295.738 170.893 297.431 171.149M347.047 154.854C346.832 156.157 346.588 157.46 346.394 158.763C346.21 159.937 347.067 160.249 348.872 159.735M246.621 175.884C247.733 177.132 249.344 178.306 247.437 178.894M618.857 119.18L617.776 121.419M475.364 100.902C476.7 101.361 478.046 101.765 479.362 102.37M675.979 54.4745L676.806 54.97L676.183 55.8691L675.419 55.4104M138.231 123.731L139.455 122.079L140.434 121.987L139.118 124.483M92.97 144.412L93.5309 143.128L94.4284 142.577L94.5304 144.137M331.83 160.671C331.677 160.432 331.483 159.937 331.361 159.974C329.668 160.616 327.485 160.873 327.016 162.653M31.0755 185.573C30.4228 186.307 29.7701 187.023 29.1276 187.812M30.4939 195.703C30.4429 197.538 32.9007 195.483 34.1959 195.318M643.038 93.3783C642.691 93.5435 642.344 93.7086 641.967 93.8921C641.647 94.9809 641.977 95.1767 642.956 94.4794M30.0758 189.647C30.5755 189.409 31.524 188.895 31.5443 189.078C31.7075 190.656 31.6973 192.381 31.7381 194.051M238.931 176.802L238.217 177.646M3.71232 213.026C3.52874 213.699 4.18145 213.442 5.67043 212.255M279.991 179.444L277.176 179.499L276.881 180.068C277.309 180.343 277.737 180.618 278.166 180.894C277.054 181.536 275.942 182.215 274.821 182.821M228.549 148.413C228.356 148.101 228.06 147.789 227.978 147.477C225.918 139.953 224.327 138.301 222.665 137.127C222.451 136.962 222.094 136.191 221.808 135.714M132.643 125.658C132.133 125.749 131.623 125.841 131.021 125.951C130.991 126.447 130.96 126.924 130.93 127.401M606.191 121.896C605.161 122.226 604.172 122.538 603.846 123.988M21.9167 202.952C21.4884 204.42 21.06 205.888 20.6521 207.392M702.639 27.15C702.996 28.2143 703.669 26.5077 704.25 25.2231M111.062 133.916L112.041 134.98M62.2519 161.093C62.5987 161.552 62.9352 162.011 63.3024 162.488C64.5568 160.873 65.3217 162.947 66.6475 160.432M500.779 111.895C500.728 112.188 500.687 112.482 500.707 112.335C501.584 113.179 502.319 114.133 503.033 114.977C503.736 115.858 504.45 116.611 505.072 117.547M32.0037 196.529L31.5448 199.428M159.281 111.711L158.445 114.519M269.466 175.297C268.038 174.379 266.366 174.691 264.55 175.591L262.633 174.269M533.996 148.853C533.282 148.56 532.578 148.248 531.874 147.899M688.901 44.767C690.074 45.4276 692.491 41.5188 694.143 40.1242M310.872 171.039C311.586 170.727 312.29 170.434 313.575 169.865C313.146 170.727 312.952 171.131 312.616 171.81C314.095 171.425 315.339 171.113 316.593 170.783L316.655 170.324C317.175 170.544 317.695 170.764 318.042 170.911C320.01 170.544 321.774 170.214 323.539 169.883M250.966 178.783C251.353 178.471 251.741 178.178 252.016 177.958C252.873 178.251 253.648 178.416 254.423 178.6M44.5479 182.178L45.5474 182.821M64.5979 164.084C64.5469 164.341 64.5061 164.598 64.3633 165.369C65.1282 164.286 65.4138 163.901 65.6993 163.516M659.397 81.377C659.305 81.9826 659.417 82.5147 659.081 83.2488C658.499 84.4966 657.643 85.8913 656.888 87.1942M85.2195 150.083C84.5872 150.376 83.9549 150.67 82.884 151.184C83.6489 150.266 84.1282 149.679 84.3016 149.477C85.3113 149.092 86.117 148.798 86.9226 148.486M284.632 168.121C285.968 168.855 287.293 169.589 288.752 170.397C291.781 168.672 295.106 167.516 298.665 167.497M221.87 119.198L220.381 118.446M491.284 105.049C492.253 105.527 493.212 106.187 494.13 106.866C495.292 107.692 497.046 108.756 497.006 110.206M115.794 131.383C118.303 130.631 119.588 131.328 121.006 131.842M374.419 140.926C373.174 142.228 371.94 143.55 370.717 144.834C371.634 145.532 372.287 146.009 372.94 146.504M635.267 97.7826L631.932 102.425M544.714 149.514C544.561 152.046 545.408 152.542 548.793 151.973M177.139 104.866L180.912 103.967M101.211 143.513L100.731 145.183M616.074 122.942L614.472 124.85L615.135 125.731M541.899 156.028C540.104 155.827 538.319 155.68 536.524 155.276M324.099 167.92C324.466 167.718 324.823 167.498 325.201 167.333C325.292 167.296 325.456 167.388 325.588 167.406L324.487 167.993M214.465 124.208C214.557 124.061 214.659 123.933 214.832 123.676C213.435 120.868 211.885 118.739 210.335 116.886M511.477 130.007L511.712 132.392M450.786 101.178C452.04 100.957 453.285 100.719 454.539 100.609M634.819 103.306C635.573 102.224 636.338 101.123 636.899 100.315C638.98 98.6452 639.663 100.462 641.998 96.9936M275.718 178.251C275.188 178.747 274.658 179.242 273.77 180.068C273.26 179.444 272.975 179.095 272.689 178.747M235.362 161.148C235.025 160.598 234.475 160.065 234.087 159.497C233.73 158.873 233.536 158.249 233.893 157.625M223.929 147.679C224.592 148.083 225.266 148.505 225.99 148.945C226.214 151.165 226.408 152.872 226.642 154.579M550.262 148.67C550.313 149.11 550.364 149.55 550.466 150.45C549.426 149.55 548.824 149.037 548.223 148.504C547.947 148.578 547.448 148.725 546.948 148.853M170.438 107.398C171.305 106.976 172.162 106.499 173.181 106.041C172.529 105.839 171.937 105.692 170.907 105.453C170.999 105.93 171.06 106.206 171.121 106.499M390.094 130.576C391.297 130.631 392.562 130.667 393.704 130.777C394.377 130.851 394.867 131.145 395.438 131.328M19.6328 211.154L17.6543 213.1M584.397 149.349L584.672 151.037M326.761 156.707L330.178 156.34M546.927 150.633C548.273 151.22 549.64 151.918 551.017 152.413L551.486 151.606C550.833 151.606 550.191 151.606 549.538 151.532M616.227 117.4C614.105 119.84 612.892 120.006 611.933 119.455C610.148 121.198 608.333 122.868 606.477 124.63C605.824 123.988 605.324 123.511 604.825 123.015M137.232 116.464L136.14 117.179V117.547L137.691 116.959M444.463 106.114L443.341 109.27M694.775 28.3062C694.958 28.7099 695.417 28.8384 695.254 29.5541C694.826 31.4625 695.081 32.1048 696.753 30.545M591.108 137.586C591.618 137.476 592.138 137.384 592.862 137.237C592.403 137.916 591.954 138.577 591.515 139.219C590.812 139.402 590.19 139.549 589.231 139.714C589.292 140.32 589.343 140.76 589.384 141.201M520.075 143.696C519.687 142.889 519.3 142.063 518.637 140.43C517.974 141.348 517.342 142.192 516.648 143.073C517.821 144.687 518.963 146.082 520.167 147.275M677.733 57.9061C678.263 57.2638 678.794 56.6399 679.304 55.9793C679.722 55.4287 680.109 54.8415 680.497 54.2543M693.062 28.7649C695.04 26.9849 694.153 29.2788 693.898 30.6551M99.5991 141.219L100.415 143.513M109.104 131.805C108.788 131.713 108.462 131.64 107.952 131.511C107.503 132.796 107.156 133.769 106.82 134.741M127.074 122.63L129.349 121.987M218.596 133.622C218.208 132.227 217.78 130.961 217.382 129.64M170.551 116.097L168.195 115.565M96.6011 144.485C95.6424 145.073 94.694 145.678 93.3784 146.486L93.6231 147.734M274.025 175.223C271.353 173.718 269.201 175.774 266.866 176.599M178.005 101.71L178.505 102.902M144.697 119.565C144.544 119.4 144.391 119.253 144.208 119.051L140.332 121.914M236.433 168.929C236.045 169.094 235.689 169.168 235.311 169.296M133.469 128.667C134.438 129.236 135.611 129.75 132.714 131.53M474.67 93.2316C476.282 96.0393 472.141 93.4151 471.509 94.1124M341.121 151C340.723 150.927 340.335 150.872 339.815 150.78C338.938 152.175 339.326 153.771 336.164 154.78M335.665 157.001L335.818 158.285L335.002 157.937M521.319 138.503C521.492 138.1 521.666 137.696 521.992 136.925C520.86 135.714 520.156 134.796 519.453 133.879M709.91 13.8089C710.604 12.7629 711.307 11.6986 712.307 10.2121C712.44 9.53315 712.654 8.59723 712.827 7.60628C712.572 7.88155 712.317 8.13848 712.052 8.37704L711.022 11.9004M250.282 183.059C251.078 183.132 251.873 183.169 252.965 183.206C253.128 183.811 253.281 184.362 253.434 184.894M489.315 95.7273C492.487 97.6909 495.628 99.9114 498.596 102.774M119.609 135.347C119.375 136.338 116.183 138.228 118.936 138.466C118.834 137.824 118.763 137.402 118.692 136.98M411.705 125.951C412.103 125.841 416.865 123.327 417.528 122.905M393.521 129.713C394.765 129.273 396.009 128.832 398.151 128.062C397.672 126.961 397.305 126.116 396.784 124.905C398.222 124.483 399.467 124.116 400.721 123.749L400.456 124.428L398.304 125.364L398.895 124.3M194.895 96.0394C195.578 96.1678 196.251 96.2412 196.944 96.4247M576.401 152.046C578.89 152.56 579.42 152.45 580.583 150.615M260.583 183.463L259.023 184.436M476.323 103.123C476.456 103.526 476.578 103.948 476.752 104.499C476.537 104.554 476.058 104.683 475.538 104.811C475.385 104.462 475.273 104.224 475.171 103.967M153.641 110.078L154.223 111.656M485.797 94.2042C486.164 94.4978 486.532 94.8464 486.899 95.1768C486.491 95.1217 486.093 95.0483 485.685 95.0483M446.064 106.83C444.606 107.344 443.147 107.821 441.699 108.408M572.76 154.652C571.445 154.744 569.854 154.505 568.926 155.019C567.998 155.551 567.712 156.762 567.141 157.661M125.31 134.191L119.262 138.045M395.367 124.63L395.918 125.456M340.315 163.259C342.049 164.158 344.864 162.635 347.209 162.011M428.808 103.967C430.206 103.49 431.593 103.013 432.99 102.609M458.842 103.949C459.689 103.875 460.535 103.802 461.392 103.82M174.416 104.572C173.804 104.848 173.182 105.086 171.765 105.728C172.111 104.536 172.397 103.581 172.672 102.627M133.387 130.759L131.602 131.842M291.74 166.543L295.126 165.938M250.599 184.472C249.783 184.362 248.957 184.234 248.131 184.068M124.127 134.117C125.902 133.805 127.697 133.603 129.482 133.328M468.858 89.9467C467.787 90.4422 466.737 91.0294 465.696 91.6534M230.762 164.268C231.17 165.883 231.66 167.442 232.231 169.351C231.334 168.177 230.375 167.057 229.518 165.791L229.457 166.433C231.364 169.865 233.445 173.205 235.851 175.682M314.605 161.625C316.634 161.625 318.674 161.552 320.703 161.442L321.152 160.818L322.407 161.974C322.815 161.699 323.294 161.387 323.773 161.075M45.0887 176.178L48.1687 175.095M613.503 115.142C615.431 113.84 617.624 111.876 618.072 113.472M91.6444 141.751C92.2971 141.66 93.0416 141.788 93.5821 141.403C94.3266 140.889 94.9385 140.008 95.6014 139.274M510.417 118.005C510.855 120.409 511.273 122.721 511.579 125.089M45.272 173.609C46.0777 173.517 46.8731 173.425 47.8012 173.333L50.6364 169.92M11.821 209.576L12.0148 211.631M625.732 107.619C626.598 106.683 627.476 105.784 628.312 104.793C629.587 103.251 630.841 101.747 632.106 100.223M554.78 151.147L556.106 151.422C556.544 151.477 556.983 151.514 557.421 151.569C558.299 151.661 559.155 151.753 559.971 151.844C560.155 150.725 560.338 149.587 560.583 148.082C559.543 148.725 558.778 149.22 557.717 149.881C559.318 150.009 560.603 150.101 561.888 150.211M697.03 28.9852C697.06 28.453 697.091 27.9209 697.162 26.5629C698.437 25.8656 699.263 25.4068 700.099 24.948M27.0985 189.684L25.9665 191.739M16.7878 201.648L18.185 200.529M314.849 160.212L313.503 162.194M238.809 167.332L238.085 167.828L237.238 166.635C237.789 166.103 238.33 165.552 238.85 164.983M168.653 105.105C168.449 105.784 168.245 106.481 167.98 107.398C166.736 107.343 165.869 107.307 165.002 107.252M580.481 144.724C579.084 146.358 578.91 147.514 579.828 148.266M656.989 83.5056C656.908 82.6615 656.826 81.8173 656.724 80.7897C655.745 81.3402 654.746 81.9091 653.767 82.4596C653.685 82.221 653.563 81.854 653.399 81.3585C651.747 83.6157 650.534 85.2673 649.901 86.1298C650.156 86.9005 650.381 87.5978 650.605 88.2952M382.618 130.943L380.569 132.759M314.401 167.498C314.941 166.874 315.482 166.232 316.002 165.626C317.409 165.369 318.664 165.13 319.918 164.855M396.437 126.061C396.203 126.428 395.958 126.777 395.571 127.364C396.152 127.254 396.59 127.162 397.029 127.089M371.962 137.843L369.657 140.65M562.297 145.403C562.552 145.55 562.888 145.678 563.061 145.862C563.643 146.504 564.173 147.183 564.734 147.862M19.7757 202.969C20.3366 202.914 20.8975 202.896 21.4686 202.86M339.49 156.597C340.469 156.12 341.448 155.661 342.019 155.368C342.947 155.661 343.712 155.9 344.487 156.157M621.407 110.335C622.549 107.087 622.937 106.591 624.864 106.206M632.748 98.058C632.891 97.5808 633.023 97.1037 633.105 96.8284C634.584 95.8742 636.063 94.9199 637.541 93.9473M3.26379 219.853L3.56975 220.807M697.315 28.5447L698.365 28.82L697.457 30.3615L697.1 29.1503M36.8176 187.885C36.532 187.885 36.1241 187.775 35.9915 187.904C34.9105 189.042 33.8906 190.216 32.728 191.519C32.7688 191.666 32.881 192.051 32.9829 192.455M152.489 116.611L147.96 117.693M69.9829 155.184L71.3189 154.799L71.0333 155.441L69.371 156.102M208.091 100.205C206.327 99.0672 204.512 98.2965 202.717 97.8193M390.033 132.466L387.086 136.026M129.124 125.749C128.767 126.006 128.41 126.245 127.972 126.557L129.838 127.915M352.278 153.055L348.892 154.046M370.014 137.934C368.045 139.512 366.057 140.999 364.058 142.504M614.095 123.455C612.096 123.877 611.616 124.281 610.331 126.905C610.036 127.493 609.322 128.263 608.791 128.942M118.109 133.383L118.711 132.154C117.559 132.447 116.427 132.741 115.284 133.035M127.39 127.272C126.728 128.043 126.054 128.832 125.208 129.805C125.983 130.337 126.809 130.906 127.635 131.475M463.452 97.4517L461.555 97.3972M533.272 152.413C533.088 153.11 534.016 154.707 531.191 153.477M549.569 154.395L547.285 154.817M499.126 105.692C499.208 106.426 499.3 107.123 499.371 107.894M356.531 152.688C354.869 151.863 352.676 153.367 350.514 154.487M555.83 149.294C554.76 149.661 553.699 150.046 552.067 150.597C552.975 151.037 553.352 151.22 554.423 151.753C554.392 150.817 554.382 150.45 554.372 150.064M227.571 151.055L227.265 152.211M627.873 104.738L625.263 106.077M692.196 36.7108C691.604 37.6283 691.013 38.5458 690.401 39.4267L690.564 39.8671C691.318 38.9496 692.053 37.9586 692.797 36.986M374.99 141.99L373.083 144.834M426.228 111.949L425.86 114.243M170.815 111.087L168.949 111.729M670.421 60.3283C671.461 59.9613 671.438 61.0256 670.35 63.5213C670.125 62.4937 669.993 61.8697 669.86 61.2641M179.933 101.581L181.198 102.774M270.741 177.958L267.386 179.609M558.696 147.018C559.053 146.871 559.42 146.743 560.328 146.376C560.144 147.091 560.012 147.605 559.869 148.119M571.098 143.568C571.873 143.733 572.658 143.953 573.433 144.045M656.367 81.6155L654.185 85.7445M38.316 188.785C37.9489 189.647 37.5715 190.491 37.2962 191.115C35.7562 192.583 35.9398 189.629 33.9918 193.042M113.011 136.062L113.347 137.255C112.49 137.696 111.777 138.136 111.052 138.54M601.673 133.842L597.246 137.953M56.6427 174.049L57.581 174.508M109.941 136.65L110.879 139.806M225.449 145.348C225.428 144.651 225.408 143.953 225.367 142.926C224.817 142.632 224.368 142.412 223.939 142.192C224.47 144.247 224.99 146.321 225.561 148.394M285.182 176.655L285.254 177.737M612.524 119.216L616.848 115.106M372.818 145.66L376.765 143.146M647.628 84.5333C648.525 84.7902 648.729 85.6343 647.424 87.8364C647.312 88.0383 647.771 88.13 647.954 88.2585M650.891 81.065L653.023 79.5603M554.321 148.541H551.731M576.89 149.789C575.534 150.431 574.188 151.202 572.811 151.716M578.778 149.202C581.072 147.037 579.787 149.587 580.756 149.165M25.4562 200.401C25.293 200.804 25.1196 201.208 24.8341 201.905C26.578 200.658 28.2506 199.483 29.9333 198.29C31.1062 196.749 32.228 195.262 33.3703 193.849M72.5219 155.496L69.4726 158.414M358.805 149.385C358.183 150.505 357.673 151.624 356.888 152.743C356.459 153.349 355.542 153.991 354.848 154.615M521.522 147.477C521.767 148.174 522.022 148.835 522.287 149.496M127.777 129.805L130.98 130.319M221.482 136.026C221.125 134.815 220.737 133.677 220.237 132.117C220.717 132.374 221.002 132.521 221.584 132.814C221.584 134.282 221.584 135.09 221.584 135.916M673.96 63.7967C672.869 64.9712 671.788 66.1457 670.676 67.3568C670.472 68.0542 670.268 68.7331 670.074 69.4121M153.937 118.978C152.611 119.639 150.837 118.794 149.899 120.776M604.457 133.365L602.274 135.53L600.051 137.604M612.983 117.822C613.993 116.023 614.809 115.418 615.452 116.115M672.43 65.852C672.655 67.1916 671.737 69.0818 669.891 71.4491M68.4328 166.507L71.421 165.296M492.446 101.343C492.232 101.049 492.008 100.755 491.671 100.315C491.427 100.352 491.192 100.388 490.968 100.425M538.188 146.743C539.238 148.101 537.188 149.257 539.085 150.652M272.016 180.637L272.475 182.105M448.389 107.343C447.645 106.885 446.9 106.389 445.728 105.747C447.726 104.921 449.205 104.371 450.674 103.875L450.337 103.325C449.583 103.692 448.828 104.15 448.073 104.554M541.053 158.377C539.972 158.084 538.891 157.882 537.728 157.478C539.064 156.726 539.768 156.946 540.298 157.845M675.979 60.5853C675.265 61.7964 674.551 63.0076 673.654 64.4573C675.01 64.0353 675.999 63.6866 677.009 63.3196C677.06 63.3012 677.244 63.0627 677.315 62.9525C677.427 62.7507 677.488 62.5672 677.57 62.3837M385.495 138.338C384.791 139.641 386.617 140.448 383.384 142.265M221.666 136.631C222.267 140.32 223.828 145.073 223.991 148.358C224.011 148.927 223.848 149.073 223.777 149.422M689.288 35.4631C689.543 35.5732 689.798 35.6833 690.053 35.8117C689.451 36.6192 688.952 37.2982 688.442 37.9588M559.298 157.753C560.573 157.276 561.847 156.909 563.102 156.322M542.419 151.679C540.675 151.386 538.921 151.22 537.198 150.762M665.495 73.0639C667.208 71.9629 668.952 70.9352 670.655 69.7791M372.542 136.631C372.685 137.567 372.624 138.687 374.735 138.008M369.758 148.853L373.715 146.321M87.575 145.697L90.298 145.146M217.086 125.346C216.107 125.034 215.883 122.722 215.261 121.419C214.975 120.758 214.71 120.042 214.414 119.4M258.228 182.013C257.514 183.114 253.934 183.756 257.524 185.536C256.524 185.555 255.984 185.5 255.443 185.481M518.177 132.539C518.616 133.897 517.372 133.457 518.861 135.897M405.025 128.869L408.686 126.979M559.502 148.192L557.645 148.301M571.536 144.1L570.557 145.568M110.95 140.228L111.603 141.036L112.357 140.412L111.276 139.806M166.644 115.418L163.799 117.528M393.735 135.164C393.409 135.586 393.083 136.008 392.44 136.852C394.072 136.246 395.5 135.659 396.938 135.072M192.242 108.463C191.212 108.757 190.192 109.105 189.152 109.472L188.714 110.225L190.519 110.316M105.107 145.201L108.523 144.394M193.334 97.9294L194.619 96.2962L193.967 96.0209C193.344 96.5531 192.722 97.0669 192.131 97.6358M249.732 170.69C249.049 170.599 248.365 170.47 247.682 170.342C247.019 170.14 246.326 170.012 245.673 169.736M142.851 120.373L144.075 120.74M699.548 18.5984C698.467 20.0848 697.386 21.5896 696.111 23.3513C696.162 22.966 696.233 22.5072 696.325 21.8282C695.856 22.4888 695.458 23.0577 695.071 23.6266M147.156 120.538L143.505 122.355M121.526 122.63L120.934 123.859M116.794 134.998L117.212 137.531M215.934 115.895C215.577 115.546 215.24 115.253 214.883 114.886C214.21 114.243 213.476 113.674 212.793 113.105M509.682 123.639L508.581 122.74M626.19 117.693L628.056 116.629M394.633 131.365C394.531 131.585 394.429 131.805 394.143 132.374C394.786 131.86 395.102 131.603 395.428 131.346M439.384 100.15C442.433 100.499 438.711 101.545 438.12 102.334M659.03 77.67L657.867 78.1655M51.4518 178.196L52.0026 178.71M352.982 158.194C354.389 158.928 355.644 158.432 356.684 156.505M591.851 137.329L589.679 136.393M598.797 130.209L599.99 130.062M418.406 108.811C417.906 108.958 417.406 109.105 416.957 109.234C416.733 109.711 416.529 110.151 416.325 110.591M270.527 181.316L270.19 182.252M662.517 68.3661L663.414 68.3834M661.1 66.8431L661.365 67.5954M95.2547 137.402L95.8972 138.632M109.869 129.291C109.002 130.099 108.136 130.906 106.993 131.952C106.963 131.952 106.636 131.879 106.3 131.805M226.653 159.772C226.021 158.12 225.521 156.432 224.97 154.762M526.958 156.726C526.448 156.267 525.938 155.826 525.428 155.331M65.6893 172.342L67.0763 171.278L67.0559 171.058L65.2916 172.397M630.902 107.49L628.76 110.408M597.257 128.704L600.123 127.126M597.818 142.541L599.297 141.715M420.323 110.408L419.762 111.693M509.05 128.63L508.703 129.254M478.179 98.6636C477.833 98.0396 477.486 97.4157 477.119 96.7551C475.507 96.9386 476.7 98.8471 474.028 98.003M41.5904 183.701C42.0392 183.316 42.4879 182.894 42.9468 182.527L43.1202 183.114C42.4267 183.683 41.7434 184.307 41.0601 184.894M279.41 169.59C279.91 169.571 280.42 169.553 281.082 169.516C280.766 169.81 280.491 170.067 280.205 170.324M160.556 109.215C159.567 109.619 158.587 110.114 157.598 110.555M49.2803 177.811C48.4746 178.563 47.6689 179.297 46.8735 180.031C47.2202 180.637 47.4752 181.077 47.7199 181.518M331.188 165.185C330.953 165.571 330.718 165.938 330.372 166.507C330.841 166.507 331.29 166.543 331.738 166.562M488.408 98.7001L487.551 98.9386M514.149 127.401L514.302 128.997M549.538 150.431L549.171 151.312M545.786 152.597C545.184 153.11 544.582 153.679 543.542 154.413C544.664 154.689 545.592 154.689 546.52 154.799M34.1044 193.446L37.7759 191.446M176.108 102.058C175.629 102.425 175.15 102.793 175.027 102.884C175.119 103.839 175.191 104.646 175.272 105.435M316.196 162.249L313.442 165.571M231.007 148.046C230.864 149.11 228.967 146.651 230.946 151.973M681.884 53.0425L682.782 52.9698M439.404 97.4156C439.302 97.6175 439.19 97.8194 439.078 98.0396L438.313 98.1314M238.31 172.691C238.626 173.003 238.953 173.315 239.269 173.627C239.595 173.902 239.891 174.159 240.136 174.416C240.615 174.948 240.849 175.462 240.513 175.939M691.288 31.2789C691.267 31.9579 691.247 32.6552 691.216 33.3709C692.471 32.2332 693.746 31.0954 695.01 29.9393M29.6275 191.06L29.5051 192.161M49.4534 173.553L46.5468 176.912M588.007 144.559L586.691 146.247L587.568 146.669M125.545 122.905L124.311 122.593C123.699 122.887 123.077 123.18 122.475 123.511M281.348 176.526L280.256 177.389M257.452 177.187L257.075 178.068M219.197 114.445C219.177 115.455 219.157 116.446 219.126 117.418M249.13 173.425C248.223 174.067 247.274 174.783 246.315 175.297M490.845 105.233C489.826 105.013 488.836 104.701 487.816 104.572M367.576 139.898L366.117 140.595M470.02 91.3415L468.45 91.2498L468.256 91.5067L470.01 92.0022C470.816 90.8644 472.172 91.3415 473.559 91.9655M510.692 121.712C509.764 120.666 508.53 118.134 507.959 118.776M655.695 83.6157C657.265 82.1293 658.816 80.5511 660.376 79.028M485.93 104.297C485.409 104.26 484.91 104.169 484.043 104.205C484.94 104.682 485.522 105.16 486.123 105.545M195.761 100.187C195.506 100.499 195.241 100.792 195.037 101.049C195.69 101.269 196.312 101.453 196.934 101.71M292.719 169.425L291.699 171.223M491.733 106.738L490.866 107.105M700.67 16.8185L701.985 16.4515L702.659 14.7816M65.2099 159.588L66.6683 158.763M140.251 115.601L138.425 116.629M230.783 149.055C231.293 150.523 231.813 151.991 232.374 153.349M285.824 168.966C285.049 169.461 284.264 169.957 283.723 170.305C283.315 171.572 287.119 169.571 285.61 171.443M303.05 165.001L304.957 164.929M322.447 159.515L320.938 159.809M612.443 125.162L612.922 125.236C612.688 125.529 612.474 125.786 612.259 126.043M623.579 114.757C624.66 114.042 625.731 113.326 627.312 112.28C626.935 111.839 626.67 111.546 626.404 111.234M134.631 125.841C135.009 125.731 135.386 125.639 136.049 125.456C135.427 126.08 134.927 126.575 134.427 127.089M99.3242 139.769L100.201 140.155M588.098 136.393L585.651 138.063M19.3675 207.392L18.5516 208.952M69.5036 156.726L66.0565 159.68M444.871 103.251C445.259 103.398 445.646 103.563 446.319 103.82C446.625 103.141 446.839 102.664 447.054 102.187M63.5885 170.36L64.3126 171.718M688.034 47.2809L686.668 48.5838M381.395 137.604C381.201 138.026 380.997 138.43 380.753 138.962C380.375 138.98 380.018 139.017 379.651 139.035M470.693 95.5621C470.244 96.0393 469.785 96.4981 469.265 97.0303C468.378 97.0303 467.236 97.0302 466.104 97.1404M226.734 147.183C226.438 146.431 226.163 145.679 225.878 144.908M628.556 108.353L627.108 109.27M449.847 103.251C449.878 102.278 449.939 101.287 449.878 100.333C449.878 100.26 448.94 100.498 448.43 100.59M556.157 157.203L554.627 157.772M628.974 106.903L630.423 105.967M318.052 165.479L318.205 167.002M594.809 137.971C593.085 139.256 591.382 140.669 589.628 141.861L589.383 141.604C589.842 141.036 590.301 140.503 590.76 139.916M652.196 78.3856C652.726 78.6241 653.257 78.8443 653.726 79.0462C654.164 78.569 654.327 78.4406 654.368 78.3488C654.409 78.2571 654.287 78.2388 654.328 78.147C654.48 77.7983 654.664 77.4313 654.837 77.0827M257.442 182.472C257.055 182.27 256.667 182.032 256.004 181.628C256.371 181.408 256.749 181.187 257.014 181.041C258.217 181.371 259.002 181.591 259.778 181.756M527.193 152.927C527.652 153.514 528.121 154.047 528.59 154.615M39.5707 187.188L39.071 186.895C38.8772 187.225 38.4693 187.775 38.5407 187.849C38.7242 188.032 39.0914 188.014 39.3973 188.087M326.374 163.791L323.967 166.635M26.8018 197.648C28.2398 197.85 27.4036 199.74 26.3021 201.832M495.527 112.573L494.181 111.638M553.097 158.359L551.18 160.066M12.7482 211.173L14.278 211.907L15.0123 211.044L13.9211 210.751M16.9093 207.815L18.1433 207.594M51.7178 180.894L52.4623 182.215C51.8299 182.986 51.1874 183.738 50.188 184.949C50.239 184.326 50.2696 183.922 50.3002 183.5M385.168 136.448L383.424 137.714L383.251 137.274L385.494 136.026M145.932 123.107C145.932 123.419 145.932 123.712 145.932 124.245C145.248 124.208 144.892 124.19 144.524 124.171M347.618 153.239L346.088 153.441M512.282 136.099L511.069 134.392M629.872 112.574L630.341 114.115M221.808 126.171C220.87 124.483 219.84 122.923 218.84 121.4M127.166 133.53C127.095 133.035 127.013 132.539 126.942 132.099C128.278 131.53 129.267 131.108 130.246 130.686M86.6876 153.331C87.6666 152.762 88.6355 152.175 89.6145 151.642L89.7573 151.991C89.2576 152.376 88.7681 152.798 88.2785 153.202M480.718 103.691C481.534 104.224 482.319 104.921 483.115 105.527M514.649 140.834C514.251 140.375 513.853 139.935 512.63 138.43C513.313 140.265 513.772 141.439 514.261 142.595M54.114 172.159L55.0115 172.434M603.192 135.053C604.936 134.154 606.68 133.255 608.393 132.374C608.363 132.851 608.343 133.273 608.312 133.695M94.6532 140.577C96.9172 141.348 96.9274 141.366 96.2849 142.816M60.7837 168.929L55.9598 171.994L55.2765 171.535L54.4606 173.572M487.857 97.0485L485.685 98.0028C485.573 97.8744 485.379 97.7459 485.348 97.6358C485.307 97.4706 485.369 97.3422 485.389 97.1954M581.072 140.981C581.092 141.348 581.103 141.715 581.123 142.118C580.888 142.283 580.542 142.54 580.185 142.797M576.513 152.909L575.065 153.991M182.871 108.738L181.422 109.619M265.887 180.27L264.367 180.692M284.223 173.535L284.274 174.398L285.396 173.939M343.945 151.881L345.241 152.909M410.277 126.887L407.503 129.144M98.3344 138.742L97.0494 140.467L97.233 140.76C98.6098 139.733 99.9764 138.705 101.394 137.751C101.567 137.054 101.7 136.503 101.904 135.732C100.711 136.063 99.4869 136.375 97.9775 136.888C98.3038 137.512 98.467 137.806 98.62 138.1M106.269 133.897L107.33 135.365M472.957 96.5164L472.131 97.9478M406.31 123.144L406.677 124.997M221.9 128.52C222.165 126.997 222.563 125.786 224.225 130.888M138.538 114.537C136.284 116.042 137.895 116.134 138.436 116.629M237.34 160.891C237.126 160.745 236.892 160.653 236.688 160.451M245.132 175.444L244.541 176.71M526.429 141.604C526.123 141.366 525.837 141.109 525.531 140.87M149.797 119.914H148.624M595.788 129.291L595.187 130.209M652.89 80.4594C653.798 80.0741 654.716 79.6887 655.817 79.2299C655.287 79.9456 654.858 80.5328 654.44 81.1017M235.484 157.588L235.444 158.469M474.416 90.5341L474.773 91.2498M651.697 76.881L652.472 76.5507M681.997 41.5738L681.905 42.4914M115.335 135.751C115.233 135.953 115.121 136.173 115.05 136.356C115.019 136.448 115.07 136.503 115.081 136.576M321.479 168.819C321.785 168.929 322.091 169.021 322.417 169.131C323.019 168.8 323.753 168.415 324.498 168.03M207.479 110.647L207.285 111.454M689.421 38.0322C689.472 38.1423 689.554 38.2156 689.554 38.3991C689.554 38.5092 689.411 38.7661 689.34 38.968M379.988 131.695L380.212 132.961M45.8128 178.967L46.3125 179.279L46.5063 178.398M81.171 152.101L81.6605 152.487M555.014 147.165L554.668 147.844M241.604 167.131L242.399 168.305M621.448 116.262L622.233 116.023M70.5132 161.222L69.4118 161.772M484.441 95.2319L484.573 94.1492L483.727 93.672L482.513 94.4428M148.4 121.143L150.378 121.474M690.105 31.8296L690.625 31.9386M261.929 175.646C261.929 175.866 262.072 176.123 261.929 176.306C261.511 176.802 260.97 177.297 260.481 177.756M65.3732 169.223L66.2401 171.204M602.958 125.401L601.888 126.006M381.323 132.576C381.344 132.723 381.415 132.833 381.384 132.998C381.364 133.108 381.18 133.273 381.078 133.402M163.646 112.647C163.381 112.94 163.116 113.234 162.892 113.509C163.249 113.766 163.534 113.968 163.82 114.17M425.259 115.308L426.33 114.665M225.704 133.383L225.144 131.567M348.78 153.202L348.362 154.322L347.608 154.45L348.352 152.927M37.9597 190.565L38.6736 191.647M445.136 102.242C446.503 101.82 447.89 101.563 449.256 101.214M617.767 122.905L616.849 124.208M249.201 176.783C248.824 176.783 248.447 176.691 248.069 176.636M692.796 38.1055L692.348 39.2983M673.665 54.3644L674.807 53.7772M53.4206 169.351C53.0738 169.608 52.7169 169.902 52.3701 170.177M87.0453 145.11L85.9745 145.825M671.441 64.3841L670.35 65.1365M516.74 130.484C516.76 130.741 516.822 131.053 516.801 131.236C516.801 131.291 516.587 131.035 516.475 130.924M648.035 83.0835L645.598 86.3866M447.522 102.939C448.012 102.774 448.501 102.59 449.001 102.425L448.563 101.911M51.0445 174.893L48.7498 180.674M245.397 171.425C245.724 171.627 246.07 171.773 246.407 171.92M304.223 165.351L303.121 165.883M454.08 99.5994L456.293 98.4249L455.518 98.113C456.272 98.0029 457.027 97.9478 457.782 97.9295M97.9062 147.165C97.641 147.165 97.3758 147.183 96.7231 147.202C96.5804 148.101 96.4784 148.816 96.3662 149.514M695.265 26.1774L695.652 27.0399M68.2286 158.359L69.2995 159.478M56.9086 170.012L56.3579 171.149M625.823 106.518C625.16 107.821 625.078 109.417 622.478 110.188C623.477 108.701 624.365 107.398 625.252 106.077M12.1676 206.457L12.9529 206.181M64.2508 167.938L65.0463 167.81M250.854 180.527C251.017 180.765 251.18 181.004 251.69 181.756C250.314 180.912 249.63 180.306 248.937 179.829M702.628 15.7174L703.158 15.7719M124.933 124.116L124.26 124.887M611.576 128.318L613.024 127.346M130.317 125.859C130.042 125.768 129.766 125.676 129.216 125.474C130.184 125.015 130.929 124.648 131.663 124.3M264.642 177.792C264.52 177.957 264.356 178.123 264.305 178.269C264.285 178.325 264.54 178.38 264.673 178.453M46.6889 175.829L46.1484 177.003M469.143 96.1311C467.134 95.2869 468.337 96.4981 467.991 96.7183M317.726 162.231L316.635 162.8M46.7101 179.205L47.5566 179.223M223.022 128.924L223.4 130.942M65.5053 162.69C65.281 162.451 65.0566 162.194 64.8322 161.937C64.2815 162.598 63.945 163.001 63.6084 163.405M331.289 159.295C330.79 159.148 330.29 159.019 329.494 158.781C329.056 158.909 328.067 159.203 327.067 159.497M410.318 121.015L409.288 121.914M246.54 176.526C246.397 176.618 246.214 176.673 246.132 176.802C246.101 176.838 246.336 177.04 246.448 177.169M232.232 165.773L232.538 167.296M179.77 108.334C179.393 108.573 179.015 108.83 178.546 109.142C179.301 109.325 179.984 109.472 180.657 109.637M389.329 130.777L388.177 130.998M694.439 34.1051C694.276 34.5822 694.123 35.0777 693.847 35.9035L692.419 36.1237M208.948 106.279L208.143 106.132M138.619 120.85L139.415 120.959M219.32 128.979L218.626 127.419M585.743 145.421L586.579 145.623M693.613 34.417L692.419 36.1052M440.495 108.041L439.414 108.536M321.621 162.708L320.53 163.314M587.833 148.137C588.231 147.513 588.629 146.871 589.098 146.137C588.537 146.357 587.935 146.596 586.487 147.165C587.456 147.256 587.772 147.275 588.088 147.312M621.111 121.052L623.712 119.602L624.619 118.244M651.738 90.4056L652.727 89.3596M503.124 112.959L503.033 114.445M359.111 146.064L359.937 146.357M523.562 148.193C523.287 148.138 523.021 148.028 522.756 147.954M681.507 58.108L679.325 59.6862M137.915 127.052C137.466 127.548 137.017 128.025 136.569 128.557M481.718 104.738C481.086 104.903 480.433 105.196 479.801 105.435M619.867 122.722L619.296 123.749M525.245 150.028C525.898 150.248 526.551 150.486 527.397 150.67C527.53 151.11 527.662 151.496 527.785 151.899M140.516 126.135L141.699 126.3M166.237 107.949L165.564 108.848M168.48 107.178L169.296 107.564M215.485 117.583L214.802 116.941M642.304 100.719L642.396 102.407M590.547 136.778C590.455 136.998 590.322 137.237 590.292 137.42C590.292 137.475 590.537 137.42 590.659 137.42M243.5 177.975C243.082 177.975 242.654 177.975 242.246 177.903M563.642 148.376L562.949 149.239M400.426 134.319L400.905 133.071L401.609 132.19L402.557 132.778M712.052 2.17448L713 1M612.503 130.209L613.605 129.53M299.47 177.535L301.806 177.829M123.657 126.098L124.463 126.171M439.037 111.234C439.282 110.903 439.527 110.573 439.782 110.243C439.282 110.28 438.904 110.316 438.517 110.353M123.362 131.75C123.26 131.952 123.117 132.172 123.087 132.356C123.077 132.411 123.332 132.374 123.464 132.392M451.582 105.637C451.469 105.82 451.347 106.004 451.265 106.169C451.235 106.242 451.265 106.316 451.276 106.389M632.37 108.041C632.299 108.279 632.187 108.555 632.176 108.738C632.176 108.812 632.411 108.665 632.544 108.61M627.832 117.345L628.842 116.354M246.479 183.72C246.071 183.591 245.653 183.371 245.245 183.206M193.171 104.132C192.927 103.875 192.682 103.6 192.233 103.104C191.682 103.747 191.305 104.224 190.928 104.701C191.427 104.591 191.927 104.536 192.427 104.462M580.613 145.568C580.848 145.88 581.092 146.211 581.531 146.798C581.694 146.302 581.766 146.082 581.837 145.862M640.703 97.0486L648.056 94.0024M95.5306 149.349C95.5714 149.55 95.5918 149.771 95.6836 149.954C95.6836 149.954 95.7958 149.899 95.9386 149.807C96.0813 149.716 96.2445 149.605 96.3669 149.532M431.133 112.83C430.185 113.417 429.246 114.023 428.349 114.574C427.921 114.408 427.462 114.225 427.003 114.023M518.789 131.456L519.279 133.273L518.687 133.236L518.34 132.447L518.779 132.374M250.354 171.737L250.282 172.618M94.9383 150.413C93.7961 151.496 92.6538 152.56 91.4096 153.735C90.8385 153.973 90.094 154.285 89.3597 154.597M203.778 109.619L202.666 110.316M691.89 31.5543C691.91 31.0588 691.941 30.5817 691.992 29.6825C692.277 29.7375 692.41 29.7559 692.552 29.7926M133.091 120.648L135.885 120.905M628.21 115.711L629.464 115.491M420.659 120.464C420.465 120.813 420.261 121.18 420.078 121.51C419.201 122.465 418.456 120.629 417.538 122.905M11.9739 208.659L10.4237 210.696M504.144 124.043L504.817 125.548M478.791 95.9474L478.719 96.8099M644.455 96.4797C644.568 96.6265 644.69 96.7733 644.863 96.9935C644.812 97.1403 644.649 97.544 644.486 97.9661M301.592 165.864C301.092 166.139 300.592 166.396 299.715 166.855C300.603 166.818 301.133 166.782 301.663 166.745" stroke="#FEFEFE" stroke-width="2" stroke-linecap="round" stroke-linejoin="round"/>
</svg>
