<?xml version="1.0" encoding="UTF-8"?>
<svg xmlns="http://www.w3.org/2000/svg" version="1.1" viewBox="0 0 800 800">
  <defs>
    <style>
      .cls-1 {
        fill: none;
        stroke: #fff;
        stroke-linecap: round;
        stroke-linejoin: round;
        stroke-width: 2px;
      }
    </style>
  </defs>
  <g>
    <g id="Layer_2">
      <g>
        <path class="cls-1" d="M693.3,384.29c-.37.51-.74,1.02-1.26,1.73-1.97-1.02-3.39-1.75-4.81-2.49l.9-.16v.41"/>
        <path class="cls-1" d="M425.48,391.66c-2.84-.1-2.13,1.2-3.96,1.65-.19-.23-.4-.47-.6-.71"/>
        <path class="cls-1" d="M336.18,391.34c-.89.22-1.78.43-2.55.62-.01.76,1.26,1.41-.74,1.99"/>
        <path class="cls-1" d="M594.7,386.74c-.35-.44-.7-.88-.93-1.17-1.72-.26-3.14-.48-4.67-.71-1.89,1.23,3.24,2.15.82,3.35,1.26,1.07,3.6.68,5.67.69"/>
        <path class="cls-1" d="M274.28,400.8c-.39-.32-.77-.64-1.16-.96-2.09.59-3.72.17-5.28-.35"/>
        <path class="cls-1" d="M450.09,388.67c.67-.03,1.34-.05,2.44-.1-1.61-1.24,2.27-1.78,2.19-3.02-.27-.09-.84-.28-1.4-.46l-.53.14.37.8"/>
        <path class="cls-1" d="M130.11,414.91l.96.04v.21c-.94.21-1.89.41-2.83.62-1.27-.19-2.42-.36-3.42-.51-1.17.25-2.22.48-3.16.68-.31.23-.61.45-.9.68"/>
        <path class="cls-1" d="M549.03,388.81l-1.38-.09-.37.23,2.11,1,.03-.33c1.34-.21,2.68-.43,4.11-.65.35.41.52.62.69.82"/>
        <path class="cls-1" d="M121.47,409.67c-1.51-.25-3.04-.18-4.6.36-.03.01-.21-.05-.28-.09-.04-.03-.02-.08-.02-.12"/>
        <path class="cls-1" d="M465.48,384.7c-.19.32-.37.64-.64,1.1-.51.16-1.41.46-2.54.82-.6-.02-1.56-.05-2.44-.08-.48-.57,2.37-1.74-1.57-1.55-.21.89-2.82,1.59-1.62,2.59"/>
        <path class="cls-1" d="M602.47,387.73c-.93-.33-1.86-.65-3.02-1.06-.4.34-.71.6-1.01.86"/>
        <path class="cls-1" d="M278.63,401.19c.39-.29.78-.58,1.31-.98,1.07.18,1.93.33,2.25.39.06.81.1,1.41.15,2.01-.19-.05-.46-.12-.73-.19"/>
        <path class="cls-1" d="M567.88,381.87c-.14.17-.27.34-.56.7-.43-.33-.66-.5-.96-.74-.67.37-1.29.72-1.91,1.06"/>
        <path class="cls-1" d="M588.33,383.2c-.13-.56-.26-1.12-.42-1.83-1.39.53-2.45.99-3.64,1.39-.41.14-1.12.11-1.7.16"/>
        <path class="cls-1" d="M153.53,412.3c-.83.28-1.66.56-2.6.88-.66-.68-1.08-1.12-1.57-1.63-.56.21-1.09.4-1.62.59"/>
        <path class="cls-1" d="M687.86,381.5c-.29-.12-.57-.34-.86-.35-1.15,0-2.3.05-3.45.09"/>
        <path class="cls-1" d="M516.42,384.34c-.97.5-1.95.99-2.97,1.51.4.09.7.15,1,.22"/>
        <path class="cls-1" d="M232.47,400.99c0,.12.02.24.03.38-1.34.06-2.6-.86-3.6-.11-.09.97-.16,1.66-.23,2.34l-.51.02.58,1.04"/>
        <path class="cls-1" d="M656.78,386.21c-.46-.24-.92-.47-1.83-.94-.25.62-.36.9-.47,1.19"/>
        <path class="cls-1" d="M151.81,406.56c-.66-.08-1.32-.15-2.3-.26-.67.62-1.28,1.19-1.89,1.76"/>
        <path class="cls-1" d="M609.08,387.06c.39-.23.79-.46,1.24-.73.75.39,1.3.67,1.85.96l.1-.26,3.99-.04"/>
        <path class="cls-1" d="M207.59,403.71c1.85-.42,3.69-.78,3.7-1.9,0-.34,1.31-.79,2.03-1.19-1.42-.44-1.76.29-2.48.63"/>
        <polyline class="cls-1" points="505.21 384.79 504.73 384.24 505.52 384.25 504.98 385.08 504.49 385.07 506.15 387.28"/>
        <path class="cls-1" d="M391.68,394.86c-.09.29-.18.58-.29.93-.65-.1-1.03-.17-1.84-.3.71-.28,1.27-.51,1.83-.74"/>
        <path class="cls-1" d="M544.36,385.8c-.36-.24-.72-.48-1.04-.68-1.08.15-2.04.28-3.05.41-1.83-.39-3.43-1.17-5.76-.77l-2-1.06"/>
        <path class="cls-1" d="M251.32,402.19l.26-.38.89.44c1.42.27,3.59-.45,4.95.31.46.26.99.49,1.49.73"/>
        <path class="cls-1" d="M234.68,399.84c.39-.39.79-.77,1.41-1.39-.81.17-1.16.25-1.5.32-.03,0-.03.09.01.11.07.04.19.07.29.1"/>
        <path class="cls-1" d="M264.97,403.43c1.57.75,3.23.23,4.88-.25"/>
        <path class="cls-1" d="M299.45,394.15c1.49.17,2.93.59,4.61-.08"/>
        <path class="cls-1" d="M484.69,390.86c-1.06-.08-2.12-.15-3.37-.24-.02.15-.05.31-.08.47"/>
        <path class="cls-1" d="M437.09,387.51c.68.09,1.33.23,2.03.27,2.01.14,4.06.73,6.03-.23"/>
        <path class="cls-1" d="M154.08,409.11c.13-.68-.18-1.23-1.59-1.54-.6-.13-1.08-.34-1.98-.63-.48.61-.94,1.19-1.4,1.77l.56.09,1.67-.98"/>
        <path class="cls-1" d="M681.81,382.8c2.26.33,1.2,1.21,1.64,1.82.4.56.17,1.19-1.34,1.57-.21.05-.03.38-.03.58"/>
        <path class="cls-1" d="M166.24,409.36c-.36.24-1.11.65-1.03.68,1,.38,2.12.7,3.22,1.03"/>
        <path class="cls-1" d="M634.66,387.6c0,.28,0,.56,0,.86,1.12-.06,1.96-.11,2.8-.16l.08.37h-1.72"/>
        <path class="cls-1" d="M553.28,385.61c.67.43,1.34.86,2.26,1.46,1.07-.55,2.03-1.04,2.98-1.52.72-.1,1.48-.2,2.23-.31"/>
        <line class="cls-1" x1="256.66" y1="404.07" x2="253.1" y2="402.77"/>
        <path class="cls-1" d="M628.89,383.42c-1.39.27-2.79.54-4.37.85-.36.03-1.01.08-1.66.13-.11.01-.27.08-.27.12s.17.08.27.12"/>
        <path class="cls-1" d="M265.44,402.07l-.55.67.6.05c.8-1.17,1.56-1.31,5.69-1.04"/>
        <path class="cls-1" d="M576.03,387.73c-.97-.54-1.94-1.07-2.92-1.62-.02-.01-.36.08-.66.15.05.41.11.85.17,1.37.68-.12,1.32-.24,1.97-.35"/>
        <path class="cls-1" d="M656.79,386.69c.99.47,1.97.93,3.19,1.51-.66.2-1.21.36-1.75.53"/>
        <path class="cls-1" d="M158.52,410.12c-1.33-.81-2.51-.01-3.72.37"/>
        <path class="cls-1" d="M414.58,392.53c.6.25,1.19.5,1.81.76-.41.19-.79.36-1.18.53"/>
        <path class="cls-1" d="M334.86,397.91c-.68.04-1.35.08-2.55.16,2.76,1.01,3.11,1.01,3.72.13"/>
        <path class="cls-1" d="M435.07,387.36c-1.25-.05-2.5-.09-3.71-.14-.27.18-.57.38-.88.59"/>
        <line class="cls-1" x1="147.86" y1="413.34" x2="141.07" y2="414.73"/>
        <line class="cls-1" x1="168.28" y1="409.52" x2="172.08" y2="409.99"/>
        <line class="cls-1" x1="689.29" y1="382.83" x2="686.71" y2="381.5"/>
        <path class="cls-1" d="M661.1,381.88c-.77-.09-1.55-.18-2.76-.32-.85.44-1.92.99-2.99,1.54"/>
        <path class="cls-1" d="M387.31,393.9c-.21.25-.42.49-.66.77-.73.11-1.59.23-2.44.36"/>
        <path class="cls-1" d="M432.05,390.75c.68.09,1.35.18,2.18.29-.65.42-1.29.83-2.07,1.33.56.09.98.17,2.39.41-.84.16-1.34.26-1.83.35"/>
        <path class="cls-1" d="M681.78,388.2c-1.15-.08-2.3-.24-3.45-.24-2.32.01-4.63.11-7.53.19-.18-.06-.92-.28-1.67-.51-1.99,1.44-5.5.32-8.04.83"/>
        <polyline class="cls-1" points="516.99 383.97 516.96 383.01 515.84 382.9 512.71 385.28"/>
        <path class="cls-1" d="M401.16,388.95c.23.75.48,1.5.68,2.25.08.31.04.64.06.96"/>
        <line class="cls-1" x1="174.14" y1="404.36" x2="170.12" y2="404.64"/>
        <path class="cls-1" d="M508.41,385.77c-.38-.04-.75-.07-1.3-.13,0,.29.02.53.03.88.47-.18.73-.28,1-.38"/>
        <path class="cls-1" d="M305.62,395.77c.17.56-1.86,1.64,1.54,1.46"/>
        <path class="cls-1" d="M668.58,382.03c.24,1.12,2.22-.16,3.04.5-.47.42-1.04.92-1.6,1.42"/>
        <path class="cls-1" d="M217.31,402.62c1.08.34,2.07.83,3.77.17"/>
        <path class="cls-1" d="M485.79,389.14c-.25.14-.51.28-.81.44.21.04.5.11.97.21.34-.41.66-.79.97-1.17"/>
        <path class="cls-1" d="M503.94,390.47c-.56-.95-1.72-.55-2.88-.15"/>
        <path class="cls-1" d="M182.86,408.01c-.74.07-1.49.14-2.8.25.86.31,1.33.48,1.81.65l-.29.24c-1.23-.15-2.47-.31-4.16-.52-.16.09-.64.32-1.07.57-.26.15-.44.32-.65.47-.67-.1-1.16-.17-1.65-.25"/>
        <path class="cls-1" d="M329.36,392.96c1.75.2,2.12.2,2.88-.06"/>
        <path class="cls-1" d="M566.78,384.77c-.03-.16-.07-.32-.11-.54-1.43.51-1.65,1.14-.73,1.63"/>
        <path class="cls-1" d="M590.11,387.62c-.57.05-1.15.09-1.93.15-.2.25-.42.54-.65.83"/>
        <path class="cls-1" d="M394.64,390.86c-1.31-.19-2.6-.28-3.73.32"/>
        <path class="cls-1" d="M592.06,382.44c-.25.56-.5,1.11-.69,1.55.8.24,1.35.4,1.44.43,1.88-.23,3.45-.42,5.02-.6.1-.04.29-.11.27-.12-.36-.2-.73-.4-1.14-.63.35-.1.75-.22,1.15-.33"/>
        <path class="cls-1" d="M267.67,397.33q-1.08.53.22,1.4c-.93.43-1.92.88-2.9,1.33"/>
        <line class="cls-1" x1="392.5" y1="388.57" x2="389.98" y2="389.91"/>
        <path class="cls-1" d="M692.16,384.04c-.48.04-.97.06-1.44.12-.58.08-1.15.15-1.73.23"/>
        <path class="cls-1" d="M652.76,382.14c-.5-.1-.99-.21-1.54-.32.62-.22,1.14-.4,1.73-.6-2.28-.42-2.6.24-3.07.81-.01.01-.2.02-.27,0-.11-.03-.2-.08-.29-.12"/>
        <path class="cls-1" d="M372.43,395.43c.19.19.38.38.86.87.82-.79,1.4-1.36,1.98-1.92l-.43-.14c1.92-.48,3.83-.96,5.95-1.49-.57-.11-1.09-.22-1.62-.32"/>
        <path class="cls-1" d="M281.06,395.1c3.08-.81.5.94,2.08.8q1.71-.36,3.95.81c-.06-.87-.11-1.47-.15-2.06h-.6s-.66.46-.66.46"/>
        <path class="cls-1" d="M542.71,388.84c.77.18,1.52.38,2.32.54.84.16,1.72.28,2.59.42"/>
        <path class="cls-1" d="M683.22,388.32c.48.16.95.46,1.44.46,1.88.02,3.64-.2,5.17-.68"/>
        <path class="cls-1" d="M277.1,396.13l-1.91-.76-.51.17c.25.17.49.35.91.64-.33.63-1.67.87-3.32.91"/>
        <path class="cls-1" d="M431.14,389.59c-.25.79.96,1.68-1.33,2.35"/>
        <line class="cls-1" x1="126.48" y1="416.14" x2="123.08" y2="416.74"/>
        <line class="cls-1" x1="149.02" y1="410.45" x2="145.9" y2="411.12"/>
        <path class="cls-1" d="M320.67,392.33c-1.21-.12-2.18-.1-2.92.55-.22.2-1.26.26-1.92.39"/>
        <path class="cls-1" d="M257.33,401.61c1.82.08,3.65.15,5.79.24-.02-.28-.04-.48-.05-.68"/>
        <path class="cls-1" d="M523.48,389.93c.59.64,1.71.5,2.88.29"/>
        <line class="cls-1" x1="510.92" y1="383.16" x2="507.19" y2="383.52"/>
        <path class="cls-1" d="M165.9,405.77c-.39.05-.77.1-1.27.17.42.36.76.65,1.09.93"/>
        <line class="cls-1" x1="556.42" y1="384.59" x2="554.43" y2="385.83"/>
        <path class="cls-1" d="M391.67,394.74l6.32-.34-.03.19c1.9-.26,3.8-.53,5.67-.79.08-.17.21-.41.33-.65"/>
        <path class="cls-1" d="M544.03,383.89c-1.71-.13-3.41-.26-5.36-.41-.07-.17-.22-.53-.37-.9,1.89-.26,3.65-.32,4.54.62.41-.1.79-.19,1.17-.28"/>
        <path class="cls-1" d="M232.98,400.22c1.12.58.66,1.3-1.03,1.52-1.03.14-2.1.18-3.15.27"/>
        <path class="cls-1" d="M567.69,387.27c.62-.31,1.23-.63,1.9-.97-.55-.27-1-.48-1.53-.73-.66.23-1.41.49-2.28.79.55.55,1.09,1.09,1.63,1.64"/>
        <path class="cls-1" d="M345.95,395.55l1.57,2.37-.56.1c.38.06.77.12,1.27.2.38-.26.75-.51,1.26-.86.41.3.67.49.93.68"/>
        <path class="cls-1" d="M615.39,386.04c.67.16,1.34.31,2.16.5.51-.17,1.07-.34,1.75-.56.51.47,1.04.96,1.56,1.44"/>
        <path class="cls-1" d="M254.17,398.12c-1.47.38-2.93.77-4.57,1.2-.36,1.29-.72,1.46-3.12,1.7-1.26-.27-2.03-.43-2.8-.6"/>
        <path class="cls-1" d="M574.8,382.71c-1.1-.27-2.2-.55-3.28-.82-.09.08-.28.24-.47.4"/>
        <line class="cls-1" x1="429.23" y1="391.96" x2="426.68" y2="392.92"/>
        <path class="cls-1" d="M343.07,395.6c1.92-.12,3.84-.24,6.09-.38-.21-.68-.38-1.23-.64-2.1-1.36.59-2.28.98-3.2,1.38"/>
        <line class="cls-1" x1="608.73" y1="381.31" x2="611.62" y2="382.12"/>
        <path class="cls-1" d="M203.35,404.7c1.53-.11,3.07-.22,4.69-.33-.36-.25-.85-.59-1.34-.93"/>
        <polyline class="cls-1" points="122.66 410.02 123.49 409.29 123.09 409.21 119.59 410.48 119.22 410.27 117 411.23"/>
        <path class="cls-1" d="M486.11,390.33c1.06.1,2.12.32,3.16-.1"/>
        <path class="cls-1" d="M355.25,392.21c-.3.24-.6.47-1,.79-.45-.25-.73-.4-1-.55"/>
        <path class="cls-1" d="M264.69,398.04c-.22.54-.44,1.07-.69,1.67.79.45,1.6.93,2.58,1.49-.79.14-1.28.23-1.77.32"/>
        <path class="cls-1" d="M548.68,386.05c-.57.06-1.14.12-1.69.17-.19-.21-.37-.41-.57-.63-1.11.12-2.18.21-3.21.36-2.21.33-4.4.67-6.6,1"/>
        <path class="cls-1" d="M246.95,398.09q.1-.49-2.05-.31"/>
        <path class="cls-1" d="M180.83,404.82c-.22-.44-.45-.87-.7-1.36-1.78.39-2.11,1.35-3.95,1.06"/>
        <path class="cls-1" d="M197.4,402.83c.96.36,3.19.45,1.29,1.48-.52-.21-1.01-.41-1.5-.62"/>
        <path class="cls-1" d="M490.64,387.9c.39.19.78.38,1.25.61.54-.15,1.08-.31,1.63-.46"/>
        <polyline class="cls-1" points="520.53 387.36 521.4 387.18 521.04 386.94 519.67 387.26"/>
        <path class="cls-1" d="M180.49,410.4c.05.2.1.39.17.67-.63-.07-1.1-.13-1.57-.18"/>
        <path class="cls-1" d="M578.59,386c.37.28.74.55,1.06.8,1.41-.31,2.76-.6,4.11-.89"/>
        <line class="cls-1" x1="235.11" y1="404.98" x2="232.74" y2="405.9"/>
        <line class="cls-1" x1="355.01" y1="392.94" x2="355.37" y2="394.24"/>
        <path class="cls-1" d="M438.74,392.25c1.91-.31,3.83-.61,5.94-.95,1.22.56,2.55,1.16,3.87,1.76"/>
        <path class="cls-1" d="M470.45,386.54c-.19.13-.31.32-.57.37-1.65.28-3.33.57-5.34.92.69.58,1.15.97,1.62,1.36l.4-.08c-.16.49-.31.98-.5,1.54.47.09,1.07.21,1.67.33"/>
        <path class="cls-1" d="M359.45,394.95c-.01-.24-.03-.48-.04-.69,1.52-.22,2.76-.41,3.91-.58,1.51.11,2.96.21,4.42.32"/>
        <polyline class="cls-1" points="306.9 393.4 304.87 393.29 304.91 393.77"/>
        <line class="cls-1" x1="225.41" y1="399.41" x2="224.09" y2="400.85"/>
        <path class="cls-1" d="M150.42,412.96c-1.38.29-1.2,1.57-3.63,1.2"/>
        <path class="cls-1" d="M659.37,385.12c-.2.4-.4.8-.66,1.31-.56.04-1.25.09-1.93.14"/>
        <polyline class="cls-1" points="373.72 392.84 370.28 393.02 370.18 393.27 372.32 393.51"/>
        <path class="cls-1" d="M374.71,389.9c-.77.46-1.55.93-2.36,1.41.13.23.3.54.47.86"/>
        <line class="cls-1" x1="219.67" y1="399.89" x2="216.56" y2="400.63"/>
        <path class="cls-1" d="M256.84,399.12c-.96.07-1.91.15-3,.23.55.63.9,1.04,1.37,1.58-.81.06-1.39.11-1.96.15"/>
        <line class="cls-1" x1="675.18" y1="385.65" x2="674.6" y2="387.93"/>
        <path class="cls-1" d="M594.35,381.7c-.69.9.85,1.48,1.75,2.14"/>
        <line class="cls-1" x1="556.75" y1="386.75" x2="561.07" y2="387.27"/>
        <line class="cls-1" x1="564.23" y1="386.74" x2="561.93" y2="387.02"/>
        <path class="cls-1" d="M390.66,391.92c-.19.21-.39.41-.76.8.59.33,1.74.97,2.9,1.61"/>
        <polyline class="cls-1" points="369.24 395 366.08 395.25 366.2 395.14 363.76 394.94"/>
        <path class="cls-1" d="M205.43,405.36c-2.31-.06-2.75.84-3.54,1.43-.39.29.09.78.33,1.15.16.24.59.43.89.64"/>
        <line class="cls-1" x1="644.41" y1="381.09" x2="642.98" y2="382.77"/>
        <path class="cls-1" d="M289.89,397.58c.92.25,3.9-.44,2.37.92"/>
        <path class="cls-1" d="M140,409.89c-2.87.49-5.69.83-8.34.39"/>
        <path class="cls-1" d="M122.47,410.89c-.82.49-.92.83.66.77"/>
        <line class="cls-1" x1="619.69" y1="384.55" x2="622.29" y2="386.09"/>
        <path class="cls-1" d="M118.81,411.88l-1.24,1.07-.39-.05s-.02.11.02.11c.28.01.58.02.87.03"/>
        <path class="cls-1" d="M175.85,407.09c.02.24.05.49.09.96.36.05,1.2.17,2.05.29"/>
        <path class="cls-1" d="M127.35,410.61c-.3.32-.61.64-.98,1.03.25.13.61.31,1.09.56-1.49.52-2.84.98-4.24,1.47-2.26-.38-2.48-.36-3.32.38"/>
        <path class="cls-1" d="M594.69,385.66c2.49-.57,3.15-.56,3.74.08"/>
        <path class="cls-1" d="M435.7,388.53l-.31-.47c-.31.06-.63.12-1.08.21,1.17.47,2.09.84,3.01,1.21l1-.47-1.74-.29"/>
        <path class="cls-1" d="M291.43,394.94l-1.35,1.29.59.2-3.73.26c0,.08.02.28.03.48l-2.87.22"/>
        <path class="cls-1" d="M431.04,387.31c-.38-.07-.76-.14-1.36-.24-.13.3-.23.55-.34.8"/>
        <path class="cls-1" d="M337.05,395.97c.13-.18.26-.35.51-.7-.63.11-1.16.2-1.69.29"/>
        <line class="cls-1" x1="248.39" y1="398.09" x2="251.34" y2="398.82"/>
        <polyline class="cls-1" points="260.86 402.54 259.72 402.75 260.69 403.13 262.58 402.41"/>
        <path class="cls-1" d="M272.76,395.98c.27,1.22.54,2.45.81,3.63.84-.37,1.7-.74,2.56-1.12"/>
        <polyline class="cls-1" points="344.35 397.69 344.74 398.36 344.22 398.48 342.63 397.79"/>
        <path class="cls-1" d="M295.45,398.64c.11-.45.22-.89.33-1.35-1.08.25-2.03.47-2.98.69"/>
        <path class="cls-1" d="M687.83,386.06c-.87.02-1.74.04-2.78.07.42.35.65.55,1.18,1-1.08-.3-1.61-.45-2.14-.6"/>
        <path class="cls-1" d="M511.67,389.38c-.03.16-.05.33-.09.54.78.24,1.75.54,2.9.89.04-.22.06-.38.09-.54"/>
        <path class="cls-1" d="M532.38,389.58c-.11.2-.23.4-.35.61.55.03,1.03.05,1.51.08"/>
        <path class="cls-1" d="M559.96,388.97c.03.16.07.32.14.65,1.35-.18,2.47-.33,3.6-.48"/>
        <path class="cls-1" d="M572.29,387.79c-1.15.65-4.28,1.39-6.58,1.56-.2.02-.37.09-.79.19-.42-.34-.83-.67-1.23-1"/>
        <path class="cls-1" d="M537.41,383.46c-1.79-1.14-4.24-.08-6.4-.27,1.11.28-1.37,1.23,1.24,1.12"/>
        <polyline class="cls-1" points="640.98 388.18 648.05 388.84 648.48 388.49 644.14 386.85"/>
        <path class="cls-1" d="M111.02,414.75c.3,1.01.91,1.07,3.79.32"/>
        <path class="cls-1" d="M673.45,386.97c-.46-.13-.93-.26-1.59-.45-.27.21-.49.39-.71.56"/>
        <line class="cls-1" x1="319.7" y1="399.49" x2="315.14" y2="400.16"/>
        <path class="cls-1" d="M195.75,403.71c-1.92.57-1.69,1.24-1.27,1.92"/>
        <polyline class="cls-1" points="607.32 384.32 604.67 384.58 604.74 384.71 600.42 384.28"/>
        <path class="cls-1" d="M199.1,402.44c-.02-.54-.3-.88-1.76-.32"/>
        <line class="cls-1" x1="403.76" y1="388.95" x2="405.35" y2="392"/>
        <path class="cls-1" d="M254.12,397.52c.69.23,1.45.43,2.05.69.56.24.95.55,1.1.92,1,.28,1.99.56,2.98.83.27-.08.76-.22,1.24-.36"/>
        <path class="cls-1" d="M658.22,385.12c-1.72-.76-4.07-.7-6.04.14"/>
        <path class="cls-1" d="M140.12,408.19c.38.25.76.51,1.15.77-.19.1-.47.25-.74.4"/>
        <path class="cls-1" d="M108.47,415.26c.6-.71,1.2-1.41,1.76-2.08.7-.05,1.37-.09,2.18-.14-.23.24-.44.45-.68.71.6.08,1.2.17,1.81.26"/>
        <path class="cls-1" d="M297.28,395.98c1.14.51,2.28,1.01,3.77,1.68-1.2.26-2.08.45-3.04.65.04.83,1.64.5,2.92.42"/>
        <path class="cls-1" d="M348.77,394.65c-.96.06-1.91.12-2.32.14-2.54-.47-4.67-.87-7.19-1.34.32-.23.82-.59,1.31-.94"/>
        <path class="cls-1" d="M600.72,385.71c-2.98-.15-4.58.48-4.88,2.21-.74,0-1.51.02-2.28.02"/>
        <polyline class="cls-1" points="623.99 382.11 624.77 383.12 625.69 383.29 624.28 383.55"/>
        <line class="cls-1" x1="337.67" y1="392.21" x2="336.63" y2="393.96"/>
        <path class="cls-1" d="M354.81,394.52c.01.24.03.48.04.68.87.07,1.45.11,2.02.15"/>
        <path class="cls-1" d="M627.15,381.74c.79-.15,1.58-.3,2.55-.49,2.91.23,6.54.29,7.52,2.02"/>
        <line class="cls-1" x1="135" y1="409.08" x2="133.98" y2="410.4"/>
        <path class="cls-1" d="M651.32,382.74c-1.25.28-2.46.59-3.75.84-.37.07-.94-.06-1.42-.1"/>
        <path class="cls-1" d="M470.11,385.36c-.6,1.16,2.51,1.16,3.24,1.91"/>
        <path class="cls-1" d="M634.93,384.84c-1.82.13-3.64.25-5.87.41,1.21-.68,2.24-1.26,3.28-1.84"/>
        <line class="cls-1" x1="456.08" y1="387.23" x2="451.56" y2="389.33"/>
        <path class="cls-1" d="M425.3,387.82c.6.07,1.2.14,2.19.26-.91.54-1.65.99-2.4,1.43"/>
        <path class="cls-1" d="M279.93,395.43c-1.35-.35-2.13-.09-2.56.56"/>
        <line class="cls-1" x1="442.1" y1="390.19" x2="438.12" y2="391.31"/>
        <polyline class="cls-1" points="206.67 406.33 212.47 405.08 212.31 404.9 216.04 404.65"/>
        <path class="cls-1" d="M192.07,407.66c.15.15.31.31.6.61-1.12.22-2.37.46-3.42.67-.23.35-.47.73-.72,1.1"/>
        <line class="cls-1" x1="407.94" y1="392" x2="399.34" y2="392.65"/>
        <path class="cls-1" d="M629.48,386.29c-1.81,1.06-1.71,1.21,1.16,1.8"/>
        <line class="cls-1" x1="402.59" y1="388.65" x2="397.72" y2="389.25"/>
        <polyline class="cls-1" points="525.38 385.8 528.38 385.24 528.04 384.87 525.08 385.45"/>
        <path class="cls-1" d="M318.12,392.98c1.4.17.8.72.97,1.13.14.32.58.6.89.9"/>
        <path class="cls-1" d="M434.74,392.9c-1.17,1.02-3.19.89-5.14.84"/>
        <polyline class="cls-1" points="104.83 413.72 104.51 413.39 105.93 413.12"/>
        <path class="cls-1" d="M484.79,385.09c-1.44.05-2.88.07-4.31.15-.58.03-1.15.19-1.72.28"/>
        <path class="cls-1" d="M444.95,389.48c.39-.13.77-.26,1.49-.5-.7-.04-1.11-.07-1.52-.1"/>
        <path class="cls-1" d="M430.39,392.14c.5.39.7.75-.82.88"/>
        <path class="cls-1" d="M140.63,407.54c-1.48.65-2.29,1.64-4.73,1.81"/>
        <path class="cls-1" d="M537.43,384.66c-.32-.25-.63-.49-1.09-.85.49-.07,1.16-.17,1.83-.27l.64.21-1.08,1.03"/>
        <path class="cls-1" d="M104.5,415.93c1.46.09,2.93.16,4.35.28.23.02.24.28.35.43"/>
        <path class="cls-1" d="M596.68,384.19c.38.93,1.72.51,3.19.41.2-.51.37-.96.54-1.41"/>
        <path class="cls-1" d="M492.41,389.29c.79-.25,1.58-.49,2.57-.81,1.55.17,3.37.36,5.18.56"/>
        <path class="cls-1" d="M337.42,397.39c2.08-.51,2.27-.45,2.98.98.66-.11,1.31-.22,1.96-.33"/>
        <path class="cls-1" d="M579.38,381.67c-.09.2-.17.4-.33.77-.49-.32-.82-.53-1.21-.78-.53.12-1.1.25-2.18.49,1.06.3,1.83.52,2.59.74"/>
        <path class="cls-1" d="M484.37,389.91c.29.23.57.47.98.8-.35.29-.78.65-1.21,1.01"/>
        <path class="cls-1" d="M595.53,384.21c-.96.21-1.91.42-2.87.63-.46.1-.95.17-1.43.26"/>
        <path class="cls-1" d="M612.21,383.67c.38-.05.75-.11,1.07-.15-.07.42-.13.82-.2,1.22"/>
        <line class="cls-1" x1="393.12" y1="389.38" x2="391.44" y2="390.19"/>
        <path class="cls-1" d="M377.38,396.48c-.04-.16-.08-.32-.14-.57-.68.18-1.14.3-1.59.42"/>
        <path class="cls-1" d="M109.83,411.74c-.08.13-.31.35-.22.37.44.1.95.15,1.44.22"/>
        <path class="cls-1" d="M653.91,387.66c.61.19,2.29,0,1.44.72"/>
        <path class="cls-1" d="M429.58,393.38c-1.66.82-3.83.38-5.72.63"/>
        <path class="cls-1" d="M393.34,388.04c.3,0,.59,0,1.21.01-1.49.49-2.47.51-3.22-.02"/>
        <line class="cls-1" x1="472.06" y1="391.4" x2="476.11" y2="391.98"/>
        <line class="cls-1" x1="518.52" y1="387.29" x2="518.26" y2="388.38"/>
        <path class="cls-1" d="M324.97,391.91l.85.36-.71.27c-.24-.2-.47-.39-.88-.73-1.57.44-3.11.88-4.66,1.32"/>
        <path class="cls-1" d="M311.79,393.18c.42.45.83.9,1.35,1.47-.96.07-1.82.13-2.68.18l-.1.22,1.86.26"/>
        <line class="cls-1" x1="298.85" y1="393.71" x2="297.19" y2="394.79"/>
        <path class="cls-1" d="M218.08,401.47c-.45.33-.9.66-1.5,1.11-.7.09-1.9-.44-3,.23"/>
        <path class="cls-1" d="M308.62,393.28c.67,0,1.34-.01,2.6-.02-.53.52-.99.97-1.58,1.55-1.18-.3-2.14-.55-3.11-.79l.28-.41-2.76.48"/>
        <path class="cls-1" d="M612.49,383.07c-1.95.31-4.05.51-5.66,1.42.95.09,1.45.14,1.94.18"/>
        <path class="cls-1" d="M535.73,385.54c-.05.37-.1.73-.18,1.31-1.78-1.06-1.78-1.1-.11-1.31"/>
        <polyline class="cls-1" points="508.95 384.55 510.32 384.07 510.62 384.25 509.56 385.73"/>
        <path class="cls-1" d="M644.7,381.57c.83.15,1.67.3,3.01.54-1,.42-1.57.66-2.15.9"/>
        <line class="cls-1" x1="138.89" y1="407.47" x2="134.88" y2="407.89"/>
        <line class="cls-1" x1="663.4" y1="387.04" x2="663.68" y2="388.13"/>
        <line class="cls-1" x1="665.12" y1="386.81" x2="665.69" y2="388.25"/>
        <path class="cls-1" d="M377.8,393.58c-.24.72,2.47.98,1.25,1.85"/>
        <line class="cls-1" x1="327.41" y1="398.49" x2="329.18" y2="399.1"/>
        <line class="cls-1" x1="186.56" y1="410.57" x2="181.97" y2="410.86"/>
        <path class="cls-1" d="M644.99,382.28l-1.78.77-.7-.18c-.2.36-.39.72-.73,1.35,1.06-.22,1.6-.34,2.65-.56-.91-.09-1.32-.13-1.73-.17"/>
        <line class="cls-1" x1="610.47" y1="382.49" x2="608.18" y2="383.23"/>
        <path class="cls-1" d="M246.06,404.91c-.53-.33-1.06-.67-1.7-1.07-.88.38-2.84.45-1.18,1.07"/>
        <line class="cls-1" x1="132.66" y1="408.85" x2="131.33" y2="409.95"/>
        <path class="cls-1" d="M463.95,389.8c.49.22.98.44,1.57.71.61-.16,1.25-.32,1.89-.49"/>
        <line class="cls-1" x1="261.53" y1="403.7" x2="256.97" y2="404.4"/>
        <path class="cls-1" d="M165.6,408.7c1.68.65,2.69,1.49,3.45,2.43.43.53.62.49-.79,1.17"/>
        <path class="cls-1" d="M413.79,388c.09-.16.18-.33.33-.62-.68.03-1.29.06-1.8.08l-.8,1.36"/>
        <path class="cls-1" d="M302.81,400.89c.65-.25,1.35-.69,1.96-.7,2.04-.03,4.04.13,6.07.13,1.21,0,2.48-.16,3.72-.24"/>
        <path class="cls-1" d="M631.19,384.49c1.96.54-.76,1.23.3,1.8"/>
        <path class="cls-1" d="M598.68,383.09c-.19.08-.38.16-.88.38,1.62.12,3,.23,4.66.35-.11.52-.21.95-.31,1.39"/>
        <line class="cls-1" x1="177.55" y1="409.82" x2="179.62" y2="410.36"/>
        <line class="cls-1" x1="361.34" y1="392.91" x2="356.24" y2="394.31"/>
        <path class="cls-1" d="M210.5,407.31c.84-.28,1.64-.6,2.54-.82.91-.23,1.92-.34,3.21-.56.22.11.66.33,1.09.55.02,0-.16.1-.27.14-.07.02-.19.02-.28.03"/>
        <line class="cls-1" x1="273.39" y1="400.5" x2="272.02" y2="401.45"/>
        <path class="cls-1" d="M327.2,395.26c-.55.71-1.11,1.42-1.75,2.24-.87.32-1.85.49-2.72-.02"/>
        <path class="cls-1" d="M136.33,407.98c.83.39.15.67-.77.93"/>
        <polyline class="cls-1" points="668.57 386.11 670.54 386.4 670.88 386.15 670.01 385.99"/>
        <path class="cls-1" d="M381.31,389.3c3.07-.44,3.08.8,4.39,1.32l-1.09,1.14"/>
        <path class="cls-1" d="M112.56,415.68c-.14.61.73.57,1.78.42"/>
        <path class="cls-1" d="M504.12,386.63c-.64.27-1.29.53-2.18.9-.48-.12-1.3-.32-2.13-.52"/>
        <path class="cls-1" d="M542.08,386.34c.49.55.98,1.1,1.61,1.79-.86-.09-1.5-.15-2.15-.22"/>
        <line class="cls-1" x1="554.19" y1="388.24" x2="552.49" y2="389.11"/>
        <path class="cls-1" d="M387.34,388.97c-1.23-.49-1.83.06-2.57.38"/>
        <path class="cls-1" d="M442.33,388.86c1.95.56,2.01,1.24.37,2.03"/>
        <line class="cls-1" x1="661.67" y1="386.56" x2="661.38" y2="387.64"/>
        <path class="cls-1" d="M142.07,413.18l5.14-.82c-1.72-.18-3.36-.57-5.48.34.04.35.08.8.1,1.03-1.04.46-1.69.75-2.35,1.04l1.05.37,1.06-.95"/>
        <line class="cls-1" x1="416.23" y1="390.89" x2="417.46" y2="392.51"/>
        <path class="cls-1" d="M443.94,386.03c1.75.59,1.54,1.5,1.82,2.33"/>
        <path class="cls-1" d="M194.13,404.94c-1.05.1-2.09.19-3.27.3-.13-.11-.38-.33-.8-.69-.38.28-.6.44-.82.59"/>
        <path class="cls-1" d="M473.29,385.47c.24.14.48.28.86.49-.75,0-1.23.01-1.7.02"/>
        <line class="cls-1" x1="188.72" y1="402.66" x2="187.96" y2="403.81"/>
        <path class="cls-1" d="M444.03,388.07c-.28.21-.44.52-.86.61-1.01.24-2.15.38-3.13.54.4.54.66.89.93,1.24"/>
        <path class="cls-1" d="M188.39,405.34c1.8.62,2.63,1.46,2.26,2.57"/>
        <path class="cls-1" d="M381.52,393.25c1.9-.18,3.72-.27,5.24.3.33.12,1.12.03,1.69.04"/>
        <path class="cls-1" d="M661.96,383.92c.12.27.23.54.4.93,1.12.08,2.66.18,4.2.29"/>
        <line class="cls-1" x1="605.63" y1="387.58" x2="605.93" y2="388.78"/>
        <polyline class="cls-1" points="338.66 394.19 337.01 394.01 336.89 394.34 338.38 394.33"/>
        <polyline class="cls-1" points="530.67 390.11 530.02 389.59 529.6 389.65 529.52 390.14"/>
        <path class="cls-1" d="M457.31,389.23c-.19.13-.37.26-.58.4-.57-.06-1.14-.12-1.71-.19"/>
        <polyline class="cls-1" points="672.03 381.32 668.1 381.02 668 381.3 669.73 381.79"/>
        <path class="cls-1" d="M428.04,391.17c.38-.18.75-.36,1.41-.67.03.75.45,1.43,0,2.03-.54.7.71.66,1.29.92"/>
        <path class="cls-1" d="M354.9,395.96c-1.23-.23-2.46-.46-3.07-.57-1.8.47-3.09.81-4.38,1.15"/>
        <path class="cls-1" d="M602.7,382.69c-.61-.3-1.21-.6-1.97-.97-.83.26-1.44.46-2.06.65"/>
        <path class="cls-1" d="M194.15,408.31l-1.46.45c.3.13.53.22,1.1.46-1.69.05-2.93.08-4.16.11"/>
        <path class="cls-1" d="M162.58,410.32l-.07-.72c.35.82.17.88-2.49,1.09"/>
        <path class="cls-1" d="M688.12,386.3c.38.32.76.65,1.14.97.04.03,0,.08,0,.23-1.55.18-2.95.85-4.89.23"/>
        <path class="cls-1" d="M551.58,386.96c-1.24.03-2.48.05-4.23.09,1.81.53,3.03.88,4.25,1.23"/>
        <path class="cls-1" d="M259.36,398.08c.5.24,1.05.47,1.48.73.38.23.63.51.94.77"/>
        <path class="cls-1" d="M529.06,383.43c-.52.19-1.05.38-1.68.6.82.45.89,1.2,2.87.69"/>
        <line class="cls-1" x1="279.49" y1="397.27" x2="281.26" y2="397.74"/>
        <path class="cls-1" d="M169.08,405.82c.57-.21,1.15-.41,1.93-.69.42.21.9.45,1.53.75-.88.21-1.56.38-2.24.54"/>
        <line class="cls-1" x1="220.31" y1="400.56" x2="221.25" y2="401.45"/>
        <path class="cls-1" d="M377.36,390.84c1.35.16,2.7.26,4.02-.22"/>
        <polyline class="cls-1" points="173.49 409.61 172.61 410.31 171.5 410.04 173.19 409.52"/>
        <line class="cls-1" x1="318.41" y1="397.29" x2="316.73" y2="398.13"/>
        <line class="cls-1" x1="588.32" y1="382.36" x2="588.9" y2="383.2"/>
        <line class="cls-1" x1="470.04" y1="391" x2="468.63" y2="392.02"/>
        <path class="cls-1" d="M451.7,385.73c.09-.53-.42-.62-1.45-.3"/>
        <path class="cls-1" d="M551.86,386.6c.33.42.65.83,1.14,1.45.58-.49.82-.7.97-.83,1.22.42,2.4.83,3.58,1.24l.53-.17.03,1.43-.69.09-1.48-.89"/>
        <path class="cls-1" d="M684.68,383.77c-.03-.16-.06-.32-.1-.54-.58.07-.96.12-1.33.17"/>
        <path class="cls-1" d="M475.85,384.78c0-.12.1-.29-.04-.35-.15-.06-.54,0-.83.01l.59.34"/>
        <path class="cls-1" d="M167.87,408.23l3.38-.11.13-.28c-.22-.04-.44-.09-.68-.12-.04,0-.18.09-.27.14"/>
        <path class="cls-1" d="M420.19,389.38c.39-.53.79-1.07,1.26-1.71-.94-.01-1.72-.02-2.5-.03"/>
        <polyline class="cls-1" points="229.19 403.19 232.18 403.3 232.68 403.62 231.28 403.98"/>
        <line class="cls-1" x1="323.11" y1="394.32" x2="320.56" y2="394.98"/>
        <path class="cls-1" d="M341.45,392.7c-.13.65,2.84.44,1.81,1.33"/>
        <path class="cls-1" d="M304.35,398.14c1.65.37,3.29.78,5.17-.12.05-.02.03-.09,0-.12-.07-.04-.19-.07-.29-.1"/>
        <path class="cls-1" d="M194.3,406.85c2.64-.66,4.93-.36,7.21-.05"/>
        <path class="cls-1" d="M624.87,385.35c-2.07.7.72.78.87,1.2"/>
        <line class="cls-1" x1="164.1" y1="405.11" x2="167.68" y2="406.32"/>
        <line class="cls-1" x1="138.78" y1="412.06" x2="138.59" y2="413.05"/>
        <path class="cls-1" d="M309.64,395.49c.96.63-.14.97-1.09,1.22-.07.39-.14.71-.2,1.03"/>
        <line class="cls-1" x1="412.8" y1="391.29" x2="416.55" y2="391.47"/>
        <line class="cls-1" x1="311.83" y1="398.11" x2="311.69" y2="400.16"/>
        <path class="cls-1" d="M538.93,386.9c.16.56-.63.67-1.71.64"/>
        <line class="cls-1" x1="242.09" y1="402.23" x2="239.77" y2="402.06"/>
        <path class="cls-1" d="M271.78,402.07l1.42.15-.54.24c1.53-.38,3.06-.76,4.73-1.18-.75-.09-1.33-.17-2.34-.29.31.66.56,1.19.81,1.73"/>
        <line class="cls-1" x1="284.44" y1="397.86" x2="285.7" y2="399.32"/>
        <line class="cls-1" x1="256.44" y1="401.32" x2="255.35" y2="402.12"/>
        <path class="cls-1" d="M237.15,401.8c-.27-.29-.54-.59-.87-.95-.89.53-1.44.86-1.99,1.19"/>
        <path class="cls-1" d="M450.29,386.5c-.53-.16-1.07-.33-1.78-.54-.49.35-.86.61-1.24.89q1.79.14,4.19-.45c.41.15.89.33,1.46.54-.87.22-1.44.36-2.01.5"/>
        <line class="cls-1" x1="343.64" y1="390.76" x2="345.11" y2="391.27"/>
        <path class="cls-1" d="M250.81,399.46c-.28.06-.57.13-.95.21,1.07.62,2.48.3,3.86.05"/>
        <path class="cls-1" d="M482.79,385.64c-1.72.03-3.44.07-5.46.11,0,.08,0,.13.01.31"/>
        <path class="cls-1" d="M379.83,388.66c.4.34.81.68,1.26,1.05-.41.08-.81.16-1.34.27.3.13.52.23.75.33"/>
        <polyline class="cls-1" points="649.31 384.55 647.58 384.8 647.9 384.9 645.29 386.24"/>
        <path class="cls-1" d="M453.77,387.09c1.54.43,3.07.85,5.01,1.39-.16.36-.37.84-.58,1.31"/>
        <path class="cls-1" d="M440.76,385.68c-.56.26-1.13.53-1.8.84,1.14.11,2.22.2,3.29.3"/>
        <path class="cls-1" d="M227.63,401.76c-.71-.26-1.41-.52-2.38-.87-1.06.17-2.66.44-4.27.7"/>
        <path class="cls-1" d="M244.94,401.75c.18-.18.36-.35.48-.46.9.03,1.78.05,2.67.08"/>
        <path class="cls-1" d="M686.41,383.54c0,.48,0,.97,0,1.56-2.2,0-4.12-.02-6.04-.02"/>
        <line class="cls-1" x1="145.81" y1="410.16" x2="144.58" y2="409.44"/>
        <line class="cls-1" x1="542.45" y1="389.93" x2="544.74" y2="389.87"/>
        <path class="cls-1" d="M496.21,391.32c-.67,0-1.35,0-2.36,0,.17-.47.31-.87.5-1.4-.91.12-1.84.23-2.69.34l-.39-.58"/>
        <line class="cls-1" x1="456.58" y1="392.5" x2="458.59" y2="392.54"/>
        <line class="cls-1" x1="216.9" y1="407.83" x2="214.59" y2="407.9"/>
        <path class="cls-1" d="M503.96,390.95c.25-.17.38-.25.45-.3,2.19.04,4.03.07,5.87.1"/>
        <path class="cls-1" d="M339.5,393.78c.03.48.06.96.1,1.6.9-.18,1.43-.29,2.24-.46.36.34.74.68,1.33,1.23-1.37.28-2.57.52-3.76.76"/>
        <line class="cls-1" x1="358.45" y1="397.54" x2="356.15" y2="397.68"/>
        <path class="cls-1" d="M461.1,390.4c-.76.27-1.62.51-2.22.83-.28.15-.03.46-.02.7"/>
        <polyline class="cls-1" points="600.47 388.96 601.43 388.81 601.32 388.68 598.18 388.98"/>
        <line class="cls-1" x1="523.36" y1="385.49" x2="521.07" y2="385.79"/>
        <path class="cls-1" d="M436.05,390.08c-1.92-.27-2.7-1.02-3.81-1.62"/>
        <line class="cls-1" x1="408.9" y1="394.12" x2="410.94" y2="394.62"/>
        <path class="cls-1" d="M588.98,388.96c-.88-.14-1.75-.27-2.88-.45-.22.13-.54.31-1.07.62.69-.01,1.17-.02,1.65-.03"/>
        <path class="cls-1" d="M166.11,410.94c-.66.3-1.33.59-2.17.97-.4-.2-.83-.41-1.27-.63"/>
        <path class="cls-1" d="M420.67,393.44c-.06.26-2.28.08-.83.64"/>
        <path class="cls-1" d="M336.86,397.67c.62.23,1.23.47,1.91.72.35-.05.82-.12,1.29-.2"/>
        <line class="cls-1" x1="220.9" y1="407.5" x2="219.7" y2="406.87"/>
        <path class="cls-1" d="M423.35,389.23c-1.14.11-2.28.22-3.51.34-.21.19-.49.44-.76.7"/>
        <polyline class="cls-1" points="289.01 401.24 287.89 401.68 288.48 401.88"/>
        <path class="cls-1" d="M432.72,386.27c.31.05.62.1.84.14-.31.18-.57.32-.82.46"/>
        <path class="cls-1" d="M490.33,387.43c-.77-.14-1.66-.21-2.29-.42-1.26-.41-2.47-.34-3.76.01"/>
        <path class="cls-1" d="M550.65,383.62c-.39-1.3-.58-1.37-3.8-.83,1.06.1,1.85.18,2.64.25"/>
        <path class="cls-1" d="M120.11,415.97c-.5-.18-1-.36-1.49-.54-1.01.49-1.74.85-2.48,1.2"/>
        <path class="cls-1" d="M358.31,395.26c-1.9.69-3.79,1.38-6.22,2.26.22-.81.36-1.3.49-1.78"/>
        <path class="cls-1" d="M341.7,396.77c.67.12,1.34.24,2.01.37.78-.22,1.54-.42,2.29-.63"/>
        <path class="cls-1" d="M655.06,381.41c-.52.31-1.04.62-1.72,1.02-.29.04-.87.12-1.45.2"/>
        <line class="cls-1" x1="286.34" y1="400.24" x2="285.55" y2="401.26"/>
        <path class="cls-1" d="M271.88,403.39c-.38-.26-.75-.52-1.18-.81.43-.36.93-.77,1.72-1.43.63.41,1,.65,1.38.89"/>
        <path class="cls-1" d="M483.94,385.6c-.08.48-.15.97-.24,1.45-.06.28-.17.57-.25.85"/>
        <line class="cls-1" x1="322.12" y1="392.47" x2="323.05" y2="393.36"/>
        <path class="cls-1" d="M632.05,383.05c-2.22-.22-2.08.74-3.16,1.09"/>
        <line class="cls-1" x1="245.16" y1="400.89" x2="242.89" y2="401.44"/>
        <path class="cls-1" d="M277.53,398.02c.42-.3.85-.59,1.42-.99.87.08,2.01.18,3.14.28"/>
        <polyline class="cls-1" points="460.24 390.67 459.17 390.42 458.76 390.58 459.39 390.95"/>
        <path class="cls-1" d="M405.94,392.33c-.09.48-.18.97-.3,1.57.54,0,1.32.02,2.1.03"/>
        <line class="cls-1" x1="349.21" y1="392.34" x2="348.41" y2="393.35"/>
        <path class="cls-1" d="M159.95,409.98c-.14.38-.27.75-.48,1.32-1.57.03-3.09.06-4.56.09-.14-.38-.25-.69-.34-.93-.87-.07-1.63-.13-2.39-.19"/>
        <path class="cls-1" d="M636.67,386.75c-.49-.15-.98-.3-1.6-.49-.37.31-.76.63-1.11.91.97.55,1.56.28,2.13-.06"/>
        <path class="cls-1" d="M582.91,386.64c.48-.05,1.06-.19,1.41-.13.93.17,1.75.43,2.62.66"/>
        <path class="cls-1" d="M157.95,407.28c.29-.5.58-1.01.9-1.57-1.46-.11-2.66-.19-3.01.7"/>
        <path class="cls-1" d="M294.74,396.76c-.74-.69-2.33-.51-3.78-.46"/>
        <polyline class="cls-1" points="208.52 401.22 207.63 401.24 207.77 401.02 210.84 401.25"/>
        <line class="cls-1" x1="324.42" y1="396.76" x2="323.02" y2="397.34"/>
        <line class="cls-1" x1="239.46" y1="398.24" x2="241.47" y2="398.19"/>
        <path class="cls-1" d="M669.44,383.95c-2.17-.13-2.09.47-2.03,1.07,0,.04-.16.1-.28.11-.18.02-.38,0-.57,0"/>
        <path class="cls-1" d="M273.02,395.6c-.79.27-1.59.54-2.36.81.62.57,1.15,1.05,1.67,1.53"/>
        <path class="cls-1" d="M289.47,395.68c-.32-.38-.59-.77-.99-1.13-.06-.05-.72.04-1.1.07"/>
        <path class="cls-1" d="M340.18,395.42c.1.11.21.23.39.42-.27.1-.6.21-.92.33"/>
        <path class="cls-1" d="M265.12,398.01c1.05-.16,2.09-.32,3.41-.52-.08.32-.14.6-.21.88"/>
        <path class="cls-1" d="M399.69,388.18c-.43-.2-.86-.4-1.59-.73-.41.91-.73,1.62-1.07,2.38.34.04.85.11,1.68.22-.65.24-1.07.4-1.56.58.62.12,1.22.24,1.81.36"/>
        <path class="cls-1" d="M417.67,390.94c-.17.13-.34.26-.88.69,1.32-.13,2.27-.2,3.19-.32,1.06-.14,2.1-.33,3.15-.5"/>
        <line class="cls-1" x1="462.55" y1="390.82" x2="460.59" y2="392.1"/>
        <path class="cls-1" d="M217.55,405.37c.89.3,1.81.58,3.2.33"/>
        <path class="cls-1" d="M183.31,409.66c.77.01,1.54.02,2.89.04-.04-.42-.07-.78-.11-1.13"/>
        <line class="cls-1" x1="636.35" y1="381.11" x2="634.34" y2="381.6"/>
        <line class="cls-1" x1="642.68" y1="381.09" x2="641.25" y2="382.3"/>
        <line class="cls-1" x1="652.47" y1="386.1" x2="650.17" y2="386.47"/>
        <polyline class="cls-1" points="676.9 386.86 676.55 386.16 677.02 386.18 680.06 388.67"/>
        <path class="cls-1" d="M477.34,386.29c.14.27.28.55.58,1.11-1.19-.42-1.89-.68-2.8-1-.32.2-.62.4-.92.59"/>
        <line class="cls-1" x1="473.48" y1="390.75" x2="473.22" y2="391.6"/>
        <line class="cls-1" x1="365.25" y1="395.82" x2="365.3" y2="396.66"/>
        <line class="cls-1" x1="225.51" y1="403.98" x2="226.44" y2="404.75"/>
        <line class="cls-1" x1="468.13" y1="386.27" x2="467.59" y2="387.02"/>
        <path class="cls-1" d="M527.99,386.45c-.84-.04-1.68-.07-2.94-.13.47.45.7.67.94.9"/>
        <polyline class="cls-1" points="519 384.04 520.36 383.86 520.68 384.19 518.73 384.65 517.02 385.05"/>
        <line class="cls-1" x1="412.89" y1="393.21" x2="412.06" y2="393.85"/>
        <path class="cls-1" d="M363.24,395.81c-.78.55.07.48.89.43"/>
        <line class="cls-1" x1="308.12" y1="398.6" x2="308.8" y2="400.12"/>
        <path class="cls-1" d="M174.11,410.15c.2.3.39.61.5.77.86-.03,1.51-.05,2.17-.07"/>
        <path class="cls-1" d="M417.86,388.77l-3.01-.45.39-.27c.69.43.53.46.98,1.15.3.46,1.13.83,1.73,1.25"/>
        <polyline class="cls-1" points="521.65 386.01 519.39 385.8 519 386.03 519.65 386.54"/>
        <path class="cls-1" d="M532.87,386.33l-.62.55-.37-.02c0-.21-.01-.41-.02-.65-2.51.24-1.04.58-.23.98-.59.11-1.1.21-1.61.31"/>
        <line class="cls-1" x1="684.09" y1="386.17" x2="680.64" y2="387.83"/>
        <path class="cls-1" d="M475.91,386.46c.78-.17,1.56-.33,2.35-.5,1.09.38,2.3.81,3.54,1.25-.18.54-.4,1.19-.63,1.84"/>
        <line class="cls-1" x1="569.65" y1="384.48" x2="571.69" y2="386"/>
        <line class="cls-1" x1="231.78" y1="399.6" x2="230.12" y2="400.46"/>
        <polyline class="cls-1" points="645.57 385.4 643.26 387.04 642.7 386.98 642.7 386.37"/>
        <path class="cls-1" d="M191.35,409.29c.28-1.15-1.93-1.27-3.77-1.66.3-.23.63-.48.96-.73"/>
        <path class="cls-1" d="M141.51,413.36c-1.32.32-2.65.65-4.23,1.03-.36-.09-.89-.23-1.37-.35-1.42.37-1.22.7-.58,1.04"/>
        <line class="cls-1" x1="411.62" y1="390.86" x2="414" y2="392.43"/>
        <path class="cls-1" d="M328.52,393.37c1.7-.77-1.39-.23-.35-.86.36-.12,1.27-.44,2.55-.88.03.47.05.79.07,1.12"/>
        <path class="cls-1" d="M490.24,384.55c.49.18.9.42,1.48.54.59.12,1.33.13,2,.19"/>
        <path class="cls-1" d="M470.14,386.07c-.47.07-.94.14-1.55.23.28-.44.51-.81.75-1.19,1.15.15,2.11.27,3.08.39"/>
        <path class="cls-1" d="M370.05,394.12c-.33-.16-.67-.32-.99-.48-.56.21-.93.35-1.31.49l.13.26,3.6-.46"/>
        <line class="cls-1" x1="180.93" y1="405.9" x2="179.83" y2="406.48"/>
        <path class="cls-1" d="M271.43,397.52c-.36.1-.56.16-.66.19-.44.45-.71.74-.98,1.02"/>
        <path class="cls-1" d="M213.45,401.38c-.9.65-2.06.81-3.42.55"/>
        <line class="cls-1" x1="329.77" y1="394.86" x2="330.14" y2="396.16"/>
        <polyline class="cls-1" points="489.52 389.02 489.5 388.42 490.34 388.43 489.29 390.83"/>
        <path class="cls-1" d="M397.21,390.48c-.59-.21-1.17-.42-1.79-.64-1.03.56-.55.96.38,1.32"/>
        <path class="cls-1" d="M353.35,394.13c-.18-.11-.36-.23-.55-.35.23-.08.52-.18.99-.33.2.3.39.57.62.92.88,0,2.33-.13,1.88.67"/>
        <line class="cls-1" x1="364.81" y1="393.08" x2="359.01" y2="392.34"/>
        <path class="cls-1" d="M450.07,388.07c-.48.1-.95.2-1.32.27-.31.64-.6,1.25-.9,1.85"/>
        <path class="cls-1" d="M670.59,383.11c-2.06.49-.16,1.12-.29,1.68"/>
        <path class="cls-1" d="M341.12,392c-.66-.1-1.32-.19-2.04-.3-.01-.18-.03-.42-.04-.66"/>
        <path class="cls-1" d="M380.33,392.48c-.07-.12-.14-.24-.21-.35-1.41.14-2.74.28-4.63.47.32-.46.54-.78.75-1.09"/>
        <line class="cls-1" x1="368.79" y1="392.26" x2="370.54" y2="392.65"/>
        <path class="cls-1" d="M353.31,393.53c-.27-.08-.54-.15-.98-.27-.29.2-.51.35-.73.5"/>
        <path class="cls-1" d="M177.07,404.8c-.45.32-.91.65-1.49,1.06-.36-.26-.67-.49-.98-.72l-.39.06c.02.2-.08.56.08.57,1.47.08,1.49.58,1.53,1.08"/>
        <line class="cls-1" x1="393.22" y1="391.3" x2="394.75" y2="393.02"/>
        <line class="cls-1" x1="228.22" y1="401.95" x2="225.44" y2="403.14"/>
        <path class="cls-1" d="M631.18,381.49c-.15.8-1.18.64-2.45.21l-.55.22.71,1.27"/>
        <path class="cls-1" d="M565.66,386.47c-1.48.07-1.66,1.59-4.17.49l-.38.26.56.76"/>
        <path class="cls-1" d="M459.49,386.02c-.43.15-.85.3-1.25.45.54.56,1,1.02,1.61,1.64.78-.53,1.38-.94,1.97-1.34"/>
        <line class="cls-1" x1="487.52" y1="389.45" x2="489.25" y2="389.63"/>
        <line class="cls-1" x1="588.09" y1="387.17" x2="587.24" y2="387.89"/>
        <line class="cls-1" x1="605.32" y1="385.42" x2="607.35" y2="386.72"/>
        <path class="cls-1" d="M561.61,385.22c.38.12.75.24,1.14.36-1.01.49-3.66.4-3.12,1.47"/>
        <path class="cls-1" d="M623.15,386.2c-1.61.75-1.61.89,0,1.08"/>
        <polyline class="cls-1" points="378.15 389.47 377.34 389.24 376.81 389.44 378.48 390.29"/>
        <path class="cls-1" d="M351.71,390.74c.59.31,2.33-.11,2.34.58"/>
        <line class="cls-1" x1="260.1" y1="400.19" x2="258.41" y2="400.68"/>
        <line class="cls-1" x1="277.59" y1="398.86" x2="279.63" y2="399.18"/>
        <path class="cls-1" d="M241.75,401.54c.76.14,1.52.29,2.6.5-.44.24-.89.48-1.35.72"/>
        <line class="cls-1" x1="351.03" y1="393.91" x2="349.35" y2="394.62"/>
        <path class="cls-1" d="M525.64,384.59c-.38,0-.77.02-1.4.04.93.31-2.19.9.57,1.07"/>
        <path class="cls-1" d="M321.75,395.62c2.21-.49,2.83.35,4.08.69"/>
        <line class="cls-1" x1="668" y1="384.3" x2="669.72" y2="384.91"/>
        <line class="cls-1" x1="481.27" y1="391.57" x2="483" y2="391.75"/>
        <line class="cls-1" x1="287.63" y1="402.07" x2="285.62" y2="402.22"/>
        <path class="cls-1" d="M252.4,397.65c-1.55.62.6.32.62.55"/>
        <line class="cls-1" x1="578.04" y1="387.45" x2="580.05" y2="387.41"/>
        <path class="cls-1" d="M454.25,391.75c.01.31.02.62.05,1.13-1.58-.45-4.06.35-4.35-.84"/>
        <line class="cls-1" x1="128.46" y1="410.14" x2="130.51" y2="410.4"/>
        <path class="cls-1" d="M249.88,402.18c-1.27,1.42-1.06,1.56,1.83,1.3"/>
        <line class="cls-1" x1="306.43" y1="394.87" x2="304.68" y2="394.63"/>
        <path class="cls-1" d="M327.07,393.22c-1.38-.57-2.65.25-4.02.29-1.12.03-2.28.29-3.42.45"/>
        <line class="cls-1" x1="593.84" y1="387.11" x2="593" y2="388.55"/>
        <path class="cls-1" d="M472.78,387.53l-1.38.28.56.37c.65-.35,1.31-.7,2.28-1.23.72.42,1.37.8,2.02,1.17"/>
        <path class="cls-1" d="M560.72,383.68c.8.1,1.61.21,2.42.31-.26.57-.46,1.02-.66,1.46"/>
        <path class="cls-1" d="M662.54,383.8c.96.2,1.92.4,2.88.61.04,0,.21-.07.27-.11.04-.03,0-.08,0-.12"/>
        <path class="cls-1" d="M467.22,384.87c-.47.18-.95.36-.99.37-.19.42-.3.65-.41.88"/>
        <path class="cls-1" d="M150.85,408.58c.54.21,1.08.42,2.23.86.3-.35.49-.57.67-.78"/>
        <path class="cls-1" d="M171.4,411.99c.14-.31.29-.61.46-.99.89.26,1.5.44,2.1.62"/>
        <path class="cls-1" d="M384.73,394.04c-3.49-.1-4.52-.07-5.75.19"/>
        <path class="cls-1" d="M514.23,388.12c-.99-.07-1.82-.18-.39-.8l2.45,2.43"/>
        <path class="cls-1" d="M519.41,388.35c-.74.22-1.47.43-2.55.75,1.72.14,2.89.24,4.15.34-.17.24-.29.4-.4.56"/>
        <path class="cls-1" d="M413.49,393.66c-.7.21-1.39.42-2.29.68-.1-.05-.34-.18-.57-.31"/>
        <path class="cls-1" d="M629.2,387.98c-.46.25-.92.5-1.06.57-1.26.07-2.11.11-2.96.16"/>
        <line class="cls-1" x1="144.36" y1="412.96" x2="144.73" y2="413.76"/>
        <path class="cls-1" d="M359.52,391.34c-.53.39-1.06.78-1.65,1.21-1.87-.35-3.2-.65-2.53-1.63-.63-.15-1.42-.33-2.21-.51"/>
        <line class="cls-1" x1="231.43" y1="402.4" x2="229.42" y2="402.45"/>
        <path class="cls-1" d="M240.55,401.04c-.97.71-.72,1.62-2.71,2.15l.6.31"/>
        <line class="cls-1" x1="221.98" y1="406.56" x2="222.05" y2="407.4"/>
        <path class="cls-1" d="M315.03,398.49c-.51.51-.57.52-2.03.25.49-.15.96-.3,1.44-.45"/>
        <line class="cls-1" x1="546.6" y1="382.86" x2="544.59" y2="383.04"/>
        <path class="cls-1" d="M621.45,388.85c-.65-.29.22-1.08-1.73-.94"/>
        <line class="cls-1" x1="523.01" y1="383.1" x2="523.89" y2="383.68"/>
        <line class="cls-1" x1="321.01" y1="393.02" x2="320.56" y2="394.98"/>
        <path class="cls-1" d="M381.59,394.45c-1.07.48-.6.67.61.68.66,0,1.34-.07,2.01-.1"/>
        <line class="cls-1" x1="191.57" y1="405.41" x2="192.51" y2="406.17"/>
        <polyline class="cls-1" points="535.51 388.54 534 388.82 533.72 388.6 535.22 388.43"/>
        <line class="cls-1" x1="188.74" y1="406.03" x2="189.37" y2="406.58"/>
        <path class="cls-1" d="M676.63,384.34c-.29.2-.59.39-.98.65,2.64.36,3.49,1.37,4.71,2.24"/>
        <path class="cls-1" d="M269.96,400.89c-.36.31-.68.62-1.1.92-.17.12-.54.21-.82.31"/>
        <path class="cls-1" d="M350.66,392.49c.34.41-.62,1,.65,1.28"/>
        <path class="cls-1" d="M389.51,391.86c-.25.65-.52,1.31-.76,1.96-.21.59.4.92,1.77.98"/>
        <path class="cls-1" d="M312.57,396.13c.99.34,2.25.64.96,1.38"/>
        <line class="cls-1" x1="608.2" y1="385.63" x2="607.06" y2="386.25"/>
        <line class="cls-1" x1="490.4" y1="389.35" x2="493.56" y2="389.49"/>
        <polyline class="cls-1" points="659.37 383.44 659.78 384.11 659.17 384.18 658.8 383.56"/>
        <polyline class="cls-1" points="216.07 405.01 217.09 404.33 217.83 404.44 216.7 405.56"/>
        <polyline class="cls-1" points="180.68 406.28 181.21 405.75 181.93 405.69 181.86 406.54"/>
        <path class="cls-1" d="M377.73,392.38c-.1-.15-.22-.45-.31-.44-1.31.08-2.97-.12-3.41.77"/>
        <line class="cls-1" x1="130.87" y1="408.31" x2="129.18" y2="408.73"/>
        <path class="cls-1" d="M129.07,413.21c-.29.91,1.76.8,2.72,1.16"/>
        <path class="cls-1" d="M629.47,384.61c-.26-.09-.53-.18-.81-.28q-.65.54.53.76"/>
        <path class="cls-1" d="M129.6,410.01c.39.08,1.14.13,1.13.24-.1.86-.34,1.73-.54,2.59"/>
        <line class="cls-1" x1="307.61" y1="399.48" x2="307.37" y2="400.22"/>
        <path class="cls-1" d="M107.46,411.27q-.35.38,1.49.45"/>
        <polyline class="cls-1" points="337.97 397 335.85 396.87 335.62 397.16 336.58 397.69 334.04 398.56"/>
        <path class="cls-1" d="M293.58,396.72c-.19.09-.4.27-.55.27-3.57-.05-4.67,1.03-5.63,2.2-.13.15-.54.28-.81.43"/>
        <path class="cls-1" d="M211.75,405.02c-.39-.05-.78-.09-1.23-.15-.05.26-.1.51-.16.75"/>
        <path class="cls-1" d="M598.95,381.65c-.78-.26-1.54-.46-2.01.14"/>
        <line class="cls-1" x1="121.88" y1="413.61" x2="120.33" y2="415.34"/>
        <path class="cls-1" d="M682.36,387.36c-.09.67.76.37,1.44.25"/>
        <line class="cls-1" x1="195.01" y1="405.1" x2="195.66" y2="405.88"/>
        <path class="cls-1" d="M156.41,406.35c.2.34.4.69.61,1.05,1.1-.43,1.43.86,2.67-.05"/>
        <path class="cls-1" d="M510.45,386.78c.04.16.07.32.05.24,1.5-.04,2.74-.07,3.98-.11"/>
        <line class="cls-1" x1="130.04" y1="414.19" x2="129.3" y2="415.48"/>
        <line class="cls-1" x1="232.54" y1="401.83" x2="231.79" y2="403.21"/>
        <path class="cls-1" d="M330.02,394.24c-1.08-.56-2.36-.46-3.75,0"/>
        <line class="cls-1" x1="541.17" y1="384.32" x2="539.44" y2="384.24"/>
        <path class="cls-1" d="M669.72,386.47c.54.98,2.98.66,4.31,1.1"/>
        <path class="cls-1" d="M361.47,395.07c.55-.08,1.09-.16,2.08-.3-.35.41-.52.61-.8.94,1.12-.02,2.07-.04,3.03-.05l.07-.24c.38.18.76.37,1.01.49,1.5.07,2.83.14,4.17.2"/>
        <path class="cls-1" d="M316.06,396.73c.26-.22.53-.44.71-.59.67.02,1.26.04,1.85.06"/>
        <line class="cls-1" x1="141.02" y1="411.36" x2="141.66" y2="412.02"/>
        <path class="cls-1" d="M157.79,408.62c-.06.12-.13.23-.32.58.68-.31.94-.43,1.19-.55"/>
        <path class="cls-1" d="M642.7,387.09c-.19.24-.23.54-.61.71-.64.29-1.5.5-2.26.74"/>
        <path class="cls-1" d="M174.41,407.23c-.5-.02-.99-.03-1.84-.06.65-.28,1.07-.45,1.21-.51.78.07,1.41.13,2.03.19"/>
        <path class="cls-1" d="M341.64,391.12c1,.5,2,.99,3.1,1.54,2.34-.73,4.9-1.06,7.61-.75"/>
        <line class="cls-1" x1="280.5" y1="395.27" x2="279.71" y2="396.29"/>
        <path class="cls-1" d="M502.71,387.63c.77-.06,1.54-.18,2.29-.18.96,0,2.34-.35,2.6.38"/>
        <path class="cls-1" d="M198.73,404.76c1.93.13,2.85.76,3.87,1.33"/>
        <path class="cls-1" d="M411.02,390.29c-1.04.4-2.08.8-3.09,1.19.62.58,1.06,1,1.49,1.41"/>
        <line class="cls-1" x1="623.42" y1="382.95" x2="620.26" y2="383.59"/>
        <path class="cls-1" d="M549.49,383.52c-.05,1.38.6,1.64,3.19,1.26"/>
        <line class="cls-1" x1="246.26" y1="400.2" x2="249.13" y2="400.08"/>
        <line class="cls-1" x1="186.89" y1="407.89" x2="186.39" y2="408.66"/>
        <polyline class="cls-1" points="605.62 386.26 604.18 386.52 604.48 387.23"/>
        <line class="cls-1" x1="547.56" y1="387.28" x2="543.54" y2="387.38"/>
        <path class="cls-1" d="M371.55,395.12c.28-.06.56-.12.86-.16.07,0,.19.06.29.1l-.85.17"/>
        <path class="cls-1" d="M279.33,402.82c0-.12-.02-.24-.03-.46-1.73.29-3.43.57-5.12.86"/>
        <line class="cls-1" x1="521.69" y1="387.57" x2="522.57" y2="388.27"/>
        <line class="cls-1" x1="471.41" y1="389.27" x2="474.29" y2="389.39"/>
        <path class="cls-1" d="M622,385.37c.73-.16,1.45-.32,1.99-.43,1.72.2,1.79,1.4,4.05.88"/>
        <path class="cls-1" d="M334.75,396.12c-.4.25-.81.49-1.48.9-.38-.36-.6-.56-.81-.76"/>
        <path class="cls-1" d="M301.24,394.99c-.75.1-1.9.87-2.03-.1"/>
        <path class="cls-1" d="M291.84,400.57c.36-.48.72-.96,1.11-1.49.91.35,1.6.62,2.3.89"/>
        <path class="cls-1" d="M553.8,382.96c.04.24.08.48.16.98-.81-.47-1.28-.75-1.76-1.02-.21.05-.6.13-.99.21"/>
        <path class="cls-1" d="M241.12,400.87c.66-.13,1.33-.26,2.11-.42-.49-.16-.93-.31-1.7-.57.06.27.09.43.13.58"/>
        <path class="cls-1" d="M423.62,388.86c.88.36,1.8.7,2.62,1.08.49.23.81.52,1.2.78"/>
        <line class="cls-1" x1="119.04" y1="416.8" x2="117.33" y2="416.98"/>
        <line class="cls-1" x1="579.49" y1="388.38" x2="579.5" y2="389.34"/>
        <line class="cls-1" x1="374.11" y1="389.45" x2="376.72" y2="389.79"/>
        <polyline class="cls-1" points="551.23 384.09 554.39 385.01 554.75 384.59 553.25 384.53"/>
        <path class="cls-1" d="M606.74,383.61c-1.91.29-2.76-.15-3.34-.83-1.55.11-3.11.22-4.71.33-.35-.57-.62-1.01-.89-1.45"/>
        <polyline class="cls-1" points="215.72 400.95 214.87 401.14 214.85 401.34 216.04 401.28"/>
        <line class="cls-1" x1="466.29" y1="390.91" x2="465.2" y2="392.4"/>
        <path class="cls-1" d="M677.49,382.9c0,.28.24.62-.05.83-.76.55-.78.98.62,1.33"/>
        <path class="cls-1" d="M585.75,384.19c.39.11.77.23,1.32.39-.43.2-.84.39-1.24.58-.53-.14-1-.26-1.71-.44-.03.33-.05.57-.07.82"/>
        <path class="cls-1" d="M530.3,386.88c-.43-.12-.87-.25-1.71-.49-.11.8-.22,1.57-.33,2.37,1.04-.12,1.99-.24,2.95-.35"/>
        <path class="cls-1" d="M659.66,385.96c.48,0,.96.01,1.44,0,.39-.01.77-.07,1.15-.11"/>
        <path class="cls-1" d="M676.35,382.06c1.66.45.52.88,0,1.32"/>
        <line class="cls-1" x1="185.88" y1="406.29" x2="186.3" y2="407.7"/>
        <path class="cls-1" d="M193.71,403.53c-.23-.12-.46-.24-.83-.42-.44.58-.77,1.01-1.1,1.44"/>
        <line class="cls-1" x1="207.76" y1="402.37" x2="209.5" y2="402.46"/>
        <line class="cls-1" x1="284.73" y1="401.92" x2="282.72" y2="401.96"/>
        <line class="cls-1" x1="240.93" y1="405.58" x2="239.15" y2="405.01"/>
        <path class="cls-1" d="M183.37,407.24c-.76.07-1.53.14-2.58.23l.07.72"/>
        <path class="cls-1" d="M333.49,394.39c-2.02-.93-3.67.11-5.45.46"/>
        <line class="cls-1" x1="246.99" y1="398.57" x2="247.33" y2="399.26"/>
        <path class="cls-1" d="M221.17,403.86c-.11-.11-.21-.22-.34-.35l-3.08.88"/>
        <line class="cls-1" x1="304.29" y1="397.3" x2="303.77" y2="398.18"/>
        <path class="cls-1" d="M212.19,406.79c.7.49,1.55.98-.74,1.39"/>
        <path class="cls-1" d="M489.4,385.3c1.34,1.35-1.85.36-2.28.79"/>
        <path class="cls-1" d="M385.31,388.72c-.29-.1-.59-.21-.97-.34-.75.6-.56,1.52-3,1.52"/>
        <line class="cls-1" x1="380.82" y1="391.01" x2="380.86" y2="391.73"/>
        <path class="cls-1" d="M529.65,383.89c0-.28-.01-.56-.03-1.09-1.15.19-1.87.31-2.58.43"/>
        <path class="cls-1" d="M690.13,386.79c.68.07,1.36.14,2.32.23.27-.17.66-.4,1.05-.64l-.64-.25-1.59.66"/>
        <path class="cls-1" d="M315.94,399.15c.56-.09,1.12-.18,1.91-.3.16.31.3.59.44.87"/>
        <line class="cls-1" x1="499.99" y1="383.52" x2="507.19" y2="383.52"/>
        <path class="cls-1" d="M201.3,407.66c-.25.48-2.78.82-.73,1.52-.03-.36-.05-.6-.08-.84"/>
        <path class="cls-1" d="M439.91,392.68c.3.06,4.07.21,4.61.18"/>
        <path class="cls-1" d="M426.23,389.34c.96.12,1.92.24,3.57.45-.22-.71-.39-1.26-.64-2.04,1.1.19,2.05.35,3.01.51l-.28.28-1.68-.12.56-.39"/>
        <line class="cls-1" x1="259.53" y1="396.63" x2="260.99" y2="396.76"/>
        <path class="cls-1" d="M573.45,387.89c1.77.83,2.14.85,3.16.18"/>
        <line class="cls-1" x1="323.38" y1="398.51" x2="322.27" y2="399.07"/>
        <path class="cls-1" d="M491.29,390.4c.13.2.26.4.44.68-.16.06-.53.2-.93.35-.14-.17-.25-.28-.35-.4"/>
        <line class="cls-1" x1="228.36" y1="400.13" x2="228.72" y2="401.06"/>
        <polyline class="cls-1" points="497.41 383.72 498.28 383.93 497.42 384.2"/>
        <line class="cls-1" x1="467.47" y1="391.59" x2="464.02" y2="391.6"/>
        <path class="cls-1" d="M570.58,388.54c-.96-.18-2.11-.6-2.83-.48-.72.11-1,.75-1.47,1.16"/>
        <line class="cls-1" x1="205.68" y1="408.23" x2="200.85" y2="409.03"/>
        <line class="cls-1" x1="428.15" y1="387.2" x2="428.47" y2="387.79"/>
        <path class="cls-1" d="M383.93,395.17c1.24.78,3.42.44,5.21.56"/>
        <line class="cls-1" x1="454.89" y1="386.2" x2="458.07" y2="386.55"/>
        <line class="cls-1" x1="477.53" y1="391.57" x2="479.55" y2="391.62"/>
        <path class="cls-1" d="M244.2,399.77c-.47.08-.95.17-2.03.36.3-.6.54-1.09.78-1.57"/>
        <line class="cls-1" x1="212" y1="407.89" x2="210.58" y2="408.14"/>
        <line class="cls-1" x1="347.1" y1="390.79" x2="349.69" y2="390.75"/>
        <line class="cls-1" x1="316.27" y1="399.85" x2="314.56" y2="400.08"/>
        <line class="cls-1" x1="204.79" y1="407.95" x2="208.88" y2="408.54"/>
        <line class="cls-1" x1="485.04" y1="384" x2="482.77" y2="385.04"/>
        <path class="cls-1" d="M300.12,399.52c.69.23,1.37.47,2.18.74-.74.25-1.47.49-2.2.73l.17.26,5.4-.68"/>
        <path class="cls-1" d="M364.66,390.44l4.63.71.37-.27.89.8c.32-.09.7-.19,1.08-.29"/>
        <line class="cls-1" x1="142.17" y1="408.47" x2="144.53" y2="408.96"/>
        <path class="cls-1" d="M605.28,381.34c1.58.17,3.46.18,3.46,1.16"/>
        <path class="cls-1" d="M179.94,404.54c.49.12,1.03.37,1.47.31.6-.08,1.13-.39,1.68-.6"/>
        <line class="cls-1" x1="517.56" y1="383.71" x2="520.2" y2="385.69"/>
        <path class="cls-1" d="M142.62,407.22c.59.23,1.18.45,1.86.72l2.47-.78"/>
        <line class="cls-1" x1="113.71" y1="412.9" x2="113.54" y2="414.01"/>
        <path class="cls-1" d="M615.08,383.16c.77-.05,1.54-.08,2.3-.15,1.16-.13,2.3-.26,3.45-.39"/>
        <path class="cls-1" d="M557.28,384.46c1.35.26,2.69.51,3.94.75.18-.59.36-1.19.61-1.99-.82.27-1.43.46-2.27.73,1.22.2,2.2.37,3.18.53"/>
        <path class="cls-1" d="M678.64,384.59c.16-.2.32-.41.73-.92.93.51,1.54.84,2.15,1.17"/>
        <line class="cls-1" x1="127.46" y1="408.91" x2="126.37" y2="409.51"/>
        <line class="cls-1" x1="118.42" y1="410.96" x2="119.58" y2="410.95"/>
        <line class="cls-1" x1="364.9" y1="389.71" x2="363.8" y2="390.61"/>
        <polyline class="cls-1" points="305.29 395.19 304.97 395.83 304.11 395.83 304.65 394.15"/>
        <path class="cls-1" d="M239.84,399.41c-.17.35-.35.69-.58,1.16-.94-.18-1.59-.31-2.24-.44"/>
        <path class="cls-1" d="M577.13,384.95c-1.2.5-1.44,1.07-.84,1.7"/>
        <path class="cls-1" d="M640.69,386.86c.13-.44.26-.88.41-1.4-.76-.23-1.53-.47-2.29-.7,0-.16,0-.39,0-.7-1.57.24-2.71.41-3.3.5,0,.49,0,.93,0,1.37"/>
        <line class="cls-1" x1="418.07" y1="387.08" x2="416.36" y2="387.52"/>
        <path class="cls-1" d="M364.26,393.59c.43-.27.87-.55,1.29-.81,1.07.04,2.03.07,2.99.1"/>
        <path class="cls-1" d="M428.78,388.26c-.21.12-.43.24-.78.44.44.11.77.19,1.1.27"/>
        <line class="cls-1" x1="409.47" y1="388.08" x2="407.5" y2="389.02"/>
        <path class="cls-1" d="M563.27,381.95c.19.12.45.22.57.35.42.43.79.86,1.19,1.3"/>
        <line class="cls-1" x1="120.35" y1="412.8" x2="121.57" y2="413.4"/>
        <path class="cls-1" d="M383.73,391.45c.76-.09,1.53-.17,1.98-.22.67.32,1.24.59,1.8.86"/>
        <path class="cls-1" d="M611.62,382.48c1.41-1.05,1.78-1.1,3.16-.39"/>
        <path class="cls-1" d="M621.68,381.89c.19-.16.38-.32.49-.42l3.54.75"/>
        <line class="cls-1" x1="106.07" y1="414.43" x2="106.13" y2="415.03"/>
        <polyline class="cls-1" points="678.92 384.59 679.46 385.36 678.52 385.43 678.64 384.71"/>
        <path class="cls-1" d="M134.68,411.53c-.2-.1-.48-.3-.6-.28-.93.19-1.82.43-2.83.67,0,.09.03.33.06.57"/>
        <line class="cls-1" x1="227.2" y1="403.48" x2="223.73" y2="403.41"/>
        <polyline class="cls-1" points="162.7 405.61 163.71 405.8 163.44 406.04 162.15 405.9"/>
        <line class="cls-1" x1="268.76" y1="396.52" x2="265.03" y2="396.81"/>
        <line class="cls-1" x1="423.38" y1="389.83" x2="420.84" y2="390.91"/>
        <path class="cls-1" d="M209.1,404.42c-.28.07-.56.13-.92.22l1.32,1.07"/>
        <line class="cls-1" x1="393.54" y1="391.88" x2="390.94" y2="391.78"/>
        <line class="cls-1" x1="408.01" y1="387.67" x2="403.17" y2="388.74"/>
        <path class="cls-1" d="M604.17,385.68c-1.44-.66-1.85-.63-3.19.15-.3.18-.93.26-1.41.38"/>
        <path class="cls-1" d="M200.32,406.3l.54-.53c-.88-.08-1.75-.16-2.63-.24"/>
        <path class="cls-1" d="M207.7,404.91c-.55.29-1.1.58-1.8.95.55.43,1.13.89,1.71,1.35"/>
        <line class="cls-1" x1="481.15" y1="388.21" x2="479.71" y2="388.14"/>
        <path class="cls-1" d="M540.93,386.37c-.07.43.73,1.05-1.41,1"/>
        <line class="cls-1" x1="553.29" y1="386.09" x2="551.57" y2="386.36"/>
        <line class="cls-1" x1="508.09" y1="384.7" x2="508.69" y2="385.64"/>
        <path class="cls-1" d="M396.74,392.55c-1.18-.76-2.93-.44-4.62-.23"/>
        <path class="cls-1" d="M558.12,383.48c-.83.17-1.66.33-2.93.58.69.27.98.39,1.8.71-.01-.51-.01-.71-.02-.92"/>
        <line class="cls-1" x1="294.27" y1="398.24" x2="294.6" y2="398.81"/>
        <line class="cls-1" x1="617.09" y1="382.78" x2="615.07" y2="382.2"/>
        <polyline class="cls-1" points="673.75 384.93 671.97 385.02 671.96 385.31 674.03 385.41"/>
        <line class="cls-1" x1="411.34" y1="391" x2="409.67" y2="392.04"/>
        <line class="cls-1" x1="452.15" y1="389.67" x2="451.62" y2="390.77"/>
        <line class="cls-1" x1="241.28" y1="402.9" x2="239.85" y2="403.02"/>
        <path class="cls-1" d="M654.48,383.09q1.12.58-.78,1.42c.09-.59.15-.94.21-1.3"/>
        <line class="cls-1" x1="248.44" y1="398.69" x2="249.37" y2="399.46"/>
        <line class="cls-1" x1="330.98" y1="395.75" x2="328.44" y2="396.51"/>
        <path class="cls-1" d="M560.41,382.48c.29-.05.57-.09,1.3-.21-.17.37-.3.64-.42.91"/>
        <line class="cls-1" x1="570.19" y1="382.31" x2="571.93" y2="383"/>
        <line class="cls-1" x1="640.69" y1="385.66" x2="638.39" y2="386.51"/>
        <path class="cls-1" d="M135.64,412.51c-.38.3-.76.6-1.05.82-1.31.2-.78-1.23-2.64-.19"/>
        <path class="cls-1" d="M196.31,406.67l.17.71c-.67.06-1.25.11-1.82.17"/>
        <line class="cls-1" x1="593.83" y1="385.91" x2="590.1" y2="386.42"/>
        <line class="cls-1" x1="150.83" y1="411.24" x2="151.46" y2="411.78"/>
        <line class="cls-1" x1="193.96" y1="406.28" x2="194.42" y2="408.17"/>
        <path class="cls-1" d="M291.41,398.67c-.28-.15-.55-.29-.95-.51-.28.42-.5.76-.71,1.08.95.02,1.91.04,2.87.07"/>
        <line class="cls-1" x1="341.93" y1="395.79" x2="341.97" y2="396.39"/>
        <line class="cls-1" x1="603.86" y1="382.92" x2="607.6" y2="382.76"/>
        <line class="cls-1" x1="409.4" y1="392.41" x2="412.54" y2="392.02"/>
        <path class="cls-1" d="M634.35,382.68c.53.56.49,1.06-.83,1.46-.12.04.16.3.26.46"/>
        <line class="cls-1" x1="637.22" y1="382.67" x2="638.95" y2="383.02"/>
        <line class="cls-1" x1="556.96" y1="383.02" x2="554.95" y2="382.94"/>
        <line class="cls-1" x1="574" y1="386.8" x2="570.84" y2="386.98"/>
        <path class="cls-1" d="M575.44,386.9c1.89-.61.7.45,1.44.45"/>
        <path class="cls-1" d="M124.78,413.66c-.18.14-.36.28-.66.52,1.43.04,2.8.07,4.18.11,1.06-.33,2.08-.65,3.09-.97"/>
        <line class="cls-1" x1="164.52" y1="406.51" x2="161.98" y2="407.12"/>
        <path class="cls-1" d="M398.69,391.24c-.55.47-1.01.96-1.69,1.4-.37.24-1.1.39-1.66.58"/>
        <line class="cls-1" x1="532.05" y1="387.79" x2="532.92" y2="388.37"/>
        <line class="cls-1" x1="207.82" y1="406.34" x2="210.21" y2="407.21"/>
        <path class="cls-1" d="M286.61,399.98c-.58.04-1.15.09-1.92.15.25-.36.4-.57.71-1.01.57.35.89.55,1.2.74"/>
        <path class="cls-1" d="M655.92,386.57c-.96-.04-1.91-.08-2.89-.12-.29.21-.57.41-.85.62"/>
        <path class="cls-1" d="M228.19,404.96c-1.04.16-2.34-.55-3.14.38"/>
        <line class="cls-1" x1="595.85" y1="386.72" x2="592.12" y2="387.24"/>
        <path class="cls-1" d="M604.43,382.43c1.03-.46,1.71-.4,2.02.22"/>
        <path class="cls-1" d="M654.49,386.69c-.16.73-1.18,1.11-2.87,1.21"/>
        <line class="cls-1" x1="160.34" y1="411.02" x2="162.67" y2="411.28"/>
        <path class="cls-1" d="M502.93,385.34c-.19-.07-.39-.15-.69-.26-.16.11-.31.2-.46.3"/>
        <path class="cls-1" d="M544.29,382.56c.9.61-.63,1.47.91,2.02"/>
        <line class="cls-1" x1="331.94" y1="397.25" x2="332.28" y2="398.07"/>
        <path class="cls-1" d="M469.22,392.24c-.54-.37-1.09-.73-1.93-1.3,1.58-.1,2.74-.17,3.9-.24l-.23-.34-1.8.32"/>
        <path class="cls-1" d="M547.01,388.62c-.81-.06-1.61-.13-2.48-.19.94-.57,1.48-.46,1.9-.03"/>
        <path class="cls-1" d="M657.93,386.2c-.73.16-1.46.31-2.36.5.95.52,1.66.91,2.37,1.3.04.02.2.02.28,0,.11-.03.2-.08.29-.12"/>
        <path class="cls-1" d="M419.44,391.7c-.65.51.6,1.39-1.94,1.53"/>
        <path class="cls-1" d="M286.9,399.95c1.63.34,3.93.07,5.22.72.22.11.23.3.34.45"/>
        <path class="cls-1" d="M672.32,382.64c.12.2.25.39.38.6-.57,0-1.05,0-1.53,0"/>
        <line class="cls-1" x1="560.52" y1="388.36" x2="563.39" y2="387.95"/>
        <line class="cls-1" x1="547.8" y1="384.88" x2="543.77" y2="384.86"/>
        <line class="cls-1" x1="648.45" y1="386.35" x2="652.47" y2="387.54"/>
        <path class="cls-1" d="M410.03,387.58c.02.53-.13,1.1,1.5,1.25"/>
        <line class="cls-1" x1="406.85" y1="393.37" x2="410" y2="392.98"/>
        <line class="cls-1" x1="176.57" y1="405.57" x2="178.63" y2="405.99"/>
        <path class="cls-1" d="M280.92,401.01c-.51.75-1.52.21-2.29.29-.38.04-.77-.01-1.15-.02"/>
        <path class="cls-1" d="M321.61,397.79c-.51.61-3.04,1.2-.39,1.95-.72.05-1.1.08-1.49.1"/>
        <path class="cls-1" d="M525.9,383.62c.68.2-.14.9,1.46.8"/>
        <line class="cls-1" x1="434.71" y1="392.18" x2="437.59" y2="392.29"/>
        <line class="cls-1" x1="561" y1="383.19" x2="559.55" y2="383.1"/>
        <line class="cls-1" x1="570.48" y1="382.66" x2="569.63" y2="383.28"/>
        <polyline class="cls-1" points="194.44 408.4 194.87 408.99 195.48 408.83 194.72 408.26"/>
        <line class="cls-1" x1="237.97" y1="404.74" x2="235.73" y2="405.53"/>
        <path class="cls-1" d="M425.79,392.24c-.28.13-.56.27-1.13.53,1.25.11,2.36.22,3.47.32"/>
        <polyline class="cls-1" points="257.76 403.38 255.33 403.8 254.97 404.18 256.39 404.33"/>
        <line class="cls-1" x1="189.66" y1="409.68" x2="192.29" y2="410.05"/>
        <polyline class="cls-1" points="258.46 397.67 259.35 396.78 258.88 396.63 257.58 397.5"/>
        <line class="cls-1" x1="314.35" y1="392.64" x2="310.93" y2="393.24"/>
        <line class="cls-1" x1="219.74" y1="403.98" x2="220.64" y2="404.39"/>
        <path class="cls-1" d="M682.96,381.84c-1.05-.06-2.09-.12-3.34-.19.14-.13.3-.27.55-.5-.46-.02-.85-.03-1.24-.05"/>
        <line class="cls-1" x1="222.98" y1="404.79" x2="220.13" y2="405.15"/>
        <line class="cls-1" x1="203.62" y1="401.3" x2="203.09" y2="401.83"/>
        <line class="cls-1" x1="199.21" y1="406.89" x2="199.34" y2="408.32"/>
        <path class="cls-1" d="M277.02,398.9c-.28.14-.54.29-.84.42-.55.24-1.11.49-1.67.73"/>
        <line class="cls-1" x1="518.78" y1="386.44" x2="517.93" y2="386.83"/>
        <line class="cls-1" x1="613.4" y1="388.22" x2="614.84" y2="388.56"/>
        <path class="cls-1" d="M426.86,390.51c-.1.08-.2.17-.47.39.53-.09.79-.13,1.05-.18"/>
        <path class="cls-1" d="M462.97,386.72c2.21.8-.61.62-1.12.89"/>
        <line class="cls-1" x1="643.27" y1="385.17" x2="642.41" y2="384.81"/>
        <line class="cls-1" x1="146.54" y1="411.66" x2="146.87" y2="412.11"/>
        <path class="cls-1" d="M393.69,394.76c.99.68,1.95.67,2.87-.16"/>
        <line class="cls-1" x1="586.33" y1="384.3" x2="584.87" y2="383.13"/>
        <line class="cls-1" x1="592.35" y1="383.04" x2="593.22" y2="383.39"/>
        <path class="cls-1" d="M446.81,385.8c-.38-.07-.76-.14-1.1-.2-.22.18-.42.35-.62.51"/>
        <line class="cls-1" x1="330.81" y1="397.56" x2="330.55" y2="398.06"/>
        <line class="cls-1" x1="647.58" y1="382.64" x2="648.16" y2="383.11"/>
        <line class="cls-1" x1="647" y1="381.2" x2="647" y2="381.68"/>
        <line class="cls-1" x1="182.99" y1="403.18" x2="183.35" y2="403.99"/>
        <path class="cls-1" d="M194.47,402.38c-.71.22-1.41.45-2.34.74-.02,0-.26-.12-.5-.24"/>
        <line class="cls-1" x1="297.08" y1="401.41" x2="294.78" y2="401.45"/>
        <line class="cls-1" x1="536.99" y1="390.19" x2="535.84" y2="389.98"/>
        <polyline class="cls-1" points="157.67 413.22 158.81 413.1 158.82 412.98 157.37 413.12"/>
        <line class="cls-1" x1="618.55" y1="385.52" x2="616.54" y2="385.91"/>
        <line class="cls-1" x1="591.47" y1="381.73" x2="593.78" y2="381.95"/>
        <line class="cls-1" x1="589.84" y1="388.95" x2="590.99" y2="389.06"/>
        <line class="cls-1" x1="448.02" y1="387.19" x2="447.46" y2="387.7"/>
        <line class="cls-1" x1="520" y1="388.81" x2="520.01" y2="389.29"/>
        <path class="cls-1" d="M492.36,387.73c-.31-.29-.61-.57-.93-.87-1.18.32-.16,1.21-2.22,1.09"/>
        <polyline class="cls-1" points="138.68 411.11 139.81 410.99 139.87 411.35 138.14 411.53"/>
        <path class="cls-1" d="M337.64,391.61c.39.02.77.03,1.28.05-.25.14-.46.27-.68.39"/>
        <line class="cls-1" x1="233.6" y1="400.65" x2="231.31" y2="400.97"/>
        <path class="cls-1" d="M145,410.72c-.68.11-1.36.21-2.03.32.18.42.3.73.43,1.04"/>
        <path class="cls-1" d="M376.99,394.7c-.2.17-.39.34-.68.58.35.08.68.16,1.02.24"/>
        <line class="cls-1" x1="499.76" y1="385.33" x2="499.2" y2="385.7"/>
        <line class="cls-1" x1="522.19" y1="384.68" x2="522.77" y2="385.14"/>
        <line class="cls-1" x1="553.24" y1="383.93" x2="552.96" y2="384.42"/>
        <path class="cls-1" d="M550.39,385.18c-.45.29-.9.59-1.65,1.09.85.04,1.55.07,2.25.1"/>
        <line class="cls-1" x1="131.98" y1="413.38" x2="134.9" y2="413.68"/>
        <path class="cls-1" d="M245.55,398.57c-.37.15-.74.3-.84.34.04.53.08.97.11,1.4"/>
        <line class="cls-1" x1="365.84" y1="390.98" x2="363.62" y2="392.42"/>
        <path class="cls-1" d="M294.29,394.51c.36.41-1.27,1.37,1.52,1.1"/>
        <line class="cls-1" x1="663.4" y1="386.08" x2="663.97" y2="386.57"/>
        <path class="cls-1" d="M463.2,385.27c-.09.08-.19.17-.29.26l-.57-.11"/>
        <path class="cls-1" d="M306.35,397.88c1.04-.09,2.29-.32,2.05.46"/>
        <path class="cls-1" d="M674.62,382.05c-.19.28-.39.56-.59.85,1.05.28,2.11.56,3.17.84"/>
        <line class="cls-1" x1="129.08" y1="410.55" x2="128.85" y2="411.06"/>
        <line class="cls-1" x1="145.65" y1="408.61" x2="143.12" y2="409.34"/>
        <polyline class="cls-1" points="582.63 386.89 581.49 387.39 582.07 387.86"/>
        <polyline class="cls-1" points="206.59 402.24 205.69 401.84 204.26 401.97"/>
        <line class="cls-1" x1="339.03" y1="395.49" x2="338.19" y2="395.9"/>
        <line class="cls-1" x1="320.86" y1="395.2" x2="320.61" y2="395.7"/>
        <line class="cls-1" x1="277.95" y1="395.94" x2="278.89" y2="396.95"/>
        <line class="cls-1" x1="314.17" y1="394.22" x2="312.26" y2="395.91"/>
        <line class="cls-1" x1="502.43" y1="387.88" x2="500.15" y2="388.56"/>
        <line class="cls-1" x1="406.02" y1="388.13" x2="404.87" y2="388.18"/>
        <path class="cls-1" d="M485.92,384.69l-1.15.04-.14.15,1.3.17c.55-.65,1.54-.52,2.58-.32"/>
        <path class="cls-1" d="M518.74,385c-.78.2-2.14.05-2.28.66"/>
        <line class="cls-1" x1="639.83" y1="386.26" x2="643.85" y2="386.49"/>
        <path class="cls-1" d="M498.72,388.96c-.39.13-.78.25-1.42.47.73.05,1.23.09,1.73.12"/>
        <path class="cls-1" d="M260.29,398.86c-.18.17-.36.35-.51.49.49.1.96.19,1.43.28"/>
        <line class="cls-1" x1="347.77" y1="392.43" x2="346.96" y2="393.32"/>
        <line class="cls-1" x1="503.3" y1="388.33" x2="502.74" y2="388.83"/>
        <line class="cls-1" x1="684.11" y1="381.85" x2="684.97" y2="382.57"/>
        <line class="cls-1" x1="158.74" y1="406.48" x2="159.9" y2="406.48"/>
        <line class="cls-1" x1="218.04" y1="400.99" x2="216.61" y2="401.23"/>
        <line class="cls-1" x1="294.61" y1="394.96" x2="296.91" y2="394.81"/>
        <path class="cls-1" d="M342.54,391.67c-.6.21-1.2.43-1.62.58-.33.65,2.6-.15,1.42.76"/>
        <line class="cls-1" x1="355.76" y1="390.97" x2="357.21" y2="391.13"/>
        <line class="cls-1" x1="370.7" y1="390.36" x2="369.55" y2="390.3"/>
        <path class="cls-1" d="M602.74,385.81l.31.23c-.21.05-.41.09-.6.13"/>
        <path class="cls-1" d="M612.22,385.59c.86.15,1.72.31,2.98.53-.16-.38-.28-.65-.4-.92"/>
        <path class="cls-1" d="M213.23,405.49c.29.02.58.03,1.09.06-.5.21-.91.39-1.32.56"/>
        <line class="cls-1" x1="185.8" y1="405.46" x2="186.42" y2="405.88"/>
        <line class="cls-1" x1="583.72" y1="382.67" x2="581.7" y2="382.82"/>
        <line class="cls-1" x1="119.41" y1="414.83" x2="118.59" y2="415.28"/>
        <line class="cls-1" x1="162.19" y1="406.26" x2="159.35" y2="406.78"/>
        <path class="cls-1" d="M466.81,389.45c.28.15.56.31,1.05.57.28-.32.47-.54.66-.76"/>
        <line class="cls-1" x1="156.35" y1="411.54" x2="156.73" y2="412.46"/>
        <line class="cls-1" x1="668.57" y1="387.07" x2="667.42" y2="386.82"/>
        <path class="cls-1" d="M416.49,390.28c-.19.17-.37.34-.61.55-.28-.08-.55-.16-.82-.24"/>
        <path class="cls-1" d="M486.58,386.95c-.32.28-.65.56-1.02.88-.67.05-1.53.12-2.4.19"/>
        <line class="cls-1" x1="292.52" y1="398" x2="291.38" y2="398.19"/>
        <line class="cls-1" x1="616.82" y1="384.82" x2="615.67" y2="384.6"/>
        <path class="cls-1" d="M470.58,390.26c.08-.52.18-1.05.18-1.57,0-.04-.72-.05-1.1-.08"/>
        <line class="cls-1" x1="558.21" y1="387.8" x2="557.06" y2="388.06"/>
        <line class="cls-1" x1="617.39" y1="384.34" x2="618.54" y2="384.56"/>
        <line class="cls-1" x1="367.11" y1="392.95" x2="367.15" y2="393.79"/>
        <polyline class="cls-1" points="588.36 385.6 584.13 385.96 583.99 385.76 585.19 385.28"/>
        <path class="cls-1" d="M638.66,382.06c.3.37.6.75.86,1.08.39,0,.52.01.57,0,.05-.02-.03-.09.02-.11.17-.09.38-.16.57-.24"/>
        <path class="cls-1" d="M321.05,398.07c-.29-.1-.59-.2-1.09-.37.26-.14.53-.29.72-.39.91.13,1.49.21,2.07.29"/>
        <line class="cls-1" x1="536.66" y1="388.16" x2="537.82" y2="388.61"/>
        <path class="cls-1" d="M136.76,412.15l-.32-.33c-.18.1-.55.24-.51.29.11.16.38.29.59.42"/>
        <line class="cls-1" x1="373.46" y1="393.21" x2="371.51" y2="394.4"/>
        <path class="cls-1" d="M126.14,412.79c1,.64.14,1.28-.96,1.91"/>
        <line class="cls-1" x1="507.08" y1="389.65" x2="505.94" y2="389.81"/>
        <line class="cls-1" x1="555.92" y1="388.32" x2="554.5" y2="389.19"/>
        <polyline class="cls-1" points="114.13 414.06 115.1 415.05 115.76 414.91 115.02 414.33"/>
        <line class="cls-1" x1="117.6" y1="414.06" x2="118.5" y2="414.45"/>
        <path class="cls-1" d="M146.4,413.12l.38.93c-.56.18-1.12.35-2,.63.11-.3.19-.5.26-.7"/>
        <polyline class="cls-1" points="419.38 390.62 417.98 390.84 417.89 390.57 419.67 390.49"/>
        <path class="cls-1" d="M221.93,405.97c-.02.16-.04.33-.06.61-.52-.13-.79-.2-1.06-.27"/>
        <line class="cls-1" x1="390.04" y1="391.11" x2="388.88" y2="390.93"/>
        <line class="cls-1" x1="524.03" y1="389.19" x2="522.89" y2="389.46"/>
        <line class="cls-1" x1="616.84" y1="387.46" x2="616.85" y2="388.42"/>
        <line class="cls-1" x1="282.95" y1="397.25" x2="280.15" y2="398.42"/>
        <path class="cls-1" d="M207.12,408.22c-.02-.28-.05-.56-.07-.81,1.05-.06,1.82-.1,2.58-.14"/>
        <polyline class="cls-1" points="175.19 409.32 177.53 409.23 177.6 409.45 176.38 409.69"/>
        <line class="cls-1" x1="494.73" y1="389.93" x2="496.75" y2="390.35"/>
        <path class="cls-1" d="M526.62,389.25c-.33.1-.65.21-1.7.54.89.18,1.45.29,2.01.41"/>
        <line class="cls-1" x1="149.21" y1="409.47" x2="149.83" y2="409.89"/>
        <path class="cls-1" d="M594.7,387.1c1.35.22,2.7.44,4.02.65-.1.23-.19.43-.27.63"/>
        <path class="cls-1" d="M182.26,404.69c1.61.98,1.62.99,1.02,1.59"/>
        <polyline class="cls-1" points="154.45 409.91 150.57 409.96 150.13 409.51 149.29 410.3"/>
        <path class="cls-1" d="M499.16,384.63l-1.4,1.13c-.1-.04-.25-.07-.28-.11-.05-.07-.02-.16-.02-.24"/>
        <path class="cls-1" d="M577.97,383.13c-.03.2-.06.4-.09.61-.19.03-.48.08-.77.12"/>
        <line class="cls-1" x1="573.45" y1="388.37" x2="572.31" y2="388.63"/>
        <line class="cls-1" x1="250.51" y1="402.85" x2="249.38" y2="403.19"/>
        <line class="cls-1" x1="327.31" y1="396.82" x2="326.17" y2="397.01"/>
        <polyline class="cls-1" points="341.25 394.03 341.27 394.51 342.13 394.34"/>
        <line class="cls-1" x1="387.38" y1="389.69" x2="388.28" y2="390.48"/>
        <line class="cls-1" x1="438.76" y1="392.73" x2="436.47" y2="393.06"/>
        <path class="cls-1" d="M185.15,404.67l-1.1.58.11.2c1.11-.19,2.22-.37,3.34-.56.19-.33.33-.58.54-.95-.91-.1-1.84-.21-3-.34.19.41.28.61.37.8"/>
        <line class="cls-1" x1="191.44" y1="403.98" x2="192.11" y2="405"/>
        <line class="cls-1" x1="488.31" y1="387.26" x2="487.77" y2="388.12"/>
        <line class="cls-1" x1="436.32" y1="389.58" x2="436.37" y2="390.66"/>
        <path class="cls-1" d="M283.85,397.78c-.49-.64-.8-1.25,1.62-1.45"/>
        <path class="cls-1" d="M216.81,400.13c-1.77.43-.57.75-.19,1.1"/>
        <line class="cls-1" x1="302.29" y1="393.47" x2="301.73" y2="393.75"/>
        <line class="cls-1" x1="311.43" y1="396.33" x2="311.2" y2="397.19"/>
        <line class="cls-1" x1="534.22" y1="382.7" x2="533.36" y2="382.72"/>
        <line class="cls-1" x1="225.01" y1="404.87" x2="224.13" y2="404.7"/>
        <line class="cls-1" x1="590.32" y1="381.5" x2="589.75" y2="381.75"/>
        <path class="cls-1" d="M638.66,383.38c.68.28,1.35.55,2.17.88-.5.07-.9.13-1.31.19"/>
        <line class="cls-1" x1="299.99" y1="393.63" x2="300.31" y2="393.97"/>
        <line class="cls-1" x1="489.06" y1="383.87" x2="489.36" y2="384.22"/>
        <line class="cls-1" x1="638.66" y1="381.1" x2="639.23" y2="381.34"/>
        <line class="cls-1" x1="666.28" y1="381.06" x2="665.99" y2="381.41"/>
        <path class="cls-1" d="M198.07,406.99c-.09.09-.19.18-.26.27-.03.04,0,.08,0,.12"/>
        <path class="cls-1" d="M369.54,395.23c.23.1.45.2.69.3.47-.09,1.04-.2,1.61-.31"/>
        <line class="cls-1" x1="270.33" y1="401.94" x2="270.36" y2="402.42"/>
        <path class="cls-1" d="M671.74,383.84c0,.08.03.16-.01.24-.03.05-.18.08-.28.12"/>
        <line class="cls-1" x1="416.04" y1="386.81" x2="416.07" y2="387.53"/>
        <polyline class="cls-1" points="142.34 410.14 142.66 410.47 142.91 410.08"/>
        <line class="cls-1" x1="171.23" y1="407.18" x2="171.55" y2="407.51"/>
        <line class="cls-1" x1="557.52" y1="382.29" x2="557.24" y2="382.66"/>
        <line class="cls-1" x1="307.2" y1="393.61" x2="308.08" y2="393.8"/>
        <line class="cls-1" x1="610.5" y1="385.37" x2="611.07" y2="385.6"/>
        <line class="cls-1" x1="162.44" y1="408.89" x2="161.57" y2="408.85"/>
        <polyline class="cls-1" points="496.57 384.59 496.55 383.99 495.91 383.94 495.13 384.64"/>
        <line class="cls-1" x1="223.89" y1="405.32" x2="225.37" y2="405.8"/>
        <line class="cls-1" x1="673.76" y1="381.57" x2="674.04" y2="381.93"/>
        <path class="cls-1" d="M324.26,394.24c0,.12.12.26,0,.36-.31.27-.71.53-1.08.8"/>
        <line class="cls-1" x1="157.79" y1="411.52" x2="158.2" y2="412.8"/>
        <line class="cls-1" x1="596.08" y1="382.16" x2="595.22" y2="382.05"/>
        <path class="cls-1" d="M416.94,387.61c0,.08.04.16,0,.24-.03.05-.18.09-.27.13"/>
        <path class="cls-1" d="M235.8,402.88c-.21.13-.42.26-.61.37.26.18.47.32.68.47"/>
        <line class="cls-1" x1="451.06" y1="391.16" x2="451.92" y2="391.12"/>
        <line class="cls-1" x1="286.87" y1="395.62" x2="286.01" y2="395.69"/>
        <polyline class="cls-1" points="390.92 391.3 390.53 391.83 389.95 391.75 390.62 391.08"/>
        <line class="cls-1" x1="135.15" y1="413.29" x2="135.52" y2="414.1"/>
        <line class="cls-1" x1="467.08" y1="388.96" x2="470.25" y2="389.07"/>
        <line class="cls-1" x1="606.77" y1="386.97" x2="605.92" y2="387.22"/>
        <line class="cls-1" x1="314.57" y1="395.99" x2="313.72" y2="396.17"/>
        <line class="cls-1" x1="673.75" y1="385.89" x2="673.17" y2="386.12"/>
        <line class="cls-1" x1="657.93" y1="382.12" x2="658.8" y2="382.48"/>
        <line class="cls-1" x1="149.04" y1="407.79" x2="148.18" y2="407.88"/>
        <line class="cls-1" x1="176.24" y1="405.12" x2="175.38" y2="405.2"/>
        <line class="cls-1" x1="654.2" y1="385.49" x2="653.33" y2="385.26"/>
        <path class="cls-1" d="M524.47,383.9c.1.08.23.15.28.23.02.03-.17.08-.27.13"/>
        <line class="cls-1" x1="634.92" y1="382.2" x2="632.62" y2="382.56"/>
        <polyline class="cls-1" points="468.84 389.73 469.99 389.68 469.69 389.34"/>
        <line class="cls-1" x1="146.64" y1="409.84" x2="144.26" y2="412"/>
        <line class="cls-1" x1="310.99" y1="394.2" x2="311.85" y2="394.14"/>
        <line class="cls-1" x1="356.64" y1="391.28" x2="355.78" y2="391.45"/>
        <polyline class="cls-1" points="473.98 388.8 475.7 388.39 475.12 388.14 476.84 388.23"/>
        <path class="cls-1" d="M184.11,408.98c-.2-.06-.4-.12-.89-.28-.18.44-.33.78-.47,1.13"/>
        <line class="cls-1" x1="678.36" y1="382.31" x2="678.36" y2="382.91"/>
        <line class="cls-1" x1="161.08" y1="406.73" x2="161.74" y2="407.63"/>
        <line class="cls-1" x1="151.5" y1="409.24" x2="150.96" y2="409.65"/>
        <path class="cls-1" d="M615.36,382.68c-.71.31-1.08,1.05-2.98.21.97-.25,1.83-.47,2.69-.69"/>
        <line class="cls-1" x1="114.43" y1="411.5" x2="115.03" y2="411.68"/>
        <line class="cls-1" x1="157.11" y1="410.5" x2="157.71" y2="410.68"/>
        <line class="cls-1" x1="324.78" y1="393.49" x2="326.27" y2="394.23"/>
        <path class="cls-1" d="M316.13,397.69c.13.1.27.21.7.54-1.05-.28-1.59-.42-2.14-.56"/>
        <line class="cls-1" x1="685.55" y1="382.69" x2="685.83" y2="383.06"/>
        <line class="cls-1" x1="206.06" y1="402.77" x2="205.51" y2="403.06"/>
        <line class="cls-1" x1="601.6" y1="387.02" x2="602.75" y2="387.13"/>
        <path class="cls-1" d="M209.99,404.7c-.2-.1-.4-.2-.8-.41.76-.07,1.33-.12,1.91-.17"/>
        <path class="cls-1" d="M326.35,395.43c-.09.09-.21.17-.25.26-.01.03.18.07.28.1"/>
        <line class="cls-1" x1="143.36" y1="408.83" x2="142.83" y2="409.25"/>
        <path class="cls-1" d="M485.44,387.35c-1.54-.35-.6.25-.85.39"/>
        <line class="cls-1" x1="367" y1="391.16" x2="366.15" y2="391.32"/>
        <line class="cls-1" x1="142.96" y1="410.56" x2="143.57" y2="410.86"/>
        <line class="cls-1" x1="284.37" y1="396.9" x2="285.24" y2="397.07"/>
        <path class="cls-1" d="M158.62,408.18c-.14-.19-.27-.39-.41-.59-.48.17-.76.27-1.05.37"/>
        <path class="cls-1" d="M377.4,391.55c-.37-.15-.74-.31-1.33-.55-.34,0-1.1,0-1.87,0"/>
        <line class="cls-1" x1="439.49" y1="389.69" x2="438.63" y2="389.85"/>
        <path class="cls-1" d="M312.59,396.49c-.09.09-.21.17-.25.26-.01.03.18.07.28.1"/>
        <line class="cls-1" x1="301.23" y1="398.96" x2="301.83" y2="399.28"/>
        <path class="cls-1" d="M248.16,402.33c-.29.1-.58.19-.95.32.57.17,1.08.32,1.59.47"/>
        <line class="cls-1" x1="423.04" y1="388.77" x2="422.17" y2="388.57"/>
        <path class="cls-1" d="M675.76,385.17c-.22.11-.44.22-.82.41l-.9-.77"/>
        <line class="cls-1" x1="270.41" y1="399.17" x2="269.85" y2="399.45"/>
        <line class="cls-1" x1="216.52" y1="403.53" x2="217.12" y2="403.72"/>
        <line class="cls-1" x1="283.16" y1="400.12" x2="282.31" y2="400.3"/>
        <line class="cls-1" x1="580.9" y1="386.68" x2="581.48" y2="387.03"/>
        <line class="cls-1" x1="380.27" y1="391.4" x2="380.86" y2="391.73"/>
        <line class="cls-1" x1="675.19" y1="384.81" x2="674.04" y2="384.81"/>
        <line class="cls-1" x1="463.14" y1="391.16" x2="462.28" y2="391.19"/>
        <line class="cls-1" x1="369.93" y1="391.96" x2="369.08" y2="392.13"/>
        <path class="cls-1" d="M582.08,388.7c.36-.21.72-.43,1.14-.68-.43-.05-.89-.1-1.99-.23.68.33.9.43,1.12.54"/>
        <line class="cls-1" x1="609.37" y1="387.54" x2="611.38" y2="388"/>
        <line class="cls-1" x1="635.81" y1="387.47" x2="636.67" y2="387.47"/>
        <line class="cls-1" x1="512.15" y1="386.01" x2="512.46" y2="386.72"/>
        <line class="cls-1" x1="399.18" y1="389.53" x2="399.77" y2="389.86"/>
        <line class="cls-1" x1="533.47" y1="387.16" x2="532.9" y2="387.41"/>
        <line class="cls-1" x1="661.96" y1="388.12" x2="660.23" y2="387.63"/>
        <line class="cls-1" x1="215.65" y1="406.73" x2="214.54" y2="407.31"/>
        <line class="cls-1" x1="495.6" y1="390.26" x2="494.19" y2="391.03"/>
        <line class="cls-1" x1="608.22" y1="387.79" x2="607.65" y2="388.04"/>
        <path class="cls-1" d="M534.91,387.36c.48-.13.95-.26,1.57-.44.16.18.3.34.44.51"/>
        <line class="cls-1" x1="217.66" y1="406.68" x2="218.55" y2="406.97"/>
        <line class="cls-1" x1="237.92" y1="400.65" x2="237.38" y2="401.06"/>
        <line class="cls-1" x1="239.64" y1="400.51" x2="240.25" y2="400.82"/>
        <line class="cls-1" x1="277.38" y1="399.84" x2="276.82" y2="400.12"/>
        <line class="cls-1" x1="627.47" y1="387.74" x2="627.19" y2="388.58"/>
        <path class="cls-1" d="M585.46,383.6c-.09.08-.22.16-.27.25-.02.03.18.08.27.11"/>
        <line class="cls-1" x1="310.69" y1="398.19" x2="309.85" y2="398.6"/>
        <line class="cls-1" x1="564.17" y1="383.74" x2="563.6" y2="384.11"/>
        <polyline class="cls-1" points="430.75 393.69 431.23 393.17 431.85 392.92 432.46 393.49"/>
        <line class="cls-1" x1="694.75" y1="383.81" x2="695.61" y2="384.06"/>
        <line class="cls-1" x1="601.9" y1="388.34" x2="602.77" y2="388.45"/>
        <line class="cls-1" x1="352.68" y1="397.42" x2="354.43" y2="397.79"/>
        <line class="cls-1" x1="204.98" y1="403.59" x2="205.57" y2="403.78"/>
        <path class="cls-1" d="M461.75,392.53c.22-.12.43-.24.65-.36-.38-.09-.67-.16-.96-.23"/>
        <path class="cls-1" d="M204.38,406.54c-.09.09-.21.18-.25.27-.01.03.18.06.28.09"/>
        <path class="cls-1" d="M471.79,391.77c-.09.08-.2.17-.27.25-.03.04,0,.08,0,.12"/>
        <path class="cls-1" d="M619.42,386.48c-.1.08-.22.16-.27.24-.02.03.17.08.27.12"/>
        <line class="cls-1" x1="614.55" y1="388.81" x2="615.41" y2="388.8"/>
        <line class="cls-1" x1="313.42" y1="400.28" x2="312.56" y2="400.34"/>
        <path class="cls-1" d="M258.44,401.04c-.19-.15-.38-.3-.72-.57-.41.34-.7.58-.99.83l1.15-.09"/>
        <path class="cls-1" d="M577.14,385.43c.14.23.28.46.55.88.17-.22.25-.32.32-.42"/>
        <line class="cls-1" x1="627.17" y1="385.22" x2="632.64" y2="387.36"/>
        <path class="cls-1" d="M182.14,409.52c.01.12,0,.24.06.35,0,.01.36-.03.55-.05"/>
        <path class="cls-1" d="M455.67,391.45c-.76.06-1.53.12-2.25.18-.3-.21-.62-.43-.94-.65"/>
        <line class="cls-1" x1="525.88" y1="382.79" x2="526.75" y2="383.12"/>
        <polyline class="cls-1" points="526.17 383.14 525.96 383.48 526.41 383.53 526.75 383.12"/>
        <line class="cls-1" x1="314.95" y1="393.08" x2="314.99" y2="393.56"/>
        <path class="cls-1" d="M181.6,409.93c-.95.28-1.9.55-2.93.85-.45-.02-1.03-.05-1.61-.08"/>
        <line class="cls-1" x1="612.24" y1="387.75" x2="611.38" y2="388"/>
        <line class="cls-1" x1="267.22" y1="402.78" x2="266.41" y2="403.44"/>
        <line class="cls-1" x1="685.84" y1="382.34" x2="684.97" y2="382.57"/>
        <path class="cls-1" d="M674.91,382.53c.14-.19.29-.39.56-.74.16.19.23.29.31.39"/>
        <line class="cls-1" x1="212.39" y1="402.43" x2="214.46" y2="403.1"/>
        <line class="cls-1" x1="615.12" y1="388.2" x2="615.99" y2="388.67"/>
        <path class="cls-1" d="M447.09,392.51c-.19.13-.37.26-.55.38-.75.24-1.08-.94-2.02-.03"/>
        <line class="cls-1" x1="113.96" y1="412.51" x2="112.56" y2="412.9"/>
        <line class="cls-1" x1="515.72" y1="390.24" x2="516.59" y2="390.46"/>
        <line class="cls-1" x1="492.59" y1="386.16" x2="492.61" y2="386.64"/>
        <path class="cls-1" d="M629.77,386.77c.05.12.09.25.16.44-.06.04-.26.16-.45.28"/>
        <path class="cls-1" d="M354.62,391.28c-.39.1-.78.19-1.46.36.68.06,1.08.09,1.48.12"/>
      </g>
    </g>
  </g>
</svg>