<?xml version="1.0" encoding="UTF-8"?>
<svg xmlns="http://www.w3.org/2000/svg" version="1.1" viewBox="0 0 800 800">
  <defs>
    <style>
      .cls-1 {
        fill: none;
        stroke: #fff;
        stroke-linecap: round;
        stroke-linejoin: round;
        stroke-width: 2px;
      }
    </style>
  </defs>
  <g>
    <g id="Layer_2">
      <g>
        <path class="cls-1" d="M746.93,342.03c.04.7.05,1.38.07,2.36-2.57,1.06-4.34,1.85-6.22,2.52l.75-.89.28.3"/>
        <path class="cls-1" d="M435.19,412.37c-3.57.91-2.35,1.92-4.53,3-.29-.15-.61-.31-.93-.48"/>
        <path class="cls-1" d="M321.77,431.41c-1.14.28-2.27.57-3.26.8,0,.76,1.65,1.34-.93,2.03"/>
        <path class="cls-1" d="M640.98,412.43c-.58-.23-1.17-.47-1.56-.62-2.18.56-3.95,1.04-5.88,1.51-.94.98.23,1.15,1.32,1.31,1.08.15,2.1.32.82,1.46,1.9.38,4.69-1.03,7.18-2.12"/>
        <path class="cls-1" d="M257.61,401.13c-.13-.55-.31-1.05-.5-1.61-2.44-1.15-4.05-2.29-5.8-3.49"/>
        <path class="cls-1" d="M464.79,399.97c.83-.27,1.65-.55,3-1-2.33-.6,2.37-2.55,1.97-3.71-.37.01-1.13.03-1.89.06l-.63.33.67.64"/>
        <path class="cls-1" d="M81.37,446.9c.38-.15.77-.28,1.16-.42l.09.2c-1.08.63-2.13,1.32-3.18,1.97-1.56.45-2.99.86-4.22,1.21-1.3.82-2.47,1.55-3.52,2.2-.28.37-.56.73-.83,1.09"/>
        <path class="cls-1" d="M582.84,425.87l-1.82-.23-.52.19,2.75,1.22.07-.32c1.8-.18,3.6-.35,5.52-.54.46.42.69.63.91.82"/>
        <path class="cls-1" d="M69.31,446.26c-1.91.5-3.68,1.43-5.34,2.75-.03.03-.27.07-.37.07-.06,0-.05-.06-.07-.1"/>
        <path class="cls-1" d="M483.37,391.07c-.19.36-.37.72-.64,1.24-.62.3-1.72.84-3.1,1.51-.77.16-2,.42-3.13.66-.74-.39,2.65-2.46-2.35-1-.08.93-3.2,2.49-1.44,3.05"/>
        <path class="cls-1" d="M650.67,409.26c-1.24.2-2.47.41-4.02.66-.34.53-.6.94-.86,1.34"/>
        <path class="cls-1" d="M260.83,405.25c.52.23,1.04.45,1.75.76.55,1.24.99,2.21,1.13,2.58-.68.45-1.18.78-1.68,1.11-.06-.24-.17-.53-.28-.84"/>
        <path class="cls-1" d="M606.71,417.5c-.14.2-.28.4-.58.82-.59-.23-.89-.38-1.31-.56-.78.48-1.51.93-2.24,1.38"/>
        <path class="cls-1" d="M632.06,412.1c-.34-.47-.68-.95-1.11-1.54-1.48,1.08-2.6,2-3.92,2.82-.46.29-1.33.53-2.02.8"/>
        <path class="cls-1" d="M108.8,433.9c-.93.62-1.86,1.23-2.92,1.93-.99-.38-1.64-.63-2.38-.91-.63.43-1.2.86-1.79,1.28"/>
        <path class="cls-1" d="M740,344.89c-.35.16-.77.23-1.05.48-1.09.97-2.13,1.99-3.19,2.99"/>
        <path class="cls-1" d="M548.58,402.88c-1.37-.45-2.67-.94-4.08-1.3.39.36.65.67.92.97"/>
        <path class="cls-1" d="M205.69,399.22c.02.12.05.24.08.38-1.71.31-3.42-.37-4.63.58-.02.98-.04,1.68-.05,2.38l-.65.12.85.93"/>
        <path class="cls-1" d="M711.25,373.02c-.63.13-1.26.25-2.51.5.07.69.1,1.01.13,1.33"/>
        <path class="cls-1" d="M105.11,429.09c-.83.2-1.66.41-2.91.72-.65.87-1.23,1.69-1.81,2.51"/>
        <path class="cls-1" d="M658.14,404.88c.35-.44.7-.88,1.11-1.39,1.05-.1,1.81-.17,2.58-.25v-.3s4.56-2.49,4.56-2.49"/>
        <path class="cls-1" d="M174.26,407.36c2.29-.88,4.57-1.68,4.43-2.79-.05-.34,1.55-1.1,2.42-1.68-1.88-.08-2.21.73-3.08,1.23"/>
        <path class="cls-1" d="M535.57,395.11l-.36-.77.97.45-1.01.45-.61-.28c.37.98.72,1.91,1.03,2.89"/>
        <path class="cls-1" d="M393.23,425.98c-.07.31-.13.62-.21.99-.84.06-1.34.09-2.4.16.86-.46,1.54-.82,2.22-1.18"/>
        <path class="cls-1" d="M577.05,422.35c-.43-.3-.85-.59-1.22-.85-1.38-.05-2.62-.13-3.91-.27-2.21-.9-3.88-2.13-6.62-2.89-.6-.65-1.14-1.33-1.63-2.01"/>
        <path class="cls-1" d="M229.99,397.65l.31-.42,1.16.33c1.82.1,4.57-.83,6.29-.1.57.25,1.24.45,1.84.7"/>
        <path class="cls-1" d="M208.43,397.7c.47-.45.95-.9,1.7-1.62-1.03.3-1.47.43-1.91.56-.04.01-.03.09.03.11.09.03.25.04.38.05"/>
        <path class="cls-1" d="M246.79,398.9c1.61,1.07,3.42,1.07,5.27,1.41"/>
        <path class="cls-1" d="M279.78,424.85c.43.77.91,1.44,1.44,2.15.56.66,1.28,1.22,2.19,1.61"/>
        <path class="cls-1" d="M508.49,395c-1.32-.15-2.64-.22-4.2-.33-.03.15-.06.31-.1.48"/>
        <path class="cls-1" d="M448.43,403.97c.86-.18,1.7-.31,2.57-.55,2.51-.67,5.2-.92,7.37-2.63"/>
        <path class="cls-1" d="M108.6,430.6c-.03-.71-.55-1.12-2.37-.82-.77.13-1.42.12-2.61.22-.42.79-.82,1.54-1.22,2.29l.72-.15,1.78-1.65"/>
        <path class="cls-1" d="M735.1,350.97c2.43-1.61,1.97-.09,2.8,0,.75.06.98.76-.29,2.31-.18.22.22.31.35.47"/>
        <path class="cls-1" d="M123.61,426c-.39.37-1.2,1.06-1.1,1.06,1.33-.02,2.78-.16,4.21-.22"/>
        <path class="cls-1" d="M687.49,389.28c.14.24.28.48.43.74,1.23-.79,2.15-1.39,3.06-1.98l.28.27-1.93,1.15"/>
        <path class="cls-1" d="M588.53,422.82c.86.47,1.72.84,2.93,1.4,1.39-.6,2.62-1.12,3.82-1.67.92-.18,1.88-.37,2.85-.56"/>
        <path class="cls-1" d="M236.81,399.01c-1.47-.37-2.99-.69-4.52-.99"/>
        <path class="cls-1" d="M678.94,389.38c-1.44,1.13-2.87,2.25-4.5,3.53-.39.25-1.1.71-1.81,1.16-.12.08-.27.24-.25.27s.23-.04.36-.06"/>
        <path class="cls-1" d="M247.64,397.7l-.79.51.68.2c.6-.48,1.15-.68,2.13-.55.95.17,2.41.59,4.41,1.91"/>
        <path class="cls-1" d="M618.13,421.1c-1.35-.24-2.7-.48-4.08-.73-.03,0-.44.18-.81.34.15.39.31.81.5,1.29.84-.32,1.64-.62,2.44-.92"/>
        <path class="cls-1" d="M711.52,373.42c1.33-.33,2.65-.66,4.29-1.07-.61.65-1.11,1.18-1.6,1.71"/>
        <path class="cls-1" d="M114.29,429.73c-1.84-.24-3.06,1.03-4.44,1.9"/>
        <path class="cls-1" d="M421.77,416.98c.81.04,1.61.08,2.45.13-.47.32-.91.62-1.36.92"/>
        <path class="cls-1" d="M320.2,438.1c-.88.08-1.76.16-3.32.3,3.6.87,4.06.82,4.84-.1"/>
        <path class="cls-1" d="M445.9,404.62c-1.55.43-3.1.89-4.6,1.28-.28.27-.6.58-.92.9"/>
        <line class="cls-1" x1="102.21" y1="437.3" x2="94.44" y2="441.64"/>
        <line class="cls-1" x1="126.16" y1="425.39" x2="130.97" y2="424.49"/>
        <path class="cls-1" d="M742.22,344.6c-1.08.46-2.2.87-3.32,1.27"/>
        <path class="cls-1" d="M713.45,366.31c-.87.48-1.75.96-3.12,1.71-.66.98-1.5,2.2-2.36,3.4"/>
        <path class="cls-1" d="M387.5,426.1c-.23.29-.46.59-.72.92-.92.27-2,.59-3.08.91"/>
        <path class="cls-1" d="M443.12,409.03c.86-.18,1.72-.35,2.78-.57-.69.66-1.37,1.29-2.19,2.07.72-.12,1.26-.22,3.08-.53-1,.48-1.59.77-2.17,1.05"/>
        <path class="cls-1" d="M738.59,355.09c-1.21.91-2.47,1.76-3.62,2.73-1.18.96-2.35,1.93-3.6,2.95-1.24,1.04-2.56,2.13-4.06,3.28-.23.1-1.13.5-2.06.91-.61,1.37-2.02,2.5-3.59,3.56-1.57,1.06-3.25,2.11-4.48,3.24"/>
        <path class="cls-1" d="M549.41,403.12l.63-.73c-.35-.39-.73-.74-1.11-1.1-1.66-.32-3.25-.63-4.89-.75"/>
        <path class="cls-1" d="M404.17,417.62c.43.67.9,1.33,1.29,2.01.16.28.18.61.26.92"/>
        <line class="cls-1" x1="132.24" y1="418.25" x2="127.28" y2="419.97"/>
        <path class="cls-1" d="M538.93,397.89c-.43-.26-.85-.53-1.47-.91-.13.26-.23.48-.38.79.64.13.99.2,1.34.27"/>
        <path class="cls-1" d="M283.8,431.05c-.08.3-.79.28-1.05.47-.26.2-.08.69,1.87,1.78"/>
        <path class="cls-1" d="M721.34,360.87c.91.71,2.17-1.83,3.42-1.93-.23.7-.51,1.54-.79,2.37"/>
        <path class="cls-1" d="M186.48,403.94c1.43.09,2.75.36,4.82-.67"/>
        <path class="cls-1" d="M509.99,393.37c-.33.12-.67.24-1.06.38.26.06.63.15,1.21.28.47-.38.91-.74,1.34-1.1"/>
        <path class="cls-1" d="M531.71,399.61c-.23-1.18-1.77-1.29-3.23-1.42"/>
        <path class="cls-1" d="M143.92,418.82c-.91.32-1.83.63-3.43,1.19,1.14.02,1.76.03,2.39.03l-.31.34c-1.57.26-3.14.52-5.29.88-.18.13-.72.54-1.2.94-.28.24-.47.47-.7.69-.85.14-1.47.24-2.09.35"/>
        <path class="cls-1" d="M313.04,433.44c2.24.11,2.73.08,3.7-.21"/>
        <path class="cls-1" d="M605.78,420.59c-.07-.15-.13-.31-.22-.51-1.74.75-1.96,1.42-.7,1.74"/>
        <path class="cls-1" d="M635.73,415.46c-.68.33-1.38.61-2.32,1.01-.16.32-.35.7-.53,1.07"/>
        <path class="cls-1" d="M396.3,421.27c-1.69.17-3.34.39-4.66,1.26"/>
        <path class="cls-1" d="M636.25,409.7c-.1.64-.2,1.27-.27,1.77,1.04-.15,1.77-.26,1.88-.27,2.17-1.07,3.95-2.1,5.74-3.04.1-.09.29-.25.28-.25-.5,0-1.02,0-1.6,0,.38-.27.8-.57,1.22-.88"/>
        <path class="cls-1" d="M251.9,393.96c-1.66.02-1.59.03-.23,1.4-1.35-.03-2.74.08-4.09.27"/>
        <line class="cls-1" x1="393.2" y1="419.57" x2="390.24" y2="421.51"/>
        <path class="cls-1" d="M745.71,342.89c-.41.46-.84.91-1.24,1.37-.48.58-.96,1.15-1.43,1.72"/>
        <path class="cls-1" d="M704.66,372.44c-.59.26-1.18.52-1.84.8.55-.61,1.01-1.13,1.54-1.71-2.68,1.24-2.69,1.99-2.89,2.8,0,.02-.21.15-.3.18-.14.05-.25.07-.38.1"/>
        <path class="cls-1" d="M368.63,430.82c.27.16.54.31,1.21.7.95-.95,1.63-1.63,2.31-2.31l-.57-.05c2.39-.88,4.78-1.75,7.41-2.72-.74,0-1.42.01-2.11.02"/>
        <path class="cls-1" d="M267.78,404.71c2.86,3.3-.48,1.02.7,2.84.74.93,1.04,1.41,1.25,2.03.21.63.27,1.41.36,2.97.76-.42,1.29-.71,1.81-1l-.34-.72-.8-.6"/>
        <path class="cls-1" d="M574.44,425.06c1,.34,1.97.66,3.02.94,1.1.26,2.27.47,3.42.7"/>
        <path class="cls-1" d="M740.12,353.96c.58-.3,1.24-.5,1.72-.92,1.85-1.65,3.47-3.35,4.56-5.14"/>
        <path class="cls-1" d="M263.68,400.7c-.41-.83-.76-1.73-1.3-2.53l-.68-.4c.14.37.27.73.5,1.35-.85.09-2.3-1.12-4.3-2.43"/>
        <path class="cls-1" d="M441.67,408.26c-.09.86,1.65,1.26-1.02,2.76"/>
        <line class="cls-1" x1="77.48" y1="449.86" x2="73.66" y2="452.11"/>
        <line class="cls-1" x1="102.78" y1="434.01" x2="99.2" y2="436.03"/>
        <path class="cls-1" d="M302.11,432.84c-1.47-.21-2.63-.29-3.6.23-.3.18-1.55.05-2.37.06"/>
        <path class="cls-1" d="M237.65,396.51c2.32,0,4.64.11,7.24.5.02-.28.03-.48.04-.68"/>
        <path class="cls-1" d="M550.95,413.27c.03.99,1.12,2.02,2.4,3.04"/>
        <path class="cls-1" d="M543.23,397.44c-1.55-.79-3.06-1.62-4.66-2.26"/>
        <path class="cls-1" d="M122.29,422.65c-.46.2-.93.4-1.53.66.61.19,1.1.34,1.58.48"/>
        <line class="cls-1" x1="592.56" y1="421.7" x2="590.02" y2="423.03"/>
        <path class="cls-1" d="M393.2,425.86c2.68-.62,5.33-1.33,7.99-2v.19c2.37-.76,4.73-1.6,7.04-2.4.07-.19.18-.46.29-.74"/>
        <path class="cls-1" d="M576.88,420.41c-2.1-.4-4.17-.88-6.41-1.62-.04-.19-.11-.58-.18-.98,2.2.34,4.28.63,5.22,1.72.52-.03,1-.05,1.47-.08"/>
        <path class="cls-1" d="M206.27,398.36c1.49.4.97,1.16-1.18,1.72-1.31.33-2.67.59-4,.87"/>
        <path class="cls-1" d="M607.32,422.88c.74-.46,1.48-.91,2.28-1.4-.75-.13-1.35-.24-2.07-.36-.8.4-1.73.79-2.81,1.23.78.44,1.56.9,2.35,1.32"/>
        <path class="cls-1" d="M334.48,434.79l2.14,2.21-.72.16c.5.02,1,.04,1.66.07.48-.3.95-.6,1.59-1.01.54.25.89.41,1.24.57"/>
        <path class="cls-1" d="M664.94,400.15c.84-.28,1.67-.55,2.7-.89.51-.47,1.05-.97,1.72-1.58.81.1,1.64.19,2.47.29"/>
        <path class="cls-1" d="M233.51,393.24c-1.93.52-3.79,1.11-5.88,1.76-.4,1.34-.85,1.56-3.92,2.1-1.64-.11-2.64-.17-3.65-.24"/>
        <path class="cls-1" d="M615.43,416.57c-1.41.04-2.82.08-4.21.12-.1.1-.3.3-.5.5"/>
        <line class="cls-1" x1="439.94" y1="411.26" x2="437.03" y2="413.14"/>
        <path class="cls-1" d="M330.77,435.12c2.47-.32,4.95-.58,7.85-.99-.3-.65-.55-1.18-.94-2.03-1.72.75-2.89,1.21-4.06,1.7"/>
        <line class="cls-1" x1="655.16" y1="399.93" x2="658.82" y2="398.97"/>
        <path class="cls-1" d="M169.04,409.43c1.91-.55,3.85-1.02,5.9-1.54-.5-.16-1.18-.38-1.85-.6"/>
        <path class="cls-1" d="M70.86,445.99l.75-1.11-.51.12c-1.25.99-2.52,1.94-3.75,2.97h-.52s-2.28,2.07-2.28,2.07"/>
        <path class="cls-1" d="M510.3,394.58c1.32.14,2.6.57,3.95.26"/>
        <path class="cls-1" d="M346.27,430.38c-.37.28-.73.55-1.23.93-.6-.19-.96-.31-1.33-.43"/>
        <path class="cls-1" d="M247.66,393.57c-.42.46-.83.95-1.27,1.48.46.3.93.61,1.39.97.47.35.96.72,1.45,1.16-.97-.14-1.6-.13-2.21-.19"/>
        <path class="cls-1" d="M582.58,423.09c-.74,0-1.49,0-2.2,0-.22-.23-.44-.45-.67-.68-1.44.02-2.82-.04-4.15-.09-2.87-.09-5.73-.33-8.59-.96"/>
        <path class="cls-1" d="M224.14,394.12q.1-.5-2.67-.04"/>
        <path class="cls-1" d="M140.71,416.38c-.37-.35-.75-.7-1.17-1.1-2.15.99-2.36,2.02-4.72,2.39"/>
        <path class="cls-1" d="M161.2,409.23c1.29.09,4.12-.44,1.89,1.1-.7-.07-1.35-.13-2-.19"/>
        <path class="cls-1" d="M516.31,392.77c.46.26.92.52,1.49.84.71-.06,1.42-.05,2.14-.08"/>
        <path class="cls-1" d="M550.35,408.77l.89.7-.14-.5c-.48-.36-.96-.72-1.44-1.07"/>
        <path class="cls-1" d="M141.48,421.96c.1.17.21.35.35.6-.8.14-1.39.24-1.98.34"/>
        <path class="cls-1" d="M620.93,418.56c.54.14,1.07.28,1.55.41,1.7-.76,3.28-1.62,4.87-2.4"/>
        <path class="cls-1" d="M209.43,402.76c-.98.43-1.97.85-2.94,1.32"/>
        <line class="cls-1" x1="346.01" y1="431.15" x2="346.57" y2="432.4"/>
        <path class="cls-1" d="M451.8,407.86c2.26-1.06,4.53-2.11,7.03-3.28,1.66.06,3.45.12,5.25.19"/>
        <path class="cls-1" d="M490.1,391.76c-.23.16-.36.39-.69.49-2.09.63-4.2,1.28-6.7,2.15.98.37,1.64.66,2.3.93l.5-.18c-.11.52-.23,1.04-.36,1.64.6-.02,1.37-.04,2.15-.07"/>
        <path class="cls-1" d="M351.87,432.55c-.04-.24-.08-.48-.11-.69,1.94-.42,3.52-.82,4.98-1.17,1.94-.14,3.83-.28,5.71-.42"/>
        <path class="cls-1" d="M286.38,429.89c-.6-.45-1.23-.83-1.77-1.33l-.27.4"/>
        <line class="cls-1" x1="196.46" y1="399" x2="194.92" y2="400.68"/>
        <path class="cls-1" d="M105.21,435.84c-1.6.85-1.01,2.01-4.05,2.73"/>
        <path class="cls-1" d="M713.43,370.24c0,.48.02.95.02,1.56-.59.44-1.29.98-2,1.52"/>
        <polyline class="cls-1" points="369.99 428 365.6 428.83 365.5 429.08 368.27 428.93"/>
        <path class="cls-1" d="M370.88,424.88c-.92.62-1.85,1.23-2.83,1.86.19.2.44.48.7.76"/>
        <line class="cls-1" x1="189.15" y1="400.7" x2="185.26" y2="402.14"/>
        <path class="cls-1" d="M237.05,394.03c-1.26.13-2.51.27-3.93.47.73.57,1.2.95,1.81,1.46-1.05.12-1.78.24-2.52.34"/>
        <line class="cls-1" x1="730.3" y1="358.59" x2="731.12" y2="360.85"/>
        <path class="cls-1" d="M638.69,407.93c-.47,1.18,1.54.95,2.87,1.11"/>
        <path class="cls-1" d="M593.05,423.84c1.89.15,3.77.13,5.67.14"/>
        <path class="cls-1" d="M602.76,422.99c-.98.23-1.96.47-2.95.63"/>
        <path class="cls-1" d="M391.44,423.32c-.21.25-.43.5-.83.98.8.18,2.38.52,3.96.87"/>
        <path class="cls-1" d="M364.48,430.99c-1.34.28-2.69.56-4.04.81l.14-.13-3.15.21"/>
        <path class="cls-1" d="M171.77,409.51c-2.92.56-3.34,1.59-4.22,2.38-.44.4.24.74.61,1.04.24.2.81.27,1.23.39"/>
        <line class="cls-1" x1="695.01" y1="377.23" x2="694.31" y2="379.63"/>
        <path class="cls-1" d="M270.88,416.16c.14.58.8,1.67,1.15,2.46.36.78.43,1.27-.64.67"/>
        <path class="cls-1" d="M91.67,437.5c-3.31,1.79-6.6,3.46-9.95,4.29"/>
        <path class="cls-1" d="M70.92,446.91c-.81.88-.81,1.24,1.05.4"/>
        <line class="cls-1" x1="669.12" y1="396.18" x2="672.8" y2="395.9"/>
        <path class="cls-1" d="M66.91,449.72l-1.08,1.66-.48.15s.02.11.06.1c.34-.14.69-.28,1.03-.42"/>
        <path class="cls-1" d="M134.98,420.3c.08.23.17.46.33.9.45-.08,1.52-.28,2.61-.43"/>
        <path class="cls-1" d="M76.67,444.2c-.26.46-.51.91-.82,1.46.33,0,.83,0,1.49-.01-1.6,1.23-3.05,2.34-4.55,3.5-2.82.76-3.09.89-3.81,2.04"/>
        <path class="cls-1" d="M640.56,411.44c2.76-1.79,3.54-2.1,4.5-1.82"/>
        <path class="cls-1" d="M447,405.5l-.51-.33c-.37.18-.74.36-1.27.62,1.57,0,2.81,0,4.05-.01l1.09-.85-2.22.41"/>
        <path class="cls-1" d="M274.15,416.87l-1.94-1.02.14.76-2.33-4.24c-.07.04-.24.14-.42.23-.59-1.09-1.23-2.18-1.86-3.26"/>
        <path class="cls-1" d="M440.92,406.11c-.49.08-.97.15-1.75.27-.08.34-.14.62-.2.9"/>
        <path class="cls-1" d="M322.99,435.99c.16-.19.32-.37.65-.74-.81.16-1.49.29-2.18.42"/>
        <line class="cls-1" x1="226" y1="393.93" x2="229.84" y2="394.27"/>
        <path class="cls-1" d="M242.05,397.47l-1.42.16c.39.13.78.28,1.17.42.79-.22,1.57-.38,2.37-.55"/>
        <path class="cls-1" d="M259.18,396.25c-.46,1.18-.95,2.35-1.46,3.45.57.16,1.08.42,1.62.67.53.26,1.1.5,1.62.8"/>
        <polyline class="cls-1" points="332.51 437.09 333.04 437.72 332.37 437.89 330.28 437.36"/>
        <path class="cls-1" d="M273.22,423.01c.47-.08.93-.17,1.41-.25-.91-1.08-1.7-2.05-2.45-3.06"/>
        <path class="cls-1" d="M743.09,348.24c-.83.78-1.66,1.55-2.65,2.48.65-.1,1-.16,1.82-.29-1.26.72-1.87,1.07-2.49,1.43"/>
        <path class="cls-1" d="M540.57,403.14c-.12.12-.24.23-.4.39.63.76,1.45,1.62,2.31,2.75.17-.14.3-.25.42-.36"/>
        <path class="cls-1" d="M560.5,421.3c-.25.08-.5.17-.76.25.69.46,1.31.82,1.93,1.17"/>
        <path class="cls-1" d="M597.37,425.8c.06.16.11.31.23.63,1.78-.36,3.28-.57,4.74-.95"/>
        <path class="cls-1" d="M613.35,422.26c-.66.51-1.99,1.08-3.53,1.66-1.53.58-3.28,1.14-4.79,1.4-.26.05-.48.16-1.02.34-.59-.26-1.17-.52-1.74-.77"/>
        <path class="cls-1" d="M569.02,418.34c-.85-.85-1.97-1.28-3.16-1.72-1.18-.43-2.43-.88-3.37-1.63.43.46-.05.51-.35.62-.28.1-.41.34.94,1.08"/>
        <path class="cls-1" d="M694.88,385.61c2.73-1.41,5.49-2.79,8.21-4.25l.29-.6c-1.89.54-3.78,1.07-5.68,1.57"/>
        <path class="cls-1" d="M58.76,456.53c.72.77,1.46.5,4.58-1.7"/>
        <path class="cls-1" d="M729.35,361.02c-.55.28-1.11.54-1.92.91-.15.38-.28.69-.4,1"/>
        <path class="cls-1" d="M300.15,439.89c-2.1.05-4.22.04-6.39-.18"/>
        <path class="cls-1" d="M159.25,410.55c-2.32,1.14-1.9,1.74-1.25,2.28"/>
        <path class="cls-1" d="M654.89,403.45l-2.97,1.72.14.08c-1.73.69-3.48,1.33-5.23,1.96"/>
        <path class="cls-1" d="M163.28,408.36c-.11-.53-.53-.78-2.29.17"/>
        <line class="cls-1" x1="407.42" y1="416.87" x2="410.04" y2="419.39"/>
        <path class="cls-1" d="M233.43,392.64c.92.16,1.93.29,2.74.52.74.21,1.26.5,1.45.86,1.31.24,2.61.51,3.87.83.35-.07,1-.19,1.66-.28"/>
        <path class="cls-1" d="M712.19,371.07c-2.26.64-4.79,2.29-6.47,4.4"/>
        <path class="cls-1" d="M91.3,435.82c.54.07,1.08.14,1.63.22-.2.18-.49.45-.78.71"/>
        <path class="cls-1" d="M55.99,458.42c.43-.99.87-1.98,1.28-2.92.8-.44,1.57-.84,2.51-1.31-.18.34-.35.65-.55,1.02.74-.24,1.48-.48,2.23-.71"/>
        <path class="cls-1" d="M276.75,423.72c.15.74.34,1.46.59,2.23.23.79.49,1.64.89,2.56-.31-.26-.6-.49-.88-.72-.26-.25-.5-.48-.73-.71-.46-.46-.93-.88-1.36-1.35-.35.24-.15.76.31,1.37.45.61,1.08,1.36,1.71,1.96"/>
        <path class="cls-1" d="M338.09,433.6c-1.23.18-2.46.32-2.98.39-3.3-.25-6.05-.39-9.32-.69.41-.26,1.03-.65,1.66-1.04"/>
        <path class="cls-1" d="M647.77,408.36c-3.56,1.48-5.26,2.81-4.96,4.59-.9.38-1.81.8-2.75,1.17"/>
        <polyline class="cls-1" points="672.8 391.35 674.17 391.74 675.29 391.31 673.83 392.43"/>
        <line class="cls-1" x1="323.71" y1="432.17" x2="322.41" y2="434"/>
        <path class="cls-1" d="M345.87,432.75c.04.24.07.48.1.67,1.12-.05,1.87-.09,2.62-.13"/>
        <path class="cls-1" d="M676.18,389.03c.81-.63,1.62-1.27,2.62-2.05,3.37-1.66,7.44-3.95,9.39-3.11"/>
        <line class="cls-1" x1="85.39" y1="439.07" x2="84.57" y2="440.8"/>
        <path class="cls-1" d="M703.43,373.95c-1.21,1.09-2.38,2.19-3.66,3.27-.36.31-1.06.59-1.61.89"/>
        <path class="cls-1" d="M489.52,390.66c-.63,1.25,3.43.7,4.44,1.34"/>
        <path class="cls-1" d="M686.42,386.72c-1.98,1.28-3.96,2.57-6.39,4.14,1.02-1.37,1.9-2.54,2.77-3.71"/>
        <path class="cls-1" d="M471.89,396.41c-1.73,1.19-3.42,2.42-5.1,3.64"/>
        <path class="cls-1" d="M433.98,408.72c.76-.14,1.51-.3,2.77-.55-.98.86-1.78,1.58-2.59,2.26"/>
        <path class="cls-1" d="M266.66,403.54c-.36-.89-.83-1.51-1.26-1.94-.43-.43-.88-.64-1.35-.68"/>
        <line class="cls-1" x1="455.35" y1="404.54" x2="450.78" y2="407.21"/>
        <path class="cls-1" d="M173.49,410.17l7.16-2.66-.22-.14c1.56-.39,3.12-.79,4.7-1.13"/>
        <path class="cls-1" d="M155.35,415.56c.22.11.44.21.87.41-1.36.55-2.87,1.17-4.15,1.7-.22.42-.45.86-.68,1.3"/>
        <path class="cls-1" d="M413.3,418.59c-3.56,1.11-7.15,2.14-10.73,3.18"/>
        <path class="cls-1" d="M681.02,391.51c-1.52,2.08-1.33,2.15,2.19.82"/>
        <path class="cls-1" d="M405.89,416.91c-1.99.67-3.99,1.34-6,1.96"/>
        <path class="cls-1" d="M555.71,412.38c1.01.81,2.03,1.59,3.08,2.28l-.07-.56c-1.02-.68-2.02-1.45-3.01-2.24"/>
        <path class="cls-1" d="M298.93,433.23c1.67.35.89.81,1.05,1.25.13.33.66.66,1.02.99"/>
        <path class="cls-1" d="M447.05,410.07c-1.17,1.44-3.72,2.09-6.17,2.77"/>
        <polyline class="cls-1" points="51.16 459 50.65 458.87 52.21 457.83"/>
        <path class="cls-1" d="M508.99,389.25c-.96-.05-1.92-.03-2.88-.02-.96,0-1.92,0-2.88.09-.78.05-1.53.23-2.29.35"/>
        <path class="cls-1" d="M458.66,402.73c.44-.28.88-.55,1.7-1.07-.88.23-1.39.37-1.9.5"/>
        <path class="cls-1" d="M441.43,411c.73.19,1.07.46-.79,1.16"/>
        <path class="cls-1" d="M91.73,434.97c-1.61,1.27-2.28,2.62-5.17,3.93"/>
        <path class="cls-1" d="M568.69,419.5c-.3-.35-.59-.7-.98-1.22.58.13,1.37.29,2.17.4.23.13.45.28.69.4-.51.22-1.03.43-1.57.64"/>
        <path class="cls-1" d="M51.61,461.23c1.73-.73,3.47-1.47,5.16-2.15.27-.11.39.13.57.2"/>
        <path class="cls-1" d="M642.38,409.08c.81.66,2.25-.38,3.93-1.27.02-.57.04-1.07.06-1.58"/>
        <path class="cls-1" d="M518.31,394.47c1.03-.05,2.07-.09,3.37-.15.93.32,1.95.67,3.01,1.03,1.05.37,2.1.84,3.17,1.26"/>
        <path class="cls-1" d="M323.51,437.38c2.69-.66,2.93-.62,3.89.76.86-.16,1.7-.32,2.54-.5"/>
        <path class="cls-1" d="M620.78,414.11c-.05.22-.1.45-.2.85-.68-.14-1.13-.24-1.68-.36-.61.28-1.27.62-2.53,1.18,1.38-.02,2.36-.09,3.35-.13"/>
        <path class="cls-1" d="M508.15,394.02c.34.25.69.51,1.18.87-.45.27-1,.6-1.56.93"/>
        <path class="cls-1" d="M641.02,409.67c-1.05.68-2.1,1.35-3.19,1.98-.52.31-1.09.61-1.63.91"/>
        <path class="cls-1" d="M660.2,400c.4-.28.8-.55,1.14-.78.12.41.23.81.34,1.2"/>
        <line class="cls-1" x1="394.12" y1="420.21" x2="392.13" y2="421.43"/>
        <path class="cls-1" d="M375.13,430.87c-.07-.15-.15-.3-.26-.53-.86.32-1.43.54-1.99.75"/>
        <path class="cls-1" d="M56.25,454.38c-.05.17-.23.5-.12.47.55-.15,1.17-.39,1.77-.6"/>
        <path class="cls-1" d="M708.91,376.26c.77-.27,2.51-1.62,1.97-.42"/>
        <path class="cls-1" d="M440.76,412.5c-1.85,1.41-4.68,1.82-6.99,2.72"/>
        <path class="cls-1" d="M394.17,418.84c.37-.08.75-.15,1.52-.31-1.78.88-3.02,1.13-4.06.79"/>
        <path class="cls-1" d="M492.75,396.32c1.7-.06,3.4,0,5.09.01"/>
        <line class="cls-1" x1="548.58" y1="406.9" x2="547.58" y2="407.45"/>
        <path class="cls-1" d="M307.46,432.55l1.07.34-.91.29c-.29-.2-.58-.39-1.09-.73-1.97.44-3.9.81-5.85,1.1"/>
        <path class="cls-1" d="M291.52,431.92c.32.56.64,1.17,1.1,1.86-1.15-.25-2.17-.5-3.17-.83l-.2.17c.67.35,1.36.7,2.08.99"/>
        <path class="cls-1" d="M279.73,424.03c-.67-.3-1.35-.63-2-1.02"/>
        <path class="cls-1" d="M187.31,402.63c-.53.43-1.07.86-1.78,1.44-.88.26-2.5-.04-3.79.92"/>
        <path class="cls-1" d="M288.14,430.69c.35.16.69.31,1.11.5.44.16.95.36,1.62.61-.75.26-1.43.52-2.32.76-1.17-.84-2.04-1.58-2.84-2.37l.49-.17-1.42-.65-1.37-.76"/>
        <path class="cls-1" d="M660.24,399.3c-2.08,1.43-4.39,2.84-5.86,4.58,1.15-.45,1.73-.72,2.32-.96"/>
        <path class="cls-1" d="M566.39,419.64c-.2.31-.39.63-.71,1.13-1.74-1.88-1.63-1.88.37-1.26"/>
        <polyline class="cls-1" points="540.17 397.21 542.02 397.77 542.28 398.13 540.26 398.64"/>
        <path class="cls-1" d="M695.58,377.45c1-.43,1.99-.86,3.58-1.58-.87,1.03-1.37,1.63-1.87,2.23"/>
        <line class="cls-1" x1="89.58" y1="435.69" x2="84.86" y2="437.99"/>
        <line class="cls-1" x1="718.83" y1="368.86" x2="719.75" y2="369.53"/>
        <line class="cls-1" x1="720.52" y1="367.37" x2="721.97" y2="368.11"/>
        <path class="cls-1" d="M375.29,427.9c-.22.77,3.3.46,1.85,1.58"/>
        <line class="cls-1" x1="310.51" y1="439.08" x2="312.81" y2="439.61"/>
        <line class="cls-1" x1="149.04" y1="420.1" x2="143.42" y2="421.92"/>
        <path class="cls-1" d="M696.27,377.87l-1.56,1.85-.87.32c-.03.44-.06.88-.11,1.65,1.05-.9,1.59-1.36,2.64-2.26-1.06.53-1.53.77-2,1.01"/>
        <line class="cls-1" x1="657.68" y1="399.97" x2="655.39" y2="401.98"/>
        <path class="cls-1" d="M223.41,401.05c-.7-.27-1.4-.53-2.25-.85-1.11.48-3.61.84-1.44,1.22"/>
        <line class="cls-1" x1="82.48" y1="439.95" x2="81.23" y2="441.63"/>
        <path class="cls-1" d="M482.34,396.5c.65.09,1.3.16,2.1.29.74-.3,1.51-.62,2.29-.93"/>
        <path class="cls-1" d="M242.75,398.66c-1.83.12-3.68.35-5.55.66"/>
        <path class="cls-1" d="M122.65,425.61c2.22-.03,3.67.42,4.85,1.07.66.36.88.26-.7,1.42"/>
        <path class="cls-1" d="M419.75,412.83c.07-.19.14-.38.27-.71-.83.25-1.59.49-2.21.67l-.69,1.57"/>
        <path class="cls-1" d="M277.45,432.4c.92.48,1.93.91,2.66,1.41,2.37,1.82,4.9,3.35,7.68,4.39,1.65.65,3.46.95,5.19,1.27"/>
        <path class="cls-1" d="M682.06,388.84c2.47-.8-.24,1.56,1.22,1.37"/>
        <path class="cls-1" d="M644.31,407.06c-.19.18-.38.35-.88.79,1.96-.71,3.61-1.38,5.6-2.13.08.53.15.98.22,1.43"/>
        <line class="cls-1" x1="137.7" y1="422.37" x2="140.39" y2="422.21"/>
        <line class="cls-1" x1="354.14" y1="430.24" x2="347.69" y2="432.35"/>
        <path class="cls-1" d="M178.49,410.2c1.02-.48,1.98-.99,3.09-1.43,1.11-.45,2.37-.82,3.98-1.31.29.06.89.19,1.46.31.02,0-.19.13-.32.19-.08.04-.23.06-.35.09"/>
        <path class="cls-1" d="M256.96,400.25c-.65-.08-1.26-.2-1.89-.22"/>
        <path class="cls-1" d="M310.26,435.84c-.72.74-1.45,1.46-2.31,2.29-1.15.33-2.46.5-3.57-.05"/>
        <path class="cls-1" d="M86.65,437.38c1.13-.02.38.57-.65,1.25"/>
        <polyline class="cls-1" points="723.75 364.16 725.98 362.86 726.18 362.4 725.18 362.95"/>
        <path class="cls-1" d="M379.17,422.92c3.82-1.12,4.02.1,5.76.32l-1.21,1.37"/>
        <path class="cls-1" d="M60.91,456.57c.06.64,1.07.15,2.24-.55"/>
        <path class="cls-1" d="M533.47,396.19c-.87-.11-1.75-.18-2.97-.22-.54-.31-1.45-.92-2.42-1.4"/>
        <path class="cls-1" d="M574.04,422.46c.53.64,1.08,1.29,1.8,2.08-1.12-.24-1.96-.44-2.79-.65"/>
        <path class="cls-1" d="M589.71,425.45c-.75.31-1.51.56-2.28.85"/>
        <path class="cls-1" d="M386.75,421.22c-1.63-.18-2.31.48-3.2.97"/>
        <path class="cls-1" d="M455.26,403.17c2.56-.24,2.83.39,1.04,1.8"/>
        <line class="cls-1" x1="716.71" y1="369.75" x2="717.02" y2="370.85"/>
        <path class="cls-1" d="M95.18,439.72l5.97-3.07c-2.12.59-4.23.95-6.52,2.76.15.32.34.73.44.94-1.12.91-1.82,1.46-2.51,2.05l1.37-.13.99-1.38"/>
        <line class="cls-1" x1="423.46" y1="414.84" x2="425.38" y2="416"/>
        <path class="cls-1" d="M456.44,399.82c2.33-.13,2.33.83,2.91,1.51"/>
        <path class="cls-1" d="M157.43,412.25c-1.3.41-2.6.83-4.06,1.3-.18-.07-.55-.21-1.14-.43-.43.39-.67.61-.91.83"/>
        <path class="cls-1" d="M493.7,390.21c.33.11.66.21,1.18.38-.99.1-1.61.18-2.23.27"/>
        <line class="cls-1" x1="150.19" y1="411.67" x2="149.45" y2="413.04"/>
        <path class="cls-1" d="M457.12,401.74c-.28.31-.4.67-.89.93-1.18.63-2.53,1.22-3.7,1.77.65.35,1.07.59,1.5.82"/>
        <path class="cls-1" d="M150.29,414.41c2.39.06,3.59.63,3.33,1.83"/>
        <path class="cls-1" d="M380,426.79c2.4-.61,4.7-1.11,6.73-.89.44.05,1.43-.24,2.16-.37"/>
        <path class="cls-1" d="M715.52,367.37c.28.14.55.28.95.47,1.23-.78,2.91-1.85,4.6-2.92"/>
        <line class="cls-1" x1="654.34" y1="407.34" x2="655.21" y2="408.25"/>
        <polyline class="cls-1" points="325.03 434.08 322.9 434.03 322.75 434.36 324.67 434.24"/>
        <polyline class="cls-1" points="558.08 420.35 557.63 419.37 557.12 419.03 556.71 419.33"/>
        <path class="cls-1" d="M473.91,397.93c-.2.19-.4.37-.63.58-.72.13-1.45.27-2.18.41"/>
        <polyline class="cls-1" points="724.45 357.66 720.25 360.43 720.32 360.73 722.38 359.8"/>
        <path class="cls-1" d="M438.26,410.95c.42-.31.84-.62,1.57-1.17.24.71.94,1.21.53,1.96-.48.88,1.06.37,1.86.4"/>
        <path class="cls-1" d="M346.08,434.18c-1.61-.08-3.21-.16-4.01-.2-2.3.68-3.95,1.17-5.59,1.66"/>
        <path class="cls-1" d="M648.84,404.56c-.83.05-1.66.1-2.69.16-.86.68-1.49,1.18-2.13,1.69"/>
        <path class="cls-1" d="M158.08,415.57l-1.74.88c.4.03.7.06,1.46.12-2.1.56-3.64.96-5.18,1.37"/>
        <path class="cls-1" d="M119.34,428.35l-.27-.67c.63.66.43.79-2.79,2.02"/>
        <path class="cls-1" d="M743.54,348.17c.58-.11,1.16-.23,1.74-.34.06-.01.06.05.17.17-1.31,1.58-2.29,3.24-4.58,4.51"/>
        <path class="cls-1" d="M586.3,424.13c-.81,0-1.62,0-2.51-.01-.89-.03-1.87-.11-3.01-.18,1.16.35,2.14.66,3.02.9.89.22,1.69.41,2.49.6"/>
        <path class="cls-1" d="M240.43,392.95c.66.25,1.38.51,1.93.79.49.27.79.57,1.16.85"/>
        <path class="cls-1" d="M560.61,413.85c-.58-.25-1.17-.52-1.88-.9.4.98-.07,1.69,2.15,2.76"/>
        <path class="cls-1" d="M264.74,403.99c.33.73.58,1.49.86,2.22"/>
        <path class="cls-1" d="M126.26,421.5c.67-.41,1.34-.82,2.24-1.37.57.05,1.23.11,2.08.19-1.05.53-1.86.93-2.66,1.33"/>
        <line class="cls-1" x1="190.05" y1="401.23" x2="191.36" y2="401.9"/>
        <path class="cls-1" d="M374.37,425.27c1.74-.13,3.48-.28,5.08-1.06"/>
        <polyline class="cls-1" points="132.63 423.61 131.7 424.61 130.27 424.75 132.24 423.63"/>
        <path class="cls-1" d="M298.7,437.55c-.77.2-1.55.39-2.35.54"/>
        <line class="cls-1" x1="631.77" y1="411.31" x2="632.75" y2="411.85"/>
        <line class="cls-1" x1="490.17" y1="396.27" x2="488.57" y2="397.56"/>
        <path class="cls-1" d="M466.01,396.52c-.03-.55-.69-.44-1.9.26"/>
        <path class="cls-1" d="M586.67,423.77c.42.42.83.85,1.46,1.48.76-.48,1.09-.68,1.29-.8,1.61.37,3.17.72,4.73,1.07l.7-.19.1,1.43-.92.12-2-.82"/>
        <path class="cls-1" d="M738.51,349.28c-.14-.09-.27-.19-.45-.31-.51.56-.83.91-1.16,1.27"/>
        <path class="cls-1" d="M497.04,389.18c-.01-.12.12-.3-.08-.34-.2-.04-.72.08-1.11.13l.81.26"/>
        <path class="cls-1" d="M125.33,424.28l4.17-1.32.1-.32c-.29.04-.57.07-.87.13-.05,0-.2.15-.3.23"/>
        <path class="cls-1" d="M428.04,412.03c.36-.66.71-1.31,1.14-2.11-1.16.32-2.13.58-3.1.84"/>
        <polyline class="cls-1" points="201.71 402.04 205.54 401.58 206.2 401.8 204.45 402.43"/>
        <path class="cls-1" d="M305.03,434.95c-1.09.2-2.19.37-3.29.53"/>
        <path class="cls-1" d="M328.57,432.37c-.15.66,3.67.17,2.38,1.16"/>
        <path class="cls-1" d="M281,431.9c1.45,1.67,3.28,3.27,6.03,3.5.07,0,.08-.06.04-.11-.07-.08-.2-.17-.31-.25"/>
        <path class="cls-1" d="M158,414.09c3.19-1.46,6.15-1.73,9.07-2.08"/>
        <path class="cls-1" d="M675.37,393.63c-2,1.93,1.19.23,1.56.5"/>
        <line class="cls-1" x1="119.9" y1="422.7" x2="124.64" y2="422.49"/>
        <line class="cls-1" x1="90.86" y1="440.14" x2="90.94" y2="441.17"/>
        <path class="cls-1" d="M288.26,433.18c.84,1.06-.56.82-1.8.53-.27.29-.5.54-.72.78"/>
        <line class="cls-1" x1="419.26" y1="416.37" x2="423.99" y2="415.3"/>
        <line class="cls-1" x1="289.92" y1="436.6" x2="289" y2="438.46"/>
        <path class="cls-1" d="M569.89,422.17c.07.59-1,.45-2.37-.01"/>
        <line class="cls-1" x1="218.14" y1="398.9" x2="215.16" y2="399.1"/>
        <path class="cls-1" d="M254.48,400.39c.44.3.82.69,1.21,1.05l-.62-.17c.77.39,1.62.69,2.37,1.22.4.24.8.49,1.2.74.38.3.78.6,1.18.92-.25-.37-.48-.7-.72-1.06-.25-.37-.57-.7-.95-1.17-.2.72-.38,1.29-.57,1.85"/>
        <line class="cls-1" x1="267.53" y1="409.91" x2="266.92" y2="411.98"/>
        <path class="cls-1" d="M236.52,396.26c-.46.29-.92.58-1.38.88"/>
        <path class="cls-1" d="M211.78,399.26c-.37-.25-.74-.5-1.2-.81-1.1.68-1.78,1.09-2.46,1.51"/>
        <path class="cls-1" d="M464.45,397.8c-.71.05-1.42.09-2.37.15-.52.53-.89.92-1.3,1.34q2.26-.57,5.09-2.04c.55,0,1.21,0,1.97,0-1.03.53-1.71.88-2.38,1.23"/>
        <line class="cls-1" x1="331.3" y1="430.22" x2="333.21" y2="430.59"/>
        <path class="cls-1" d="M229.2,394.98c-.36.1-.72.2-1.22.34,1.41.48,3.2-.04,4.99-.43"/>
        <path class="cls-1" d="M506.3,389.71c-1.14,0-2.29,0-3.48.06-1.19.04-2.43.09-3.77.23,0,.08.01.13.03.31"/>
        <path class="cls-1" d="M377.21,422.61c.56.25,1.12.49,1.74.77-.51.17-1,.34-1.66.56.4.06.7.11,1,.16"/>
        <polyline class="cls-1" points="702.2 376.86 700.43 378.25 700.84 378.12 698.66 381.05"/>
        <path class="cls-1" d="M468.95,397.08c2.04-.13,4.07-.26,6.62-.35-.12.4-.27.94-.43,1.47"/>
        <path class="cls-1" d="M452.41,400.75c-.62.48-1.24.96-1.98,1.53,1.44-.36,2.79-.69,4.14-1.03"/>
        <path class="cls-1" d="M199.56,400.91c-.93-.12-1.87-.24-3.15-.41-1.34.36-3.36.98-5.39,1.61"/>
        <path class="cls-1" d="M221.77,398.04c.22-.2.44-.4.58-.52,1.16-.09,2.3-.18,3.43-.26"/>
        <path class="cls-1" d="M740.01,347.62c.32.36.65.72,1.05,1.16-1.06.95-2.06,1.84-3.02,2.7-.99.83-1.94,1.62-2.89,2.42"/>
        <line class="cls-1" x1="98.81" y1="435.16" x2="97.1" y2="435.01"/>
        <path class="cls-1" d="M573.9,426.08c1.04.14,2.08.27,3.12.37"/>
        <path class="cls-1" d="M522.48,397.45c-.4-.1-.8-.2-1.25-.32-.46-.09-.96-.19-1.57-.32.31-.42.57-.78.91-1.24-1.15-.1-2.3-.26-3.37-.28l-.39-.65"/>
        <path class="cls-1" d="M473.78,401.35c.83-.22,1.66-.41,2.49-.61"/>
        <line class="cls-1" x1="186.63" y1="409.21" x2="183.73" y2="409.8"/>
        <path class="cls-1" d="M531.53,400.06c.34-.03.52-.04.62-.05.61.28,1.19.55,1.75.8.54.29,1.07.58,1.58.85.51.28,1.02.53,1.5.82.47.3.94.59,1.41.89"/>
        <path class="cls-1" d="M326.1,433.61c.05.48.11.96.18,1.59,1.15-.25,1.84-.39,2.88-.64.48.3.98.61,1.76,1.1-1.77.42-3.31.76-4.85,1.09"/>
        <line class="cls-1" x1="350.79" y1="435.27" x2="347.83" y2="435.73"/>
        <path class="cls-1" d="M478.89,397.89c-.89.49-1.91.97-2.58,1.48-.31.23.07.46.14.69"/>
        <polyline class="cls-1" points="648.79 411.46 649.88 410.8 649.69 410.75 646.04 412.73"/>
        <line class="cls-1" x1="554.2" y1="410.25" x2="551.99" y2="408.23"/>
        <path class="cls-1" d="M447.88,406.84c-2.45.49-3.62.08-5.16-.08"/>
        <line class="cls-1" x1="414.97" y1="420.36" x2="417.66" y2="420.21"/>
        <path class="cls-1" d="M634.78,417.24c-1.13.26-2.27.51-3.73.84-.23.21-.57.53-1.14,1.05.85-.31,1.45-.53,2.05-.75"/>
        <path class="cls-1" d="M123.83,427.59c-.74.54-1.48,1.09-2.41,1.78-.53-.04-1.12-.08-1.71-.12"/>
        <path class="cls-1" d="M429.63,415.81c-.01.28-2.84.88-.89.92"/>
        <path class="cls-1" d="M322.79,437.7c.81.19,1.61.37,2.49.58.45-.08,1.06-.19,1.68-.3"/>
        <line class="cls-1" x1="191.66" y1="408" x2="190.05" y2="407.65"/>
        <path class="cls-1" d="M431.93,410.77c-1.39.51-2.77,1.02-4.27,1.57-.21.26-.5.6-.78.94"/>
        <polyline class="cls-1" points="267.01 416.58 265.98 415.45 266.12 416.21"/>
        <path class="cls-1" d="M442.7,404.48c.4-.07.79-.14,1.07-.2-.33.29-.6.53-.88.76"/>
        <path class="cls-1" d="M516,392.25c-.97-.3-2.11-.46-2.9-.76-1.59-.61-3.19-.58-4.9-.34"/>
        <path class="cls-1" d="M585.23,420.76c-.44-1.33-.65-1.29-4.71-1.12,1.32.21,2.3.36,3.28.52"/>
        <path class="cls-1" d="M69.88,452.88c-.65.09-1.31.18-1.94.27-1.01.99-1.75,1.71-2.48,2.43"/>
        <path class="cls-1" d="M350.44,433.02c-2.39.94-4.79,1.92-7.89,3.07.24-.83.38-1.34.52-1.84"/>
        <path class="cls-1" d="M329.04,436.42c.87.06,1.75.12,2.62.17,1.01-.29,1.98-.57,2.94-.85"/>
        <path class="cls-1" d="M706.74,370.23c-.39.62-.79,1.25-1.3,2.05-.29.24-.87.71-1.46,1.18"/>
        <path class="cls-1" d="M266.45,413.09c-.46-.17-.92-.32-1.38-.47"/>
        <path class="cls-1" d="M253.86,401.56c-.2-.42-.39-.88-.68-1.34.31-.05.63-.09,1.02-.11.38-.02.87-.08,1.44-.06.36.78.54,1.23.72,1.67"/>
        <path class="cls-1" d="M507.83,389.7c-.13.48-.24.96-.4,1.44-.09.28-.25.56-.37.84"/>
        <line class="cls-1" x1="303.89" y1="433.06" x2="305" y2="433.99"/>
        <path class="cls-1" d="M682.3,387.03c-2.58,1.24-1.97,1.98-3,2.98"/>
        <line class="cls-1" x1="221.99" y1="397.15" x2="219.12" y2="397.99"/>
        <path class="cls-1" d="M262.54,402.29c.63.24,1.16.56,1.97.97.66.99,1.35,2.36,2.04,3.7"/>
        <path class="cls-1" d="M477.89,398.41c-.46.02-.93.05-1.39.08l-.48.29.87.15"/>
        <path class="cls-1" d="M410.86,419.54c-.02.5-.03,1-.05,1.63.69-.15,1.68-.38,2.66-.62"/>
        <line class="cls-1" x1="338.52" y1="431.24" x2="337.55" y2="432.34"/>
        <path class="cls-1" d="M116.02,429.04c-.07.42-.14.83-.24,1.46-1.93.62-3.76,1.33-5.54,1.95-.27-.31-.5-.56-.67-.76-1.08.3-2.03.55-2.97.81"/>
        <path class="cls-1" d="M689.32,387.24c-.63.19-1.25.38-2.04.62-.27.51-.54,1.04-.79,1.51,1.37-.16,1.9-.77,2.37-1.44"/>
        <path class="cls-1" d="M626.51,417.59c.58-.23,1.27-.59,1.72-.67,1.21-.18,2.3-.33,3.44-.47"/>
        <path class="cls-1" d="M112.84,427.21c.23-.6.45-1.2.71-1.88-1.85.45-3.33.92-3.53,1.91"/>
        <path class="cls-1" d="M274.44,421.35c.07-.56-.16-1.26-.52-2.04-.36-.77-.85-1.6-1.28-2.44"/>
        <polyline class="cls-1" points="175.08 404.66 173.94 404.9 174.08 404.65 178.03 404.11"/>
        <path class="cls-1" d="M306.62,437.4c-.62.19-1.24.38-1.86.56"/>
        <line class="cls-1" x1="214.45" y1="395.33" x2="217.05" y2="394.95"/>
        <path class="cls-1" d="M723.36,361.75c-2.32,1.57-1.88,1.99-1.46,2.43.03.03-.11.21-.23.3-.18.15-.4.29-.6.43"/>
        <path class="cls-1" d="M259.74,396.19c-.57-.25-1.14-.5-1.7-.75-.58-.21-1.17-.39-1.73-.57.48.97.88,1.69,1.15,2.54"/>
        <path class="cls-1" d="M272.38,414.91c.17-.52.38-.99.48-1.6.01-.09-.43-.82-.68-1.26"/>
        <path class="cls-1" d="M327.03,435.2c.14.11.28.21.52.39-.35.12-.76.26-1.18.4"/>
        <path class="cls-1" d="M248.25,393.66c1.45.13,2.91.37,4.74.86-.23.25-.43.47-.63.69"/>
        <path class="cls-1" d="M402.17,417.3c-.58-.08-1.15-.16-2.14-.3-.35,1-.62,1.79-.9,2.62.44-.05,1.1-.12,2.17-.24-.77.41-1.28.68-1.86.99.81-.04,1.58-.09,2.36-.13"/>
        <path class="cls-1" d="M425.28,414.4c-.18.18-.36.37-.93.96,1.63-.58,2.8-.94,3.92-1.39,1.29-.51,2.53-1.07,3.8-1.6"/>
        <line class="cls-1" x1="480.79" y1="397.87" x2="478.63" y2="399.7"/>
        <path class="cls-1" d="M187.13,406.62c1.17.1,2.37.18,4.11-.37"/>
        <path class="cls-1" d="M144.82,420.29c.96-.25,1.92-.49,3.59-.93-.13-.4-.25-.74-.36-1.08"/>
        <line class="cls-1" x1="686.14" y1="382.57" x2="684.14" y2="384.29"/>
        <line class="cls-1" x1="693.12" y1="378.39" x2="692.16" y2="380.38"/>
        <path class="cls-1" d="M706.49,375.97c-.77.65-1.54,1.28-2.32,1.91"/>
        <path class="cls-1" d="M732.81,358.14l-.8-.25.5-.37c1.57-.16,3.09-.39,4.65-.61"/>
        <path class="cls-1" d="M499.1,390.55c.2.26.39.52.8,1.06-1.56-.31-2.5-.53-3.71-.71-.4.25-.77.48-1.15.71"/>
        <line class="cls-1" x1="494.45" y1="395.44" x2="494.22" y2="396.32"/>
        <line class="cls-1" x1="359.44" y1="432.5" x2="359.58" y2="433.33"/>
        <line class="cls-1" x1="197.09" y1="403.53" x2="198.36" y2="404.11"/>
        <line class="cls-1" x1="487.07" y1="391.99" x2="486.47" y2="392.84"/>
        <path class="cls-1" d="M557.59,415.21c-.77-.77-1.51-1.57-2.56-2.79.08.74.13,1.12.17,1.5"/>
        <path class="cls-1" d="M551.37,405.06c.49.38.96.8,1.42,1.2l.05.54c-.71-.53-1.41-1.08-2.17-1.57l-1.97-1.29"/>
        <line class="cls-1" x1="419.8" y1="418.21" x2="418.9" y2="419.1"/>
        <path class="cls-1" d="M356.84,432.82c-.96.68.13.47,1.19.28"/>
        <path class="cls-1" d="M285.04,435.09c.02.58.06,1.18.11,1.77"/>
        <path class="cls-1" d="M133.53,423.92c.31.23.62.46.79.58,1.05-.33,1.85-.59,2.66-.84"/>
        <path class="cls-1" d="M424.99,412.23l-3.86.56.42-.39c.95.19.76.27,1.48.79.48.35,1.61.43,2.45.64"/>
        <path class="cls-1" d="M552.33,408.94c-.6-.77-1.21-1.54-1.86-2.3-.17-.07-.36-.13-.54-.2.09.31.16.63.23.95"/>
        <path class="cls-1" d="M562.74,418.83c-.32.03-.66.07-.98.07l-.41-.28c.1-.18.21-.35.33-.56-1.42-.76-1.76-.88-1.7-.62.06.25.57.83.92,1.29-.72-.33-1.34-.65-1.95-.99"/>
        <path class="cls-1" d="M739.55,351.58c-.73,1.44-1.55,2.79-2.34,4.2"/>
        <path class="cls-1" d="M497.23,390.85c1.02-.24,2.04-.47,3.08-.71,1.46.32,3.05.69,4.66,1.13-.25.54-.54,1.19-.84,1.84"/>
        <line class="cls-1" x1="609.36" y1="419.66" x2="612.23" y2="420.68"/>
        <line class="cls-1" x1="204.66" y1="397.97" x2="202.62" y2="399.14"/>
        <polyline class="cls-1" points="698.54 380.14 696.82 383.09 696.18 383.42 695.86 382.9"/>
        <path class="cls-1" d="M154.77,417.39c.13-1.22-2.65-.66-5.04-.48.33-.31.69-.66,1.05-1.01"/>
        <path class="cls-1" d="M94.55,440.14c-1.51.88-2.99,1.8-4.76,2.92-.46.08-1.13.2-1.75.3-1.58,1.01-1.24,1.24-.36,1.26"/>
        <path class="cls-1" d="M417.69,416.33c1.11.26,2.23.52,3.34.76"/>
        <path class="cls-1" d="M311.96,433.9c2.19-.86-1.78-.15-.45-.84.46-.14,1.63-.51,3.26-1.02.04.47.07.79.1,1.12"/>
        <path class="cls-1" d="M516.32,389.38c.62.28,1.13.59,1.87.82.76.22,1.72.45,2.59.67"/>
        <path class="cls-1" d="M489.65,391.36c-.6.17-1.2.34-1.98.56.3-.49.55-.91.81-1.34,1.52-.12,2.81-.14,4.09-.19"/>
        <path class="cls-1" d="M365.43,429.96c-.44-.1-.89-.2-1.33-.3-.69.31-1.16.52-1.63.73l.19.24,4.57-1.13"/>
        <line class="cls-1" x1="141.07" y1="417.4" x2="139.81" y2="418.34"/>
        <path class="cls-1" d="M256.65,396.38c-.49-.17-.77-.27-.9-.32-.78.09-1.25.19-1.71.27"/>
        <path class="cls-1" d="M181.38,403.59c-1.06.87-2.51,1.31-4.28,1.39"/>
        <line class="cls-1" x1="313.57" y1="435.32" x2="314.06" y2="436.6"/>
        <path class="cls-1" d="M514.73,393.67l.06-.59c.36.04.71.1,1.06.15-.57.72-1.11,1.45-1.65,2.2"/>
        <path class="cls-1" d="M399.48,420.21c-.78-.05-1.56-.1-2.38-.15-1.2.82-.52,1.09.72,1.19"/>
        <path class="cls-1" d="M343.96,432.55c-.24-.09-.48-.18-.74-.28.3-.11.66-.24,1.25-.45.28.28.54.52.86.84,1.13-.12,2.99-.45,2.47.41"/>
        <path class="cls-1" d="M358.6,429.84c-2.51.05-5,.15-7.51.16"/>
        <path class="cls-1" d="M464.6,399.4c-.56.27-1.13.55-1.56.76-.2.73-.4,1.43-.6,2.13"/>
        <path class="cls-1" d="M724.05,360.2c-1.83,1.98.51,1.02.71,1.57"/>
        <path class="cls-1" d="M328.12,431.7c-.85-.05-1.7-.09-2.62-.14-.02-.18-.05-.42-.07-.66"/>
        <path class="cls-1" d="M378.37,426.29c-.11-.1-.22-.21-.32-.3-1.78.43-3.47.84-5.84,1.41.35-.53.59-.88.82-1.24"/>
        <line class="cls-1" x1="363.62" y1="428.34" x2="365.9" y2="428.4"/>
        <path class="cls-1" d="M343.87,431.95c-.35-.04-.7-.09-1.28-.16-.36.23-.64.41-.91.59"/>
        <path class="cls-1" d="M136,417.63c-.5.46-.99.96-1.62,1.57-.5-.13-.94-.24-1.38-.36l-.47.2c.07.19.02.58.22.53,1.86-.45,1.99.03,2.14.51"/>
        <line class="cls-1" x1="394.58" y1="422.08" x2="396.82" y2="423.37"/>
        <line class="cls-1" x1="200.34" y1="400.99" x2="196.9" y2="402.71"/>
        <path class="cls-1" d="M680.56,386.24c.23.8-1,1.31-2.64,1.74l-.51.54,1.41.65"/>
        <path class="cls-1" d="M604.58,422.47c-.95.16-1.43.63-2.11.98-.68.35-1.55.59-3.24.17l-.47.3.79.7"/>
        <path class="cls-1" d="M475.91,394.1c-.51.29-1.01.58-1.48.84.81.37,1.5.67,2.4,1.08.88-.76,1.55-1.33,2.21-1.9"/>
        <line class="cls-1" x1="512.16" y1="393.83" x2="514.31" y2="394.24"/>
        <line class="cls-1" x1="633.09" y1="415.94" x2="632.27" y2="417"/>
        <line class="cls-1" x1="653.04" y1="405.57" x2="655.98" y2="405.59"/>
        <path class="cls-1" d="M599.24,421.87c.49.08.99.15,1.5.23-1.25.6-4.69.81-3.92,1.82"/>
        <path class="cls-1" d="M673.84,395.46c-1.46,1.67-1.4,1.79.53.94"/>
        <polyline class="cls-1" points="375.19 423.75 374.13 423.69 373.48 423.99 375.72 424.5"/>
        <path class="cls-1" d="M341.63,429.36c.78.24,2.97-.38,3.04.31"/>
        <path class="cls-1" d="M241.27,395.08c-.74.13-1.48.31-2.21.46"/>
        <path class="cls-1" d="M261.92,402.86c.49.74.87,1.55,1.3,2.3"/>
        <path class="cls-1" d="M217.65,398.26c.98.01,1.97.06,3.37.13-.55.29-1.12.59-1.68.9"/>
        <line class="cls-1" x1="340.96" y1="432.6" x2="338.83" y2="433.5"/>
        <path class="cls-1" d="M556.83,411.81c-.33-.35-.67-.7-1.23-1.29.56,1.09-2.56-1.5-.31,1.24"/>
        <path class="cls-1" d="M303.22,436.19c2.87-.4,3.63.43,5.25.74"/>
        <line class="cls-1" x1="722.09" y1="363.15" x2="724.23" y2="362.3"/>
        <path class="cls-1" d="M504.21,395.63c.71.05,1.43.14,2.14.21"/>
        <path class="cls-1" d="M265.49,415.31c-.41-.74-.82-1.51-1.24-2.21"/>
        <path class="cls-1" d="M231.17,392.97c-2,.8.8.25.84.48"/>
        <line class="cls-1" x1="620.61" y1="420.15" x2="623.14" y2="419.42"/>
        <path class="cls-1" d="M470.73,401.42c.09.3.19.6.34,1.08-2.05.12-4.88,1.79-5.56.77"/>
        <path class="cls-1" d="M77.83,443.19c.85-.25,1.69-.53,2.55-.76"/>
        <path class="cls-1" d="M228.14,397.83c-1.55,1.58-1.27,1.7,2.42,1.06"/>
        <path class="cls-1" d="M285.13,430.84l-.79-.66c-.26-.23-.49-.48-.73-.71"/>
        <path class="cls-1" d="M310.11,433.81c-1.76-.52-3.38.32-5.11.32-1.41,0-2.89.21-4.33.25"/>
        <line class="cls-1" x1="640.09" y1="413.21" x2="639.59" y2="414.96"/>
        <path class="cls-1" d="M493.25,392.35l-1.75.51.77.28c.8-.46,1.6-.93,2.82-1.57.97.33,1.84.59,2.7.92"/>
        <path class="cls-1" d="M597.97,420.43c1.03,0,2.06.05,3.1.02-.27.62-.48,1.09-.7,1.55"/>
        <path class="cls-1" d="M716.06,366.85c1.12-.55,2.25-1.11,3.38-1.66.05-.02.18-.21.22-.3.03-.06-.04-.07-.06-.1"/>
        <path class="cls-1" d="M485.66,390.81c-.59.29-1.17.59-1.22.61-.18.46-.28.71-.38.97"/>
        <path class="cls-1" d="M104.5,431.44c.72-.03,1.44-.05,2.96-.11.27-.47.44-.75.61-1.03"/>
        <path class="cls-1" d="M130.61,426.67c.1-.35.21-.7.34-1.13,1.16-.06,1.95-.1,2.74-.15"/>
        <path class="cls-1" d="M384.22,426.84c-4.48.69-5.79.97-7.32,1.47"/>
        <path class="cls-1" d="M543.91,403.96c-.95-.8-1.78-1.47.09-.93.33,1.28.6,2.56.84,3.79"/>
        <path class="cls-1" d="M548.64,408.41c-.81-.47-1.63-.94-2.82-1.64,1.45,1.56,2.42,2.58,3.39,3.82-.32,0-.54,0-.75.01"/>
        <path class="cls-1" d="M420.66,418.46c-.83.43-1.67.85-2.73,1.4-.14-.02-.46-.07-.79-.12"/>
        <path class="cls-1" d="M681.53,393.15c-.4.51-.79,1.02-.91,1.18-1.4.87-2.33,1.45-3.27,2.04"/>
        <line class="cls-1" x1="97.87" y1="438.49" x2="98.56" y2="439.1"/>
        <path class="cls-1" d="M351.67,428.94c-.65.46-1.3.92-2.02,1.43-2.43-.1-4.15-.21-3.37-1.28-.81-.07-1.84-.15-2.86-.23"/>
        <line class="cls-1" x1="204.49" y1="400.83" x2="201.92" y2="401.26"/>
        <path class="cls-1" d="M216.08,397.95c-1.19.86-.79,1.74-3.3,2.58l.8.21"/>
        <line class="cls-1" x1="192.9" y1="406.84" x2="193.09" y2="407.65"/>
        <path class="cls-1" d="M294.01,438.05c-.79.37-.91.35-2.77-.39.7.03,1.37.03,2.03.04"/>
        <path class="cls-1" d="M580.21,419.7c-.84-.02-1.69,0-2.52-.05"/>
        <path class="cls-1" d="M673.18,398.85c-.88.16-.26-1.08-2.42.26"/>
        <line class="cls-1" x1="555.71" y1="408.35" x2="556.02" y2="409.57"/>
        <line class="cls-1" x1="302.47" y1="433.56" x2="301.74" y2="435.48"/>
        <path class="cls-1" d="M380.26,427.96c-1.31.72-.67.8.88.53.84-.14,1.7-.37,2.56-.56"/>
        <line class="cls-1" x1="154.31" y1="413.5" x2="155.63" y2="413.96"/>
        <path class="cls-1" d="M564.99,422.32c-.69-.16-1.37-.37-2.06-.6l-.26-.38c.65.27,1.32.5,1.98.72"/>
        <line class="cls-1" x1="150.87" y1="414.98" x2="151.76" y2="415.32"/>
        <path class="cls-1" d="M730.95,356.4c-.18.39-.35.78-.58,1.3,2.92-1.82,4.38-1.78,6.17-2.14"/>
        <path class="cls-1" d="M253.22,398.33c-.53.06-1.04.23-1.6.3-.23.02-.67-.05-1.02-.06"/>
        <path class="cls-1" d="M340.39,431.22c.46.37-.74,1.07.92,1.21"/>
        <path class="cls-1" d="M389.96,423.55c-.21.71-.45,1.42-.64,2.13-.18.64.66.81,2.43.53"/>
        <path class="cls-1" d="M291.49,435.01c1.09.68,2.67,1.32.8,1.64"/>
        <line class="cls-1" x1="656.48" y1="404.11" x2="655.42" y2="405.33"/>
        <path class="cls-1" d="M515.78,394.15c1.31.25,2.63.47,3.92.8"/>
        <polyline class="cls-1" points="712.49 368.85 713.3 369.12 712.69 369.61 711.94 369.36"/>
        <polyline class="cls-1" points="185.21 406.59 186.41 405.69 187.37 405.64 186.08 407"/>
        <polyline class="cls-1" points="140.83 417.86 141.38 417.16 142.26 416.86 142.36 417.71"/>
        <path class="cls-1" d="M375.04,426.72c-.15-.13-.34-.4-.46-.38-1.66.35-3.8.49-4.26,1.46"/>
        <path class="cls-1" d="M80.14,440.29c-.64.4-1.28.79-1.91,1.22"/>
        <path class="cls-1" d="M79.57,445.81c-.05,1,2.36-.12,3.63-.21"/>
        <path class="cls-1" d="M680.19,390.05c-.34.09-.68.18-1.05.28q-.47.89.97.32"/>
        <path class="cls-1" d="M79.16,442.51c.49-.13,1.42-.41,1.44-.31.16.86.15,1.8.19,2.71"/>
        <line class="cls-1" x1="283.95" y1="435.51" x2="283.25" y2="435.97"/>
        <path class="cls-1" d="M53.31,455.25q-.27.55,1.92-.42"/>
        <path class="cls-1" d="M324.21,436.95l-2.76.03-.29.31c.42.15.84.3,1.26.45-1.09.35-2.18.72-3.28,1.05"/>
        <path class="cls-1" d="M273.77,420.04c-.19-.17-.48-.34-.56-.51-2.02-4.1-3.58-5-5.21-5.64-.21-.09-.56-.51-.84-.77"/>
        <path class="cls-1" d="M179.73,407.64c-.5.05-1,.1-1.59.16-.03.27-.06.53-.09.79"/>
        <path class="cls-1" d="M644.06,405.59c-1.01.18-1.98.35-2.3,1.14"/>
        <path class="cls-1" d="M71.16,449.76c-.42.8-.84,1.6-1.24,2.42"/>
        <path class="cls-1" d="M738.63,353.96c.35.58,1.01-.35,1.58-1.05"/>
        <line class="cls-1" x1="158.57" y1="412.14" x2="159.53" y2="412.72"/>
        <path class="cls-1" d="M110.71,426.95c.34.25.67.5,1.03.76,1.23-.88,1.98.25,3.28-1.12"/>
        <path class="cls-1" d="M540.7,400.14c-.05.16-.09.32-.07.24.86.46,1.58.98,2.28,1.44.69.48,1.39.89,2,1.4"/>
        <line class="cls-1" x1="81.05" y1="446.26" x2="80.6" y2="447.84"/>
        <line class="cls-1" x1="205.85" y1="400.04" x2="205.03" y2="401.57"/>
        <path class="cls-1" d="M313.89,434.69c-1.4-.5-3.04-.33-4.82.16"/>
        <path class="cls-1" d="M573.27,420.28c-.7-.16-1.39-.33-2.08-.52"/>
        <path class="cls-1" d="M725.16,363.56c1.15.36,3.52-1.77,5.14-2.53"/>
        <path class="cls-1" d="M354.49,432.37c.7-.17,1.39-.33,2.65-.64-.42.47-.61.69-.94,1.06,1.45-.21,2.67-.38,3.9-.56l.06-.25c.51.12,1.02.24,1.36.32,1.93-.2,3.66-.38,5.39-.56"/>
        <path class="cls-1" d="M295.75,436.59c.38-.17.76-.33,1.03-.45.84.16,1.6.25,2.36.35"/>
        <line class="cls-1" x1="93.35" y1="438.44" x2="94.33" y2="438.79"/>
        <path class="cls-1" d="M113.01,428.58c-.05.14-.09.28-.23.7.75-.59,1.03-.8,1.31-1.01"/>
        <path class="cls-1" d="M696.23,383.51c-.09.33.02.62-.31,1.02-.57.68-1.41,1.44-2.15,2.15"/>
        <path class="cls-1" d="M133.23,420.95c-.62.16-1.24.32-2.29.6.75-.5,1.22-.82,1.39-.93.99-.21,1.78-.37,2.57-.54"/>
        <path class="cls-1" d="M328.76,430.78c1.31.4,2.61.8,4.04,1.24,2.97-.94,6.23-1.57,9.72-1.58"/>
        <line class="cls-1" x1="267.22" y1="404.12" x2="265.76" y2="403.71"/>
        <path class="cls-1" d="M531.39,396.41c.95.26,1.89.62,2.79.99,1.14.45,2.86,1.03,2.82,1.82"/>
        <path class="cls-1" d="M163.21,410.76c2.46-.41,3.72-.03,5.11.25"/>
        <path class="cls-1" d="M416.8,415.96c-1.22.71-2.43,1.43-3.63,2.13.9.38,1.54.64,2.18.91"/>
        <line class="cls-1" x1="672.57" y1="392.45" x2="669.3" y2="394.98"/>
        <path class="cls-1" d="M583.78,420.64c-.15,1.38.68,1.65,4,1.34"/>
        <line class="cls-1" x1="223.36" y1="396.31" x2="227.06" y2="395.82"/>
        <line class="cls-1" x1="148.91" y1="417.37" x2="148.44" y2="418.28"/>
        <polyline class="cls-1" points="653.75 406.16 652.18 407.2 652.83 407.68"/>
        <path class="cls-1" d="M581.02,424.19c-1.76-.11-3.51-.19-5.27-.41"/>
        <path class="cls-1" d="M367.46,430.67c.36-.11.71-.23,1.08-.32.09-.02.25.03.38.04l-1.08.32"/>
        <path class="cls-1" d="M259.96,406.85c.09-.08.19-.15.36-.29-1.37-1.53-2.89-2.69-4.41-3.7"/>
        <line class="cls-1" x1="551.19" y1="410.01" x2="551.42" y2="411.31"/>
        <path class="cls-1" d="M491.68,394.3c1.23-.12,2.45-.25,3.68-.31"/>
        <path class="cls-1" d="M672.13,395.46c.74-.59,1.49-1.19,2.04-1.63,2.04-.91,2.71.08,5-1.81"/>
        <path class="cls-1" d="M320.02,436.3c-.52.27-1.04.54-1.91.99-.5-.34-.78-.53-1.06-.72"/>
        <path class="cls-1" d="M280.45,426.98c-.33-.3-.87-.59-1.25-.9-.35-.34-.54-.68-.19-1.02"/>
        <path class="cls-1" d="M269.24,419.64c.65.22,1.31.45,2.02.69.22,1.21.41,2.14.64,3.07"/>
        <path class="cls-1" d="M589.22,420.18c.05.24.1.48.2.97-1.02-.49-1.61-.77-2.2-1.06-.27.04-.76.12-1.25.19"/>
        <path class="cls-1" d="M216.79,397.69c.85-.23,1.69-.49,2.69-.74-.64-.11-1.22-.19-2.23-.32.09.26.15.41.21.57"/>
        <path class="cls-1" d="M432.17,410.32c1.18.03,2.42.05,3.54.11.66.04,1.14.2,1.7.3"/>
        <line class="cls-1" x1="68.92" y1="454.23" x2="66.98" y2="455.29"/>
        <line class="cls-1" x1="622.69" y1="420.55" x2="622.96" y2="421.47"/>
        <line class="cls-1" x1="370.07" y1="424.56" x2="373.42" y2="424.36"/>
        <path class="cls-1" d="M585.95,421.25c1.32.32,2.66.7,4.01.97l.46-.44c-.64,0-1.27,0-1.91-.04"/>
        <path class="cls-1" d="M653.9,403.14c-2.08,1.33-3.27,1.42-4.21,1.12-1.75.95-3.53,1.86-5.35,2.82-.64-.35-1.13-.61-1.62-.88"/>
        <polyline class="cls-1" points="184.23 402.63 183.16 403.02 183.16 403.22 184.68 402.9"/>
        <line class="cls-1" x1="485.48" y1="396.99" x2="484.38" y2="398.71"/>
        <path class="cls-1" d="M730.92,354.59c.18.22.63.29.47.68-.42,1.04-.17,1.39,1.47.54"/>
        <path class="cls-1" d="M629.27,414.14c.5-.06,1.01-.11,1.72-.19-.45.37-.89.73-1.32,1.08-.69.1-1.3.18-2.24.27.06.33.11.57.15.81"/>
        <path class="cls-1" d="M559.62,417.47c-.38-.44-.76-.89-1.41-1.78-.65.5-1.27.96-1.95,1.44,1.15.88,2.27,1.64,3.45,2.29"/>
        <path class="cls-1" d="M714.21,370.72c.52-.35,1.04-.69,1.54-1.05.41-.3.79-.62,1.17-.94"/>
        <path class="cls-1" d="M729.24,354.84c1.94-.97,1.07.28.82,1.03"/>
        <line class="cls-1" x1="147.33" y1="416.12" x2="148.13" y2="417.37"/>
        <path class="cls-1" d="M156.65,410.99c-.31-.05-.63-.09-1.13-.16-.44.7-.78,1.23-1.11,1.76"/>
        <line class="cls-1" x1="174.27" y1="405.99" x2="176.5" y2="405.64"/>
        <path class="cls-1" d="M264.01,411.98c-.38-.76-.8-1.45-1.19-2.17"/>
        <line class="cls-1" x1="216.9" y1="402.43" x2="214.59" y2="402.14"/>
        <path class="cls-1" d="M144.39,417.9c-.94.32-1.87.65-3.16,1.09l.24.68"/>
        <path class="cls-1" d="M318.36,434.65c-2.62-.82-4.73.3-7.02.75"/>
        <line class="cls-1" x1="224.21" y1="394.59" x2="224.7" y2="395.24"/>
        <path class="cls-1" d="M191.55,404.32c-.15-.09-.3-.17-.48-.28l-3.8,1.56"/>
        <path class="cls-1" d="M281.5,431.22c-.38.09-.73.13-1.1.2"/>
        <path class="cls-1" d="M180.54,409.28c.95.31,2.1.59-.74,1.56"/>
        <path class="cls-1" d="M515.1,389.97c1.58,1.53-2.48.1-3.1.48"/>
        <path class="cls-1" d="M384.15,421.45c-.39-.04-.77-.07-1.28-.12-.86.76-.48,1.63-3.58,2.18"/>
        <line class="cls-1" x1="378.8" y1="424.72" x2="378.95" y2="425.42"/>
        <path class="cls-1" d="M560.84,414.64c.17-.22.34-.44.66-.86-1.11-.66-1.8-1.16-2.49-1.66"/>
        <path class="cls-1" d="M745.76,346.69c.68-.57,1.37-1.15,2.35-1.96.13-.37.34-.88.51-1.42-.25.15-.5.29-.76.42l-1.01,1.92"/>
        <path class="cls-1" d="M295.08,438.92c.78.04,1.56.06,2.63.08.16.33.31.63.46.92"/>
        <path class="cls-1" d="M529.46,391.33c3.11,1.07,6.19,2.28,9.1,3.84"/>
        <path class="cls-1" d="M166.95,412.92c-.23.54-3.36,1.57-.66,1.7-.1-.35-.17-.58-.24-.81"/>
        <path class="cls-1" d="M453.36,407.8c.39-.06,5.06-1.43,5.71-1.66"/>
        <path class="cls-1" d="M435.53,409.85c1.22-.24,2.44-.48,4.54-.9-.47-.6-.83-1.06-1.34-1.72,1.41-.23,2.63-.43,3.86-.63l-.26.37-2.11.51.58-.58"/>
        <path class="cls-1" d="M240.77,391.5c.67.07,1.33.11,2.01.21"/>
        <path class="cls-1" d="M614.85,422.02c2.44.28,2.96.22,4.1-.78"/>
        <line class="cls-1" x1="305.18" y1="439.14" x2="303.65" y2="439.67"/>
        <path class="cls-1" d="M516.72,395.36c.13.22.25.45.42.75-.21.03-.68.1-1.19.17-.15-.19-.26-.32-.36-.46"/>
        <line class="cls-1" x1="200.32" y1="399.15" x2="200.89" y2="400.01"/>
        <path class="cls-1" d="M526.01,390.5c.36.16.72.35,1.08.53-.4-.03-.79-.07-1.19-.07"/>
        <path class="cls-1" d="M487.05,397.38c-1.43.28-2.86.54-4.28.86"/>
        <path class="cls-1" d="M611.28,423.44c-1.29.05-2.85-.08-3.76.2-.91.29-1.19.95-1.75,1.44"/>
        <line class="cls-1" x1="172.54" y1="412.29" x2="166.61" y2="414.39"/>
        <line class="cls-1" x1="437.34" y1="407.08" x2="437.88" y2="407.53"/>
        <path class="cls-1" d="M383.36,428.13c1.7.49,4.46-.34,6.76-.68"/>
        <path class="cls-1" d="M470.13,395.82c1.37-.26,2.73-.52,4.1-.74"/>
        <path class="cls-1" d="M499.58,395.81c.83-.04,1.66-.08,2.5-.07"/>
        <path class="cls-1" d="M220.69,396.15c-.6.15-1.21.28-2.6.63.34-.65.62-1.17.89-1.69"/>
        <line class="cls-1" x1="180.46" y1="410.42" x2="178.71" y2="411.01"/>
        <line class="cls-1" x1="335.73" y1="429.92" x2="339.05" y2="429.59"/>
        <path class="cls-1" d="M295.39,439.69c-.8-.06-1.61-.13-2.42-.22"/>
        <path class="cls-1" d="M171.38,412.25c1.74-.17,3.5-.28,5.25-.43"/>
        <path class="cls-1" d="M509.4,388.18c-1.05.27-2.08.59-3.1.93"/>
        <path class="cls-1" d="M275.94,428.68c.4.88.88,1.73,1.44,2.77-.88-.64-1.82-1.25-2.66-1.94l-.06.35c1.87,1.87,3.91,3.69,6.27,5.04"/>
        <path class="cls-1" d="M358.15,427.24c1.99,0,3.99-.04,5.98-.1l.44-.34,1.23.63c.4-.15.87-.32,1.34-.49"/>
        <line class="cls-1" x1="93.88" y1="435.17" x2="96.9" y2="434.58"/>
        <path class="cls-1" d="M651.23,401.91c1.89-.71,4.04-1.78,4.48-.91"/>
        <path class="cls-1" d="M139.53,416.41c.64-.05,1.37.02,1.9-.19.73-.28,1.33-.76,1.98-1.16"/>
        <path class="cls-1" d="M550.15,403.47c.43,1.31.84,2.57,1.14,3.86"/>
        <path class="cls-1" d="M94.06,433.77c.79-.05,1.57-.1,2.48-.15l2.78-1.86"/>
        <line class="cls-1" x1="61.26" y1="453.37" x2="61.45" y2="454.49"/>
        <path class="cls-1" d="M663.22,397.81c.85-.51,1.71-1,2.53-1.54,1.25-.84,2.48-1.66,3.72-2.49"/>
        <path class="cls-1" d="M593.65,421.53l1.3.15c.43.03.86.05,1.29.08.86.05,1.7.1,2.5.15.18-.61.36-1.23.6-2.05-1.02.35-1.77.62-2.81.98,1.57.07,2.83.12,4.09.18"/>
        <path class="cls-1" d="M733.13,354.96c.03-.29.06-.58.13-1.32,1.25-.38,2.06-.63,2.88-.88"/>
        <line class="cls-1" x1="76.24" y1="442.53" x2="75.13" y2="443.65"/>
        <line class="cls-1" x1="66.13" y1="449.05" x2="67.5" y2="448.44"/>
        <line class="cls-1" x1="358.39" y1="426.47" x2="357.07" y2="427.55"/>
        <path class="cls-1" d="M283.83,430.35l-.71.27-.83-.65c.54-.29,1.07-.59,1.58-.9"/>
        <path class="cls-1" d="M215.04,396.44c-.2.37-.4.75-.66,1.25-1.22-.03-2.07-.05-2.92-.08"/>
        <path class="cls-1" d="M618.85,418.03c-1.37.89-1.54,1.52-.64,1.93"/>
        <path class="cls-1" d="M693.87,384.67c-.08-.46-.16-.92-.26-1.48-.96.3-1.94.61-2.9.91-.08-.13-.2-.33-.36-.6-1.62,1.23-2.81,2.13-3.43,2.6.25.42.47.8.69,1.18"/>
        <line class="cls-1" x1="424.84" y1="410.52" x2="422.83" y2="411.51"/>
        <path class="cls-1" d="M357.95,430.44c.53-.34,1.06-.69,1.57-1.02,1.38-.14,2.61-.27,3.84-.42"/>
        <path class="cls-1" d="M438.39,407.86c-.23.2-.47.39-.85.71.57-.06,1-.11,1.43-.15"/>
        <line class="cls-1" x1="414.39" y1="414.28" x2="412.13" y2="415.81"/>
        <path class="cls-1" d="M601.02,418.4c.25.08.58.15.75.25.57.35,1.09.72,1.64,1.09"/>
        <path class="cls-1" d="M69.06,449.77c.55-.03,1.1-.04,1.66-.06"/>
        <path class="cls-1" d="M382.55,424.5c.96-.26,1.92-.51,2.48-.67.91.16,1.66.29,2.42.43"/>
        <path class="cls-1" d="M658.98,399.29c1.12-1.77,1.5-2.04,3.39-2.25"/>
        <path class="cls-1" d="M670.1,392.6c.14-.26.27-.52.35-.67,1.45-.52,2.9-1.04,4.35-1.57"/>
        <line class="cls-1" x1="52.87" y1="458.97" x2="53.17" y2="459.49"/>
        <polyline class="cls-1" points="733.41 354.72 734.44 354.87 733.55 355.71 733.2 355.05"/>
        <path class="cls-1" d="M85.77,441.55c-.28,0-.68-.06-.81.01-1.06.62-2.06,1.26-3.2,1.97.04.08.15.29.25.51"/>
        <line class="cls-1" x1="199.19" y1="402.71" x2="194.75" y2="403.3"/>
        <polyline class="cls-1" points="118.29 423.73 119.6 423.52 119.32 423.87 117.69 424.23"/>
        <path class="cls-1" d="M253.71,393.77c-1.73-.62-3.51-1.04-5.27-1.3"/>
        <line class="cls-1" x1="432.11" y1="411.35" x2="429.22" y2="413.29"/>
        <path class="cls-1" d="M176.28,407.69c-.35.14-.7.27-1.13.44l1.83.74"/>
        <line class="cls-1" x1="395.09" y1="422.57" x2="391.77" y2="423.11"/>
        <path class="cls-1" d="M412.48,414.33c-1.93.86-3.88,1.67-5.84,2.49"/>
        <path class="cls-1" d="M651.81,406.44c-1.96.23-2.43.45-3.69,1.88-.29.32-.99.74-1.51,1.11"/>
        <path class="cls-1" d="M165.48,411.85l.59-.67c-1.13.16-2.24.32-3.36.48"/>
        <path class="cls-1" d="M174.58,408.52c-.65.42-1.31.85-2.14,1.38.76.29,1.57.6,2.38.91"/>
        <line class="cls-1" x1="504.1" y1="392.27" x2="502.24" y2="392.24"/>
        <path class="cls-1" d="M572.56,422.22c-.18.38.73,1.25-2.04.58"/>
        <line class="cls-1" x1="588.54" y1="423.3" x2="586.3" y2="423.53"/>
        <path class="cls-1" d="M539.08,396.76c.08.4.17.78.24,1.2"/>
        <path class="cls-1" d="M399.26,422.37c-1.63-.45-3.78.37-5.9.98"/>
        <path class="cls-1" d="M594.68,420.52c-1.05.2-2.09.41-3.69.71.89.24,1.26.34,2.31.63-.03-.51-.04-.71-.05-.92"/>
        <line class="cls-1" x1="272.81" y1="421.48" x2="272.51" y2="422.11"/>
        <line class="cls-1" x1="665.32" y1="396.24" x2="662.76" y2="396.97"/>
        <path class="cls-1" d="M728.39,359.17c-.58.5-1.16,1-1.76,1.48l.16.24c.74-.5,1.46-1.04,2.19-1.57"/>
        <line class="cls-1" x1="417.36" y1="416.54" x2="415.49" y2="418.09"/>
        <line class="cls-1" x1="467.6" y1="400.17" x2="467.24" y2="401.42"/>
        <line class="cls-1" x1="217.16" y1="399.7" x2="215.33" y2="400.05"/>
        <path class="cls-1" d="M707.04,372.04q1.53-.3-.07,1.74c-.22-.56-.35-.9-.48-1.23"/>
        <line class="cls-1" x1="226.1" y1="394.52" x2="227.34" y2="395.17"/>
        <line class="cls-1" x1="315.14" y1="436.14" x2="311.85" y2="437.04"/>
        <path class="cls-1" d="M597.49,419.28c.35-.08.71-.15,1.6-.35-.18.39-.31.67-.45.95"/>
        <path class="cls-1" d="M609.65,417.4c.76.09,1.53.21,2.29.26"/>
        <line class="cls-1" x1="693.26" y1="383.64" x2="691.12" y2="385.89"/>
        <path class="cls-1" d="M87.24,442.04c-.36.47-.73.93-1,1.27-1.51.8-1.33-.81-3.24,1.05"/>
        <path class="cls-1" d="M160.48,413.31l.33.65c-.84.24-1.54.48-2.25.7"/>
        <line class="cls-1" x1="639.63" y1="412.1" x2="635.29" y2="414.34"/>
        <line class="cls-1" x1="105.21" y1="434.01" x2="106.13" y2="434.26"/>
        <line class="cls-1" x1="157.47" y1="413.63" x2="158.39" y2="415.35"/>
        <path class="cls-1" d="M270.73,418.37c-.02-.38-.04-.76-.08-1.32-.54-.16-.98-.28-1.4-.4.52,1.12,1.03,2.25,1.59,3.38"/>
        <line class="cls-1" x1="329.3" y1="435.43" x2="329.37" y2="436.02"/>
        <line class="cls-1" x1="650.27" y1="404.13" x2="654.51" y2="401.89"/>
        <line class="cls-1" x1="415.23" y1="418.54" x2="419.1" y2="417.17"/>
        <path class="cls-1" d="M684.69,385.23c.88.14,1.08.6-.2,1.8-.11.11.34.16.52.23"/>
        <line class="cls-1" x1="687.89" y1="383.34" x2="689.98" y2="382.52"/>
        <line class="cls-1" x1="593.2" y1="420.11" x2="590.66" y2="420.11"/>
        <path class="cls-1" d="M615.33,420.79c-1.33.35-2.65.77-4,1.05"/>
        <path class="cls-1" d="M617.18,420.47c2.25-1.18.99.21,1.94-.02"/>
        <path class="cls-1" d="M74.63,448.37c-.16.22-.33.44-.61.82,1.71-.68,3.35-1.32,5-1.97,1.15-.84,2.25-1.65,3.37-2.42"/>
        <line class="cls-1" x1="120.78" y1="423.9" x2="117.79" y2="425.49"/>
        <path class="cls-1" d="M401.49,420.57c-.61.61-1.11,1.22-1.88,1.83-.42.33-1.32.68-2,1.02"/>
        <path class="cls-1" d="M561.04,419.53c.24.38.49.74.75,1.1"/>
        <line class="cls-1" x1="174.96" y1="409.9" x2="178.1" y2="410.18"/>
        <path class="cls-1" d="M266.84,413.29c-.35-.66-.73-1.28-1.22-2.13.47.14.75.22,1.32.38,0,.8,0,1.24,0,1.69"/>
        <path class="cls-1" d="M710.51,373.93c-1.07.64-2.13,1.28-3.22,1.94-.2.38-.4.75-.59,1.12"/>
        <path class="cls-1" d="M200.61,404c-1.3.36-3.04-.1-3.96.98"/>
        <polyline class="cls-1" points="642.36 411.84 640.22 413.02 638.04 414.15"/>
        <path class="cls-1" d="M650.72,403.37c.99-.98,1.79-1.31,2.42-.93"/>
        <path class="cls-1" d="M709.01,375.05c.22.73-.68,1.76-2.49,3.05"/>
        <line class="cls-1" x1="116.77" y1="429.9" x2="119.7" y2="429.24"/>
        <path class="cls-1" d="M532.53,394.39c-.21-.16-.43-.32-.76-.56-.24.02-.47.04-.69.06"/>
        <path class="cls-1" d="M577.38,419.13c1.03.74-.98,1.37.88,2.13"/>
        <line class="cls-1" x1="316.39" y1="437.6" x2="316.84" y2="438.4"/>
        <path class="cls-1" d="M489.33,397.66c-.73-.25-1.46-.52-2.61-.87,1.96-.45,3.41-.75,4.85-1.02l-.33-.3c-.74.2-1.48.45-2.22.67"/>
        <path class="cls-1" d="M580.19,425.47c-1.06-.16-2.12-.27-3.26-.49,1.31-.41,2-.29,2.52.2"/>
        <path class="cls-1" d="M712.49,372.18c-.7.66-1.4,1.32-2.28,2.11,1.33-.23,2.3-.42,3.29-.62.05-.01.23-.14.3-.2.11-.11.17-.21.25-.31"/>
        <path class="cls-1" d="M427.66,414.55c-.69.71,1.1,1.15-2.07,2.14"/>
        <path class="cls-1" d="M267.02,413.62c.59,2.01,2.12,4.6,2.28,6.39.02.31-.14.39-.21.58"/>
        <path class="cls-1" d="M725.54,358.49c.25.06.5.12.75.19-.59.44-1.08.81-1.58,1.17"/>
        <path class="cls-1" d="M598.08,425.13c1.25-.26,2.5-.46,3.73-.78"/>
        <path class="cls-1" d="M581.53,421.82c-1.71-.16-3.43-.25-5.12-.5"/>
        <path class="cls-1" d="M702.21,378.98c1.68-.6,3.39-1.16,5.06-1.79"/>
        <path class="cls-1" d="M414.96,413.62c.14.51.08,1.12,2.15.75"/>
        <line class="cls-1" x1="412.23" y1="420.28" x2="416.11" y2="418.9"/>
        <line class="cls-1" x1="135.54" y1="418.56" x2="138.21" y2="418.26"/>
        <path class="cls-1" d="M262.53,407.47c-.96-.17-1.18-1.43-1.79-2.14-.28-.36-.54-.75-.83-1.1"/>
        <path class="cls-1" d="M302.87,438.35c-.7.6-4.21.95-.69,1.92-.98.01-1.51-.02-2.04-.03"/>
        <path class="cls-1" d="M557.76,411.39c.43.74-.79.5.67,1.83"/>
        <line class="cls-1" x1="446.81" y1="409.39" x2="450.4" y2="408.36"/>
        <line class="cls-1" x1="598.28" y1="419.92" x2="596.46" y2="419.98"/>
        <line class="cls-1" x1="610.08" y1="417.69" x2="609.12" y2="418.49"/>
        <polyline class="cls-1" points="158.46 415.58 159.1 416.02 159.84 415.68 158.78 415.35"/>
        <line class="cls-1" x1="213.07" y1="402.06" x2="210.28" y2="403.21"/>
        <path class="cls-1" d="M435.74,412.82c-.32.23-.64.46-1.27.92,1.6-.33,3-.65,4.41-.97"/>
        <path class="cls-1" d="M238.17,398.27c-1.01.16-2.01.35-3.03.55l-.43.41,1.77.05"/>
        <line class="cls-1" x1="152.73" y1="418.29" x2="156.08" y2="417.85"/>
        <path class="cls-1" d="M239.24,392.53l1.26-.89-.64-.15c-.61.29-1.22.57-1.8.88"/>
        <path class="cls-1" d="M294.54,432.18c-.67-.05-1.34-.12-2.01-.19-.65-.11-1.33-.18-1.97-.33"/>
        <line class="cls-1" x1="189.74" y1="404.76" x2="190.94" y2="404.96"/>
        <path class="cls-1" d="M735.6,349.3c-1.06.81-2.12,1.63-3.37,2.59.05-.21.12-.46.21-.83-.46.36-.85.67-1.23.98"/>
        <line class="cls-1" x1="193.96" y1="404.85" x2="190.38" y2="405.84"/>
        <line class="cls-1" x1="168.83" y1="405.99" x2="168.25" y2="406.66"/>
        <line class="cls-1" x1="164.19" y1="412.73" x2="164.6" y2="414.11"/>
        <path class="cls-1" d="M261.4,402.32c-.35-.19-.68-.35-1.03-.55-.66-.35-1.38-.66-2.05-.97"/>
        <line class="cls-1" x1="549.43" y1="406.54" x2="548.35" y2="406.05"/>
        <line class="cls-1" x1="663.67" y1="403.3" x2="665.5" y2="402.72"/>
        <path class="cls-1" d="M436.62,410.75c-.1.12-.2.24-.48.55.63-.28.94-.42,1.26-.56"/>
        <path class="cls-1" d="M480.5,393.74c2.99.19-.66.76-1.24,1.19"/>
        <line class="cls-1" x1="695.87" y1="381.49" x2="694.73" y2="381.76"/>
        <line class="cls-1" x1="100.12" y1="436.27" x2="100.66" y2="436.55"/>
        <path class="cls-1" d="M395.78,425.37c1.38.4,2.61.13,3.63-.92"/>
        <line class="cls-1" x1="630" y1="414" x2="627.87" y2="413.49"/>
        <line class="cls-1" x1="636.81" y1="410.12" x2="637.98" y2="410.04"/>
        <path class="cls-1" d="M459.93,398.46c-.49.08-.98.16-1.42.23-.22.26-.42.5-.62.74"/>
        <line class="cls-1" x1="314.93" y1="437.97" x2="314.6" y2="438.48"/>
        <line class="cls-1" x1="699.29" y1="376.42" x2="700.17" y2="376.43"/>
        <line class="cls-1" x1="697.9" y1="375.59" x2="698.16" y2="376"/>
        <line class="cls-1" x1="143.07" y1="414.04" x2="143.7" y2="414.71"/>
        <path class="cls-1" d="M157.4,409.62c-.85.44-1.7.88-2.82,1.45-.03,0-.35-.04-.68-.08"/>
        <path class="cls-1" d="M271.91,426.23c-.62-.9-1.11-1.82-1.65-2.73"/>
        <path class="cls-1" d="M566.37,424.57c-.5-.25-1-.49-1.5-.76"/>
        <polyline class="cls-1" points="114.08 433.08 115.44 432.5 115.42 432.38 113.69 433.11"/>
        <line class="cls-1" x1="668.29" y1="397.74" x2="666.19" y2="399.33"/>
        <line class="cls-1" x1="635.3" y1="409.3" x2="638.11" y2="408.44"/>
        <line class="cls-1" x1="635.85" y1="416.84" x2="637.3" y2="416.39"/>
        <line class="cls-1" x1="461.81" y1="399.33" x2="461.26" y2="400.03"/>
        <line class="cls-1" x1="548.81" y1="409.26" x2="548.47" y2="409.6"/>
        <path class="cls-1" d="M518.54,392.93c-.34-.34-.68-.68-1.04-1.04-1.58.1-.41,1.14-3.03.68"/>
        <path class="cls-1" d="M90.45,439.27c.44-.21.88-.44,1.33-.64l.17.32c-.68.31-1.35.65-2.02.97"/>
        <path class="cls-1" d="M323.64,431.58c.49-.01.99-.02,1.64-.04-.31.16-.58.3-.86.44"/>
        <path class="cls-1" d="M207.1,398.68c-.97.22-1.93.49-2.9.73"/>
        <path class="cls-1" d="M97.99,436.06c-.79.41-1.58.81-2.36,1.21.34.33.59.57.83.81"/>
        <path class="cls-1" d="M374.41,429.18c-.23.21-.46.41-.8.72.46,0,.9.02,1.34.03"/>
        <line class="cls-1" x1="528.57" y1="392.95" x2="527.73" y2="393.08"/>
        <line class="cls-1" x1="553.81" y1="408.59" x2="553.96" y2="409.46"/>
        <line class="cls-1" x1="588.51" y1="421.14" x2="588.15" y2="421.62"/>
        <path class="cls-1" d="M584.83,422.32c-.59.28-1.18.59-2.2.99,1.1.15,2.01.15,2.92.21"/>
        <line class="cls-1" x1="83.11" y1="444.58" x2="86.71" y2="443.49"/>
        <path class="cls-1" d="M222.35,394.78c-.47.2-.94.4-1.06.45.09.52.16.96.24,1.39"/>
        <line class="cls-1" x1="359.71" y1="427.58" x2="357.01" y2="429.39"/>
        <path class="cls-1" d="M276.18,419.84c-.14.58-2-.76-.06,2.14"/>
        <line class="cls-1" x1="718.28" y1="368.07" x2="719.16" y2="368.03"/>
        <path class="cls-1" d="M480.52,392.25c-.1.11-.21.22-.32.34l-.75.05"/>
        <path class="cls-1" d="M283.34,433.27c.31.17.63.34.94.51.32.15.61.29.85.43.47.29.7.57.37.83"/>
        <path class="cls-1" d="M727.5,356.21c-.02.37-.04.75-.07,1.14,1.23-.62,2.48-1.24,3.72-1.87"/>
        <line class="cls-1" x1="78.72" y1="443.28" x2="78.6" y2="443.88"/>
        <line class="cls-1" x1="98.16" y1="433.74" x2="95.31" y2="435.57"/>
        <polyline class="cls-1" points="626.23 417.94 624.94 418.86 625.8 419.09"/>
        <path class="cls-1" d="M172.77,406.14l-1.21-.17c-.6.16-1.21.32-1.8.5"/>
        <line class="cls-1" x1="325.54" y1="435.36" x2="324.47" y2="435.83"/>
        <line class="cls-1" x1="302.11" y1="435.72" x2="301.74" y2="436.2"/>
        <path class="cls-1" d="M264.6,401.53c-.02.55-.04,1.09-.07,1.62"/>
        <path class="cls-1" d="M293.95,433.67c-.89.35-1.82.74-2.76,1.02"/>
        <path class="cls-1" d="M530.96,396.51c-1-.12-1.97-.29-2.97-.36"/>
        <line class="cls-1" x1="410.09" y1="415.4" x2="408.66" y2="415.78"/>
        <path class="cls-1" d="M510.54,388.94l-1.54-.05-.19.14,1.72.27c.79-.62,2.12-.36,3.48-.02"/>
        <path class="cls-1" d="M550.42,405.49c-.91-.57-2.12-1.95-2.68-1.6"/>
        <path class="cls-1" d="M692.6,384.73c1.54-.81,3.06-1.67,4.59-2.5"/>
        <path class="cls-1" d="M526.14,396c-.51-.02-1-.07-1.85-.05.88.26,1.45.52,2.04.73"/>
        <path class="cls-1" d="M241.62,393.76c-.25.17-.51.33-.71.47.64.12,1.25.22,1.86.36"/>
        <line class="cls-1" x1="336.69" y1="431.49" x2="335.69" y2="432.47"/>
        <line class="cls-1" x1="531.83" y1="397.33" x2="530.98" y2="397.53"/>
        <line class="cls-1" x1="736.7" y1="348.33" x2="737.99" y2="348.13"/>
        <line class="cls-1" x1="113.61" y1="426.13" x2="115.04" y2="425.68"/>
        <line class="cls-1" x1="187.19" y1="402.16" x2="185.4" y2="402.72"/>
        <path class="cls-1" d="M275.96,420.39c.5.8,1.01,1.6,1.56,2.34"/>
        <path class="cls-1" d="M329.93,431.24c-.76.27-1.53.54-2.06.73-.4.69,3.33-.4,1.85.62"/>
        <line class="cls-1" x1="346.82" y1="429.08" x2="348.69" y2="429.04"/>
        <line class="cls-1" x1="365.84" y1="426.09" x2="364.36" y2="426.25"/>
        <path class="cls-1" d="M650.19,407.37l.47.04c-.23.16-.44.3-.65.44"/>
        <path class="cls-1" d="M661.11,401.7c1.06-.39,2.11-.78,3.66-1.35-.37-.24-.63-.4-.89-.57"/>
        <path class="cls-1" d="M181.68,407.74c.37-.06.74-.11,1.39-.21-.61.34-1.1.61-1.59.89"/>
        <line class="cls-1" x1="147.06" y1="415.33" x2="147.92" y2="415.54"/>
        <line class="cls-1" x1="626.32" y1="413.49" x2="623.92" y2="414.4"/>
        <line class="cls-1" x1="68.66" y1="452.18" x2="67.86" y2="453.03"/>
        <line class="cls-1" x1="117.82" y1="424.57" x2="114.44" y2="426.18"/>
        <path class="cls-1" d="M485.88,395.43c.38.08.76.17,1.42.31.3-.37.51-.63.72-.89"/>
        <line class="cls-1" x1="112.02" y1="432" x2="112.73" y2="432.74"/>
        <line class="cls-1" x1="724.31" y1="364.93" x2="722.97" y2="365.64"/>
        <path class="cls-1" d="M423.64,414.15c-.19.23-.39.45-.63.74-.37.01-.72.03-1.08.04"/>
        <path class="cls-1" d="M511.2,391.24c-.44.26-.89.51-1.4.8-.87,0-1.99,0-3.1.06"/>
        <path class="cls-1" d="M271.99,419.37c-.29-.41-.56-.82-.84-1.24"/>
        <line class="cls-1" x1="665.99" y1="398.21" x2="664.57" y2="398.71"/>
        <path class="cls-1" d="M490.76,395.43c.03-.53.09-1.07.03-1.59,0-.04-.92.09-1.42.14"/>
        <line class="cls-1" x1="595" y1="424.83" x2="593.5" y2="425.14"/>
        <line class="cls-1" x1="666.4" y1="397.42" x2="667.82" y2="396.91"/>
        <line class="cls-1" x1="361.53" y1="429.34" x2="361.68" y2="430.17"/>
        <path class="cls-1" d="M632.9,414.35c-1.69.7-3.36,1.47-5.08,2.12l-.24-.14c.45-.31.9-.6,1.35-.92"/>
        <path class="cls-1" d="M689.17,381.88c.52.13,1.04.25,1.5.36.43-.26.59-.33.63-.38.04-.05-.08-.06-.04-.11.15-.19.33-.39.5-.58"/>
        <path class="cls-1" d="M302.1,438.6c-.38-.11-.76-.24-1.41-.46.36-.12.73-.24.99-.32,1.18.18,1.95.3,2.71.39"/>
        <path class="cls-1" d="M566.6,422.5c.45.32.91.61,1.37.92"/>
        <path class="cls-1" d="M88.47,441.17l-.49-.16c-.19.18-.59.48-.52.52.18.1.54.09.84.13"/>
        <line class="cls-1" x1="369.69" y1="428.42" x2="367.33" y2="429.97"/>
        <path class="cls-1" d="M75.95,446.87c1.41.11.59,1.14-.49,2.28"/>
        <line class="cls-1" x1="535.55" y1="400.51" x2="534.23" y2="400"/>
        <line class="cls-1" x1="592" y1="425.46" x2="590.12" y2="426.39"/>
        <polyline class="cls-1" points="62.17 454.24 63.67 454.64 64.39 454.17 63.32 454.01"/>
        <line class="cls-1" x1="66.25" y1="452.41" x2="67.46" y2="452.29"/>
        <path class="cls-1" d="M100.38,437.74l.73.72c-.62.42-1.25.83-2.23,1.49.05-.34.08-.56.11-.79"/>
        <polyline class="cls-1" points="427.34 413.52 425.63 414.21 425.46 413.97 427.66 413.29"/>
        <path class="cls-1" d="M192.76,406.25c0,.17,0,.33,0,.62-.67-.02-1.02-.03-1.38-.04"/>
        <line class="cls-1" x1="390.52" y1="422.67" x2="389.02" y2="422.78"/>
        <line class="cls-1" x1="551.98" y1="413.33" x2="550.79" y2="412.4"/>
        <line class="cls-1" x1="667.28" y1="400.51" x2="667.74" y2="401.35"/>
        <path class="cls-1" d="M267.16,407.92c-.92-.92-1.93-1.77-2.91-2.6"/>
        <path class="cls-1" d="M174.36,411.93c-.07-.27-.15-.54-.22-.78,1.31-.31,2.28-.54,3.24-.77"/>
        <path class="cls-1" d="M134.67,422.72c.96-.31,1.91-.63,2.87-.92l.14.19c-.49.21-.97.44-1.45.66"/>
        <path class="cls-1" d="M521.03,395.67c.8.29,1.57.67,2.35,1"/>
        <path class="cls-1" d="M554.3,415.91c-.39-.25-.78-.49-1.98-1.31.67,1,1.12,1.64,1.6,2.27"/>
        <line class="cls-1" x1="102.73" y1="432.98" x2="103.61" y2="433.13"/>
        <path class="cls-1" d="M641.12,412.76c1.71-.49,3.42-.98,5.1-1.46-.03.26-.05.49-.08.72"/>
        <path class="cls-1" d="M142.48,415.77c2.22.42,2.23.43,1.6,1.22"/>
        <polyline class="cls-1" points="109.27 431.22 104.54 432.89 103.87 432.64 103.07 433.75"/>
        <path class="cls-1" d="M528.03,392.05l-2.13.52c-.11-.07-.3-.14-.33-.2-.04-.09.02-.16.04-.24"/>
        <path class="cls-1" d="M619.43,415.99c.02.2.03.4.05.62-.23.09-.57.23-.92.37"/>
        <line class="cls-1" x1="614.96" y1="422.49" x2="613.54" y2="423.08"/>
        <line class="cls-1" x1="228.98" y1="398.42" x2="227.56" y2="398.9"/>
        <line class="cls-1" x1="310.38" y1="437.4" x2="308.89" y2="437.63"/>
        <polyline class="cls-1" points="328.36 433.73 328.41 434.2 329.51 433.95"/>
        <line class="cls-1" x1="386.92" y1="421.93" x2="388.19" y2="422.49"/>
        <line class="cls-1" x1="451.96" y1="408.31" x2="449.24" y2="409.54"/>
        <path class="cls-1" d="M146.09,414.77l-1.26.94.18.16c1.35-.56,2.69-1.12,4.08-1.64.17-.38.3-.68.5-1.1-1.17.18-2.37.35-3.85.63.32.34.48.5.63.66"/>
        <line class="cls-1" x1="153.87" y1="412.13" x2="154.91" y2="412.93"/>
        <line class="cls-1" x1="513.42" y1="391.76" x2="512.61" y2="392.54"/>
        <line class="cls-1" x1="448.07" y1="406.27" x2="448.43" y2="407.28"/>
        <path class="cls-1" d="M267.25,409.2c.26-.83.65-1.49,2.28,1.29"/>
        <path class="cls-1" d="M185.51,401.58c-2.21.82-.63.87-.1,1.14"/>
        <path class="cls-1" d="M282.39,426.84c-.21-.08-.44-.13-.64-.24"/>
        <line class="cls-1" x1="290.03" y1="434.77" x2="289.45" y2="435.46"/>
        <path class="cls-1" d="M565.85,416.33c-.3-.13-.58-.27-.88-.4"/>
        <line class="cls-1" x1="196.55" y1="404.51" x2="195.4" y2="404.51"/>
        <line class="cls-1" x1="633.86" y1="409.62" x2="633.27" y2="410.12"/>
        <path class="cls-1" d="M689.85,383.01c.89-.21,1.79-.42,2.87-.67-.52.39-.94.71-1.35,1.02"/>
        <line class="cls-1" x1="280.57" y1="425.04" x2="280.53" y2="425.52"/>
        <line class="cls-1" x1="514.85" y1="388.5" x2="515.2" y2="388.89"/>
        <line class="cls-1" x1="688.68" y1="381.06" x2="689.44" y2="380.88"/>
        <line class="cls-1" x1="718.39" y1="361.82" x2="718.3" y2="362.32"/>
        <path class="cls-1" d="M162.76,413.14c-.1.11-.21.23-.28.33-.03.05.02.08.03.12"/>
        <path class="cls-1" d="M364.89,431.16c.3.06.6.11.92.17.59-.18,1.31-.39,2.04-.6"/>
        <line class="cls-1" x1="253.11" y1="399.46" x2="252.92" y2="399.9"/>
        <path class="cls-1" d="M725.67,359.89c.05.06.13.1.13.2,0,.06-.14.2-.21.31"/>
        <line class="cls-1" x1="422.26" y1="410.93" x2="422.48" y2="411.62"/>
        <polyline class="cls-1" points="94.59 436.69 95.08 436.86 95.27 436.38"/>
        <line class="cls-1" x1="129.26" y1="422.05" x2="129.74" y2="422.26"/>
        <line class="cls-1" x1="593.88" y1="419.36" x2="593.54" y2="419.73"/>
        <line class="cls-1" x1="286.57" y1="430.24" x2="287.35" y2="430.88"/>
        <line class="cls-1" x1="659.02" y1="402.52" x2="659.79" y2="402.39"/>
        <line class="cls-1" x1="118.81" y1="427.02" x2="117.73" y2="427.32"/>
        <polyline class="cls-1" points="524.68 391.06 524.81 390.47 523.98 390.21 522.79 390.63"/>
        <line class="cls-1" x1="195.18" y1="405.18" x2="197.12" y2="405.36"/>
        <line class="cls-1" x1="726.34" y1="356.51" x2="726.85" y2="356.57"/>
        <path class="cls-1" d="M306.5,434.88c0,.12.14.26,0,.36-.41.27-.94.54-1.42.79"/>
        <line class="cls-1" x1="113.77" y1="431.38" x2="114.62" y2="432.46"/>
        <line class="cls-1" x1="640.89" y1="407.5" x2="639.84" y2="407.83"/>
        <path class="cls-1" d="M423.57,411.41c.02.08.09.14.06.23-.02.06-.2.15-.3.22"/>
        <path class="cls-1" d="M210.13,400.55c-.26.16-.52.32-.74.47.35.14.63.25.91.36"/>
        <line class="cls-1" x1="466.65" y1="402" x2="467.7" y2="401.65"/>
        <line class="cls-1" x1="270.98" y1="411.85" x2="270.43" y2="410.86"/>
        <polyline class="cls-1" points="391.66 422.65 391.25 423.26 390.51 423.33 391.24 422.5"/>
        <line class="cls-1" x1="86.89" y1="443.01" x2="87.59" y2="443.6"/>
        <path class="cls-1" d="M486.14,394.88c1.34-.23,2.7-.37,4.04-.56"/>
        <line class="cls-1" x1="655.41" y1="406.14" x2="654.51" y2="406.85"/>
        <path class="cls-1" d="M294.02,435.5c-.37,0-.74-.05-1.11-.08"/>
        <line class="cls-1" x1="728.98" y1="359.93" x2="728.54" y2="360.58"/>
        <line class="cls-1" x1="710.22" y1="368.79" x2="711.34" y2="368.47"/>
        <path class="cls-1" d="M102.05,431.45c-.34.14-.69.3-1.03.45"/>
        <line class="cls-1" x1="135.02" y1="418.24" x2="133.97" y2="418.63"/>
        <line class="cls-1" x1="708.04" y1="374.25" x2="706.97" y2="374.66"/>
        <path class="cls-1" d="M556.35,410.27c.02.14.08.31.06.41,0,.03-.21-.11-.32-.17"/>
        <line class="cls-1" x1="685.09" y1="384.44" x2="682.7" y2="386.24"/>
        <path class="cls-1" d="M488.48,395.26c.48-.09.96-.19,1.45-.28l-.43-.28"/>
        <line class="cls-1" x1="99.72" y1="434.47" x2="97.47" y2="437.62"/>
        <path class="cls-1" d="M290.29,432.58c.32.11.66.19.99.27"/>
        <line class="cls-1" x1="347.97" y1="429.27" x2="346.89" y2="429.56"/>
        <path class="cls-1" d="M494.91,393.44l2.17-.64-.76-.17c.74-.06,1.48-.09,2.22-.1"/>
        <path class="cls-1" d="M145.67,419.36c-.26,0-.52.01-1.16.02-.14.49-.24.88-.35,1.26"/>
        <line class="cls-1" x1="731.4" y1="353.43" x2="731.78" y2="353.9"/>
        <line class="cls-1" x1="116.57" y1="425.46" x2="117.62" y2="426.07"/>
        <line class="cls-1" x1="105.47" y1="431.81" x2="104.93" y2="432.43"/>
        <path class="cls-1" d="M663.31,397.21c-.65.71-.73,1.58-3.28,2,.98-.81,1.85-1.52,2.72-2.24"/>
        <line class="cls-1" x1="61.6" y1="451.67" x2="62.37" y2="451.52"/>
        <line class="cls-1" x1="112.67" y1="430.68" x2="113.45" y2="430.61"/>
        <line class="cls-1" x1="307.19" y1="434.13" x2="309.07" y2="434.85"/>
        <path class="cls-1" d="M295.64,437.54c.16.13.32.26.82.67-1.35-.46-2.02-.79-2.7-1.05"/>
        <line class="cls-1" x1="738.62" y1="347.73" x2="739.14" y2="347.76"/>
        <line class="cls-1" x1="172.17" y1="406.8" x2="171.51" y2="407.22"/>
        <line class="cls-1" x1="649.34" y1="409.09" x2="650.76" y2="408.56"/>
        <path class="cls-1" d="M177.45,407.75c-.27-.05-.54-.1-1.08-.21.95-.25,1.68-.45,2.4-.64"/>
        <path class="cls-1" d="M309.16,436.05c-.12.09-.28.18-.33.26-.02.03.23.06.36.1"/>
        <line class="cls-1" x1="95.45" y1="434.98" x2="94.92" y2="435.62"/>
        <path class="cls-1" d="M509.68,391.55c-1.97-.46-.79.2-1.13.32"/>
        <line class="cls-1" x1="361.21" y1="427.57" x2="360.14" y2="427.88"/>
        <line class="cls-1" x1="95.47" y1="436.82" x2="96.3" y2="436.83"/>
        <line class="cls-1" x1="268.35" y1="409.42" x2="268.72" y2="410.52"/>
        <path class="cls-1" d="M113.9,427.82c-.22-.13-.44-.27-.66-.41-.54.36-.87.58-1.2.8"/>
        <path class="cls-1" d="M374.51,425.97c-.49-.08-.98-.15-1.76-.28-.43.07-1.4.23-2.38.39"/>
        <line class="cls-1" x1="452" y1="405.11" x2="450.99" y2="405.6"/>
        <path class="cls-1" d="M291.41,435.36c-.14.05-.32.08-.4.15-.03.02.2.13.31.2"/>
        <line class="cls-1" x1="277.38" y1="429.5" x2="277.68" y2="430.33"/>
        <path class="cls-1" d="M225.94,398.2c-.37.13-.74.27-1.2.44.74.1,1.41.18,2.07.27"/>
        <line class="cls-1" x1="431.42" y1="410.43" x2="430.29" y2="410.55"/>
        <path class="cls-1" d="M730.59,357.75c-.16.26-.31.53-.58.98l-1.4.12"/>
        <line class="cls-1" x1="254.55" y1="397.08" x2="253.76" y2="397"/>
        <line class="cls-1" x1="185.59" y1="405.02" x2="186.37" y2="405.08"/>
        <line class="cls-1" x1="264.72" y1="409.45" x2="264.04" y2="408.6"/>
        <line class="cls-1" x1="624.01" y1="418.41" x2="624.83" y2="418.52"/>
        <line class="cls-1" x1="378.15" y1="425.23" x2="378.95" y2="425.42"/>
        <line class="cls-1" x1="729.78" y1="357.92" x2="728.61" y2="358.84"/>
        <line class="cls-1" x1="481.59" y1="398.04" x2="480.53" y2="398.31"/>
        <line class="cls-1" x1="365.03" y1="427.83" x2="363.96" y2="428.16"/>
        <path class="cls-1" d="M626.06,419.89c.39-.34.78-.69,1.24-1.09-.55.12-1.14.25-2.56.56.95.05,1.26.06,1.57.08"/>
        <line class="cls-1" x1="658.69" y1="405.13" x2="661.24" y2="404.34"/>
        <line class="cls-1" x1="688.72" y1="388.43" x2="689.69" y2="387.86"/>
        <line class="cls-1" x1="543" y1="400.72" x2="542.91" y2="401.53"/>
        <line class="cls-1" x1="401.79" y1="418.76" x2="402.6" y2="418.92"/>
        <path class="cls-1" d="M563.04,419.92c-.27-.03-.53-.09-.79-.13"/>
        <line class="cls-1" x1="717.91" y1="370.83" x2="715.77" y2="371.69"/>
        <path class="cls-1" d="M184.9,408.4c-.44.27-.88.53-1.32.82"/>
        <path class="cls-1" d="M522.01,396.24c-.62.09-1.26.25-1.88.38"/>
        <line class="cls-1" x1="657.47" y1="406.04" x2="656.91" y2="406.6"/>
        <path class="cls-1" d="M564.69,420.92c.64.12,1.28.25,2.11.35.13.24.26.45.38.67"/>
        <line class="cls-1" x1="187.45" y1="407.9" x2="188.61" y2="407.99"/>
        <line class="cls-1" x1="212.67" y1="397.99" x2="212.01" y2="398.48"/>
        <line class="cls-1" x1="214.87" y1="397.57" x2="215.67" y2="397.78"/>
        <line class="cls-1" x1="260.96" y1="403.24" x2="260.29" y2="402.89"/>
        <line class="cls-1" x1="679.47" y1="394.05" x2="679.56" y2="394.97"/>
        <path class="cls-1" d="M628.72,413.7c-.09.12-.22.25-.25.35,0,.03.24,0,.36,0"/>
        <path class="cls-1" d="M288.43,436.15c-.41,0-.83,0-1.23-.04"/>
        <line class="cls-1" x1="602.34" y1="420.02" x2="601.66" y2="420.49"/>
        <polyline class="cls-1" points="442.3 412.36 442.77 411.68 443.46 411.2 444.39 411.52"/>
        <line class="cls-1" x1="747.86" y1="340.35" x2="748.79" y2="339.71"/>
        <line class="cls-1" x1="650.25" y1="410.12" x2="651.33" y2="409.75"/>
        <line class="cls-1" x1="343.31" y1="435.91" x2="345.6" y2="436.07"/>
        <line class="cls-1" x1="170.92" y1="407.88" x2="171.71" y2="407.92"/>
        <path class="cls-1" d="M480.16,399.78c.24-.18.48-.36.73-.54-.49.02-.86.04-1.24.06"/>
        <path class="cls-1" d="M170.63,410.96c-.1.11-.24.23-.27.33-.01.03.24.01.37.02"/>
        <path class="cls-1" d="M492.46,396.73c-.11.1-.23.2-.31.29-.03.04,0,.08.01.12"/>
        <path class="cls-1" d="M669.73,398.04c-.07.13-.18.28-.19.38,0,.04.23-.04.36-.07"/>
        <line class="cls-1" x1="665.28" y1="403.11" x2="666.27" y2="402.57"/>
        <path class="cls-1" d="M291.35,439.28c-.4-.07-.81-.19-1.21-.28"/>
        <path class="cls-1" d="M239.08,395.91c-.24-.14-.48-.29-.92-.56-.54.35-.91.61-1.28.87.49-.06.98-.09,1.47-.13"/>
        <path class="cls-1" d="M618.98,418.49c.23.17.47.35.9.67.16-.27.23-.39.3-.51"/>
        <line class="cls-1" x1="677.9" y1="392.05" x2="685.11" y2="390.39"/>
        <path class="cls-1" d="M143.34,420.55c.04.11.06.23.15.33,0,0,.11-.03.25-.08.14-.05.3-.11.42-.15"/>
        <path class="cls-1" d="M472.41,400.65c-.93.32-1.85.65-2.73.95-.42-.09-.87-.19-1.32-.3"/>
        <line class="cls-1" x1="558.36" y1="410.8" x2="558.84" y2="411.79"/>
        <polyline class="cls-1" points="558.35 411.3 557.92 411.34 558.26 411.77 558.84 411.79"/>
        <line class="cls-1" x1="295.15" y1="432.75" x2="295.08" y2="433.23"/>
        <path class="cls-1" d="M142.76,421.13c-1.12.59-2.24,1.17-3.46,1.81-.56.13-1.29.3-2.01.47"/>
        <line class="cls-1" x1="662.13" y1="403.6" x2="661.24" y2="404.34"/>
        <line class="cls-1" x1="249.48" y1="398.9" x2="248.39" y2="399.28"/>
        <line class="cls-1" x1="738.65" y1="347.22" x2="737.99" y2="348.13"/>
        <path class="cls-1" d="M728.09,356.36c.02-.27.05-.53.1-1.02.28.03.41.04.55.06"/>
        <line class="cls-1" x1="180.17" y1="404.91" x2="182.91" y2="405.05"/>
        <line class="cls-1" x1="665.65" y1="402.22" x2="666.88" y2="402.1"/>
        <path class="cls-1" d="M462.14,404.81c-.19.19-.39.39-.57.57-.86.52-1.59-.48-2.49.76"/>
        <line class="cls-1" x1="61.41" y1="452.87" x2="59.89" y2="453.98"/>
        <line class="cls-1" x1="544" y1="406.76" x2="544.66" y2="407.58"/>
        <line class="cls-1" x1="519.14" y1="391.45" x2="519.07" y2="391.92"/>
        <path class="cls-1" d="M681.58,391.74c.11.08.23.16.4.28-.05.08-.21.3-.37.53"/>
        <path class="cls-1" d="M345.39,429.55c-.49.15-.98.29-1.84.54.87-.02,1.39-.04,1.91-.06"/>
      </g>
    </g>
  </g>
</svg>