<?xml version="1.0" encoding="UTF-8"?>
<svg xmlns="http://www.w3.org/2000/svg" version="1.1" viewBox="0 0 800 800">
  <defs>
    <style>
      .cls-1 {
        fill: none;
        stroke: #fff;
        stroke-linecap: round;
        stroke-linejoin: round;
        stroke-width: 2px;
      }
    </style>
  </defs>
  <g>
    <g id="Layer_2">
      <g>
        <path class="cls-1" d="M512.58,465.13c.44-.91.88-1.82,1.5-3.09,4.45-1.77,7.67-3.05,10.89-4.33l-1.69,1.33-.23-.34"/>
        <path class="cls-1" d="M363.74,294.81c-6.01,3.01-4.02,3.41-7.64,5.89-.49,0-1.01.01-1.53.02"/>
        <path class="cls-1" d="M188.13,412.66c-1.44,1.62-2.87,3.24-4.12,4.65.43.64,3.04-.88-.12,2.82"/>
        <path class="cls-1" d="M674.63,301.58c.71-.59,1.41-1.2,1.86-1.62,1.64-3.74,2.81-6.89,3.89-10.38-.06-2.34-1.05-.59-1.97.95-.95,1.54-1.9,2.87-1.71.01-1.75,2.5-2.97,7.71-4.8,12.12"/>
        <path class="cls-1" d="M120.65,538.39c-.16.89-.22,1.78-.33,2.71.45,1.17.94,2.24,1.3,3.28.45,1.01.77,2.01,1.16,2.94.39.92.73,1.83,1.05,2.73.29.91.72,1.72,1.05,2.58"/>
        <path class="cls-1" d="M415.16,266.55c1.45-.66,2.9-1.33,5.27-2.42-3.92.36,4.35-3.84,3.76-4.95-.63.18-1.92.54-3.21.9l-1.11.64,1.07.41"/>
        <path class="cls-1" d="M442.78,575.42l-2.25.19v-.21c2.25-.41,4.49-.9,6.71-1.35,2.95-.14,5.64-.27,7.96-.39,2.77-.55,5.23-1.08,7.45-1.58.74-.33,1.45-.64,2.17-.96"/>
        <path class="cls-1" d="M638.95,216.9c-.99-.35-1.99-.69-3.01-.98h-.9c.73.38,1.47.73,2.18,1.12l2.13,1.19.19-.28c2.96.76,5.92,1.62,8.93,2.83.52.7.77,1.04,1.02,1.38"/>
        <path class="cls-1" d="M462.62,578.43c3.53-.2,7.13-.74,10.83-1.76.08-.02.49-.02.66,0,.1.01.03.07.04.11"/>
        <path class="cls-1" d="M447.54,248.49c-.32.47-.63.94-1.08,1.61-1.08.59-2.96,1.69-5.33,3.07-1.32.53-3.45,1.38-5.39,2.15-1.23-.1,4.66-3.83-3.94-.04-.09.52-1.51,1.54-2.54,2.42-1.02.89-1.64,1.63-.18,1.54"/>
        <path class="cls-1" d="M666,317.57c1.32-1.74,2.63-3.5,4.2-5.75.1-1.01.18-1.76.26-2.52"/>
        <path class="cls-1" d="M120.05,528.56c-.26-.92-.55-1.85-.86-3.16.35-2.44.81-4.34.97-5.04.8.1,1.4.18,2,.26-.13.41-.26.98-.42,1.56"/>
        <path class="cls-1" d="M678.08,238.82c-.32-.22-.63-.45-1.3-.93-.24-1.1-.42-1.65-.62-2.44-1.18-1.28-2.46-2.33-3.64-3.4"/>
        <path class="cls-1" d="M682.4,288.19c.61-.18,1.22-.36,1.98-.58.21-3.48.09-6.16.05-9.11-.06-1.02.13-2.76.14-4.17"/>
        <path class="cls-1" d="M387.42,582.56c1.99-.4,3.99-.79,6.25-1.24,1.46.58,2.41.96,3.49,1.39,1.35-.3,2.62-.59,3.88-.87"/>
        <path class="cls-1" d="M524.9,460.21c.63-.28,1.32-.48,1.89-.86,2.27-1.53,4.49-3.13,6.73-4.7"/>
        <path class="cls-1" d="M562.9,211.29c-2.24.88-4.43,1.87-6.74,2.87.95-.11,1.66-.19,2.37-.26"/>
        <path class="cls-1" d="M198.75,588.34c.02-.12.03-.24.05-.38,3.16.47,5.83,1.81,8.43,1.4.51-.9.88-1.55,1.24-2.2l1.21.14-1.06-1.19"/>
        <path class="cls-1" d="M581.85,413.15c1-.5,2-.99,3.96-1.98.07-.85.1-1.24.13-1.63"/>
        <path class="cls-1" d="M390.73,588.15c1.55-.01,3.09,0,5.41-.07,1.66-.74,3.17-1.42,4.68-2.1"/>
        <path class="cls-1" d="M658.5,331.16c-.33.9-.67,1.79-1.06,2.84-1.32,1.24-2.28,2.14-3.24,3.05l.08.36c-.89,1.29-1.73,2.61-2.66,3.87l-2.82,3.76"/>
        <path class="cls-1" d="M258.18,591.31c-4.48.15-8.9.24-9.18,1.34-.09.34-3.28.59-5.09.88,3.26.64,4.24-.04,6.02-.26"/>
        <polyline class="cls-1" points="536.88 217.7 535.64 217.46 537.47 216.98 536.41 218.12 535.27 218.42 539.53 219.57"/>
        <path class="cls-1" d="M295.92,337.82c-.05.37-.09.75-.15,1.2-1.33.73-2.12,1.16-3.8,2.07,1.28-1.16,2.3-2.07,3.31-2.99"/>
        <path class="cls-1" d="M629.22,211.35c-.79-.39-1.58-.81-2.28-1.12-2.58-.29-4.88-.48-7.29-.61-1.07-.22-2.11-.44-3.15-.66-1.04-.19-2.09-.38-3.17-.56-1.09-.17-2.22-.32-3.42-.42-1.21-.06-2.49-.06-3.89,0-1.57-.38-3.15-.82-4.74-1.13"/>
        <path class="cls-1" d="M156.44,575.18l-.76.07c-.55-.4-1.1-.82-1.63-1.27-2.84-1.6-7.67-3.6-9.78-5.93-.69-.8-1.53-1.67-2.29-2.5"/>
        <path class="cls-1" d="M193.17,588.51c-1.06.19-2.12.41-3.82.67,1.96.24,2.81.3,3.64.39.07,0,.1-.07,0-.11-.15-.07-.42-.15-.65-.22"/>
        <path class="cls-1" d="M132.21,556.18c-.85-1.5-1.72-3.01-2.86-4.4-.97-1.5-2.2-2.9-3.14-4.49"/>
        <path class="cls-1" d="M131.14,479.74c2.16-2.87,4.48-5.36,6.47-9.03"/>
        <path class="cls-1" d="M491.95,238.31c-2.38.78-4.77,1.56-7.56,2.47-.01.16-.02.34-.04.52"/>
        <path class="cls-1" d="M386.79,278.54c1.48-.61,2.93-1.15,4.45-1.83,4.36-1.92,8.92-3.52,12.87-6.34"/>
        <path class="cls-1" d="M385.69,585.86c-.4.7.25,1.23,3.54,1.35,1.4.05,2.51.2,4.61.38,1.22-.7,2.37-1.36,3.53-2.03h-1.32c-1.36.43-2.72.86-4.08,1.25"/>
        <path class="cls-1" d="M536.03,451.05c-4.61,2.75-3.05.63-4.26.71-1.11.08-1.02-.74,1.73-3.08.39-.33-.16-.35-.27-.52"/>
        <path class="cls-1" d="M357.02,586.86c.89-.26,2.72-.72,2.54-.75-2.31-.32-4.91-.57-7.43-.85"/>
        <path class="cls-1" d="M619.96,377.36c-.2-.2-.4-.39-.61-.6-.9.97-1.68,1.81-2.41,2.6-.75.76-1.45,1.46-2.14,2.15l-.39-.14c.96-.95,1.97-1.85,2.9-2.83"/>
        <path class="cls-1" d="M649.47,217.52c.62.54,1.25,1.04,1.89,1.65.64.61,1.33,1.27,2.13,2.03,1.22.39,2.37.81,3.51,1.21,1.11.46,2.18.91,3.25,1.36,1.4.99,2.93,1.99,4.32,3.17"/>
        <path class="cls-1" d="M146.73,567.85c.99.89,2,1.77,3.07,2.59,1.05.84,2.12,1.69,3.24,2.46"/>
        <path class="cls-1" d="M632.38,370.36c2.01-2.67,4.09-5.27,6.29-8.35.52-.67,1.47-1.9,2.41-3.12.16-.21.35-.54.32-.57-.03-.03-.32.26-.49.41"/>
        <path class="cls-1" d="M130.35,556.08l1.37.6-.82-1.07c-1.07-.4-1.84-1-3.05-2.43-.58-.73-1.16-1.74-1.93-3.03-.41-.63-.69-1.43-1.1-2.28-.39-.86-.83-1.8-1.19-2.9"/>
        <path class="cls-1" d="M678.86,259c.15-2.26.19-4.55.07-6.93,0-.06-.3-.8-.6-1.45-.36.23-.74.47-1.2.75.32.71.54,1.45.8,2.15.24.71.53,1.41.72,2.14"/>
        <path class="cls-1" d="M581.55,412.78c-2.11,1.1-4.21,2.2-6.85,3.47,1.11-1.11,2.05-2,2.94-2.94"/>
        <path class="cls-1" d="M375.37,585.4c3.03.69,5.91-.3,8.83-.84"/>
        <path class="cls-1" d="M341.39,307.87c1.33-.46,2.65-.95,4.05-1.4-.78.63-1.5,1.24-2.22,1.85"/>
        <path class="cls-1" d="M189.68,420.19c-1.14,1.12-2.31,2.21-4.31,4.22,5.34-3.61,5.96-4.14,6.5-5.85"/>
        <path class="cls-1" d="M382.43,280.52c-2.68,1.28-5.36,2.56-7.94,3.8-.5.45-1.08.96-1.65,1.48"/>
        <polyline class="cls-1" points="400.91 580.65 408.98 579.38 417.04 578"/>
        <line class="cls-1" x1="352.23" y1="586.82" x2="343.34" y2="586.57"/>
        <line class="cls-1" x1="521.32" y1="461.01" x2="527.17" y2="458.68"/>
        <path class="cls-1" d="M576.45,422.87c1.52-1.05,3.03-2.11,5.41-3.76,1.31-1.61,2.95-3.64,4.6-5.67"/>
        <path class="cls-1" d="M286.8,342.55c-.3.5-.61,1-.95,1.55-1.39,1.05-3.02,2.29-4.64,3.52"/>
        <path class="cls-1" d="M377.27,286.87c1.47-.63,2.93-1.26,4.74-2.04-1.23,1.08-2.43,2.13-3.89,3.42,1.22-.5,2.14-.88,5.22-2.14-1.72,1.04-2.73,1.65-3.74,2.26"/>
        <path class="cls-1" d="M532.98,446.6c2.3-1.46,4.62-2.91,6.84-4.46,4.51-3.13,8.9-6.41,14.42-10.47.38-.21,1.94-1.03,3.51-1.92,2.93-3.96,10.29-7.98,14.68-12.1"/>
        <path class="cls-1" d="M564.19,210.68l-.18-.94-2.66.37c-2.37,1.24-4.7,2.57-7.02,3.85"/>
        <path class="cls-1" d="M312.39,320.61c.79.4,1.62.76,2.35,1.2.3.18.36.53.53.8"/>
        <path class="cls-1" d="M337.51,592.28c3.19-.13,6.39-.23,9.57-.43"/>
        <path class="cls-1" d="M544.44,216.76c-.88.18-1.76.36-3.02.62.08.28.14.51.23.85,1.06-.45,1.64-.7,2.22-.95"/>
        <path class="cls-1" d="M141.11,469.01c.66.1-1.62,4.62,3.32-1.77"/>
        <path class="cls-1" d="M562.14,433.48c-.56-.28-1.59.54-2.74,1.5-1.15.95-2.41,2.04-3.4,2.34.66-.99,1.46-2.18,2.25-3.37"/>
        <path class="cls-1" d="M234.95,590.9c-2.48-.54-4.68-1.2-8.85-.91"/>
        <path class="cls-1" d="M493.94,235.81c-.53.33-1.07.66-1.7,1.05.47-.11,1.16-.28,2.23-.54.66-.66,1.27-1.27,1.87-1.88"/>
        <path class="cls-1" d="M535.16,224.05c-1.48-.58-4.02.58-6.56,1.72"/>
        <path class="cls-1" d="M317.52,588.73c1.77-.07,3.54-.13,6.67-.25-1.97-.31-3.06-.49-4.15-.66l.73-.24c2.88.15,5.77.35,9.74.49.39-.09,1.56-.36,2.63-.61.63-.16,1.09-.33,1.61-.49,1.57.08,2.71.15,3.85.21"/>
        <path class="cls-1" d="M177.26,425.13c3.11-2.73,3.75-3.35,4.9-4.81"/>
        <path class="cls-1" d="M674.16,237.81c.1-.15.19-.3.32-.5-.58-.68-1.06-1.19-1.44-1.54-.41-.34-.72-.52-.92-.56-.41-.07-.38.41.03,1.45"/>
        <path class="cls-1" d="M677.13,291.13c.29-1.3.58-2.6.89-4.37-.15-.5-.33-1.07-.51-1.65"/>
        <path class="cls-1" d="M300.02,330.45c-2.71,1.5-5.33,3.07-7.31,5.04"/>
        <path class="cls-1" d="M680.74,297.16c-.34-.75-.69-1.51-.96-2.1-.81,1.75-1.36,2.96-1.46,3.14-1.23,4.33-2.52,7.89-3.92,11.4-.06.23-.18.67-.16.65.53-.69,1.09-1.42,1.71-2.23-.26.82-.55,1.74-.85,2.66"/>
        <path class="cls-1" d="M123.05,553.79c.94,1.05,1.4,1.57,1.53,1.43.11-.12-.1-.91-.5-2.43.77.9,1.56,1.81,2.46,2.63.89.83,1.71,1.72,2.69,2.47"/>
        <line class="cls-1" x1="294.72" y1="331.11" x2="290.28" y2="335.54"/>
        <path class="cls-1" d="M514.98,463.82c.92-.67,1.86-1.35,2.76-2,1.11-.84,2.18-1.65,3.27-2.48"/>
        <path class="cls-1" d="M591.87,410.31c.97-.68,1.94-1.37,3.01-2.12-.99,1.12-1.82,2.06-2.76,3.13,4.43-3.2,4.59-4.2,5.08-5.37.01-.03.36-.32.5-.42.22-.15.41-.24.61-.36"/>
        <path class="cls-1" d="M258.36,363.68c.46-.09.92-.18,2.09-.4,1.21-1.81,2.07-3.09,2.93-4.38l-.91.45c3.52-2.99,7.04-5.98,10.92-9.28-1.16.66-2.24,1.26-3.31,1.87"/>
        <path class="cls-1" d="M114.46,521.45c.03-1.98.24-3.02.36-3.53.14-.52.28-.51.42-.37.29.27.53,1,.86-.94.27-2.13.47-3.18.88-4.31.19-.57.48-1.14.87-1.87.39-.73.89-1.61,1.61-2.75-.83-.26-1.4-.44-1.97-.62l-.5,1.41-.06,1.77"/>
        <path class="cls-1" d="M624.74,213.64c1.73.44,3.38.97,5.15,1.48,1.84.57,3.79,1.13,5.64,1.8"/>
        <path class="cls-1" d="M530.1,448.42c-1.03.51-2.12.9-3.07,1.54-3.67,2.5-7.04,5.01-9.77,7.43"/>
        <path class="cls-1" d="M115.05,531.59c-.14,1.57-.28,3.16-.28,4.77.12.43.22.86.37,1.28.05-.62.17-1.24.32-2.27.74.86,1.41,4.14,2.68,8.07"/>
        <path class="cls-1" d="M374.89,286.76c-.23,1,2.66.55-1.95,3.59"/>
        <line class="cls-1" x1="451.39" y1="573.21" x2="459.41" y2="571.68"/>
        <line class="cls-1" x1="397.83" y1="583.77" x2="405.25" y2="582.58"/>
        <path class="cls-1" d="M162.38,439.45c-2.02,2.02-3.58,3.77-4.34,5.54-.23.54-1.86,2.41-2.81,3.7"/>
        <path class="cls-1" d="M143.77,568.89c-3.49-2.43-6.77-5.14-10.12-8.7-.2.2-.33.34-.47.49"/>
        <path class="cls-1" d="M579.95,214.38c.71.24,1.71.22,2.87.14,1.16-.08,2.49-.28,3.84-.51"/>
        <path class="cls-1" d="M549.82,212.81c-2.9.76-5.76,1.61-8.63,2.45"/>
        <path class="cls-1" d="M357.27,590.45c.92-.07,1.84-.15,3.04-.25-.94-.34-1.69-.61-2.43-.88"/>
        <path class="cls-1" d="M656.64,220.21c-.81-.24-1.58-.51-2.39-.71l-2.41-.59"/>
        <path class="cls-1" d="M295.86,337.72l6.22-4.17c2.08-1.38,4.19-2.71,6.29-4.07l.03.2c3.72-2.57,7.39-5.23,11.11-7.68.1-.25.25-.62.4-.99"/>
        <path class="cls-1" d="M628.88,209.33c-4.03-.88-8.1-1.58-12.78-2.11-.15-.18-.46-.57-.78-.95,4.6.07,8.92.6,10.86,1.9,1.01.06,1.94.12,2.87.22"/>
        <path class="cls-1" d="M197.29,588.87c-2.42-1.02-1.12-1.51,2.92-1.05,2.46.28,4.98.57,7.47.85"/>
        <path class="cls-1" d="M673.03,240.84c.48.56.96,1.12,1.45,1.69.46.6.92,1.22,1.41,1.86-.3-1.28-.53-2.33-.92-3.53-.92-1.3-2.09-2.69-3.44-4.24.22,1.38.43,2.7.56,4.01"/>
        <path class="cls-1" d="M208.13,401.11l4.15-.3-.97.92c.73-.52,1.47-1.03,2.44-1.71.56-.78,1.09-1.56,1.86-2.59.91-.33,1.5-.54,2.09-.76"/>
        <path class="cls-1" d="M650.78,343.97c-1.08,1.16-2.15,2.33-3.48,3.76-.6,1.07-1.25,2.22-2.06,3.65-1.11.66-2.3,1.29-3.45,1.94"/>
        <path class="cls-1" d="M147.95,575.49c3.36,1.44,6.8,2.64,10.65,3.78,1.5-.81,2.33-.54,7.82,1.17,1.35.59,2.45,1.07,3.42,1.49.98.39,1.83.74,2.67,1.08"/>
        <path class="cls-1" d="M683.24,255.31c-.29-2.71-.81-5.41-1.44-8.07-.14-.19-.47-.59-.8-.97"/>
        <line class="cls-1" x1="371.74" y1="291" x2="366.76" y2="294.67"/>
        <path class="cls-1" d="M202.91,405.49c3.37-3.05,6.89-5.95,10.95-9.42-.74-.27-1.35-.5-2.31-.85-2.2,2.53-3.69,4.24-5.17,5.95"/>
        <line class="cls-1" x1="663.71" y1="333.72" x2="659.14" y2="338.98"/>
        <path class="cls-1" d="M268.43,590.83c-3.65-.08-7.29-.08-11.17-.23.8.3,1.88.71,2.96,1.12"/>
        <path class="cls-1" d="M459.84,578.43l-2.01.97.94-.02c2.78-.75,5.55-1.56,8.32-2.33l.86.1,5.27-1.65"/>
        <path class="cls-1" d="M494.99,236.7c2.4-.72,4.83-1.31,7.05-2.52"/>
        <path class="cls-1" d="M223.75,384.65c-.45.63-.89,1.26-1.49,2.11-.99.43-1.58.7-2.18.96"/>
        <path class="cls-1" d="M127.93,559.49c.82.14,1.63.27,2.51.39-.4-.83-.81-1.68-1.24-2.59-.44-.88-.76-1.9-1.17-2.94.59.71,1.07,1.28,1.49,1.79.46.48.86.89,1.26,1.3"/>
        <path class="cls-1" d="M639.1,214.06c-1.31-.37-2.64-.64-3.91-.93-.37-.32-.73-.63-1.12-.93-2.61-.5-5.12-.93-7.56-1.19-2.62-.28-5.24-.48-7.85-.57l-1.96-.07h-1.96s-3.91-.02-3.91-.02"/>
        <path class="cls-1" d="M163.95,582.67c-.47.33-.49.41,4.56,1.88"/>
        <path class="cls-1" d="M321.74,591.93c.45.44.9.88,1.41,1.37,4.28-.37,5.25-1.37,9.55-1.14"/>
        <path class="cls-1" d="M282.09,593.27c-2.21-.44-7.45-.69-2.73-1.57,1.19.25,2.3.49,3.41.73"/>
        <path class="cls-1" d="M504.49,230.89c.92-.11,1.84-.23,2.97-.37,1.17-.54,2.36-1.1,3.55-1.65"/>
        <polyline class="cls-1" points="572.89 212.71 574.9 212.22 574.03 212.11 570.85 212.91"/>
        <path class="cls-1" d="M323.56,586.34c-.08-.2-.16-.39-.28-.67,1.48.08,2.57.13,3.66.19"/>
        <path class="cls-1" d="M681.35,264.74c-.22.87-.45,1.75-.64,2.52.44,3.28.72,6.46.7,9.66"/>
        <path class="cls-1" d="M193.95,583.41c1.93.07,3.86.07,5.78.1"/>
        <line class="cls-1" x1="223.66" y1="385.64" x2="225.02" y2="386.25"/>
        <path class="cls-1" d="M392.01,281.3c3.98-2.22,7.92-4.53,12.36-6.92,2.82-.68,5.88-1.42,8.94-2.16"/>
        <path class="cls-1" d="M459.06,245.91c-.38.29-.6.58-1.15.86-3.55,1.71-7.17,3.46-11.51,5.55,1.7-.05,2.84-.09,3.98-.12l.86-.43c-.2.6-.4,1.21-.62,1.9,1.06-.32,2.42-.73,3.78-1.14"/>
        <path class="cls-1" d="M233.12,381.11c-.15-.19-.3-.38-.43-.55,2.8-2.32,5.09-4.21,7.21-5.96,2.96-1.98,5.82-3.89,8.68-5.81"/>
        <path class="cls-1" d="M141.39,464.88c-1.06,1.22-2.1,2.47-3.13,3.72l.39.29"/>
        <line class="cls-1" x1="214.94" y1="592.22" x2="218.47" y2="591.17"/>
        <path class="cls-1" d="M394.84,581.45c3.29-.53,3.02-1.79,8.7-1.82"/>
        <path class="cls-1" d="M577.72,417.81c.13-.6.26-1.21.43-1.98,1.02-.87,2.25-1.92,3.48-2.97"/>
        <polyline class="cls-1" points="259.63 359.64 253.02 364.47 252.94 364.82 257.23 362.13"/>
        <path class="cls-1" d="M260.14,355.69c-1.29,1.46-2.57,2.92-3.92,4.45.35.03.84.08,1.33.12"/>
        <path class="cls-1" d="M228.67,593.13c2.52-.02,5.04-.08,7.56-.14"/>
        <path class="cls-1" d="M143.03,571.39c1,.58,2,1.16,3.04,1.76,1.05.58,2.16,1.13,3.33,1.74-.74-1.14-1.22-1.88-1.85-2.85,1.73.87,2.91,1.55,4.16,2.1"/>
        <line class="cls-1" x1="547.29" y1="439.73" x2="547.08" y2="437.08"/>
        <path class="cls-1" d="M679.59,302.72c-.25-1.9-2.08,1.38-3.55,3.1"/>
        <path class="cls-1" d="M656.1,222.41c2.72,1.97,5.34,4.07,7.61,6.5"/>
        <polyline class="cls-1" points="669.07 233.91 667.26 231.94 665.32 230.11"/>
        <path class="cls-1" d="M292.55,336.47c-.29.43-.59.86-1.15,1.68,1.32-.46,3.92-1.35,6.51-2.25"/>
        <polyline class="cls-1" points="251.96 367.62 245.99 372.18 246.16 371.92 241.37 375.09"/>
        <path class="cls-1" d="M263.66,589.95c5.43.32,6.69-.53,8.66-1.03.98-.25-.05-.78-.53-1.18-.32-.26-1.29-.49-1.97-.74"/>
        <line class="cls-1" x1="607.63" y1="398.08" x2="609.05" y2="394.54"/>
        <path class="cls-1" d="M122.66,501.84c1.03-1.9,3.65-8.62,3.16-4.58"/>
        <path class="cls-1" d="M419.01,582.7c6.81-1.03,13.49-2.05,19.7-2.21"/>
        <path class="cls-1" d="M460.38,577.48c1.96-.76,2.22-1.11-1.49-.61"/>
        <line class="cls-1" x1="645.78" y1="353.01" x2="640.66" y2="356.77"/>
        <path class="cls-1" d="M469.03,575.37l2.99-1.47.91-.06s.05-.12-.03-.11c-.66.07-1.35.15-2.03.23"/>
        <path class="cls-1" d="M333.94,589.58c-.01-.24-.02-.49-.05-.96-.83-.04-2.81-.14-4.79-.23"/>
        <path class="cls-1" d="M448.87,579.07c.74-.41,1.49-.82,2.39-1.31-.56-.06-1.4-.16-2.51-.29,3.54-.92,6.75-1.76,10.07-2.62,5.26-.27,5.79-.37,7.81-1.38"/>
        <path class="cls-1" d="M675.64,301.96c-1.64,5.72-2.42,7.1-3.55,8.09"/>
        <path class="cls-1" d="M384.19,280.95l-.83-.11c-.65.39-1.29.78-2.23,1.34,2.66-.79,4.73-1.44,6.84-2.01l1.96-1.46-3.83,1.51"/>
        <path class="cls-1" d="M121.97,497.02c-.12,1.22-.19,2.46-.28,3.67l.76-1.18c-1.18,2.76-2.24,5.59-3.12,8.47.08.02.27.08.46.14-.7,2.2-1.26,4.44-1.77,6.7"/>
        <path class="cls-1" d="M373.83,284.74c-.83.34-1.67.68-2.99,1.22-.16.42-.29.77-.42,1.11"/>
        <path class="cls-1" d="M192.35,415.12c.13-.35.25-.69.51-1.38-1.06,1.07-1.95,1.98-2.81,2.91"/>
        <path class="cls-1" d="M160.67,581.45l-3.12-1.66c-1.03-.57-2.04-1.18-3.05-1.76"/>
        <path class="cls-1" d="M137.94,563.3c.69.54,1.45,1,2.17,1.5l-1.44-1.64c-1.22-.81-2.52-1.57-3.71-2.44"/>
        <path class="cls-1" d="M116.66,542.39c1.06-.81,2.12-1.58,3.16-2.3-.87-1.88-1.57-3.89-2.19-5.95"/>
        <polyline class="cls-1" points="206.37 405.31 207.43 405.29 206.57 406.17 203.33 408.01"/>
        <path class="cls-1" d="M129.5,490.76c-.22-.5-.44-1.01-.67-1.53-1.12,2.35-2,4.47-2.86,6.59"/>
        <path class="cls-1" d="M522.35,456.42c1.7-1.18,3.4-2.36,5.42-3.76-1.02.27-1.58.42-2.89.76,2.29-1.2,3.41-1.78,4.54-2.37"/>
        <path class="cls-1" d="M552.61,218.56c-.03.18-.07.35-.12.58,1.83-.2,4.1-.36,6.79-.55.05-.23.09-.41.13-.58"/>
        <path class="cls-1" d="M600.68,212.75c-.27.2-.54.41-.83.62,1.28.02,2.4,0,3.51.05"/>
        <path class="cls-1" d="M660.65,228.45c-.05.17-.1.34-.19.67,2.33,1.84,4.23,3.48,5.92,5.31"/>
        <path class="cls-1" d="M676.74,250.72c-.71-1.16-1.83-3.36-3.25-5.7-1.36-2.39-3.11-4.86-4.59-6.92-.27-.34-.56-.62-1.18-1.31-.23-.96-.57-1.83-.89-2.74"/>
        <path class="cls-1" d="M613.06,206.99c-1.04-.35-2.21-.59-3.45-.72-1.24-.1-2.55-.11-3.89-.09-2.68-.01-5.47.28-8.07.22,2.66.24-3.32,1.28,2.94,1.07"/>
        <path class="cls-1" d="M608.89,387.34c-2.06,1.86-4.26,3.57-6.38,5.36-2.15,1.76-4.24,3.58-6.45,5.27l-.55.92,2.22-1.34,2.18-1.4,4.36-2.81"/>
        <path class="cls-1" d="M487.47,569.91c-.64-.94-2.06-.79-8.84.94"/>
        <path class="cls-1" d="M549.85,436.28c.97-.54,1.94-1.07,3.32-1.83.39-.54.71-.99,1.04-1.43"/>
        <polyline class="cls-1" points="165.48 446.7 162.06 450.92 158.72 455.19"/>
        <path class="cls-1" d="M286.19,592.52c4.66-.43,4.25-1.11,3.4-1.82"/>
        <path class="cls-1" d="M663.05,329.22c1.05-1.83,2.09-3.66,3.08-5.52l-.2.07c1.87-2.87,3.67-5.79,5.35-8.78"/>
        <path class="cls-1" d="M277.98,593.54c-.07.54.53.9,4.11.45"/>
        <line class="cls-1" x1="317.67" y1="317.45" x2="322.22" y2="318.3"/>
        <path class="cls-1" d="M147.68,576.03c-.67-.5-1.37-1.02-2.05-1.53-.66-.54-1.29-1.07-1.83-1.56-1-.9-1.59-1.65-1.62-2.14-.88-.79-1.76-1.58-2.64-2.37-.83-.83-1.65-1.66-2.47-2.49-.57-.33-1.52-1.05-2.51-1.73"/>
        <path class="cls-1" d="M579.87,416.13c3.64-1.98,8-5.47,11.05-9.11"/>
        <path class="cls-1" d="M418.55,584.46c-.87-.18-1.74-.36-2.62-.55.46-.14,1.13-.35,1.79-.56"/>
        <path class="cls-1" d="M493.45,568.51c-1.43.96-2.88,1.86-4.24,2.74-1.64.28-3.22.55-5.11.88.55-.32,1.05-.61,1.64-.96-1.4.11-2.8.23-4.21.35"/>
        <path class="cls-1" d="M129.67,485.35c1.86-1.97,3.72-3.91,6.26-6.32-1.45,2.5-2.46,4.35-3.52,6.38.68.47,2.46-2.91,4.16-5.41"/>
        <path class="cls-1" d="M212.85,396.14c-1.73,1.47-3.46,2.95-4.19,3.57-1.23.84-2.42,1.65-3.57,2.45-1.14.82-2.26,1.61-3.37,2.41-2.23,1.6-4.49,3.17-6.86,4.98.45-.7,1.13-1.77,1.82-2.84"/>
        <path class="cls-1" d="M669.69,314.94c3.37-6.19,4.16-10.03,2.86-11.35.64-1.6,1.3-3.25,1.87-4.93"/>
        <path class="cls-1" d="M641.09,362.47l-1.95.77c-.5.53-1.04,1.02-1.57,1.53.69-.87,1.34-1.78,1.98-2.71"/>
        <line class="cls-1" x1="191.3" y1="411.01" x2="190.44" y2="414.1"/>
        <path class="cls-1" d="M224.1,387.29c.15.19.3.38.43.53,1.67-1.17,2.79-1.96,3.91-2.74"/>
        <path class="cls-1" d="M636.38,368.42c-1.16,1.51-2.31,3.02-3.74,4.88-1.19,1.28-2.52,2.57-3.85,3.83-1.32,1.27-2.65,2.51-3.9,3.61-1.25,1.1-2.44,2.07-3.49,2.79-1.07.7-2.01,1.13-2.73,1.23"/>
        <line class="cls-1" x1="430.71" y1="582.48" x2="433.25" y2="580.91"/>
        <path class="cls-1" d="M594.1,407.63c2.08-2.14,4.1-4.25,6.28-6.41.62-.61,1.71-1.44,2.59-2.17"/>
        <path class="cls-1" d="M457.98,245.06c-.49.83.98.54,2.81.1,1.83-.44,4.02-1.06,4.94-1"/>
        <path class="cls-1" d="M621.45,379.79c1.46-1.59,2.92-3.19,4.47-4.87.77-.84,1.56-1.7,2.39-2.6.79-.93,1.61-1.89,2.46-2.9-.72,1.29-1.36,2.51-2.02,3.66-.68,1.13-1.33,2.21-1.98,3.3"/>
        <line class="cls-1" x1="427.7" y1="259.49" x2="418.56" y2="265.78"/>
        <path class="cls-1" d="M361.89,291.45c1.29-.59,2.57-1.18,4.71-2.16-1.71,1.5-3.1,2.73-4.5,3.96"/>
        <path class="cls-1" d="M114.48,524.36c-.34,1.65-.35,3.01-.29,4.08.11,1.07.37,1.87.7,2.44"/>
        <line class="cls-1" x1="398.47" y1="275.92" x2="390.36" y2="281.05"/>
        <path class="cls-1" d="M260.95,588.85l-13.97.4.32.2c-2.95-.08-5.91-.2-8.86-.34"/>
        <path class="cls-1" d="M295.7,588.83c-.33-.16-.66-.32-1.3-.63,2.68-.17,5.68-.37,8.21-.53.62-.35,1.26-.71,1.9-1.07"/>
        <path class="cls-1" d="M327.5,315.18c-5.74,3.67-11.55,7.25-17.2,11.05"/>
        <path class="cls-1" d="M629.34,369.44c2.09-3.9,1.8-3.81-3.13.79"/>
        <path class="cls-1" d="M315.15,318.58c-3.23,2.15-6.4,4.39-9.6,6.57"/>
        <path class="cls-1" d="M584.21,209.79c2.37-.39,4.74-.82,7.13-1.09l-.83-.32c-2.35.27-4.68.75-7.01,1.12"/>
        <path class="cls-1" d="M158.7,444.44c2.36-2.32,1.75-.85,2.31-.83.43,0,1.33-.55,2.02-.86"/>
        <path class="cls-1" d="M383.75,286.06c-2.11,2.19-6.43,4.18-10.56,6.2"/>
        <polyline class="cls-1" points="501.85 568.75 502.59 568.96 499.27 569.77"/>
        <path class="cls-1" d="M490.61,232.66c-3.2,1.21-6.41,2.42-9.6,3.63-1.3.5-2.51,1.11-3.76,1.66"/>
        <path class="cls-1" d="M404.33,272.39c.79-.5,1.58-1.01,3.05-1.95-1.53.65-2.42,1.03-3.31,1.41"/>
        <path class="cls-1" d="M374.26,289.93c1.21-.16,1.76-.04-1.41,1.69"/>
        <path class="cls-1" d="M417.27,585.23c3.56-.97,5.58-2.1,11.36-2.81"/>
        <path class="cls-1" d="M612.99,208.19c-.73-.3-1.47-.59-2.52-1.02,1.19,0,2.8.02,4.42.03l1.51.31-2.72.85"/>
        <path class="cls-1" d="M502.75,566.36c-3.39.45-6.81.92-10.12,1.32-.53.06-.55-.2-.8-.31"/>
        <path class="cls-1" d="M675.18,306.94c-1.2.45-2.11,3.53-3.58,6.71.23.66.44,1.24.65,1.82"/>
        <path class="cls-1" d="M508.82,230.89c1.71-.82,3.43-1.64,5.59-2.68,3.54-.96,7.69-2.06,11.85-3.09"/>
        <path class="cls-1" d="M193.83,415.7c3.39-3.66,3.76-3.91,5.82-3.81,1.1-1.12,2.23-2.18,3.33-3.26"/>
        <path class="cls-1" d="M685.8,266.49c-.22-.21-.43-.42-.82-.8.26-1.22.38-2.04.52-3.05-.14-.65-.26-1.33-.45-2.17-.21-.84-.47-1.84-.8-3.15.06,1.32.11,2.46.16,3.5,0,1.04-.01,1.98-.02,2.92"/>
        <path class="cls-1" d="M490.98,237.65c.7,0,1.4,0,2.4,0-.7.54-1.56,1.24-2.41,1.93"/>
        <path class="cls-1" d="M676.24,304.4l.95-3.31c.28-1.11.57-2.22.85-3.35.26-1.08.53-2.22.79-3.33"/>
        <path class="cls-1" d="M657.08,339.24c-.46.77-.93,1.54-1.32,2.2-.25-.38-.48-.75-.72-1.11"/>
        <line class="cls-1" x1="296.32" y1="331.05" x2="293.32" y2="333.93"/>
        <path class="cls-1" d="M268.51,357.96c-.16-.09-.31-.18-.55-.31-1.25,1.08-2.08,1.79-2.91,2.5"/>
        <path class="cls-1" d="M490.07,572.59c.2-.16.75-.46.54-.46-1.01.04-2.23.16-3.37.26"/>
        <path class="cls-1" d="M586.24,407.77c-1.24.75-4.22,3.38-3.1,1.57"/>
        <path class="cls-1" d="M373.02,291.94c-3.17,2.57-7.89,4.53-11.76,6.82"/>
        <path class="cls-1" d="M296.16,329.57c.6-.38,1.19-.76,2.42-1.53-2.77,2.34-4.72,3.62-6.47,4.1"/>
        <line class="cls-1" x1="464.08" y1="249.19" x2="473.19" y2="246.36"/>
        <line class="cls-1" x1="568.16" y1="213.35" x2="567.68" y2="214.54"/>
        <path class="cls-1" d="M169.21,431.71l1.66-1.17-1.03,1.43c-.52.25-1.05.49-1.93.93-2.28,3.07-4.6,6.03-6.78,9.11"/>
        <path class="cls-1" d="M148.82,455.85c.95-.4,1.9-.8,3.09-1.31-1.44,1.76-2.74,3.36-4.04,4.96v.34s3.06-3.15,3.06-3.15"/>
        <path class="cls-1" d="M129.99,480.66c-.47,1.35-.92,2.71-1.36,4.07"/>
        <path class="cls-1" d="M232.85,591.88c1.15-.25,2.29-.49,3.83-.82,1.68.04,4.39.76,7.14.27"/>
        <path class="cls-1" d="M143.97,461.63c1.04-1.22,2.08-2.43,4.01-4.69-.47,1.35-.88,2.52-1.4,4-2.03,1.88-3.69,3.46-5.32,5.08l.14-.83c-1.29,1.82-2.56,3.66-3.79,5.52"/>
        <path class="cls-1" d="M657.19,340.15c2.35-4.04,5.12-8.25,6.35-12.02-1.29,1.86-1.94,2.84-2.65,3.78"/>
        <path class="cls-1" d="M608.84,208.83c-.15.36-.3.72-.54,1.3-4.14-1.16-4.14-1.2-.14-1.31"/>
        <path class="cls-1" d="M545.46,215.25c1.03-.43,2.06-.83,3.1-1.22h.75s-2.23,2.04-2.23,2.04"/>
        <path class="cls-1" d="M606.8,398.18c-1.59,1.21-3.14,2.46-5.73,4.38,1.53-1.87,2.37-2.99,3.23-4.08"/>
        <path class="cls-1" d="M421.37,584.94c3.17-.4,6.34-.8,9.5-1.27"/>
        <line class="cls-1" x1="568.99" y1="422.1" x2="567.8" y2="421.66"/>
        <line class="cls-1" x1="565.87" y1="424.75" x2="563.92" y2="424.41"/>
        <path class="cls-1" d="M267.94,354.82c-.13.97,5.3-2.44,3.33-.03"/>
        <path class="cls-1" d="M177.39,432.81c1.11-.82,2.19-1.65,3.31-2.46"/>
        <line class="cls-1" x1="309.26" y1="586.13" x2="320.14" y2="585.87"/>
        <path class="cls-1" d="M605.81,398.1l2.65-3.41,1.37-.99c.1-.58.21-1.15.39-2.17-1.72,1.85-2.6,2.79-4.32,4.63,1.68-1.39,2.43-2,3.18-2.62"/>
        <line class="cls-1" x1="660.39" y1="336.5" x2="662.86" y2="331.54"/>
        <path class="cls-1" d="M169.19,577.24c1.01.7,2.03,1.38,3.28,2.16,2.13.28,6.59,1.37,3.1-.21"/>
        <line class="cls-1" x1="436.19" y1="582.18" x2="439.44" y2="580.75"/>
        <path class="cls-1" d="M445.73,254.72c1.14-.22,2.28-.43,3.68-.7,1.29-.68,2.65-1.4,4.01-2.12"/>
        <path class="cls-1" d="M137.71,561.53c1.32,1.1,2.78,2.03,4.19,3.02.71.49,1.47.91,2.2,1.36.74.45,1.47.91,2.24,1.3"/>
        <path class="cls-1" d="M358.43,587.48c-3.86-.55-6.12-1.34-7.77-2.24-.93-.51-1.37-.46,2.06-1.23"/>
        <path class="cls-1" d="M337.91,304.63c.12-.25.23-.51.43-.95-1.39.82-2.65,1.57-3.68,2.18l-1.09,2.18"/>
        <path class="cls-1" d="M140.71,477.93c.74-1.39,1.4-3.01,2.26-4.12,2.9-3.8,6.01-7.21,9.18-10.85,1.87-2.17,3.71-4.56,5.6-6.8"/>
        <path class="cls-1" d="M627.89,373.67c-3.64,2.96.37-2.14-1.78-.75"/>
        <path class="cls-1" d="M674.18,311.79c.13-.45.26-.9.55-2.08-1.74,3.48-3.32,6.4-5.35,9.8-.32-.5-.59-.92-.86-1.34"/>
        <path class="cls-1" d="M330.4,586.88c-1.6-.16-3.19-.3-4.79-.49"/>
        <path class="cls-1" d="M235.73,376.69c-3.04,2.77-6.06,5.55-9.03,8.39"/>
        <path class="cls-1" d="M252.12,587.33c-2.05.15-4,.35-6.17.44-2.19.1-4.6.05-7.69.05-.49-.15-1.49-.45-2.44-.74-.04-.01.39-.07.66-.09.17-.01.44.01.67.02"/>
        <path class="cls-1" d="M120.83,540.4c.55.99,1.21,1.93,1.84,2.86"/>
        <path class="cls-1" d="M175.04,430.59c-.48,1.5-.96,3-1.51,4.71-1.25,1.7-2.71,3.54-4.46,4.61"/>
        <path class="cls-1" d="M427.45,583.92c-1.93-.21-.27-.64,1.92-1.12"/>
        <path class="cls-1" d="M559.73,430.19c-1.31.85-2.61,1.71-3.95,2.53l-.5.66,1.77-1.07"/>
        <path class="cls-1" d="M272.78,346.33c5.87-4.43,6.47-3.34,9.31-4.6l-1.62,2.45"/>
        <path class="cls-1" d="M483.91,569.49c.35-.67-1.67-.34-4.13.17"/>
        <path class="cls-1" d="M534.74,220.18c-1.42.65-2.82,1.35-4.78,2.29-1.12.2-3.04.53-4.96.91"/>
        <path class="cls-1" d="M623.75,210.95c1.03.72,2.06,1.44,3.37,2.36-1.97-.4-3.43-.73-4.91-.97"/>
        <path class="cls-1" d="M650.18,220.75c-1.33-.29-2.62-.62-3.93-.86"/>
        <path class="cls-1" d="M284.57,338.1c-2.66,1.18-3.6,2.47-4.92,3.72"/>
        <path class="cls-1" d="M398.49,274.43c2.18-.75,3.37-.95,3.61-.68.24.27-.49.99-2.1,2.21"/>
        <line class="cls-1" x1="572.52" y1="420" x2="572.4" y2="418.73"/>
        <path class="cls-1" d="M414.52,579.77c-4.06.65-8.12,1.2-12.19,1.76,4.02-.1,7.86.04,12.93-1.33-.04-.35-.1-.79-.13-1.03,2.5-.68,4.07-1.11,5.63-1.54l-2.42-.16-2.59,1.18"/>
        <line class="cls-1" x1="344.13" y1="304.45" x2="347.34" y2="304.56"/>
        <path class="cls-1" d="M400.96,270.15c3.98-1.18,3.85-.11,4.75.39"/>
        <path class="cls-1" d="M290.28,591.41c2.49,0,4.99-.05,7.81-.12.28.11.84.34,1.76.72.96-.26,1.5-.41,2.05-.56"/>
        <path class="cls-1" d="M465.06,242.48c.58-.07,1.15-.14,2.05-.25-1.66.64-2.72,1.04-3.78,1.45"/>
        <line class="cls-1" x1="302.63" y1="593.96" x2="304.66" y2="592.83"/>
        <path class="cls-1" d="M401.86,271.98c-.53.48-.78.92-1.64,1.44-2.09,1.26-4.46,2.56-6.51,3.73,1.05.09,1.74.16,2.43.22"/>
        <path class="cls-1" d="M303.94,591.29c-4.15-.69-5.94-1.56-4.83-2.66"/>
        <path class="cls-1" d="M275.07,349.56c3.67-2.65,7.21-5.11,10.47-6.59.71-.32,2.21-1.44,3.36-2.17"/>
        <path class="cls-1" d="M573.58,422.51c-.38-.05-.76-.1-1.31-.17-1.08.78-2.36,1.71-3.74,2.71-1.4.98-2.9,2.02-4.4,3.07"/>
        <line class="cls-1" x1="662.42" y1="324.05" x2="661.04" y2="324.01"/>
        <polyline class="cls-1" points="194.2 411.11 191.16 413.55 191.12 414.01 193.78 411.66"/>
        <path class="cls-1" d="M596.68,213.33c-.5-.17-1-.33-1.5-.47l-.98.11-.19.5"/>
        <path class="cls-1" d="M431.02,260.22c-.36.3-.73.59-1.13.93-1.25.48-2.51.96-3.78,1.45"/>
        <path class="cls-1" d="M555.91,438.88c2.6-1.73,5.2-3.48,7.76-5.28v-.35s-3.58,2.06-3.58,2.06"/>
        <path class="cls-1" d="M368.95,291.56c.72-.58,1.44-1.15,2.71-2.16.36.67,1.48.85.75,1.9-.87,1.23,1.73-.15,3.07-.52"/>
        <path class="cls-1" d="M225,388.41c-2.46,1.53-4.86,3.14-6.07,3.92-3.12,3.01-5.35,5.17-7.51,7.39"/>
        <path class="cls-1" d="M670.09,320.59c.95-1.13,1.93-2.26,3.09-3.72.7-1.9,1.18-3.34,1.65-4.77"/>
        <path class="cls-1" d="M290.92,588.05l3.54-.35c-.69-.15-1.2-.25-2.5-.53,3.99.07,6.92.05,9.84.08"/>
        <path class="cls-1" d="M365.81,585.58l.06.72c-.7-.79-.26-.88,6.05-1.34"/>
        <path class="cls-1" d="M521.65,456.6c-.93.24-1.88.48-2.79.71-.09.02-.05-.06-.14-.19,2.95-2.2,5.33-4.6,9.46-6.69"/>
        <path class="cls-1" d="M645.21,217.15c-1.34-.56-2.73-.98-4.24-1.52-1.54-.45-3.2-1.01-5.2-1.49,1.99.77,3.59,1.56,5.04,2.2,1.42.74,2.7,1.32,3.92,2.04"/>
        <path class="cls-1" d="M137.34,568.56c-.78-.93-1.67-1.9-2.23-2.8-.51-.77-.74-1.35-1.08-2.01"/>
        <path class="cls-1" d="M592.95,206.8c-1.26.25-2.51.51-4.04.81,1.98.35,2.13,1.09,6.86.33"/>
        <path class="cls-1" d="M116.21,525.85c.27-1.4.51-2.79.88-4.14"/>
        <path class="cls-1" d="M349.74,590.59c-1.39.24-2.79.48-4.68.81-.96-.18-2.07-.41-3.49-.7,2.13-.23,3.76-.44,5.39-.65"/>
        <line class="cls-1" x1="227.34" y1="592.33" x2="225.34" y2="591.26"/>
        <path class="cls-1" d="M265.77,352.98c2.73-1.67,5.41-3.39,7.77-5.57"/>
        <path class="cls-1" d="M339.95,586.98l2.2-.73c.86.08,1.71.16,2.57.23-1.36.22-2.72.39-4.08.59"/>
        <path class="cls-1" d="M161.97,447.26c-.7,1.19-1.43,2.36-2.11,3.57"/>
        <path class="cls-1" d="M683.22,288.37c-.36.4-.76.79-1.13,1.18"/>
        <line class="cls-1" x1="459.48" y1="250.54" x2="456.71" y2="252.74"/>
        <path class="cls-1" d="M417.67,262.23c0-.58-1.12-.18-3.27,1.1"/>
        <path class="cls-1" d="M645.97,217.07c.53.68,1.08,1.3,1.8,2.35,1.43.13,2.05.19,2.42.22,1.17.82,2.28,1.67,3.36,2.5,1.04.91,2.12,1.71,3.08,2.66l1.09.55-.82,1.17-1.31-.81c-.72-.86-1.52-1.64-2.3-2.49"/>
        <path class="cls-1" d="M529.84,454.1c.15.09.31.18.5.3,1.1-.84,1.81-1.38,2.52-1.93"/>
        <path class="cls-1" d="M470.56,239.65c-.04-.11.14-.37-.2-.3-.34.07-1.21.46-1.85.72l1.41-.17"/>
        <path class="cls-1" d="M353,588.09l-8.01.32-.36.29c.52.03,1.03.06,1.59.08.09,0,.43-.1.65-.16"/>
        <path class="cls-1" d="M351.78,298.58c.61-.94,1.23-1.88,1.96-3.02-1.96,1.05-3.6,1.93-5.23,2.8"/>
        <path class="cls-1" d="M207.13,587.4c-2.32-.36-4.64-.76-6.95-1.17l-1.05-.5c1.12.08,2.25.12,3.38.18"/>
        <path class="cls-1" d="M167.66,436.81c-1.25,1.64-2.52,3.26-3.75,4.91"/>
        <path class="cls-1" d="M198.36,405.52c.12.74,5.41-3.98,4.03-1.65"/>
        <path class="cls-1" d="M140.91,473.11c2.64-2.81,5.34-5.47,7.65-9.52.06-.1,0-.13-.09-.07-.14.09-.34.29-.51.44"/>
        <path class="cls-1" d="M290.26,589.49c-6.38.43-11.72.05-17.04-.54"/>
        <path class="cls-1" d="M637.32,361.96c2.59-4.25-1.64.81-2.26.75"/>
        <line class="cls-1" x1="361.43" y1="591" x2="353.13" y2="590"/>
        <line class="cls-1" x1="422.14" y1="580.25" x2="422.69" y2="579.21"/>
        <path class="cls-1" d="M147.04,461.46c1.91-1.26.43.98-.86,2.88.15.42.27.78.4,1.13"/>
        <path class="cls-1" d="M337.2,308.82c2.61-1.39,5.19-2.84,7.82-4.18"/>
        <line class="cls-1" x1="152.19" y1="459.5" x2="153.34" y2="461.32"/>
        <path class="cls-1" d="M616.26,210.66c.31.58-1.58.56-4.1.37"/>
        <path class="cls-1" d="M176.9,582.35c1.74.55,3.5,1.01,5.25,1.52"/>
        <path class="cls-1" d="M123.45,543.65c-.27-1.02-.57-2.02-.79-3.04.17.38.38.74.58,1.1-1.37-3.17-2.38-6.53-3.02-10.34.02.84.03,1.59.05,2.41.07.82.11,1.72.24,2.85.52-.71,1.03-1.28,1.48-1.82"/>
        <path class="cls-1" d="M118.65,514.26c.73-.78,1.41-1.55,2.16-2.28"/>
        <path class="cls-1" d="M145.33,570.23c.91.24,1.79.5,2.69.71"/>
        <path class="cls-1" d="M188.1,585.49c.52.41,1.04.82,1.69,1.33,2.28-.07,3.67-.17,5.06-.23"/>
        <path class="cls-1" d="M414.86,264.3c-1.21.37-2.42.75-4.03,1.24-.95.82-1.64,1.42-2.38,2.07,3.93-1.62,3.9-1.69,8.92-4.52.94-.24,2.06-.54,3.36-.88-1.83,1.04-3.03,1.72-4.22,2.39"/>
        <path class="cls-1" d="M201.28,400.52c.99-.61,1.98-1.22,2.98-1.8"/>
        <path class="cls-1" d="M156.01,578c.66.22,1.3.47,2.21.74-1.02-.75-2.31-1.46-3.77-2.06-1.44-.65-3.01-1.28-4.56-1.93"/>
        <path class="cls-1" d="M486.29,234.8c-3.83,1.43-7.68,2.82-12.18,4.53.03.07.05.12.11.29"/>
        <path class="cls-1" d="M269.58,347.74c.95-.24,1.9-.48,2.96-.75-.76.62-1.51,1.22-2.5,2.03.65-.28,1.13-.5,1.62-.71"/>
        <path class="cls-1" d="M596.58,403.15l2.96-2.83-.64.4c1.3-1.66,2.51-3.42,3.76-5.12"/>
        <path class="cls-1" d="M422.63,261.54c3.49-1.04,6.95-2.16,11.37-3.38-.24.49-.55,1.14-.86,1.78"/>
        <path class="cls-1" d="M394,273.06c-1.12.83-2.24,1.65-3.57,2.64,2.49-1.08,4.83-2.09,7.16-3.1"/>
        <path class="cls-1" d="M210.37,589.29c1.59.47,3.18.93,5.37,1.54,2.54.13,6.42.26,10.29.35"/>
        <path class="cls-1" d="M170.24,580.92c-.49.04-.97.05-1.28.07-1.01-.35-2.01-.7-3-1.04-.98-.38-1.95-.75-2.92-1.12"/>
        <path class="cls-1" d="M526.59,456.61c-.27-.4-.54-.8-.87-1.29,4.32-2.95,8.08-5.51,11.84-8.08"/>
        <line class="cls-1" x1="405.36" y1="583.53" x2="408.17" y2="584.06"/>
        <polyline class="cls-1" points="623.93 214.61 626.54 215.01 629.13 215.48"/>
        <path class="cls-1" d="M517.88,230.1c-1.51.49-3.03.97-5.31,1.71.26-.58.49-1.08.78-1.73-2.02.79-4.08,1.59-5.95,2.31-.35-.09-.69-.17-1.03-.26"/>
        <path class="cls-1" d="M430.48,264.02c1.45-.63,2.93-1.23,4.4-1.82"/>
        <line class="cls-1" x1="237.2" y1="585.82" x2="242.63" y2="586.13"/>
        <path class="cls-1" d="M535.29,224.51c.53-.31.81-.48.96-.57,4.99-1.33,9.18-2.35,13.39-3.31"/>
        <path class="cls-1" d="M195.46,409.45c.33.36.65.71,1.08,1.18,1.48-1.57,2.39-2.46,3.77-3.84.84-.27,1.71-.55,3.08-.99-2.33,2.33-4.37,4.33-6.33,6.41"/>
        <line class="cls-1" x1="232.51" y1="384.76" x2="228.25" y2="388.13"/>
        <path class="cls-1" d="M439.67,257.88c-1.57.95-3.39,1.96-4.59,2.81-.56.4.08.47.18.69"/>
        <path class="cls-1" d="M667.11,312.87l-.89,2.05.24-.17c1.04-2.2,2.04-4.42,2.97-6.66"/>
        <path class="cls-1" d="M579.4,209.97c-1.8.33-3.61.61-5.4.97"/>
        <path class="cls-1" d="M385.51,282.03c-4.17,1.77-6.11,1.9-8.7,2.51"/>
        <line class="cls-1" x1="330.36" y1="315.95" x2="334.76" y2="314.04"/>
        <path class="cls-1" d="M676.48,288.25c.59-1.91,1.14-3.83,1.71-6.35-.03-.51-.11-1.26-.27-2.5-.16,1.54-.35,2.62-.53,3.7"/>
        <path class="cls-1" d="M357.59,585.25c1.61-.33,3.22-.68,5.26-1.15.9.16,1.9.34,2.89.52"/>
        <path class="cls-1" d="M354.38,301.8c-.03.31-4.7,2.64-1.48,1.53"/>
        <path class="cls-1" d="M193,416.8c1.22-.76,2.44-1.53,3.78-2.37.58-.58,1.38-1.38,2.17-2.17"/>
        <line class="cls-1" x1="227.72" y1="585.38" x2="230.39" y2="586.25"/>
        <path class="cls-1" d="M358.33,294.89c-2.36,1.34-4.67,2.77-7.19,4.26-.36.41-.84.96-1.32,1.51"/>
        <path class="cls-1" d="M125.06,505.64c-.17.87-.37,1.73-.52,2.6.2-.39.44-.77.65-1.16"/>
        <path class="cls-1" d="M377.02,281.99c.68-.28,1.36-.57,1.85-.77-.6.49-1.08.9-1.57,1.3"/>
        <path class="cls-1" d="M503.69,230.67c-1.77.46-3.78,1.07-5.25,1.35-2.94.58-5.64,1.55-8.44,2.93"/>
        <path class="cls-1" d="M644.45,213.28c-.2-.77-.41-1.2-1.53-1.72-.56-.27-1.36-.5-2.5-.81-1.13-.33-2.63-.63-4.58-1.01,1.24.4,2.33.71,3.32,1.05.99.35,1.9.68,2.81,1"/>
        <path class="cls-1" d="M466.3,571.58c1.16.04,2.32.07,3.46.11,2.39-.8,4.14-1.39,5.89-1.98"/>
        <path class="cls-1" d="M231.11,382.97c-1.62,1.64-3.24,3.29-4.97,5.05-1.74,1.75-3.57,3.63-5.59,5.78,0-1.02-.01-1.64-.01-2.25"/>
        <path class="cls-1" d="M201.09,408.55c1.28-.92,2.56-1.83,3.83-2.75,1.29-1.38,2.55-2.69,3.83-3.97"/>
        <path class="cls-1" d="M588.05,414.32c.78-1.02,1.55-2.04,2.55-3.35.52-.45,1.52-1.41,2.52-2.36"/>
        <line class="cls-1" x1="122.09" y1="510.94" x2="122.49" y2="513.1"/>
        <path class="cls-1" d="M124.68,543.17c.04.83.09,1.66.14,2.61-.67-.81-1.56-1.7-2.73-3.32-.06-1.43.03-2.28.05-3.11"/>
        <path class="cls-1" d="M488.85,233.84c-.05.53-.06,1.05-.15,1.6-.05.32-.22.68-.34,1.02"/>
        <line class="cls-1" x1="164.86" y1="437.05" x2="166.95" y2="436.16"/>
        <path class="cls-1" d="M627.51,376.13c1.93-1.81,2.66-2.83,3.06-3.69.42-.85.55-1.49,1.28-2.56"/>
        <path class="cls-1" d="M169.36,581.55c1.8.36,3.59.73,5.39,1.03"/>
        <path class="cls-1" d="M116.92,530.74c-.31-1.06-.67-2.13-.99-3.6.11-2.12.5-4.86,1.04-7.55"/>
        <polyline class="cls-1" points="437.9 258.92 435.48 259.65 434.62 260.19 436.12 259.96"/>
        <path class="cls-1" d="M323.57,317.89c.02.55.04,1.1.06,1.79,1.11-.65,2.7-1.58,4.29-2.5"/>
        <line class="cls-1" x1="212.44" y1="393.52" x2="211.48" y2="395.57"/>
        <path class="cls-1" d="M371.97,585.68c.38-.39.76-.79,1.32-1.38,3.71-.16,7.3-.43,10.77-.64.28.37.5.67.68.9,2.05-.04,3.83-.08,5.62-.12"/>
        <path class="cls-1" d="M617.22,381.34c.96-.68,1.86-1.42,3.01-2.33.4-.85.81-1.73,1.18-2.52-1.99,1.26-2.76,2.45-3.47,3.65"/>
        <path class="cls-1" d="M680.84,274.85c-.04,1.12,0,2.5-.14,3.31-.22,1.06-.45,2.06-.69,3.04-.28.97-.55,1.91-.84,2.89"/>
        <path class="cls-1" d="M376.31,588.21c-.76.54-1.52,1.08-2.37,1.68,3.45-.01,6.27-.12,7.23-1.05"/>
        <path class="cls-1" d="M127.16,491.05c-1.44,1.11-3.11,4.57-4.54,7.78"/>
        <polyline class="cls-1" points="255.4 593.65 257.51 593.75 257.14 593.95 249.93 593.28"/>
        <line class="cls-1" x1="171.36" y1="436.47" x2="169.44" y2="439.32"/>
        <path class="cls-1" d="M181.38,587.63c-1.58-.38-3.16-.74-4.73-1.15"/>
        <path class="cls-1" d="M559.36,433.15c4.22-2.96,3.71-3.33,3.23-3.73-.03-.03.25-.31.46-.48.33-.27.72-.54,1.09-.81"/>
        <path class="cls-1" d="M116.11,541.79c.37.98.82,1.92,1.27,2.85.42.94.93,1.83,1.42,2.71,0-.8-.02-1.51,0-2.2.04-.69.08-1.34.12-2"/>
        <path class="cls-1" d="M120.63,501.78c-.62.51-1.24.92-1.91,1.66-.09.11-.61,1.68-.91,2.58"/>
        <path class="cls-1" d="M197.59,409.76c.25-.07.5-.14.93-.25-.43.51-.93,1.11-1.44,1.71"/>
        <path class="cls-1" d="M127.22,558.7c-.87-.97-1.65-2.01-2.54-3.09-.85-1.1-1.64-2.36-2.58-3.72.4.05.75.09,1.11.14"/>
        <path class="cls-1" d="M309.06,321.75c-.96.35-1.91.71-3.55,1.31-.43,1.33-.76,2.37-1.12,3.48.71-.38,1.78-.96,3.51-1.89-1.21,1.02-1.99,1.69-2.9,2.46,1.31-.66,2.57-1.29,3.83-1.92"/>
        <path class="cls-1" d="M347.16,302.87c-.3.31-.59.62-1.55,1.62,2.7-1.62,4.65-2.75,6.52-3.91,2.15-1.35,4.24-2.67,6.36-4"/>
        <line class="cls-1" x1="442.99" y1="256.96" x2="439.1" y2="259.97"/>
        <path class="cls-1" d="M235.07,588.14c-2.02-.47-4.11-.9-7.45-.96"/>
        <path class="cls-1" d="M316.78,587.07c-1.82-.01-3.63-.03-6.81-.05.01.42.02.78.03,1.14"/>
        <path class="cls-1" d="M621.68,384.87c1.03-1.24,2.02-2.53,3.03-3.79"/>
        <path class="cls-1" d="M610.7,395.31c.58-1.06,1.17-2.11,1.71-3.21"/>
        <line class="cls-1" x1="589.86" y1="406.81" x2="593.78" y2="403.02"/>
        <polyline class="cls-1" points="543.24 441.09 544.34 441.17 543.41 441.81 536.07 443.89"/>
        <path class="cls-1" d="M474.31,239.85c.39.14.78.29,1.59.58-2.76.59-4.39.95-6.5,1.4-.65.46-1.26.9-1.87,1.34"/>
        <line class="cls-1" x1="467.01" y1="247.38" x2="466.69" y2="248.41"/>
        <line class="cls-1" x1="244.68" y1="373.81" x2="245.18" y2="374.48"/>
        <line class="cls-1" x1="215.99" y1="587.73" x2="214.03" y2="586.73"/>
        <line class="cls-1" x1="453.88" y1="247.68" x2="452.89" y2="248.87"/>
        <path class="cls-1" d="M590.4,209.97c-2,.03-3.99.24-6.95.42,1.12.35,1.69.53,2.26.71"/>
        <path class="cls-1" d="M568.96,209.94l3.2-.66.79.22c-1.52.38-3.05.76-4.57,1.14-1.34.33-2.66.74-3.99,1.1"/>
        <line class="cls-1" x1="338.18" y1="310.47" x2="336.73" y2="312.03"/>
        <path class="cls-1" d="M240.8,376.58c-1.22,1.58.36.32,1.92-.85"/>
        <line class="cls-1" x1="146.82" y1="466.53" x2="148.88" y2="466.44"/>
        <path class="cls-1" d="M338.56,586.45c-.41-.3-.82-.6-1.04-.77-2.03.05-3.58.09-5.13.13"/>
        <path class="cls-1" d="M346.68,300.66c-2.15,1.01-4.33,1.98-6.46,3.03l.69-.7c1.59-.41,1.28-.19,2.49-.06.8.08,2.7-.52,4.11-.81"/>
        <path class="cls-1" d="M575.39,210.98c-1.78.16-3.55.38-5.33.57l-.9.37,1.57.28"/>
        <path class="cls-1" d="M601.99,209.48l-1.5.57h-.88c0-.22,0-.42-.01-.66-5.96.33-2.48.61-.57.98-1.39.14-2.6.22-3.81.38"/>
        <line class="cls-1" x1="529.62" y1="451.35" x2="535.43" y2="445.36"/>
        <path class="cls-1" d="M471.18,241.22c1.69-.81,3.37-1.65,5.09-2.45,2.55-.51,5.37-1.08,8.26-1.66-.26.67-.57,1.48-.89,2.28"/>
        <path class="cls-1" d="M677.65,243.83c.13.83.18,1.69.23,2.53.04.85.14,1.66.13,2.5"/>
        <line class="cls-1" x1="199.93" y1="589.95" x2="204.12" y2="589.73"/>
        <polyline class="cls-1" points="602.71 396.69 605.7 391.82 606.71 390.98 607.13 391.43"/>
        <path class="cls-1" d="M297.72,587.22c-.89,1.14,4.3,1.34,8.59,1.81-.74.22-1.57.46-2.4.7"/>
        <path class="cls-1" d="M415.85,579.48c3.15-.59,6.29-1.18,10.05-1.89.84.01,2.06.03,3.18.05,3.36-.7,2.93-1,1.46-1.2"/>
        <line class="cls-1" x1="334.61" y1="309.8" x2="340.16" y2="308.46"/>
        <path class="cls-1" d="M176.08,426.85c1.22-1.72.59-1.19-.17-.51-.75.69-1.62,1.55-.95.42.51-.72,1.9-2.46,3.82-4.95.33.33.57.56.8.79"/>
        <path class="cls-1" d="M502.73,227.95c1.14-.19,2.14-.29,3.46-.61,1.37-.32,3.04-.86,4.57-1.3"/>
        <path class="cls-1" d="M458.25,245.73c-1.02.48-2.03.96-3.35,1.58.48-.66.89-1.22,1.31-1.8,2.58-.88,4.76-1.59,6.94-2.27"/>
        <path class="cls-1" d="M253.11,365.74c-.73.31-1.45.62-2.17.92-.97.95-1.63,1.59-2.29,2.23l.37.05c2.23-1.8,4.5-3.55,6.76-5.31"/>
        <line class="cls-1" x1="321.69" y1="590.85" x2="324.41" y2="590.27"/>
        <path class="cls-1" d="M119.21,545.33c.43.8.67,1.26.78,1.47.82.91,1.4,1.42,1.96,1.93"/>
        <path class="cls-1" d="M243.78,592.77c2.29-.51,5.05-.5,8.21-.05"/>
        <line class="cls-1" x1="179.11" y1="425.98" x2="180.54" y2="426.41"/>
        <polyline class="cls-1" points="502.28 232.83 502.08 232.26 503.96 231.62 502.24 234.75"/>
        <path class="cls-1" d="M305.05,326.9c-1.28.54-2.56,1.08-3.91,1.64-1.83,1.79-.68,1.54,1.36.71"/>
        <path class="cls-1" d="M221.13,389.03c-.4.17-.8.33-1.22.51.4-.41.88-.9,1.68-1.72.54-.03,1.03-.06,1.65-.09,1.67-1.25,4.34-3.42,3.9-2.09"/>
        <path class="cls-1" d="M242.47,372.02c-3.87,2.42-7.67,4.95-11.51,7.43"/>
        <path class="cls-1" d="M414.9,266.01c-.99.56-1.98,1.13-2.75,1.56-.45.9-.88,1.77-1.31,2.64"/>
        <path class="cls-1" d="M557.64,435.43c3.68-3.27-.36-1.11-.43-1.76"/>
        <path class="cls-1" d="M197.37,405.44c-1.26.92-2.49,1.88-3.84,2.93-.12-.13-.28-.31-.45-.49"/>
        <path class="cls-1" d="M272.36,350.46c-.2,0-.39-.02-.59-.03-2.69,2.01-5.24,3.92-8.83,6.6.41-.84.68-1.41.95-1.98"/>
        <line class="cls-1" x1="249.77" y1="365.81" x2="253.36" y2="363.78"/>
        <path class="cls-1" d="M220.76,388.57c-.54.33-1.09.65-1.98,1.19-.44.59-.78,1.05-1.12,1.5"/>
        <path class="cls-1" d="M330.64,591.91c1.13-.34,2.26-.68,3.7-1.11.8.26,1.5.48,2.19.7l.93-.07c-.01-.2.29-.57-.08-.57-3.48-.05-3.43-.54-3.43-1.05"/>
        <line class="cls-1" x1="297.39" y1="332.65" x2="301.21" y2="332.25"/>
        <path class="cls-1" d="M209.03,588.92c2.3-.1,4.6-.21,6.89-.35"/>
        <path class="cls-1" d="M630.08,375.73c-.17-.41.22-1.01.91-1.78.69-.78,1.72-1.69,2.9-2.68l.72-1.13-2.05.39"/>
        <path class="cls-1" d="M671.27,236.44c-1.05-1.37-1.9-1.97-2.93-2.76-.5-.41-1.01-.9-1.59-1.59-.62-.66-1.29-1.54-2.11-2.76l-.83-.41c.13.47.28.92.38,1.4"/>
        <path class="cls-1" d="M434.77,255.18c-.89.53-1.77,1.07-2.6,1.57,1.37.03,2.53.06,4.05.09,1.55-1.22,2.72-2.15,3.9-3.07"/>
        <line class="cls-1" x1="497.91" y1="234.77" x2="501.84" y2="233.62"/>
        <line class="cls-1" x1="678.66" y1="286.7" x2="678.35" y2="284.6"/>
        <path class="cls-1" d="M664.62,324.58c-1.2,1.14-2.39,2.27-3.61,3.37"/>
        <path class="cls-1" d="M666.11,228.34c.53.73,1.06,1.45,1.62,2.21-.51-.35-1.15-.91-1.84-1.51-.67-.61-1.48-1.18-2.15-1.7-1.36-1.05-2.54-1.56-2.38-.78"/>
        <path class="cls-1" d="M639.27,358.26c1.86-3.42,1.75-3.5-.83-.69"/>
        <polyline class="cls-1" points="266.66 350.71 264.97 351.59 264.02 352.48 267.71 351"/>
        <path class="cls-1" d="M216.29,388.5c1.27-.6,4.33-3.49,4.71-2.9"/>
        <path class="cls-1" d="M137.52,566.01c1.19.7,2.31,1.48,3.53,2.1"/>
        <path class="cls-1" d="M117.76,530.68c.04-.8.06-1.6.13-2.4l.24-2.38"/>
        <path class="cls-1" d="M177.41,583.21c-1.68-.62-3.36-1.19-5.7-2.14,1.1.08,2.22.18,3.36.23"/>
        <line class="cls-1" x1="216.68" y1="392.21" x2="213.9" y2="395.27"/>
        <path class="cls-1" d="M584.77,208.53c-.91.09-1.83.18-3.35.33,2.21.06-5.15,1.49,1.41.94"/>
        <path class="cls-1" d="M166.27,440.15c3.32-4.17,4.84-4.6,7.13-6.42"/>
        <line class="cls-1" x1="561.89" y1="430.83" x2="558.25" y2="432.78"/>
        <line class="cls-1" x1="484.53" y1="241.75" x2="488.43" y2="240.54"/>
        <path class="cls-1" d="M124.69,508.97c-.48,1.44-.87,2.9-1.26,4.36"/>
        <path class="cls-1" d="M151.5,577.87c3.76,1.18-1.13-.92-1.02-1.13"/>
        <path class="cls-1" d="M679.77,263.55c.22,1.53.25,3.08.37,4.63"/>
        <path class="cls-1" d="M425.19,265.52c.13.28.26.57.47,1.03-3.57,1.08-8.68,4.15-9.69,3.34"/>
        <path class="cls-1" d="M446.22,579.86c-1.6.09-3.2.19-4.8.25"/>
        <path class="cls-1" d="M159.53,576.55c1.76-.05,2.52-.16,2.06-.54-.45-.39-2.16-.99-5.26-2.3"/>
        <line class="cls-1" x1="141.69" y1="466.86" x2="138.91" y2="469.95"/>
        <path class="cls-1" d="M173.55,429.19c-2.67,1.89-4.3,4.69-6.5,7.09-1.82,1.95-3.58,4.14-5.29,6.28"/>
        <line class="cls-1" x1="675" y1="299.56" x2="674.3" y2="297.2"/>
        <path class="cls-1" d="M464.54,244.88l-2.99,1.42,1.36-.11c1.35-.88,2.69-1.77,4.7-3.08,1.72-.2,3.26-.39,4.81-.57"/>
        <path class="cls-1" d="M665.62,225.78c1.43,1.37,2.7,2.91,3.97,4.45-.85-.14-1.55-.18-2.21-.24"/>
        <path class="cls-1" d="M572.57,423.44c-1.92,1.24-3.85,2.46-5.82,3.66-.08.05-.35.35-.45.48-.06.08.03.07.06.11"/>
        <path class="cls-1" d="M451.43,247.14c-.99.59-1.99,1.17-2.07,1.22-.3.57-.46.88-.63,1.2"/>
        <path class="cls-1" d="M393.26,585.97c-1.25-.14-2.51-.28-5.14-.58-.76.4-1.23.64-1.69.88"/>
        <path class="cls-1" d="M345.26,584.52c-.39.32-.78.64-1.25,1.02-2.06-.24-3.46-.4-4.85-.56"/>
        <path class="cls-1" d="M281.77,346.06c-6.93,4.46-8.93,5.89-11.2,7.76"/>
        <path class="cls-1" d="M558.29,216.04c-2.3.4-4.24.69-1.03-.6,2.02.42,4.01.8,6.01,1.28"/>
        <path class="cls-1" d="M570.36,214.09c-1.7.45-3.38.98-5.84,1.75,4-.61,6.74-.88,9.65-1.22-.38.3-.63.5-.87.7"/>
        <path class="cls-1" d="M339.6,310.19c-1.35,1-2.7,2.01-4.42,3.29-.23.07-.77.23-1.31.39"/>
        <path class="cls-1" d="M628.56,367.8c.54-.97,1.08-1.94,1.24-2.24,1.93-2.25,3.23-3.76,4.53-5.28"/>
        <line class="cls-1" x1="409.11" y1="580.45" x2="408.34" y2="579.69"/>
        <path class="cls-1" d="M231.46,377.85c-.82,1.09-1.66,2.15-2.55,3.38-3.74,2.36-6.41,4-5.64,2.19-1.26.77-2.86,1.74-4.46,2.72"/>
        <path class="cls-1" d="M201.64,587.38c1.58.24,3.16.46,4.74.67"/>
        <path class="cls-1" d="M179.95,584.38c2.51-.1,2.29-1.09,7.06-.55l-1.27-.61"/>
        <line class="cls-1" x1="224.96" y1="586.07" x2="225.01" y2="585.23"/>
        <path class="cls-1" d="M157.43,454.11c-.45,1.28-.55,1.4-3.01,3.78.66-.98,1.31-1.93,1.95-2.89"/>
        <path class="cls-1" d="M635.25,209.66c-1.62-.3-3.22-.67-4.84-.9"/>
        <path class="cls-1" d="M639.82,353.45c1.2-.99.49,1.1,3.32-2.52"/>
        <line class="cls-1" x1="578.41" y1="207.68" x2="580.55" y2="208.01"/>
        <line class="cls-1" x1="163.38" y1="439.42" x2="163.92" y2="441.72"/>
        <path class="cls-1" d="M275.77,350.54c-1.88,1.86-.86,1.37,1.53-.2,1.3-.86,2.6-1.81,3.9-2.72"/>
        <line class="cls-1" x1="296.42" y1="591.09" x2="294.36" y2="590.3"/>
        <polyline class="cls-1" points="608.08 211.82 604.52 212 603.87 211.76 607.41 211.69"/>
        <line class="cls-1" x1="303.24" y1="590.58" x2="301.86" y2="590.01"/>
        <path class="cls-1" d="M545.25,442.77c.46-.56.92-1.12,1.53-1.86-5.35,3.29-7.57,3.62-10.45,4.56"/>
        <path class="cls-1" d="M123.88,547.75c.66.66,1.27,1.23,1.97,1.97.32.29.82.98,1.24,1.48"/>
        <path class="cls-1" d="M215.24,391.53c.86-.14-.64,1.77,1.9.15"/>
        <path class="cls-1" d="M290.22,337.89c-.21.91-.44,1.84-.61,2.72-.15.8,1.22.32,3.99-1.38"/>
        <path class="cls-1" d="M152,456.69c1.76-1.51,3.96-3.51,2.41-.66"/>
        <line class="cls-1" x1="660.84" y1="330.25" x2="661.78" y2="327.63"/>
        <path class="cls-1" d="M504.32,232.48c2.38-.78,4.76-1.52,7.15-2.24"/>
        <polyline class="cls-1" points="578.75 419.13 577.57 419.19 578.67 418.26 579.76 418.21"/>
        <polyline class="cls-1" points="238.45 588.75 235.89 589.25 234.18 589 237.11 588.1"/>
        <polyline class="cls-1" points="322.36 590.47 321.02 591 319.31 591.06 319.62 590.21"/>
        <path class="cls-1" d="M267.24,353.85c-.28,0-.65-.1-.82.02-2.52,1.82-5.87,3.87-6.3,5.26"/>
        <path class="cls-1" d="M440.36,582.31c1.34-.28,2.69-.53,4.03-.83"/>
        <path class="cls-1" d="M445.07,576.88c.77-.99-4.06-.35-6.28-.52"/>
        <path class="cls-1" d="M630.58,370.57c.49-.41.97-.81,1.5-1.25q.64-1.52-1.39.41"/>
        <path class="cls-1" d="M443.52,580.28c-.92.02-2.67.13-2.63.02.32-.9.97-1.84,1.52-2.77"/>
        <line class="cls-1" x1="146.64" y1="468.11" x2="146.79" y2="469.08"/>
        <path class="cls-1" d="M495.58,572.24c.85-.53.85-.51-3.47.09"/>
        <path class="cls-1" d="M194.58,414.52c-1.28,1.07-2.57,2.13-3.82,3.24l-.23.61c.66-.37,1.31-.73,1.97-1.1-1.29,1.58-2.58,3.17-3.87,4.76"/>
        <path class="cls-1" d="M125.79,493.44c-.13.45-.23,1.01-.4,1.33-1.99,3.77-2.89,6.49-3.3,8.55-.39,2.07-.34,3.48-.17,4.82.04.35-.17,1.31-.24,1.99"/>
        <path class="cls-1" d="M248.66,589.41c.9.1,1.81.2,2.88.33.19-.25.36-.49.54-.73"/>
        <path class="cls-1" d="M675.18,313.04c1.08-1.58,1.99-3.21,1.93-4.51"/>
        <line class="cls-1" x1="461.96" y1="574.53" x2="465.73" y2="572.29"/>
        <path class="cls-1" d="M532.33,448.06c-.21-.67-1.7.72-2.95,1.72"/>
        <line class="cls-1" x1="288.23" y1="591.19" x2="286.85" y2="590.36"/>
        <path class="cls-1" d="M379.81,588.97c-.42-.32-.85-.65-1.29-.99-2.65.58-3.25-.72-6.32.33"/>
        <path class="cls-1" d="M549.34,216.63c.11.14.22.28.16.21,1.73-.42,3.31-.8,4.81-1.16,1.51-.33,2.95-.64,4.39-.95"/>
        <line class="cls-1" x1="442.89" y1="576.13" x2="444.73" y2="574.63"/>
        <line class="cls-1" x1="198.86" y1="587.51" x2="201.06" y2="586.46"/>
        <path class="cls-1" d="M179.16,425.07c-2.21,1.33-4.29,3.57-6.32,6.27"/>
        <path class="cls-1" d="M621.96,208.68c-1.37-.22-2.75-.37-4.12-.54"/>
        <path class="cls-1" d="M557.33,431.52c-1.62-.04-6.12,3.58-8.94,5.06"/>
        <path class="cls-1" d="M237.05,378.4c1-.83,2.01-1.66,3.83-3.16-.47.85-.69,1.26-1.06,1.94,2.12-1.6,3.97-2.9,5.79-4.23v-.3c.84-.36,1.66-.72,2.21-.96,2.91-1.99,5.52-3.76,8.16-5.51"/>
        <path class="cls-1" d="M157.89,450.94c.27-.64.54-1.28.73-1.72,1.08-1.15,2.03-2.17,2.99-3.18"/>
        <line class="cls-1" x1="416.79" y1="581.42" x2="415.34" y2="580.87"/>
        <path class="cls-1" d="M376.87,586.84c.17-.13.34-.25.84-.63-1.66.39-2.27.54-2.89.68"/>
        <path class="cls-1" d="M606.64,390.9c.17-.48.04-.76.59-1.48.94-1.23,2.22-2.8,3.36-4.21"/>
        <path class="cls-1" d="M337.35,589.4c1.17,0,2.34,0,4.33.02-1.59.29-2.6.48-2.95.55-1.83-.06-3.3-.1-4.78-.14"/>
        <path class="cls-1" d="M197.84,403.9c2.1-1.12,4.2-2.23,6.51-3.46,1.96-2.06,4.09-4.11,6.37-6.13,2.29-2,4.78-3.91,7.4-5.75"/>
        <line class="cls-1" x1="114.44" y1="522.9" x2="115.28" y2="525.11"/>
        <path class="cls-1" d="M531.74,222.07c1.73-.58,3.47-1.16,5.2-1.63,1.1-.3,2.42-.74,3.56-1.05,1.14-.29,2.11-.42,2.48-.14"/>
        <path class="cls-1" d="M279.35,591.25c-4.54-.27-6.56-1.05-8.87-1.72"/>
        <path class="cls-1" d="M333.13,309.98c-1.97,1.59-3.97,3.14-5.87,4.74,1.51-.21,2.57-.36,3.65-.49"/>
        <line class="cls-1" x1="641.32" y1="360.87" x2="645.66" y2="354.66"/>
        <path class="cls-1" d="M641.84,212.25c-.31.63-.1,1.11.92,1.68.51.28,1.22.58,2.19.92.95.37,2.14.8,3.62,1.32"/>
        <path class="cls-1" d="M166.55,581.35c-1.1-.33-2.18-.74-3.26-1.11-1.09-.37-2.17-.77-3.23-1.19"/>
        <line class="cls-1" x1="307.97" y1="588.8" x2="309.31" y2="588.05"/>
        <polyline class="cls-1" points="663.55 324.73 665.07 321.69 664.1 321.91"/>
        <path class="cls-1" d="M636.17,214.49c-3.03-.83-6.13-1.42-9.23-1.97"/>
        <path class="cls-1" d="M256.5,364.6c.53-.43,1.04-.87,1.59-1.3.14-.11.4-.2.61-.31l-1.58,1.3"/>
        <path class="cls-1" d="M121.73,527.25c-.12,0-.24,0-.46,0,.16,3.87.76,7.61,1.86,11.17"/>
        <line class="cls-1" x1="575.61" y1="212.53" x2="577.73" y2="212.98"/>
        <line class="cls-1" x1="462" y1="247.69" x2="468.43" y2="245.41"/>
        <path class="cls-1" d="M641.65,356.7c-.98,1.43-1.96,2.85-2.68,3.91-.69.75-1.27,1.28-1.79,1.71-.54.42-1.04.74-1.55,1.11-1.01.74-2.06,1.64-3.65,3.8"/>
        <path class="cls-1" d="M188.42,418.89c-.56.85-1.11,1.69-2.04,3.11-.87.32-1.37.5-1.86.69"/>
        <path class="cls-1" d="M134.22,476.79c-.98,1.54-1.96,4.32-2.85,3.93"/>
        <path class="cls-1" d="M127.12,499.33c-.03-1.01-.08-2.05-.08-3.17,1.27-1.68,2.29-2.93,3.3-4.18"/>
        <path class="cls-1" d="M651.86,215.72c-.03.25-.06.5-.12,1.02-1.57-1.24-2.49-2.03-3.46-2.7-.51-.16-1.42-.44-2.34-.73"/>
        <path class="cls-1" d="M178.58,584.21c-1.59-.27-3.16-.58-5.03-.93,1.05.46,2.01.87,3.66,1.6-.02-.29-.04-.45-.05-.62"/>
        <path class="cls-1" d="M358.76,294.25c1.99-.63,4.07-1.33,5.94-1.87,1.11-.32,1.9-.4,2.83-.59"/>
        <line class="cls-1" x1="468.86" y1="570.41" x2="472.88" y2="569.71"/>
        <line class="cls-1" x1="679.1" y1="266.91" x2="678.14" y2="266.97"/>
        <line class="cls-1" x1="258.76" y1="356.11" x2="264.03" y2="352.9"/>
        <path class="cls-1" d="M645.61,214.21c1.12.64,2.24,1.23,3.33,1.89,1.08.69,2.17,1.32,3.21,2.06l.98.05c-1.04-.61-2.12-1.14-3.21-1.66"/>
        <path class="cls-1" d="M664.39,328.44c2.16-4.02,3.53-5.58,4.8-6.43,1.75-3.3,3.42-6.66,4.97-10.2.88-.5,1.54-.91,2.21-1.31"/>
        <polyline class="cls-1" points="238.3 592.83 240.35 592.78 240.46 592.59 237.63 592.44"/>
        <line class="cls-1" x1="451.22" y1="253.72" x2="449.27" y2="256.09"/>
        <path class="cls-1" d="M544.39,445.12c-.16-.23-.82-.18-.38-.74,1.16-1.48.94-1.85-1.97-.25"/>
        <path class="cls-1" d="M682.57,281.87c-.26.89-.53,1.78-.9,3.04-.03-1.04-.06-2.05-.09-3.02.32-1.23.57-2.32.94-3.99-.32-.11-.56-.19-.8-.28"/>
        <path class="cls-1" d="M595.87,210.11c-1.03-.07-2.06-.14-4.05-.28-.26.81-.51,1.59-.77,2.42,2.45-.23,4.67-.52,6.91-.63"/>
        <path class="cls-1" d="M576.66,417.56c-.9.69-1.82,1.38-2.69,2.08-.72.58-1.4,1.17-2.09,1.75"/>
        <path class="cls-1" d="M547.12,444.24c-3.49,1.89-1.52-.02-.76-1.08"/>
        <line class="cls-1" x1="310.06" y1="590.44" x2="309.34" y2="589.01"/>
        <path class="cls-1" d="M290.98,592.85c.53.14,1.05.27,1.89.49,1.15-.55,2.02-.97,2.89-1.39"/>
        <line class="cls-1" x1="257.47" y1="592.61" x2="253.37" y2="592.28"/>
        <path class="cls-1" d="M122.63,515.14c-.35,1.47-.7,2.95-.93,4.43"/>
        <path class="cls-1" d="M180.91,579.92c1.26.52,2.53,1.03,3.81,1.51"/>
        <path class="cls-1" d="M316.18,589.5c1.82-.07,3.64-.13,6.14-.23l-.03-.72"/>
        <path class="cls-1" d="M185.21,419.51c-2.06,1.23-3.59,2.79-5,4.4-1.39,1.63-2.68,3.28-4.03,4.93"/>
        <line class="cls-1" x1="164.1" y1="582.21" x2="163.66" y2="581.31"/>
        <path class="cls-1" d="M226.16,588.91c.22.13.45.26.71.42,2.49-.07,4.98-.16,7.47-.26"/>
        <line class="cls-1" x1="140.23" y1="472.61" x2="140.11" y2="474.21"/>
        <path class="cls-1" d="M248.03,587.59c-1.53-.58-3.43-1.19,2.08-1.27"/>
        <path class="cls-1" d="M501.04,229.32c3.37.27-4.05,1.77-4.91,2.52"/>
        <path class="cls-1" d="M280.43,340.55c-.63.29-1.26.59-2.08.97-1.21,1.52-.4,2.1-5.23,5.3"/>
        <line class="cls-1" x1="272.64" y1="348.49" x2="273.05" y2="349.08"/>
        <path class="cls-1" d="M594.36,207.19c-.01-.28-.03-.56-.05-1.09-2.78.34-4.5.53-6.21.77"/>
        <path class="cls-1" d="M517.42,458.86c-1.37.84-2.75,1.68-4.71,2.88-.44.5-1.08,1.2-1.71,1.91l1.4-.63,2.75-2.64"/>
        <path class="cls-1" d="M159.29,453.01c.82-1.05,1.63-2.13,2.8-3.58.46-.03.86-.06,1.26-.09"/>
        <path class="cls-1" d="M524.61,219.85c2.74-.83,5.51-1.59,8.26-2.39,2.78-.73,5.53-1.52,8.32-2.21"/>
        <path class="cls-1" d="M273.9,588.12c.68-.44,6.74-.53,2.05-1.43,0,.36,0,.6,0,.85"/>
        <path class="cls-1" d="M394.66,280.51c.66-.23,8.74-4,9.91-4.51"/>
        <path class="cls-1" d="M364.44,291.83c2.06-.93,4.13-1.87,7.7-3.48-.74-.42-1.31-.75-2.12-1.21,2.4-.99,4.5-1.86,6.59-2.72l-.48.55-3.61,1.67,1.04-.95"/>
        <path class="cls-1" d="M135.9,569.29c-.46-.39-.92-.77-1.37-1.18l-1.31-1.26"/>
        <path class="cls-1" d="M677.4,253.27c.15,2.04.16,3.27.34,4.25.2.98.46,1.74.98,2.85"/>
        <line class="cls-1" x1="170.78" y1="439.62" x2="169.32" y2="441.96"/>
        <path class="cls-1" d="M506.6,232.81c.34.1.69.19,1.15.33-.35.18-1.14.6-2,1.05-.37-.05-.62-.09-.88-.12"/>
        <line class="cls-1" x1="208.17" y1="590.65" x2="207.59" y2="589.62"/>
        <polyline class="cls-1" points="518.76 221.85 520.79 221.44 518.91 222.3"/>
        <line class="cls-1" x1="454.01" y1="253.34" x2="446.43" y2="256.37"/>
        <path class="cls-1" d="M674.7,247.3c-.61-2.07-1.4-4.6-2.3-5.96-.43-.7-.87-1.09-1.34-1.39-.46-.31-.91-.53-1.36-.87"/>
        <line class="cls-1" x1="263.7" y1="587.07" x2="275.26" y2="586.81"/>
        <line class="cls-1" x1="367.67" y1="287.75" x2="368.56" y2="287.95"/>
        <path class="cls-1" d="M280.72,348.11c2.81-.91,6.91-4.11,10.53-6.28"/>
        <path class="cls-1" d="M424.77,259.64c2.35-.89,4.69-1.82,7.06-2.66"/>
        <path class="cls-1" d="M476.22,244.77c1.48-.56,2.99-1.06,4.49-1.59"/>
        <path class="cls-1" d="M171.03,583.24c1.12.25,2.24.52,4.82,1.01-.95.37-1.71.67-2.47.96"/>
        <line class="cls-1" x1="248.74" y1="586.53" x2="252.14" y2="586.49"/>
        <path class="cls-1" d="M207.69,395.33c1.6-1.3,3.18-2.62,4.81-3.88"/>
        <line class="cls-1" x1="160.27" y1="452.95" x2="157.75" y2="456.15"/>
        <path class="cls-1" d="M265.73,587.45c-3.17-.34-6.34-.69-9.51-1.1"/>
        <line class="cls-1" x1="490.88" y1="231.42" x2="486.08" y2="234.24"/>
        <path class="cls-1" d="M136.05,482.08c1.09-1.16,2.18-2.31,3.49-3.63-.85,1.57-1.64,3.12-2.42,4.68l.42-.15c2.19-3.59,4.54-7.1,6.99-10.55"/>
        <path class="cls-1" d="M240.89,369.91l9.3-5.75.58-.74c.71-.17,1.42-.34,2.13-.51.59-.51,1.27-1.12,1.96-1.72"/>
        <path class="cls-1" d="M413.74,584.59c-1.84,0-3.67,0-5.52-.05"/>
        <path class="cls-1" d="M668.13,326.66c-2.11,3.18-4.58,6.98-5.42,6.41"/>
        <path class="cls-1" d="M323.8,592.22c-1.15-.12-2.37-.37-3.42-.32-1.43.07-2.74.39-4.1.6"/>
        <path class="cls-1" d="M565.5,210.19c2.15.26,4.31.63,6.45.97"/>
        <path class="cls-1" d="M412.53,585.95c-1.37-.1-2.74-.22-4.32-.38-1.97.4-3.95.8-5.92,1.2"/>
        <line class="cls-1" x1="481.05" y1="572.72" x2="481.52" y2="571.53"/>
        <path class="cls-1" d="M653.52,345.12c-1.07,1.49-2.17,2.99-3.19,4.47-1.58,2.28-3.09,4.57-4.79,6.73"/>
        <path class="cls-1" d="M658.48,221.21c1.27,1.04,2.55,2.05,3.69,3.17,1.2,1.06,2.25,2.22,3.27,3.31.75-.13,1.5-.23,2.51-.33-.79-.67-1.56-1.15-2.29-1.68-.74-.51-1.47-1.05-2.38-1.57.28.25.54.5.81.74.25.26.49.51.73.76.47.49.93.97,1.37,1.42.87.92,1.6,1.88,2.38,2.79"/>
        <path class="cls-1" d="M541.19,445.3c-.2.39-.39.77-.89,1.74-2.1.84-3.48,1.4-4.86,1.95"/>
        <line class="cls-1" x1="448.45" y1="580.84" x2="451.08" y2="579.94"/>
        <line class="cls-1" x1="469.87" y1="576.2" x2="467.16" y2="576.55"/>
        <line class="cls-1" x1="241" y1="368.92" x2="239.31" y2="371.23"/>
        <polyline class="cls-1" points="140.22 469.2 140.18 470.28 138.92 471.89 138.52 469.66"/>
        <path class="cls-1" d="M180.95,586.31c.54-.23,1.08-.45,1.8-.76,2.11.67,3.58,1.16,5.06,1.58"/>
        <path class="cls-1" d="M682.03,261.22c-.94-2.78-1.6-3.22-1.99-1.75"/>
        <path class="cls-1" d="M610.28,387.83c.08.53.16,1.06.25,1.7,1.46-1.07,2.94-2.16,4.4-3.24.11.11.27.28.49.51,2.52-2.75,4.39-4.72,5.29-5.83-.35-.34-.66-.65-.97-.96"/>
        <line class="cls-1" x1="346.43" y1="298.86" x2="343.04" y2="301.21"/>
        <path class="cls-1" d="M241.67,373.22c.7-.84,1.41-1.67,2.09-2.49,2.08-1.44,3.95-2.73,5.82-4.02"/>
        <path class="cls-1" d="M369.39,288.04c-.41.35-.81.69-1.48,1.27.96-.38,1.69-.67,2.42-.96"/>
        <path class="cls-1" d="M329.02,309.77c-1.24,1.04-2.44,2.13-3.66,3.21"/>
        <path class="cls-1" d="M671.39,229.21c.23.45.55,1.01.65,1.33.36,1.06.55,2.07.75,3.1"/>
        <line class="cls-1" x1="465.49" y1="574.89" x2="462.67" y2="574.65"/>
        <path class="cls-1" d="M278.58,345.06c1.47-1.08,2.94-2.16,3.81-2.8,1.48-.6,2.71-1.09,3.95-1.59"/>
        <path class="cls-1" d="M658.84,338.78c-.53,1.7-.91,2.74-1.46,3.65-.28.45-.6.87-1,1.32-.42.44-.94.9-1.58,1.45"/>
        <path class="cls-1" d="M644.78,358.37c-.17.46-.34.91-.43,1.18l-2.99,3.02c-.99,1.01-1.98,2.02-3.03,2.97"/>
        <line class="cls-1" x1="499.01" y1="568.48" x2="498.89" y2="567.89"/>
        <polyline class="cls-1" points="540.63 445.69 539.13 445.79 540.93 444.45 541.12 445.2"/>
        <path class="cls-1" d="M431.73,579.91c.47.05,1.1.2,1.38.15,2.2-.41,4.33-.85,6.73-1.34-.01-.09-.05-.33-.08-.56"/>
        <path class="cls-1" d="M211.89,587.75c2.7.36,5.41.71,8.13,1.01"/>
        <polyline class="cls-1" points="364.82 590.36 362.45 590.26 363.13 589.99 366.16 590.01"/>
        <path class="cls-1" d="M120.93,551.69c.76,1.39,1.67,2.68,2.5,4.03.94,1.26,1.88,2.54,2.87,3.75"/>
        <path class="cls-1" d="M358.62,295.42c-1.65,1.25-3.26,2.57-4.88,3.85"/>
        <path class="cls-1" d="M254.78,590.39c.68-.02,1.36-.05,2.22-.08l-2.87-1.26"/>
        <line class="cls-1" x1="298.29" y1="332.77" x2="293.05" y2="335.99"/>
        <line class="cls-1" x1="325.84" y1="311.13" x2="316.38" y2="317.97"/>
        <path class="cls-1" d="M665.79,322.11c2.26-2.62,2.72-3.5,3.52-6.67.17-.73.79-2.07,1.17-3.14"/>
        <path class="cls-1" d="M275.94,589.57l-1.38.47c2.06.19,4.11.34,6.16.48"/>
        <path class="cls-1" d="M258.2,590.11c1.37-.2,2.74-.41,4.46-.71-1.2-.49-2.47-1.01-3.74-1.55"/>
        <line class="cls-1" x1="483.34" y1="238.6" x2="480.11" y2="239.69"/>
        <path class="cls-1" d="M621.05,210.62c-.12.2.26.52.05.69-.21.17-1.02.21-3.52-.07"/>
        <path class="cls-1" d="M649.28,217.96c-1.26-.52-2.56-.93-3.85-1.37"/>
        <line class="cls-1" x1="543.5" y1="215.89" x2="545.07" y2="216.47"/>
        <path class="cls-1" d="M305.02,329.35c-2.73.74-6.08,3.26-9.36,5.61"/>
        <path class="cls-1" d="M660.77,221.61c-1.77-1.06-3.57-2.06-6.41-3.35,1.35,1.02,1.86,1.55,3.37,2.83.27-.43.38-.6.49-.77"/>
        <line class="cls-1" x1="127.8" y1="492.93" x2="128.65" y2="492.61"/>
        <line class="cls-1" x1="650.92" y1="349.19" x2="654.29" y2="345.69"/>
        <polyline class="cls-1" points="550.48 438.34 553.85 435.8 553.7 435.55 549.64 438.34"/>
        <line class="cls-1" x1="334.09" y1="310.25" x2="331.06" y2="313.16"/>
        <line class="cls-1" x1="419.95" y1="265.54" x2="419.17" y2="267.08"/>
        <line class="cls-1" x1="179.03" y1="582.22" x2="182.35" y2="582.93"/>
        <path class="cls-1" d="M588.06,412.15q-2.45,1.23.55-2.27c.2.59.32.95.44,1.31"/>
        <line class="cls-1" x1="160.87" y1="580.88" x2="159.2" y2="579.37"/>
        <path class="cls-1" d="M181.71,424.7c-1.28,1.61-2.59,3.18-3.85,4.8"/>
        <path class="cls-1" d="M665.88,224.4c.55.47,1.16.87,2.55,2.09-.57-.06-.98-.1-1.42-.12"/>
        <path class="cls-1" d="M680.2,244.25c.31,1.44.67,2.84.86,4.28"/>
        <line class="cls-1" x1="611.1" y1="388.71" x2="614.45" y2="384.33"/>
        <path class="cls-1" d="M429.55,579.13c.93-.39,1.86-.79,2.55-1.08,3.1-.5,1.71,1.08,6.19-.41"/>
        <path class="cls-1" d="M285.48,589.53l-.24-.72c1.6-.01,2.96-.02,4.33-.03"/>
        <path class="cls-1" d="M676.12,299.97c.85-2.82,1.56-5.67,2.17-8.53"/>
        <line class="cls-1" x1="393.66" y1="583.27" x2="392.24" y2="582.81"/>
        <line class="cls-1" x1="290.95" y1="590.09" x2="290.24" y2="588.17"/>
        <path class="cls-1" d="M125.09,499.16c-.4.51-.8,1.03-1.37,1.77.08.82.18,1.49.26,2.11.88-2.04,1.87-4.05,2.89-6.04"/>
        <line class="cls-1" x1="200.96" y1="407.39" x2="201.36" y2="407.84"/>
        <path class="cls-1" d="M668.53,322.88c-1.46,2.61-2.96,5.2-4.52,7.75"/>
        <line class="cls-1" x1="330.66" y1="313.82" x2="336.98" y2="309.79"/>
        <path class="cls-1" d="M623.94,380.33c-1.28.51-1.56.08.34-2.44.17-.23-.49.07-.76.12"/>
        <line class="cls-1" x1="619.1" y1="385.19" x2="615.88" y2="387.78"/>
        <path class="cls-1" d="M658.67,219.61c-1.41-.88-2.8-1.83-4.27-2.6"/>
        <path class="cls-1" d="M678.8,254.26c-.67-2.36-1.44-4.69-2.4-6.93"/>
        <path class="cls-1" d="M679.44,257.54c1.37,4.24-.17,1.66.11,3.36"/>
        <path class="cls-1" d="M455.18,575.28c.43-.19.86-.38,1.6-.71-3.36.34-6.56.67-9.79,1-2.52.63-4.93,1.22-7.35,1.76"/>
        <line class="cls-1" x1="360.64" y1="589.62" x2="366.75" y2="588.75"/>
        <path class="cls-1" d="M308.38,325.76c-.91,1.11-1.63,2.13-2.8,3.36-.64.67-2.04,1.71-3.1,2.58"/>
        <line class="cls-1" x1="599.97" y1="210.97" x2="602.01" y2="211.52"/>
        <line class="cls-1" x1="258.23" y1="588.67" x2="252.8" y2="587.46"/>
        <path class="cls-1" d="M122.03,510.23c-.36,1.3-.73,2.59-1.11,4.33-.18-.7-.29-1.13-.51-1.99.71-1.12,1.11-1.75,1.51-2.37"/>
        <path class="cls-1" d="M583.21,411.59c1.79-1.39,3.58-2.77,5.41-4.18.39-.6.77-1.19,1.14-1.77"/>
        <path class="cls-1" d="M210,586c2.46.17,5.32,1.22,7.45.53"/>
        <path class="cls-1" d="M673.65,304.09c.94-2.77,1.81-5.55,2.52-8.37"/>
        <path class="cls-1" d="M668.25,324.32c-.86,2.37-1.78,3.74-2.69,4.03"/>
        <path class="cls-1" d="M585.79,409.36c-.18-.82,1.5-2.56,4.47-5.25"/>
        <line class="cls-1" x1="371.2" y1="584.66" x2="365.73" y2="584.62"/>
        <path class="cls-1" d="M531.74,219.69c-.46.06-.92.11-1.63.2-.35.21-.67.4-.99.6"/>
        <path class="cls-1" d="M629.81,208.16c1.99,1.02-1.82,1.13,1.67,2.39"/>
        <line class="cls-1" x1="184.25" y1="424.35" x2="185.32" y2="424.45"/>
        <path class="cls-1" d="M458.06,252.44c-1.31.12-2.62.25-4.64.44,3.45-1.47,5.98-2.55,8.51-3.63l-.6-.14-3.86,1.88"/>
        <path class="cls-1" d="M634.55,215.43c-.88-.29-1.79-.5-2.71-.75-.92-.26-1.86-.49-2.85-.71,2.28-.16,3.48.3,4.32.91"/>
        <path class="cls-1" d="M579.73,414.86c1.25-1.2,2.5-2.41,4.04-3.89-2.08,1-3.61,1.74-5.17,2.49-.08.04-.39.29-.51.41-.19.19-.31.35-.46.52"/>
        <path class="cls-1" d="M351.13,301.58c-1.15,1.21,1.81.6-3.43,3.61"/>
        <path class="cls-1" d="M122.23,509.59c1.48-3.44,3.36-8.47,5.27-10.78.32-.39.49-.31.72-.44"/>
        <path class="cls-1" d="M554.58,438.21c-.36.01-.71.02-1.08.04,1.1-.79,2.03-1.45,2.96-2.11"/>
        <path class="cls-1" d="M662.02,228.84c1.72,1.32,3.33,2.78,4.86,4.32"/>
        <path class="cls-1" d="M637.45,212.34c-3.1-.89-6.25-1.59-9.41-2.19"/>
        <line class="cls-1" x1="596.97" y1="400.47" x2="588.94" y2="405.71"/>
        <path class="cls-1" d="M329.95,308.66c.25.47.19,1.16,3.62-.61"/>
        <path class="cls-1" d="M325.88,317.74c2.08-1.38,4.15-2.78,6.27-4.1"/>
        <line class="cls-1" x1="331.97" y1="591.12" x2="327.16" y2="590.77"/>
        <path class="cls-1" d="M120.18,523.33c.32.67.3,1.53.19,2.45-.07.92-.22,1.9-.21,2.78.06.85.01,1.73.03,2.61"/>
        <path class="cls-1" d="M167.43,442.09c-.46,1.34-4.08,6.21.62,2.19-1.12,1.29-1.71,1.97-2.3,2.66"/>
        <path class="cls-1" d="M585.36,207.51c1.64.07-.32.92,3.51.51"/>
        <path class="cls-1" d="M383.42,285.42c2.05-.98,4.09-1.97,6.16-2.9"/>
        <path class="cls-1" d="M666.47,225.9c-.87-.81-1.7-1.69-2.64-2.43"/>
        <path class="cls-1" d="M680.14,245.06c-.45-.59-.9-1.17-1.4-1.73"/>
        <polyline class="cls-1" points="290.24 587.93 289.35 587.32 287.87 587.43 289.56 588.06"/>
        <path class="cls-1" d="M187.29,582.3c1.81.1,3.61.24,5.42.31"/>
        <path class="cls-1" d="M364.63,295.01c-.54.43-1.08.86-2.16,1.72,2.67-1.26,5.03-2.37,7.4-3.49"/>
        <path class="cls-1" d="M144.18,567c.79.5,1.63.92,2.46,1.36.84.42,1.64.9,2.5,1.28l.94.09-1.36-.85-1.31-.91"/>
        <line class="cls-1" x1="301.79" y1="586.9" x2="295.66" y2="586.43"/>
        <path class="cls-1" d="M138.78,570.2c-.8-.22-1.59-.48-2.39-.73l.81.82c1.05.49,2.16.86,3.23,1.27"/>
        <path class="cls-1" d="M152.48,450.87c-1.68,2.18-3.33,4.37-4.96,6.58"/>
        <line class="cls-1" x1="229.57" y1="589.09" x2="227.55" y2="588.5"/>
        <path class="cls-1" d="M534.31,453.38c2.09-1.35,4.18-2.71,6.63-4.35-.2.29-.43.63-.78,1.16.91-.61,1.68-1.13,2.44-1.65"/>
        <line class="cls-1" x1="222.15" y1="587.58" x2="228.95" y2="587.85"/>
        <line class="cls-1" x1="267.03" y1="594.18" x2="268.4" y2="593.71"/>
        <line class="cls-1" x1="278.67" y1="589.09" x2="278.66" y2="587.65"/>
        <path class="cls-1" d="M117.87,532.04c.19.66.38,1.3.59,2,.42,1.29.82,2.61,1.34,3.86"/>
        <path class="cls-1" d="M568.69,212.41c-.66.22-1.3.47-1.95.72"/>
        <path class="cls-1" d="M651.82,338.88c-.71.87-1.49,1.7-2.26,2.52"/>
        <path class="cls-1" d="M366.21,292.23c-.18.19-.36.37-.83.87,1.07-.66,1.61-.98,2.15-1.31"/>
        <path class="cls-1" d="M442.62,252.67c5.1-1.25-1.15,1.15-2.17,1.86"/>
        <line class="cls-1" x1="606.93" y1="393.22" x2="608.69" y2="392.12"/>
        <line class="cls-1" x1="403.82" y1="582.13" x2="403.09" y2="581.73"/>
        <path class="cls-1" d="M299.88,335.17c2.28-.66,4.19-1.88,5.68-3.74"/>
        <path class="cls-1" d="M682.23,283.21c.59-1.07,1.14-2.17,1.66-3.29"/>
        <path class="cls-1" d="M679.96,297.65c-.32.63-.66,1.25-1.01,1.86"/>
        <path class="cls-1" d="M407.09,267.08c-.85.31-1.69.62-2.44.89-.41.39-.79.74-1.16,1.09"/>
        <line class="cls-1" x1="182.52" y1="426.45" x2="182.39" y2="427.27"/>
        <line class="cls-1" x1="600.97" y1="401.95" x2="599.61" y2="402.48"/>
        <line class="cls-1" x1="602.95" y1="402.13" x2="602.63" y2="401.77"/>
        <line class="cls-1" x1="316.32" y1="593.57" x2="315.61" y2="592.76"/>
        <path class="cls-1" d="M288.94,593.94c1.72-.17,3.44-.35,5.7-.58.04,0,.59.14,1.15.26"/>
        <path class="cls-1" d="M133.65,489.24c-.92,1.51-1.82,3.04-2.66,4.59"/>
        <path class="cls-1" d="M611.36,213.62c-.88-.13-1.77-.28-2.66-.35"/>
        <path class="cls-1" d="M377.82,582.17c-.9.09-1.81.17-2.71.24l-.04.12c1.15-.09,2.29-.2,3.43-.31"/>
        <line class="cls-1" x1="646.67" y1="350.25" x2="649.25" y2="346.22"/>
        <polyline class="cls-1" points="681.85 296.03 680.89 298.69 679.85 301.31"/>
        <path class="cls-1" d="M676.02,290.16c-.25.84-.54,1.67-.81,2.5"/>
        <line class="cls-1" x1="410.18" y1="267.2" x2="409.15" y2="268.23"/>
        <line class="cls-1" x1="571.77" y1="214.35" x2="571.85" y2="214.82"/>
        <path class="cls-1" d="M508.31,229.42c-.76-.05-1.53-.09-2.32-.14-2.57,1.22-.06,1.3-4.71,2.77"/>
        <polyline class="cls-1" points="422.26 581.2 419.57 581.54 419.49 581.19 423.57 580.67"/>
        <path class="cls-1" d="M190.89,410.57c.7-.59,1.4-1.19,2.32-1.97-.36.51-.67.95-.99,1.39"/>
        <path class="cls-1" d="M196,588.2c1.82.21,3.64.43,5.46.6"/>
        <path class="cls-1" d="M407.33,582.82c1.61-.22,3.22-.44,4.82-.7-.36-.4-.63-.69-.89-.97"/>
        <path class="cls-1" d="M266.9,356.89c-.3.41-.61.82-1.06,1.43.72-.39,1.41-.77,2.1-1.15"/>
        <line class="cls-1" x1="524.5" y1="221.78" x2="523.3" y2="222.54"/>
        <line class="cls-1" x1="576.56" y1="209.5" x2="577.99" y2="209.8"/>
        <line class="cls-1" x1="650.17" y1="215.99" x2="649.34" y2="216.14"/>
        <path class="cls-1" d="M643.28,214.52c-.56-.04-1.12-.09-1.77-.14-.65-.02-1.41-.05-2.35-.08,1.93.61,3.46,1.21,5.01,1.8"/>
        <line class="cls-1" x1="438.26" y1="577.4" x2="431.43" y2="577.77"/>
        <path class="cls-1" d="M167.4,583.35c.93.14,1.85.3,2.08.32.14-.51.26-.93.38-1.36"/>
        <line class="cls-1" x1="243.44" y1="368.75" x2="239.85" y2="373.08"/>
        <path class="cls-1" d="M124.82,490.61c.77-.5-.42,3.49,2.71-2.5"/>
        <line class="cls-1" x1="569.57" y1="422.87" x2="568.2" y2="423.32"/>
        <path class="cls-1" d="M442.68,251.07c-.18.16-.35.33-.55.51-.43.14-.86.28-1.28.42"/>
        <path class="cls-1" d="M143.65,469.22c1.48-1.97,3.23-4.39,3.4-3.38"/>
        <path class="cls-1" d="M550.47,441.88c.21-.49.42-.99.64-1.5-2.19,1.24-4.41,2.46-6.64,3.66"/>
        <line class="cls-1" x1="444.8" y1="579.6" x2="445.4" y2="579.01"/>
        <path class="cls-1" d="M405.53,585.08c2.02-.4,4.04-.76,6.05-1.18"/>
        <polyline class="cls-1" points="680.62 274.17 680.21 271.5 679.69 272.81"/>
        <polyline class="cls-1" points="260.2 592.92 262.25 593.42 265.67 593.45"/>
        <line class="cls-1" x1="195.6" y1="411.61" x2="194.34" y2="413.27"/>
        <line class="cls-1" x1="164.54" y1="441.36" x2="164.46" y2="442.19"/>
        <path class="cls-1" d="M114.81,529.43c.31-.74.68-1.46,1.04-2.17"/>
        <path class="cls-1" d="M153.23,452.39c-.62,1.56-1.26,3.11-1.85,4.68"/>
        <path class="cls-1" d="M531.15,222.5c-1.68.73-3.37,1.41-5.03,2.17"/>
        <line class="cls-1" x1="321.95" y1="313.96" x2="319.62" y2="315.4"/>
        <path class="cls-1" d="M493.06,231.4l-2.58.92-.26.25,2.97-.84c1.06-1.05,3.34-1.69,5.72-2.3"/>
        <path class="cls-1" d="M568.44,210.99c-1.83.49-5.03.94-5.29,1.6"/>
        <polyline class="cls-1" points="612.16 386.86 608.65 390.06 605.03 393.16"/>
        <path class="cls-1" d="M522.98,226.04c-.85.4-1.7.77-3.1,1.44,1.67-.48,2.8-.76,3.93-1.08"/>
        <path class="cls-1" d="M136.15,566.64c.47.15.95.31,1.33.43-.86-.77-1.64-1.59-2.4-2.42"/>
        <line class="cls-1" x1="209.82" y1="395.72" x2="208.8" y2="397.7"/>
        <line class="cls-1" x1="533.25" y1="222.36" x2="532.08" y2="223.22"/>
        <line class="cls-1" x1="532.05" y1="454.92" x2="529.95" y2="455.48"/>
        <line class="cls-1" x1="374.32" y1="589.1" x2="371.59" y2="589.2"/>
        <line class="cls-1" x1="232.83" y1="592.36" x2="236.26" y2="592.39"/>
        <path class="cls-1" d="M125.57,490.21c.87-1.64,1.77-3.27,2.71-4.87"/>
        <path class="cls-1" d="M199.78,402.98c-.98,1.1-1.95,2.21-2.63,2.98-.24,1.06,4.64-4.11,3-1.53"/>
        <line class="cls-1" x1="224.08" y1="382.87" x2="226.91" y2="380.93"/>
        <line class="cls-1" x1="252.56" y1="361.54" x2="250.28" y2="363.05"/>
        <path class="cls-1" d="M667.36,319.08l-.57.53c.21-.47.39-.88.57-1.3"/>
        <path class="cls-1" d="M655.5,338.15c-1.28,1.59-2.51,3.21-4.52,5.42.54-.08.92-.13,1.3-.19"/>
        <path class="cls-1" d="M245.27,588.73c-.68-.06-1.36-.12-2.56-.22,1.24-.14,2.25-.25,3.25-.36"/>
        <line class="cls-1" x1="310.09" y1="591.28" x2="308.71" y2="590.83"/>
        <polyline class="cls-1" points="684.64 277.16 684.75 274.69 684.75 272.22"/>
        <line class="cls-1" x1="467.85" y1="572.53" x2="469.8" y2="571.83"/>
        <line class="cls-1" x1="366.13" y1="589.65" x2="372.93" y2="588.85"/>
        <path class="cls-1" d="M451.92,251.87c.66-.1,1.33-.2,2.5-.37.51-.54.87-.93,1.23-1.31"/>
        <line class="cls-1" x1="380.69" y1="583.7" x2="379.92" y2="582.81"/>
        <line class="cls-1" x1="559.16" y1="429.41" x2="561.5" y2="427.99"/>
        <path class="cls-1" d="M344.42,303.6c-.32.37-.64.73-1.04,1.19-.61.25-1.2.49-1.79.73"/>
        <path class="cls-1" d="M495.13,233.09c-.65.52-1.31,1.04-2.06,1.64-1.5.55-3.4,1.33-5.3,2.09"/>
        <line class="cls-1" x1="125.67" y1="496.43" x2="124.65" y2="498.96"/>
        <line class="cls-1" x1="649.7" y1="347.41" x2="651.53" y2="345.37"/>
        <path class="cls-1" d="M460.47,249.35c.01-.57.08-1.16-.07-1.66,0,0-.1.02-.27.08-.16.06-.39.14-.64.23-.51.19-1.12.42-1.54.58"/>
        <path class="cls-1" d="M658.27,225.14c-.77-.43-1.53-.87-2.31-1.28"/>
        <line class="cls-1" x1="649.26" y1="348.79" x2="647.43" y2="350.84"/>
        <line class="cls-1" x1="246.85" y1="368.75" x2="247.35" y2="369.42"/>
        <path class="cls-1" d="M680.06,287.68c.61-3.29,1.01-6.61,1.24-9.92l.23-.31c.1.97.09,1.93.14,2.9"/>
        <path class="cls-1" d="M617.04,388c-.77.22-1.54.44-2.22.64-.67.64-.91.85-.98.94-.07.09.11.02.05.11-.24.35-.54.74-.81,1.11"/>
        <path class="cls-1" d="M166.7,443.26c-.54.44-1.07.87-1.99,1.62.33-.57.66-1.15.9-1.56,1.54-1.48,2.55-2.39,3.55-3.33"/>
        <line class="cls-1" x1="610.78" y1="211.55" x2="613.45" y2="212.18"/>
        <path class="cls-1" d="M426.89,579.76l.72.26c.44-.14,1.32-.37,1.23-.42-.24-.14-.86-.2-1.33-.3"/>
        <line class="cls-1" x1="259.29" y1="360.33" x2="256.07" y2="364.02"/>
        <path class="cls-1" d="M451.92,576.52c-2.29-.39-.2-1.27,2.41-2.2"/>
        <path class="cls-1" d="M542.13,221.34c-.86.26-1.72.56-2.58.84"/>
        <path class="cls-1" d="M653.59,222.72c-1.07-.32-2.19-.54-3.27-.81"/>
        <polyline class="cls-1" points="480.16 571.66 477.95 570.98 476.41 571.34 478.08 571.69"/>
        <line class="cls-1" x1="472.04" y1="572.78" x2="469.94" y2="572.65"/>
        <path class="cls-1" d="M404.33,580.62l-.79-.88c1.34-.27,2.68-.54,4.79-.97-.3.32-.5.54-.7.75"/>
        <polyline class="cls-1" points="350.6 300.64 347.75 302.44 347.47 302.28 351.13 300.2"/>
        <path class="cls-1" d="M224.93,586.67c.08-.16.17-.31.31-.58,1.18.24,1.8.37,2.42.5"/>
        <line class="cls-1" x1="290.95" y1="336.53" x2="288.54" y2="337.86"/>
        <line class="cls-1" x1="581.2" y1="213.49" x2="578.56" y2="214.08"/>
        <line class="cls-1" x1="647.59" y1="345.83" x2="646.82" y2="345.25"/>
        <path class="cls-1" d="M117.27,517.52c-.03,2.35-.03,4.68.21,6.99"/>
        <path class="cls-1" d="M260.3,586.92c0,.28,0,.56-.01.81-2.48-.09-4.3-.16-6.12-.23"/>
        <polyline class="cls-1" points="335.87 587.31 330.34 587.47 330.22 587.26 333.13 586.98"/>
        <line class="cls-1" x1="514.2" y1="229.81" x2="518.87" y2="228.76"/>
        <path class="cls-1" d="M587.24,212.99c-.76.17-1.51.34-3.94.89,2.08,0,3.39,0,4.7,0"/>
        <line class="cls-1" x1="397.25" y1="584.8" x2="395.85" y2="584.48"/>
        <path class="cls-1" d="M674.29,301.45c-1.32,2.87-2.81,5.65-4.31,8.34-.1-.31-.19-.58-.28-.85"/>
        <path class="cls-1" d="M318.32,592.06c-3.63-.99-3.64-1-2.11-1.6"/>
        <polyline class="cls-1" points="384.93 585.09 394.1 584.53 395.08 584.91 397.16 583.97"/>
        <path class="cls-1" d="M522.97,221.51l-2.94,2.07c-.23.03-.58.11-.66.09-.13-.04-.08-.14-.1-.22"/>
        <path class="cls-1" d="M684.06,263.07c-.21-.05-.41-.11-.63-.16-.08-.46-.2-1.15-.33-1.84"/>
        <polyline class="cls-1" points="676.94 253.4 676.47 252.18 675.94 250.98"/>
        <path class="cls-1" d="M158.53,575.4c.86.26,1.74.48,2.6.72"/>
        <line class="cls-1" x1="176.17" y1="431.66" x2="174.4" y2="433.72"/>
        <polyline class="cls-1" points="198.74 406.95 199.06 407.31 200.51 405.86"/>
        <path class="cls-1" d="M284.98,338.7c.72-.16,1.43-.33,2.16-.47"/>
        <line class="cls-1" x1="392.23" y1="281.73" x2="387.48" y2="284.38"/>
        <path class="cls-1" d="M311.48,592.07l2.72-.58-.23-.2c-2.66.2-5.32.35-8.02.49-.51.32-.9.57-1.47.93,2.14.13,4.32.27,7.05.44-.38-.42-.55-.61-.73-.81"/>
        <line class="cls-1" x1="296.44" y1="592.53" x2="295.06" y2="591.48"/>
        <line class="cls-1" x1="499.11" y1="232.05" x2="498.1" y2="233.3"/>
        <line class="cls-1" x1="385.89" y1="281.28" x2="386.38" y2="282.24"/>
        <path class="cls-1" d="M118.25,515.58c-.43.45-.83.82-.99.34-.16-.48-.09-1.82.64-4.71"/>
        <path class="cls-1" d="M235.53,593.44c4.3-.12,1.54-.64.73-1.05"/>
        <line class="cls-1" x1="134.6" y1="473.68" x2="134.01" y2="474.97"/>
        <line class="cls-1" x1="150.37" y1="458.89" x2="150.59" y2="459.95"/>
        <line class="cls-1" x1="605.44" y1="205.9" x2="603.35" y2="205.87"/>
        <line class="cls-1" x1="217.42" y1="587.01" x2="219.43" y2="587.39"/>
        <path class="cls-1" d="M682.86,293.38c.05-.48.11-.95.14-1.43"/>
        <path class="cls-1" d="M616.13,387.05c-1.35.91-2.7,1.83-4.34,2.93.81-.88,1.46-1.58,2.11-2.29"/>
        <line class="cls-1" x1="131.49" y1="478.31" x2="132.18" y2="477.92"/>
        <line class="cls-1" x1="499.91" y1="228.19" x2="500.68" y2="228.3"/>
        <line class="cls-1" x1="617.71" y1="388.69" x2="616.55" y2="389.47"/>
        <line class="cls-1" x1="567.12" y1="430.99" x2="567.46" y2="430.3"/>
        <path class="cls-1" d="M281.39,589.07c.23-.08.48-.16.67-.25.08-.04.01-.08.01-.12"/>
        <path class="cls-1" d="M252.65,367.42c.49-.22.97-.44,1.49-.67.86-.71,1.92-1.58,2.98-2.45"/>
        <line class="cls-1" x1="124.55" y1="546.7" x2="124.98" y2="546.49"/>
        <path class="cls-1" d="M554.99,436.44c-.05-.06-.16-.09-.12-.21.03-.08.3-.31.46-.48"/>
        <line class="cls-1" x1="342.09" y1="300.92" x2="342.45" y2="301.55"/>
        <polyline class="cls-1" points="413.53 582.92 412.81 582.65 412.18 583.09"/>
        <line class="cls-1" x1="344.87" y1="589.35" x2="344.17" y2="589.04"/>
        <line class="cls-1" x1="660.26" y1="219.81" x2="659.47" y2="219.71"/>
        <line class="cls-1" x1="142.01" y1="464.48" x2="143.48" y2="463.01"/>
        <line class="cls-1" x1="657.99" y1="334.9" x2="657.03" y2="335.89"/>
        <line class="cls-1" x1="365.92" y1="587.02" x2="367.97" y2="586.97"/>
        <polyline class="cls-1" points="517.07 223.29 516.88 222.72 515.41 223.13 513.81 224.37"/>
        <line class="cls-1" x1="220.15" y1="586.84" x2="216.81" y2="585.99"/>
        <line class="cls-1" x1="552.42" y1="441.07" x2="551.66" y2="441.18"/>
        <path class="cls-1" d="M169.5,434.77c.09.08.35,0,.23.27-.33.75-.83,1.65-1.26,2.49"/>
        <line class="cls-1" x1="377.29" y1="583.91" x2="376.49" y2="582.66"/>
        <path class="cls-1" d="M677.6,306.45c.31-.63.62-1.26.9-1.9"/>
        <path class="cls-1" d="M344.29,300.63c.04.07.15.1.09.22-.04.08-.33.28-.51.43"/>
        <path class="cls-1" d="M191.63,585.11c.53-.03,1.06-.06,1.53-.08-.54-.29-.97-.52-1.4-.74"/>
        <line class="cls-1" x1="418.08" y1="267.98" x2="419.94" y2="267.13"/>
        <path class="cls-1" d="M118.3,507.67c-.22.67-.42,1.35-.6,2.03"/>
        <polyline class="cls-1" points="292.78 335.59 292.24 336.56 291.05 337.23 292.08 335.77"/>
        <line class="cls-1" x1="430.8" y1="578.23" x2="430.01" y2="577.49"/>
        <line class="cls-1" x1="452.37" y1="251.16" x2="459.39" y2="248.51"/>
        <line class="cls-1" x1="661.53" y1="326.67" x2="662.38" y2="324.81"/>
        <line class="cls-1" x1="155.05" y1="453.02" x2="153.83" y2="454.67"/>
        <line class="cls-1" x1="549.92" y1="437.55" x2="550.89" y2="436.57"/>
        <path class="cls-1" d="M582.26,418.06c-.61.33-1.21.68-1.83,1"/>
        <line class="cls-1" x1="397.43" y1="586.47" x2="399.47" y2="586.24"/>
        <line class="cls-1" x1="332.67" y1="591.57" x2="334.72" y2="591.46"/>
        <line class="cls-1" x1="587.08" y1="409.86" x2="588.82" y2="408.77"/>
        <path class="cls-1" d="M581.95,208.08c.24.06.55.1.67.18.04.03-.41.12-.63.18"/>
        <line class="cls-1" x1="623.33" y1="381.65" x2="626.9" y2="377.45"/>
        <path class="cls-1" d="M456.47,250.37c.84-.35,1.68-.7,2.52-1.05-.25-.02-.51-.05-.77-.07"/>
        <line class="cls-1" x1="403.35" y1="584" x2="409.23" y2="581.4"/>
        <line class="cls-1" x1="148.26" y1="458.05" x2="149.56" y2="456.46"/>
        <line class="cls-1" x1="225.91" y1="381.87" x2="224.38" y2="383.24"/>
        <polyline class="cls-1" points="467.57 245.1 471.26 243.25 469.9 243.5 473.74 242.14"/>
        <path class="cls-1" d="M314.76,587.75c.46.06.91.13,2.05.28.51-.44.92-.78,1.33-1.13"/>
        <line class="cls-1" x1="543.05" y1="446.78" x2="542.71" y2="446.29"/>
        <line class="cls-1" x1="368.83" y1="589.07" x2="367.39" y2="588.22"/>
        <line class="cls-1" x1="391.82" y1="585.39" x2="393.14" y2="584.9"/>
        <path class="cls-1" d="M653.49,345.96c.76-1.56.77-2.63,3.99-5.92-.55,1.03-1.08,2-1.59,2.95-.52.94-1.08,1.81-1.61,2.71"/>
        <line class="cls-1" x1="479.28" y1="574.39" x2="477.89" y2="574.41"/>
        <line class="cls-1" x1="378.74" y1="584.85" x2="377.37" y2="584.74"/>
        <line class="cls-1" x1="169.88" y1="433.27" x2="172.85" y2="431.34"/>
        <path class="cls-1" d="M158.62,451.56c.28-.16.56-.32,1.45-.82-1.83,1.64-2.78,2.5-3.73,3.35"/>
        <line class="cls-1" x1="528.76" y1="456.15" x2="527.99" y2="456.24"/>
        <line class="cls-1" x1="261.58" y1="592.45" x2="262.95" y2="592.23"/>
        <line class="cls-1" x1="667.59" y1="316.13" x2="666.2" y2="318.45"/>
        <path class="cls-1" d="M252.74,589.98c.45.13.9.26,1.81.52-1.81-.04-3.18-.07-4.55-.11"/>
        <path class="cls-1" d="M173.72,432.16c-.1.22-.25.5-.26.63,0,.05.34-.25.52-.39"/>
        <line class="cls-1" x1="410.97" y1="584.46" x2="412.28" y2="583.93"/>
        <path class="cls-1" d="M492.68,234.35c-3.54.86-1.27.71-1.8,1.04"/>
        <line class="cls-1" x1="245.77" y1="367.3" x2="244.2" y2="368.63"/>
        <line class="cls-1" x1="412.12" y1="582.62" x2="410.72" y2="582.43"/>
        <line class="cls-1" x1="117.71" y1="514.05" x2="118.42" y2="512.07"/>
        <path class="cls-1" d="M374.86,587.37c.29.18.59.37.89.55,1.15-.21,1.85-.35,2.55-.49"/>
        <path class="cls-1" d="M266.19,353.57c-.8.36-1.59.72-2.86,1.29-.65.45-2.15,1.49-3.65,2.52"/>
        <line class="cls-1" x1="392.71" y1="278.13" x2="390.93" y2="279.16"/>
        <path class="cls-1" d="M152.28,456.92c-.08.23-.21.51-.22.65,0,.05.32-.27.5-.42"/>
        <line class="cls-1" x1="137.13" y1="479.56" x2="138.19" y2="478.64"/>
        <path class="cls-1" d="M163.35,577.92c.69.15,1.38.3,2.25.49-1.18-.62-2.22-1.15-3.25-1.72"/>
        <path class="cls-1" d="M357.5,294.8c-.64.25-1.28.52-1.91.79"/>
        <path class="cls-1" d="M546.45,440.91c.36-.39.72-.78,1.35-1.46l2.19-.62"/>
        <line class="cls-1" x1="121.75" y1="547.29" x2="122.6" y2="548.4"/>
        <line class="cls-1" x1="237.03" y1="590.14" x2="235.68" y2="589.84"/>
        <line class="cls-1" x1="120.11" y1="518" x2="119.94" y2="519.99"/>
        <line class="cls-1" x1="680.9" y1="270.16" x2="680.57" y2="271.5"/>
        <line class="cls-1" x1="271.74" y1="349.58" x2="273.05" y2="349.08"/>
        <line class="cls-1" x1="547.77" y1="440.42" x2="549.99" y2="438.83"/>
        <line class="cls-1" x1="444.38" y1="256.75" x2="442.5" y2="257.56"/>
        <line class="cls-1" x1="251.83" y1="364" x2="250.25" y2="365.31"/>
        <path class="cls-1" d="M678.85,272.79c.18.83.4,1.66.55,2.65.14-.97.21-2.02.39-4.54-.34,1.55-.49,2.05-.6,2.55"/>
        <line class="cls-1" x1="657.72" y1="331.46" x2="654.66" y2="335.11"/>
        <path class="cls-1" d="M618.16,379.39c-.47.49-.95.96-1.44,1.43"/>
        <line class="cls-1" x1="553.16" y1="214.97" x2="553.99" y2="215.51"/>
        <line class="cls-1" x1="308.62" y1="323.61" x2="309.96" y2="323.17"/>
        <path class="cls-1" d="M603.36,210.31c-.45.07-.9.16-1.36.25"/>
        <line class="cls-1" x1="571.03" y1="419.17" x2="574.55" y2="417.07"/>
        <line class="cls-1" x1="239.87" y1="587.12" x2="242.61" y2="586.73"/>
        <line class="cls-1" x1="516.25" y1="229.5" x2="513.26" y2="231.27"/>
        <line class="cls-1" x1="659.02" y1="329.08" x2="659.54" y2="327.81"/>
        <path class="cls-1" d="M606.75,210.6c1.13-.09,2.27-.24,3.75-.31.35.2.67.39.99.57"/>
        <line class="cls-1" x1="235.12" y1="586.82" x2="233.1" y2="586.37"/>
        <line class="cls-1" x1="185.89" y1="586.19" x2="187.3" y2="586.08"/>
        <line class="cls-1" x1="181.84" y1="585.4" x2="180.57" y2="584.76"/>
        <line class="cls-1" x1="118.76" y1="531.28" x2="119.14" y2="532.59"/>
        <line class="cls-1" x1="631.45" y1="364.94" x2="631.27" y2="363.88"/>
        <path class="cls-1" d="M683.25,281.26c-.05-.24-.09-.56-.16-.68-.02-.04-.13.41-.19.63"/>
        <line class="cls-1" x1="150.47" y1="461.61" x2="149.47" y2="463.42"/>
        <line class="cls-1" x1="671.41" y1="232.03" x2="670.22" y2="231.17"/>
        <polyline class="cls-1" points="375.59 290.99 376.44 290 377.64 289.12 379.15 289"/>
        <line class="cls-1" x1="510" y1="467.42" x2="508.16" y2="468.35"/>
        <line class="cls-1" x1="666.1" y1="316.1" x2="665.05" y2="317.81"/>
        <path class="cls-1" d="M221.59,392.85c1.15-.73,2.3-1.48,3.47-2.19"/>
        <line class="cls-1" x1="264.32" y1="591.76" x2="262.96" y2="591.51"/>
        <path class="cls-1" d="M441.78,259.32c.43-.31.87-.62,1.31-.94-.87.26-1.52.46-2.18.66"/>
        <path class="cls-1" d="M266.4,588.89c.23-.08.53-.15.64-.24.04-.03-.41-.08-.64-.12"/>
        <path class="cls-1" d="M463.58,249.78c-.18.16-.39.32-.53.47-.06.06.02.08.03.12"/>
        <path class="cls-1" d="M644.69,351.29c.07-.23.19-.52.19-.66,0-.05-.31.28-.47.44"/>
        <line class="cls-1" x1="649.77" y1="340.73" x2="648.56" y2="342.34"/>
        <line class="cls-1" x1="156.1" y1="458.31" x2="154.81" y2="459.89"/>
        <path class="cls-1" d="M141.25,567.81c.26.36.52.73,1,1.4,1.03.31,1.75.51,2.5.68-.79-.44-1.54-.94-2.29-1.44"/>
        <path class="cls-1" d="M681.56,261.29c-.19.35-.38.71-.74,1.37.27.38.38.55.5.72"/>
        <path class="cls-1" d="M633.78,366.11c-3.42,2.73-6.79,5.49-10.35,8.02"/>
        <path class="cls-1" d="M319.51,587.21c0-.12.03-.24-.07-.36,0,0-.22,0-.48.01-.27.01-.59.02-.82.03"/>
        <path class="cls-1" d="M428.19,263.88c-1.64.78-3.27,1.56-4.81,2.3-.72.09-1.48.18-2.25.27"/>
        <line class="cls-1" x1="585.28" y1="206.67" x2="587.39" y2="206.83"/>
        <polyline class="cls-1" points="586.01 206.96 585.5 207.35 586.58 207.3 587.39 206.83"/>
        <line class="cls-1" x1="153.72" y1="450.12" x2="154.09" y2="450.43"/>
        <path class="cls-1" d="M320.85,586.8c2.29-.28,4.57-.55,7.08-.86,1.06,0,2.42.02,3.78.03"/>
        <line class="cls-1" x1="653.73" y1="336.92" x2="654.66" y2="335.11"/>
        <line class="cls-1" x1="128.64" y1="552.49" x2="130.28" y2="553.66"/>
        <line class="cls-1" x1="528.39" y1="456.83" x2="529.95" y2="455.48"/>
        <path class="cls-1" d="M549.64,441.88c-.17.36-.33.71-.64,1.38-.42.05-.62.08-.83.11"/>
        <line class="cls-1" x1="246.55" y1="591.88" x2="241.79" y2="590.91"/>
        <line class="cls-1" x1="649.44" y1="342.16" x2="647.84" y2="343.49"/>
        <path class="cls-1" d="M409.99,273.15c-.36.3-.71.61-1.05.9-1.54.97-2.65.17-4.36,1.96"/>
        <line class="cls-1" x1="480.44" y1="573.2" x2="483.76" y2="572.32"/>
        <line class="cls-1" x1="562.04" y1="217.44" x2="564.08" y2="217.3"/>
        <line class="cls-1" x1="508.45" y1="227.72" x2="508.6" y2="228.17"/>
        <path class="cls-1" d="M628.54,369.62c-.16,0-.32,0-.58-.02.07-.14.29-.56.5-.98"/>
        <path class="cls-1" d="M222.08,384.75c-.69.64-1.37,1.28-2.58,2.39,1.31-.92,2.09-1.47,2.88-2.02"/>
      </g>
    </g>
  </g>
</svg>